<?xml version="1.0" encoding="UTF-8" standalone="no"?><!DOCTYPE svg PUBLIC "-//W3C//DTD SVG 1.1//EN" "http://www.w3.org/Graphics/SVG/1.1/DTD/svg11.dtd"><svg width="100%" height="100%" viewBox="0 0 260 260" version="1.1" xmlns="http://www.w3.org/2000/svg" xmlns:xlink="http://www.w3.org/1999/xlink" xml:space="preserve" style="fill-rule:evenodd;clip-rule:evenodd;stroke-linejoin:round;stroke-miterlimit:1.41421;"><rect id="アートボード2" x="-550.831" y="0" width="1767.64" height="1137.38" style="fill:none;"/><g></g><g></g><path d="M130.299,1.261c0.83,0.004 1.66,0.013 2.489,0.031c1.512,0.034 3.024,0.093 4.533,0.18c4.602,0.262 9.19,0.77 13.738,1.523c4.991,0.828 9.932,1.95 14.789,3.363c5.666,1.646 11.216,3.688 16.6,6.102c6.621,2.969 12.987,6.503 19.012,10.547c5.985,4.018 11.633,8.538 16.865,13.497c4.854,4.601 9.35,9.577 13.436,14.872c4.576,5.931 8.634,12.262 12.11,18.898c2.966,5.663 5.507,11.548 7.594,17.59c1.945,5.633 3.494,11.403 4.635,17.252c1.534,7.871 2.324,15.885 2.374,23.903c0.039,6.291 -0.373,12.585 -1.245,18.815c-0.96,6.86 -2.477,13.642 -4.534,20.256c-1.864,5.997 -4.174,11.854 -6.9,17.512c-3.535,7.34 -7.775,14.34 -12.635,20.879c-4.296,5.781 -9.078,11.202 -14.277,16.187c-5.389,5.168 -11.224,9.868 -17.423,14.029c-6.999,4.698 -14.461,8.706 -22.245,11.942c-8.169,3.397 -16.69,5.94 -25.384,7.577c-7.891,1.486 -15.919,2.226 -23.948,2.226c-8.162,0 -16.324,-0.765 -24.341,-2.301c-8.557,-1.64 -16.944,-4.157 -24.989,-7.502c-7.188,-2.988 -14.101,-6.635 -20.629,-10.875c-6.802,-4.418 -13.185,-9.481 -19.039,-15.096c-5.756,-5.521 -11,-11.575 -15.643,-18.061c-4.292,-5.996 -8.067,-12.362 -11.268,-19.005c-3.07,-6.37 -5.61,-12.995 -7.584,-19.785c-1.713,-5.892 -2.999,-11.907 -3.85,-17.983c-0.834,-5.955 -1.247,-11.97 -1.247,-17.983c0,-8.296 0.79,-16.591 2.377,-24.734c1.189,-6.108 2.826,-12.128 4.894,-17.997c1.907,-5.414 4.18,-10.699 6.797,-15.809c3.534,-6.899 7.695,-13.477 12.412,-19.628c4.225,-5.512 8.896,-10.681 13.951,-15.444c5.341,-5.032 11.111,-9.608 17.229,-13.662c5.833,-3.865 11.982,-7.254 18.368,-10.117c5.383,-2.414 10.933,-4.456 16.598,-6.102c4.858,-1.412 9.799,-2.535 14.789,-3.363c4.548,-0.753 9.136,-1.261 13.738,-1.523c1.509,-0.087 3.021,-0.146 4.533,-0.18c0.829,-0.018 1.659,-0.027 2.488,-0.031c0.278,-0.001 0.555,-0.001 0.832,0Zm-0.827,1.355c-0.821,0.003 -1.642,0.013 -2.463,0.031c-1.496,0.033 -2.992,0.092 -4.486,0.177c-4.554,0.26 -9.093,0.762 -13.593,1.508c-4.938,0.818 -9.826,1.929 -14.632,3.327c-5.606,1.629 -11.097,3.649 -16.423,6.037c-6.318,2.833 -12.402,6.186 -18.174,10.011c-6.053,4.011 -11.763,8.539 -17.048,13.518c-5.002,4.713 -9.624,9.828 -13.805,15.282c-4.667,6.087 -8.784,12.595 -12.281,19.422c-2.589,5.055 -4.838,10.284 -6.725,15.641c-2.046,5.807 -3.666,11.763 -4.843,17.806c-1.569,8.058 -2.352,16.266 -2.352,24.475c0,5.951 0.409,11.902 1.235,17.795c0.842,6.012 2.114,11.963 3.809,17.792c1.953,6.718 4.466,13.273 7.503,19.576c3.168,6.573 6.903,12.871 11.15,18.804c4.594,6.418 9.783,12.409 15.479,17.872c5.792,5.556 12.108,10.566 18.839,14.937c6.459,4.196 13.299,7.805 20.411,10.761c7.96,3.31 16.258,5.8 24.724,7.422c7.933,1.52 16.009,2.277 24.086,2.277c7.945,0 15.889,-0.732 23.697,-2.202c8.602,-1.621 17.033,-4.136 25.115,-7.497c7.702,-3.202 15.085,-7.167 22.01,-11.816c6.134,-4.118 11.908,-8.769 17.241,-13.882c5.144,-4.933 9.875,-10.297 14.127,-16.018c4.808,-6.47 9.003,-13.396 12.502,-20.658c2.696,-5.598 4.982,-11.393 6.826,-17.326c2.035,-6.544 3.537,-13.254 4.486,-20.042c0.863,-6.165 1.271,-12.393 1.232,-18.618c-0.049,-7.934 -0.831,-15.864 -2.349,-23.652c-1.128,-5.788 -2.661,-11.496 -4.586,-17.07c-2.064,-5.978 -4.579,-11.8 -7.513,-17.403c-3.44,-6.566 -7.455,-12.83 -11.983,-18.699c-4.043,-5.24 -8.492,-10.164 -13.295,-14.717c-5.177,-4.907 -10.765,-9.38 -16.688,-13.355c-5.961,-4.002 -12.261,-7.498 -18.812,-10.436c-5.326,-2.388 -10.817,-4.408 -16.423,-6.037c-4.806,-1.398 -9.695,-2.509 -14.633,-3.327c-4.499,-0.746 -9.039,-1.248 -13.593,-1.508c-1.494,-0.085 -2.99,-0.144 -4.486,-0.177c-0.821,-0.018 -1.642,-0.028 -2.463,-0.031c-0.274,-0.001 -0.549,-0.001 -0.823,0Zm0.81,3.637c0.797,0.004 1.595,0.013 2.392,0.031c1.453,0.032 2.906,0.089 4.357,0.172c4.424,0.252 8.834,0.74 13.205,1.465c5.672,0.94 11.278,2.277 16.763,4.002c4.563,1.435 9.042,3.138 13.407,5.095c6.703,3.005 13.135,6.614 19.198,10.763c5.615,3.843 10.912,8.149 15.823,12.859c5.623,5.392 10.737,11.314 15.252,17.663c3.239,4.556 6.171,9.332 8.765,14.284c2.91,5.555 5.394,11.332 7.422,17.265c1.854,5.423 3.326,10.975 4.405,16.603c1.427,7.444 2.162,15.018 2.209,22.597c0.038,6.047 -0.359,12.095 -1.197,18.084c-0.834,5.966 -2.107,11.871 -3.807,17.65c-1.882,6.399 -4.287,12.643 -7.182,18.652c-3.023,6.274 -6.58,12.289 -10.615,17.965c-4.515,6.349 -9.629,12.271 -15.252,17.663c-5.269,5.053 -10.982,9.641 -17.056,13.691c-6.638,4.427 -13.705,8.21 -21.072,11.272c-7.852,3.265 -16.042,5.709 -24.399,7.283c-7.584,1.429 -15.301,2.14 -23.018,2.14c-7.717,0 -15.433,-0.711 -23.017,-2.14c-8.356,-1.574 -16.545,-4.018 -24.397,-7.283c-7.367,-3.062 -14.433,-6.845 -21.071,-11.272c-6.074,-4.05 -11.787,-8.639 -17.056,-13.691c-5.444,-5.22 -10.411,-10.938 -14.819,-17.059c-4.214,-5.852 -7.917,-12.072 -11.047,-18.569c-2.51,-5.21 -4.652,-10.596 -6.404,-16.107c-2.094,-6.586 -3.628,-13.35 -4.586,-20.195c-0.838,-5.989 -1.234,-12.037 -1.196,-18.084c0.048,-7.707 0.807,-15.41 2.282,-22.975c1.047,-5.375 2.454,-10.679 4.209,-15.866c2.091,-6.177 4.675,-12.187 7.718,-17.955c2.783,-5.272 5.947,-10.343 9.461,-15.159c4.298,-5.894 9.117,-11.408 14.382,-16.457c5.269,-5.053 10.982,-9.642 17.056,-13.692c5.699,-3.801 11.714,-7.127 17.964,-9.93c4.596,-2.061 9.318,-3.839 14.132,-5.321c5.253,-1.616 10.615,-2.878 16.037,-3.776c4.37,-0.725 8.78,-1.213 13.203,-1.465c1.451,-0.083 2.904,-0.14 4.357,-0.172c0.797,-0.018 1.595,-0.027 2.392,-0.031c0.267,0 0.533,0 0.8,0Zm-0.796,1.302c-0.789,0.004 -1.578,0.013 -2.367,0.03c-1.438,0.032 -2.876,0.089 -4.312,0.171c-4.376,0.25 -8.74,0.732 -13.064,1.449c-5.365,0.889 -10.67,2.138 -15.868,3.737c-4.762,1.465 -9.434,3.225 -13.981,5.264c-6.185,2.773 -12.136,6.065 -17.775,9.825c-6.01,4.008 -11.663,8.548 -16.877,13.548c-5.21,4.997 -9.978,10.453 -14.232,16.285c-3.476,4.765 -6.607,9.783 -9.36,15c-3.011,5.706 -5.568,11.652 -7.636,17.764c-1.737,5.132 -3.129,10.38 -4.165,15.698c-1.459,7.486 -2.211,15.108 -2.258,22.734c-0.038,5.984 0.355,11.969 1.184,17.896c0.947,6.772 2.465,13.464 4.537,19.981c1.733,5.452 3.852,10.782 6.336,15.936c3.097,6.429 6.761,12.583 10.931,18.374c4.361,6.056 9.276,11.714 14.663,16.879c5.214,5 10.867,9.541 16.877,13.548c6.568,4.38 13.559,8.123 20.849,11.153c7.768,3.23 15.871,5.648 24.138,7.206c7.505,1.413 15.14,2.117 22.776,2.117c7.636,0 15.272,-0.704 22.777,-2.117c8.268,-1.558 16.371,-3.976 24.14,-7.206c7.29,-3.03 14.281,-6.773 20.85,-11.153c6.01,-4.008 11.663,-8.548 16.877,-13.548c5.564,-5.335 10.625,-11.195 15.091,-17.477c3.993,-5.616 7.513,-11.568 10.504,-17.776c2.864,-5.945 5.244,-12.123 7.106,-18.454c1.682,-5.718 2.941,-11.56 3.767,-17.463c0.829,-5.927 1.221,-11.912 1.184,-17.896c-0.047,-7.499 -0.774,-14.994 -2.186,-22.36c-1.067,-5.568 -2.524,-11.061 -4.358,-16.427c-2.006,-5.87 -4.464,-11.586 -7.343,-17.082c-2.567,-4.9 -5.468,-9.625 -8.674,-14.134c-4.467,-6.282 -9.528,-12.142 -15.091,-17.478c-4.86,-4.66 -10.101,-8.921 -15.658,-12.724c-5.998,-4.105 -12.362,-7.676 -18.995,-10.649c-4.318,-1.937 -8.749,-3.621 -13.264,-5.041c-5.427,-1.706 -10.974,-3.03 -16.586,-3.96c-4.325,-0.717 -8.689,-1.2 -13.066,-1.449c-1.436,-0.082 -2.874,-0.139 -4.312,-0.171c-0.789,-0.017 -1.578,-0.026 -2.367,-0.03c-0.264,0 -0.528,0 -0.792,0Zm-8.61,229.099l-0.05,0.55l-0.863,-0.012l-0.246,0.169l-0.666,7.385l0.212,0.21l0.851,0.156l-0.048,0.537l-3.405,-0.307l0.049,-0.536l0.864,-0.002l0.247,-0.169l0.665,-7.384l-0.212,-0.211l-0.852,-0.143l0.05,-0.55l3.404,0.307Zm24.822,-0.718l0.061,0.549l-0.751,0.148l-0.208,0.215l0.808,7.37l0.25,0.164l0.766,-0.005l0.059,0.536l-6.41,0.703l-0.214,-1.954l0.751,-0.082l0.314,1.116l0.206,0.183l3.097,-0.34l-0.371,-3.385l-2.196,0.241l-0.169,0.21l-0.023,0.988l-0.634,0.07l-0.323,-2.947l0.633,-0.069l0.237,0.952l0.212,0.182l2.195,-0.241l-0.411,-3.75l-3.587,0.393l-0.166,0.237l-0.08,1.377l-0.693,0.076l-0.239,-2.182l6.886,-0.755Zm-29.95,0.513l-0.355,2.339l-0.786,-0.119l0.076,-1.551l-0.141,-0.254c-0.18,-0.129 -0.392,-0.239 -0.635,-0.329c-0.244,-0.09 -0.513,-0.158 -0.807,-0.203c-0.62,-0.094 -1.132,-0.024 -1.538,0.209c-0.405,0.233 -0.645,0.595 -0.719,1.084c-0.104,0.68 0.44,1.388 1.632,2.123c0.129,0.081 0.229,0.143 0.298,0.185c0.849,0.532 1.396,0.991 1.639,1.375c0.243,0.385 0.323,0.848 0.241,1.39c-0.116,0.762 -0.49,1.336 -1.122,1.721c-0.633,0.385 -1.413,0.507 -2.34,0.366c-0.372,-0.056 -0.741,-0.145 -1.106,-0.264c-0.366,-0.12 -0.734,-0.272 -1.104,-0.457l0.312,-2.06l0.696,0.105l0.009,1.298l0.161,0.251c0.155,0.121 0.328,0.219 0.52,0.295c0.193,0.076 0.406,0.131 0.64,0.167c0.554,0.084 1.016,0.007 1.385,-0.232c0.368,-0.239 0.59,-0.605 0.665,-1.099c0.055,-0.36 -0.014,-0.675 -0.205,-0.945c-0.192,-0.271 -0.656,-0.633 -1.394,-1.086c-0.069,-0.042 -0.173,-0.102 -0.312,-0.181c-0.729,-0.421 -1.24,-0.826 -1.531,-1.216c-0.166,-0.22 -0.279,-0.461 -0.339,-0.723c-0.06,-0.262 -0.067,-0.538 -0.023,-0.828c0.121,-0.802 0.534,-1.4 1.236,-1.797c0.703,-0.396 1.575,-0.515 2.614,-0.357c0.464,0.07 0.895,0.173 1.293,0.309c0.398,0.136 0.745,0.297 1.04,0.484Zm38.006,7.195c-1.548,0.305 -2.824,0.156 -3.827,-0.448c-1.003,-0.604 -1.644,-1.609 -1.921,-3.014c-0.154,-0.783 -0.153,-1.506 0.005,-2.169c0.157,-0.663 0.468,-1.254 0.933,-1.775c0.329,-0.368 0.724,-0.664 1.185,-0.887c0.461,-0.222 1.087,-0.411 1.878,-0.567l3.256,-0.643l0.107,0.542l-0.735,0.212l-0.189,0.232l1.434,7.274l0.263,0.142l0.763,-0.07l0.104,0.529l-3.256,0.642Zm-20.201,-3.903l-2.887,-3.804l-2.838,3.841l2.888,3.804l2.837,-3.841Zm-25.604,-4.553l-0.53,2.306l-0.775,-0.178l0.192,-1.541l-0.121,-0.264c-0.17,-0.142 -0.372,-0.267 -0.608,-0.375c-0.236,-0.109 -0.499,-0.196 -0.79,-0.263c-0.61,-0.14 -1.127,-0.11 -1.549,0.092c-0.422,0.202 -0.688,0.545 -0.799,1.027c-0.154,0.671 0.335,1.417 1.468,2.24c0.123,0.091 0.217,0.16 0.283,0.206c0.807,0.595 1.318,1.094 1.531,1.496c0.213,0.402 0.259,0.87 0.136,1.404c-0.173,0.751 -0.589,1.295 -1.249,1.631c-0.659,0.336 -1.446,0.399 -2.36,0.189c-0.367,-0.084 -0.729,-0.2 -1.084,-0.347c-0.355,-0.147 -0.71,-0.326 -1.066,-0.538l0.467,-2.031l0.685,0.158l-0.089,1.294l0.143,0.262c0.144,0.133 0.31,0.244 0.496,0.334c0.186,0.09 0.395,0.161 0.625,0.214c0.547,0.126 1.013,0.084 1.399,-0.127c0.385,-0.21 0.634,-0.559 0.746,-1.045c0.081,-0.355 0.037,-0.674 -0.134,-0.959c-0.171,-0.284 -0.607,-0.68 -1.308,-1.187c-0.066,-0.047 -0.165,-0.115 -0.298,-0.204c-0.695,-0.474 -1.173,-0.917 -1.434,-1.328c-0.149,-0.232 -0.244,-0.481 -0.284,-0.746c-0.04,-0.266 -0.027,-0.541 0.039,-0.828c0.181,-0.79 0.638,-1.356 1.368,-1.698c0.731,-0.342 1.609,-0.396 2.634,-0.16c0.457,0.105 0.879,0.24 1.265,0.406c0.387,0.165 0.721,0.352 1.001,0.56Zm46.782,7.634l-1.508,-7.648l-1.045,0.206c-1.204,0.237 -2.041,0.731 -2.511,1.483c-0.471,0.751 -0.579,1.77 -0.326,3.055c0.254,1.286 0.738,2.185 1.453,2.699c0.716,0.513 1.679,0.65 2.892,0.411l1.045,-0.206Zm-56.709,-0.962l-3.142,-1.008l0.164,-0.513l0.819,0.18l0.278,-0.112l1.488,-4.637c0.288,-0.897 0.316,-1.605 0.084,-2.124c-0.232,-0.518 -0.748,-0.906 -1.549,-1.163c-0.793,-0.254 -1.436,-0.236 -1.93,0.054c-0.493,0.29 -0.883,0.88 -1.168,1.769l-1.46,4.55l0.17,0.31l0.734,0.359l-0.165,0.514l-2.71,-0.87l0.165,-0.513l0.806,0.134l0.306,-0.157l1.496,-4.663c0.196,-0.613 0.391,-1.069 0.583,-1.366c0.192,-0.297 0.427,-0.535 0.705,-0.713c0.352,-0.222 0.789,-0.346 1.309,-0.37c0.521,-0.024 1.074,0.058 1.658,0.246c0.588,0.188 1.086,0.444 1.494,0.765c0.407,0.322 0.689,0.676 0.846,1.062c0.126,0.312 0.18,0.642 0.162,0.991c-0.017,0.349 -0.125,0.832 -0.323,1.45l-1.525,4.75l0.161,0.252l0.708,0.31l-0.164,0.513Zm65.193,-0.455l-0.853,0.246l-5.441,-7.198l-0.822,0.067l-0.154,-0.531l2.937,-0.849l0.153,0.531l-0.784,0.295l-0.041,0.21l1.648,2.199l3.05,-0.882l0.208,-2.736l-0.186,-0.144l-0.858,0.179l-0.153,-0.53l2.532,-0.732l0.153,0.53l-0.699,0.374l-0.69,8.971Zm-0.595,-1.299l0.238,-3.956l-2.607,0.754l2.369,3.202Zm13.066,-3.203l-3.205,1.225c-1.028,0.393 -1.86,0.499 -2.497,0.317c-0.636,-0.181 -1.101,-0.654 -1.394,-1.419c-0.208,-0.545 -0.209,-1.057 -0.003,-1.537c0.206,-0.48 0.619,-0.922 1.238,-1.328c-0.348,0.035 -0.655,0.024 -0.92,-0.032c-0.265,-0.055 -0.498,-0.162 -0.699,-0.32c-0.226,-0.172 -0.471,-0.457 -0.735,-0.855c-0.265,-0.399 -0.454,-0.659 -0.566,-0.78c-0.258,-0.295 -0.522,-0.463 -0.79,-0.504c-0.269,-0.04 -0.663,0.039 -1.183,0.238l-0.111,0.042l-0.183,-0.479c0.174,-0.109 0.338,-0.203 0.49,-0.282c0.153,-0.08 0.301,-0.147 0.444,-0.201c0.291,-0.112 0.551,-0.177 0.78,-0.197c0.23,-0.019 0.439,0.005 0.63,0.073c0.399,0.148 0.842,0.565 1.329,1.251c0.179,0.246 0.316,0.428 0.413,0.546c0.363,0.448 0.725,0.715 1.084,0.803c0.36,0.088 0.828,0.021 1.405,-0.199c0.123,-0.047 0.317,-0.128 0.583,-0.244l0.04,-0.022l-1.142,-2.991l-0.283,-0.095l-0.742,0.213l-0.197,-0.516l2.99,-1.143l0.197,0.516l-0.689,0.334l-0.147,0.26l2.647,6.926l0.283,0.095l0.74,-0.198l0.193,0.503Zm-84.258,-6.732l-0.212,0.51l-0.729,-0.233l-0.286,0.088l-2.853,6.843l0.139,0.265l0.673,0.366l-0.207,0.497l-5.952,-2.481l0.757,-1.814l0.697,0.291l-0.264,1.129l0.092,0.259l2.875,1.199l1.311,-3.143l-2.039,-0.85l-0.249,0.103l-0.498,0.853l-0.589,-0.245l1.141,-2.736l0.588,0.245l-0.253,0.948l0.098,0.262l2.038,0.85l1.452,-3.483l-3.331,-1.388l-0.259,0.127l-0.736,1.167l-0.643,-0.268l0.845,-2.027l6.394,2.666Zm81.98,6.941l-1.339,-3.506c-0.129,0.045 -0.251,0.088 -0.366,0.13c-0.116,0.041 -0.226,0.083 -0.333,0.123c-0.778,0.298 -1.291,0.651 -1.54,1.06c-0.25,0.41 -0.258,0.918 -0.027,1.524c0.239,0.626 0.595,1.011 1.067,1.154c0.473,0.143 1.116,0.059 1.931,-0.252l0.607,-0.233Zm10.809,-4.275l-6.843,3.318l-0.903,-1.863l0.668,-0.324l0.71,1.043l0.261,0.101l1.851,-0.898l-3.319,-6.843l-0.284,-0.074l-0.845,0.337l-0.241,-0.497l3.164,-1.534l0.241,0.496l-0.781,0.452l-0.124,0.272l3.319,6.843l1.851,-0.898l0.082,-0.266l-0.373,-1.207l0.662,-0.321l0.904,1.863Zm-107.436,0.651c-1.4,-0.726 -2.304,-1.639 -2.711,-2.736c-0.408,-1.098 -0.282,-2.283 0.378,-3.555c0.368,-0.708 0.82,-1.272 1.356,-1.692c0.537,-0.42 1.149,-0.689 1.836,-0.806c0.488,-0.082 0.981,-0.067 1.48,0.046c0.499,0.114 1.106,0.356 1.822,0.728l2.946,1.529l-0.254,0.49l-0.707,-0.293l-0.292,0.063l-3.416,6.581l0.117,0.275l0.64,0.421l-0.248,0.479l-2.947,-1.53Zm1.277,-0.033l3.591,-6.919l-0.945,-0.491c-1.089,-0.565 -2.052,-0.701 -2.888,-0.407c-0.837,0.295 -1.557,1.023 -2.16,2.186c-0.604,1.163 -0.786,2.168 -0.547,3.015c0.239,0.848 0.907,1.556 2.004,2.125l0.945,0.491Zm108.851,-12.604l0.279,0.476l-0.625,0.442l-0.102,0.281l3.748,6.397l0.295,0.048l0.794,-0.374l0.273,0.466l-2.649,1.551c-1.164,0.683 -2.101,0.985 -2.809,0.907c-0.708,-0.077 -1.311,-0.54 -1.807,-1.387c-0.443,-0.756 -0.526,-1.52 -0.249,-2.291c0.276,-0.772 0.874,-1.427 1.793,-1.965c0.094,-0.055 0.213,-0.118 0.354,-0.189c0.142,-0.07 0.324,-0.158 0.547,-0.263l-1.334,-2.289l-0.294,-0.048l-0.862,0.429l-0.279,-0.477l2.927,-1.714Zm-56.698,-192.135c1.734,0.008 3.468,0.055 5.199,0.148c3.623,0.195 7.235,0.583 10.815,1.165c4.134,0.672 8.226,1.601 12.244,2.783c4.352,1.28 8.617,2.856 12.756,4.712c4.93,2.211 9.68,4.819 14.193,7.789c5.075,3.34 9.848,7.138 14.245,11.33c4.467,4.258 8.546,8.924 12.168,13.921c3.162,4.364 5.977,8.98 8.405,13.791c1.988,3.941 3.718,8.012 5.171,12.18c1.612,4.623 2.885,9.363 3.807,14.172c1.269,6.626 1.868,13.378 1.805,20.125c-0.042,4.402 -0.366,8.803 -0.977,13.163c-0.626,4.47 -1.551,8.898 -2.771,13.244c-1.587,5.655 -3.671,11.17 -6.222,16.46c-2.606,5.408 -5.696,10.581 -9.218,15.441c-3.563,4.916 -7.567,9.51 -11.948,13.712c-4.751,4.557 -9.945,8.651 -15.487,12.203c-4.983,3.195 -10.247,5.952 -15.713,8.224c-6.134,2.55 -12.52,4.489 -19.035,5.779c-6.505,1.289 -13.134,1.931 -19.765,1.931c-6.525,0 -13.05,-0.622 -19.455,-1.87c-6.623,-1.29 -13.114,-3.25 -19.345,-5.84c-5.748,-2.389 -11.271,-5.314 -16.481,-8.72c-5.254,-3.436 -10.188,-7.361 -14.719,-11.707c-4.234,-4.062 -8.117,-8.49 -11.589,-13.22c-3.672,-5.003 -6.883,-10.343 -9.577,-15.933c-2.279,-4.729 -4.187,-9.637 -5.7,-14.665c-1.479,-4.919 -2.58,-9.952 -3.292,-15.039c-0.641,-4.576 -0.967,-9.196 -0.981,-13.817c-0.02,-6.529 0.58,-13.058 1.809,-19.471c0.941,-4.91 2.248,-9.749 3.909,-14.464c1.534,-4.355 3.369,-8.603 5.486,-12.706c2.61,-5.057 5.649,-9.892 9.071,-14.44c3.345,-4.445 7.057,-8.615 11.084,-12.454c3.956,-3.772 8.217,-7.225 12.728,-10.312c4.877,-3.337 10.045,-6.247 15.429,-8.681c4.133,-1.868 8.391,-3.456 12.738,-4.75c4.114,-1.224 8.307,-2.183 12.543,-2.871c3.368,-0.547 6.764,-0.923 10.17,-1.128c1.838,-0.111 3.678,-0.169 5.518,-0.183c0.327,-0.002 0.654,-0.002 0.982,-0.002Zm56.874,196.792c-0.225,0.102 -0.397,0.181 -0.518,0.24c-0.121,0.058 -0.218,0.108 -0.289,0.15c-0.662,0.388 -1.067,0.851 -1.216,1.39c-0.149,0.539 -0.036,1.128 0.338,1.767c0.361,0.617 0.807,0.968 1.337,1.053c0.53,0.086 1.169,-0.091 1.918,-0.529c0.159,-0.093 0.28,-0.167 0.363,-0.22c0.082,-0.054 0.159,-0.107 0.231,-0.159l-2.164,-3.692Zm-57.525,-195.727c-1.717,0.008 -3.433,0.054 -5.147,0.146c-3.584,0.194 -7.158,0.578 -10.701,1.153c-4.192,0.681 -8.34,1.63 -12.41,2.841c-4.204,1.251 -8.324,2.78 -12.326,4.575c-5.427,2.433 -10.635,5.355 -15.543,8.714c-4.464,3.055 -8.68,6.471 -12.595,10.204c-3.985,3.798 -7.658,7.925 -10.968,12.324c-3.386,4.499 -6.393,9.283 -8.975,14.287c-2.095,4.06 -3.911,8.263 -5.428,12.572c-1.644,4.665 -2.937,9.453 -3.868,14.31c-1.216,6.346 -1.81,12.807 -1.79,19.268c0.014,4.572 0.336,9.144 0.97,13.672c0.705,5.034 1.794,10.013 3.258,14.88c1.497,4.975 3.385,9.831 5.64,14.51c2.665,5.531 5.842,10.815 9.475,15.764c3.436,4.681 7.278,9.063 11.469,13.083c4.483,4.3 9.365,8.184 14.564,11.583c5.155,3.371 10.62,6.265 16.307,8.629c6.164,2.562 12.587,4.501 19.14,5.778c6.338,1.235 12.794,1.85 19.251,1.85c6.561,0 13.122,-0.635 19.558,-1.91c6.446,-1.278 12.764,-3.196 18.833,-5.718c5.408,-2.249 10.617,-4.976 15.548,-8.137c5.483,-3.516 10.623,-7.566 15.323,-12.075c4.335,-4.159 8.298,-8.705 11.823,-13.569c3.486,-4.809 6.543,-9.928 9.122,-15.278c2.523,-5.235 4.585,-10.691 6.156,-16.286c1.207,-4.3 2.122,-8.681 2.741,-13.104c0.605,-4.315 0.926,-8.669 0.967,-13.025c0.063,-6.676 -0.53,-13.357 -1.786,-19.915c-0.912,-4.757 -2.172,-9.447 -3.767,-14.021c-1.438,-4.124 -3.149,-8.152 -5.116,-12.051c-2.402,-4.761 -5.187,-9.328 -8.317,-13.646c-3.584,-4.945 -7.619,-9.561 -12.04,-13.775c-4.351,-4.148 -9.074,-7.906 -14.095,-11.211c-4.381,-2.883 -8.988,-5.422 -13.766,-7.583c-4.182,-1.89 -8.495,-3.491 -12.898,-4.786c-3.775,-1.11 -7.616,-1.996 -11.496,-2.651c-3.535,-0.597 -7.102,-1.004 -10.681,-1.219c-1.819,-0.109 -3.64,-0.167 -5.461,-0.181c-0.324,-0.002 -0.648,-0.002 -0.971,-0.002Zm3.848,190.751l-0.559,0c-0.84,2.754 -1.735,5.691 -2.563,8.394l-0.791,0.002c-0.847,-2.762 -1.707,-5.575 -2.556,-8.352l-0.577,-0.004l0,-0.941c0.929,0 1.863,0.018 2.818,0.018l0,0.927l-1.27,0l0.605,1.985l2.746,0l0.619,-2.029l-1.118,0l0,-0.927l2.646,0l0,0.927Zm66.019,2.688l-2.57,1.785l-0.307,-0.442l0.586,-0.504l0.028,-0.203l-3.807,-1.862l0.194,4.243l0.212,0.085l0.757,-0.349l0.307,0.442l-2.256,1.568l-0.308,-0.443l0.578,-0.609l-0.258,-5.279l-1.728,-2.489l-0.287,-0.033l-0.788,0.467l-0.315,-0.453l2.861,-1.988l0.315,0.454l-0.713,0.575l-0.069,0.28l1.627,2.343l4.884,2.331l0.749,-0.361l0.308,0.442Zm-132.786,4.49l-2.824,-1.948c-0.855,-0.59 -1.39,-1.177 -1.604,-1.761c-0.214,-0.585 -0.113,-1.18 0.305,-1.786c0.289,-0.418 0.665,-0.677 1.129,-0.774c0.464,-0.098 1.013,-0.035 1.646,0.189c-0.644,-0.455 -1.04,-0.964 -1.187,-1.526c-0.147,-0.562 -0.031,-1.119 0.35,-1.671c0.485,-0.703 1.104,-1.07 1.856,-1.099c0.753,-0.029 1.598,0.279 2.535,0.926l2.922,2.016l-0.313,0.454l-0.665,-0.379l-0.298,0.027l-4.21,6.103l0.081,0.287l0.583,0.498l-0.306,0.444Zm64.34,-4.224l-2.183,0l1.093,3.57l1.09,-3.57Zm-63.836,-0.396c-0.045,-0.036 -0.096,-0.075 -0.154,-0.118c-0.059,-0.043 -0.144,-0.103 -0.256,-0.18c-0.699,-0.482 -1.298,-0.713 -1.794,-0.691c-0.497,0.022 -0.929,0.298 -1.294,0.828c-0.311,0.451 -0.393,0.894 -0.246,1.328c0.148,0.435 0.525,0.861 1.131,1.279c0.054,0.037 0.153,0.099 0.298,0.186c0.145,0.087 0.264,0.16 0.357,0.218l1.958,-2.85Zm-7.399,-0.169l-2.428,-1.974l0.34,-0.418l0.646,0.424l0.203,-0.03l0.732,-4.174l-4.022,1.364l-0.024,0.227l0.547,0.63l-0.34,0.419l-2.132,-1.733l0.339,-0.418l0.746,0.385l5,-1.713l1.911,-2.351l-0.048,-0.285l-0.668,-0.627l0.349,-0.429l2.703,2.198l-0.348,0.428l-0.751,-0.525l-0.288,0.011l-1.799,2.214l-0.883,5.338l0.555,0.62l-0.34,0.419Zm9.825,-3.348c-0.126,-0.102 -0.249,-0.199 -0.368,-0.289c-0.119,-0.09 -0.236,-0.175 -0.351,-0.254c-0.758,-0.523 -1.395,-0.778 -1.913,-0.764c-0.517,0.013 -0.965,0.293 -1.343,0.842c-0.346,0.501 -0.453,0.978 -0.321,1.431c0.132,0.453 0.507,0.893 1.123,1.318c0.145,0.1 0.312,0.206 0.503,0.319c0.191,0.113 0.402,0.233 0.633,0.361l2.037,-2.964Zm136.453,-1.699l-2.664,2.162c-0.854,0.693 -1.612,1.052 -2.274,1.078c-0.661,0.026 -1.25,-0.279 -1.766,-0.915c-0.368,-0.453 -0.528,-0.939 -0.482,-1.459c0.047,-0.52 0.301,-1.069 0.763,-1.647c-0.32,0.141 -0.615,0.226 -0.884,0.256c-0.27,0.029 -0.524,0 -0.764,-0.087c-0.268,-0.093 -0.59,-0.288 -0.965,-0.584c-0.376,-0.296 -0.636,-0.485 -0.78,-0.565c-0.338,-0.2 -0.64,-0.278 -0.908,-0.233c-0.268,0.046 -0.618,0.244 -1.05,0.594l-0.092,0.075l-0.323,-0.398c0.131,-0.158 0.257,-0.298 0.378,-0.421c0.12,-0.123 0.24,-0.233 0.359,-0.33c0.241,-0.196 0.468,-0.339 0.68,-0.429c0.212,-0.09 0.419,-0.132 0.621,-0.127c0.425,0.017 0.976,0.275 1.653,0.775c0.246,0.179 0.433,0.309 0.562,0.391c0.484,0.312 0.911,0.454 1.28,0.425c0.369,-0.028 0.794,-0.237 1.273,-0.627c0.103,-0.082 0.262,-0.22 0.478,-0.412l0.032,-0.035l-2.017,-2.485l-0.299,-0.003l-0.638,0.433l-0.348,-0.429l2.485,-2.017l0.348,0.429l-0.55,0.532l-0.059,0.293l4.671,5.757l0.299,0.003l0.642,-0.419l0.339,0.419Zm-2.099,0.907l-2.364,-2.914c-0.109,0.082 -0.211,0.161 -0.308,0.236c-0.096,0.076 -0.189,0.15 -0.277,0.222c-0.647,0.524 -1.025,1.02 -1.134,1.487c-0.11,0.466 0.04,0.952 0.448,1.455c0.423,0.521 0.881,0.776 1.374,0.765c0.493,-0.011 1.079,-0.291 1.756,-0.841l0.505,-0.41Zm-73.338,-106.034c2.548,2.918 4.509,5.995 5.703,8.526c2.284,-3.367 6.201,-8.541 8.336,-11.393c9.449,-12.421 17.902,-22.781 27.375,-29.767c7.186,-5.436 15.524,-9.836 23.552,-9.836c3.91,0 6.358,1.55 7.51,2.588c1.389,1.293 2.429,3.105 1.87,3.625c-0.384,0.255 -0.886,-0.52 -2.48,-1.813c-0.915,-0.777 -3.064,-1.555 -4.715,-1.555c-2.266,0 -4.437,0.778 -6.252,2.848c-3.982,4.66 -10.08,15.791 -13.811,24.334c-4.138,9.086 -8.396,18.905 -12.592,28.983l52.885,0l0,1.267l-53.412,0c-5.517,13.296 -10.913,27.004 -15.772,40.04c1.569,-3.043 4.089,-5.894 6.418,-7.741c4.504,-3.901 13.652,-8.849 19.2,-7.95c3.45,0.598 4.651,2.85 4.051,5.7c-0.601,2.85 -3.152,5.102 -5.098,5.102c-2.553,0 -2.553,-2.1 -1.2,-4.352c1.647,-2.85 2.247,-4.646 0.448,-4.95c-1.649,-0.299 -5.099,1.951 -9.3,6.3c-4.048,4.051 -7.951,9.751 -8.4,13.353c-0.299,2.25 1.049,3.453 3.453,3.453c1.948,0 7.197,-0.904 13.799,-5.403c2.473,-1.697 5.629,-4.295 7.987,-6.325c1.849,-1.696 3.185,-2.73 5.361,-4.327c1.652,-1.203 4.499,-2.997 7.352,-4.502c4.347,-2.247 8.849,-4.198 12.899,-4.198l0.15,0c3.301,0 4.499,2.1 4.347,4.046c-0.296,3.904 -5.097,6.903 -9.596,9.155c-4.352,2.1 -9.452,3.899 -12.902,4.801c-0.598,1.201 -0.9,2.549 -0.9,3.45c0,2.248 1.201,3.451 3.448,3.451c1.951,0 7.051,-1.052 13.65,-5.551c2.855,-1.953 6.3,-4.653 9.155,-7.202c0.899,-0.75 1.348,-0.902 1.647,-0.598c0.301,0.446 -0.299,1.201 -1.199,1.948c-1.948,1.801 -6.748,5.703 -9.451,7.504c-6.303,4.2 -11.851,6.146 -16.948,6.146c-5.551,0 -8.102,-2.098 -7.95,-5.999c0.147,-3 1.498,-5.7 4.497,-9.3l-0.147,-0.149c-0.231,0.228 -0.77,0.728 -1.364,1.263c-0.167,0.166 -0.364,0.344 -0.587,0.535c-1.951,1.801 -6.151,5.403 -8.854,7.202c-5.246,3.6 -12.297,6.45 -17.398,6.45c-5.569,0 -8.273,-2.148 -8.115,-6.026c-0.061,0.006 -0.122,0.01 -0.185,0.014c-2.426,3.885 -4.274,5.698 -7.268,6.471c-5.79,1.557 -5.979,-1.81 -5.367,-3.625c0.433,-1.551 0.897,-2.846 1.192,-3.881c-1.398,-0.192 -3.163,-0.632 -5.022,-1.203l0,44.282l-1.267,0l0,-44.687c-2.778,-0.919 -5.622,-2.063 -7.651,-3.052c-4.803,-2.328 -10.171,-5.951 -13.212,-9.061c-7.002,6.991 -17.199,17.777 -36.342,19.589c-15.878,1.551 -29.992,-4.662 -31.671,-18.901l-0.028,-0.255c-1.07,-9.061 3.519,-15.534 8.842,-15.794c4.679,-0.517 7.957,2.848 8.534,7.768c0.46,3.881 -1.12,6.213 -3.699,8.801c-1.845,1.81 -3.278,3.625 -2.942,6.473c0.64,5.44 7.952,9.838 21.185,8.543c15.849,-1.813 23.651,-8.456 33.816,-18.294c-4.35,-4.32 -12.891,-15.618 -14.68,-28.514l-49.674,0l0,-1.267l49.528,0c-1.385,-15.269 6.666,-26.907 21.352,-26.653c6.481,0.302 12.274,4.169 16.642,8.727l0,-69.595l1.267,0l0,70.981Zm71.027,97.359c0.211,-0.418 0.453,-0.816 0.727,-1.195c0.274,-0.378 0.571,-0.723 0.892,-1.034c0.318,-0.308 0.647,-0.564 0.988,-0.766c0.341,-0.203 0.686,-0.351 1.034,-0.444c0.806,-0.208 1.614,-0.191 2.426,0.051c0.811,0.241 1.522,0.677 2.132,1.306c0.976,1.006 1.455,2.115 1.437,3.327c-0.019,1.211 -0.532,2.305 -1.538,3.281c-0.29,0.281 -0.621,0.549 -0.993,0.803c-0.373,0.255 -0.786,0.495 -1.238,0.72l-1.442,-1.486l0.538,-0.522l0.997,0.736l0.297,0.051c0.268,-0.095 0.51,-0.207 0.726,-0.337c0.216,-0.13 0.415,-0.284 0.597,-0.461c0.73,-0.708 1.068,-1.517 1.013,-2.429c-0.054,-0.912 -0.496,-1.796 -1.326,-2.652c-0.881,-0.909 -1.796,-1.405 -2.745,-1.489c-0.948,-0.085 -1.817,0.256 -2.607,1.022c-0.138,0.134 -0.268,0.279 -0.388,0.435c-0.12,0.157 -0.229,0.325 -0.328,0.507l-0.005,0.297l0.808,1.305l-0.519,0.503l-1.483,-1.529Zm-151.519,-7.817c0.417,0.211 0.815,0.455 1.193,0.729c0.378,0.275 0.723,0.573 1.033,0.894c0.308,0.318 0.562,0.648 0.764,0.989c0.202,0.342 0.349,0.687 0.443,1.035c0.206,0.807 0.187,1.615 -0.056,2.426c-0.243,0.811 -0.68,1.521 -1.31,2.13c-1.009,0.974 -2.119,1.451 -3.33,1.43c-1.211,-0.021 -2.304,-0.535 -3.279,-1.544c-0.28,-0.29 -0.547,-0.621 -0.801,-0.994c-0.254,-0.374 -0.493,-0.787 -0.717,-1.24l1.489,-1.439l0.52,0.539l-0.737,0.996l-0.052,0.297c0.095,0.268 0.207,0.51 0.336,0.726c0.13,0.216 0.283,0.416 0.459,0.598c0.707,0.731 1.516,1.071 2.428,1.018c0.912,-0.052 1.797,-0.493 2.654,-1.321c0.91,-0.88 1.409,-1.794 1.495,-2.742c0.086,-0.949 -0.253,-1.818 -1.017,-2.609c-0.134,-0.139 -0.279,-0.269 -0.435,-0.389c-0.156,-0.12 -0.325,-0.23 -0.506,-0.329l-0.298,-0.005l-1.306,0.804l-0.502,-0.519l1.532,-1.48Zm172.133,-1.872l-1.969,2.431l-0.419,-0.339l0.423,-0.647l-0.031,-0.203l-4.175,-0.724l1.372,4.02l0.227,0.023l0.629,-0.548l0.419,0.339l-1.729,2.136l-0.419,-0.34l0.384,-0.746l-1.722,-4.997l-2.355,-1.906l-0.285,0.048l-0.626,0.669l-0.429,-0.347l2.192,-2.708l0.429,0.347l-0.523,0.752l0.011,0.288l2.218,1.795l5.34,0.873l0.619,-0.556l0.419,0.34Zm-179.909,6.268l-2.157,-2.669c-0.691,-0.855 -1.049,-1.614 -1.074,-2.275c-0.025,-0.662 0.281,-1.251 0.918,-1.766c0.454,-0.366 0.94,-0.525 1.46,-0.478c0.52,0.047 1.069,0.303 1.646,0.766c-0.14,-0.32 -0.225,-0.615 -0.254,-0.885c-0.029,-0.269 0,-0.524 0.088,-0.764c0.094,-0.267 0.289,-0.589 0.586,-0.964c0.297,-0.375 0.485,-0.635 0.566,-0.779c0.201,-0.337 0.279,-0.639 0.234,-0.907c-0.044,-0.268 -0.242,-0.619 -0.592,-1.052l-0.074,-0.092l0.399,-0.322c0.157,0.132 0.297,0.258 0.42,0.379c0.123,0.12 0.232,0.24 0.329,0.36c0.195,0.242 0.338,0.469 0.428,0.681c0.089,0.212 0.131,0.419 0.125,0.621c-0.017,0.425 -0.276,0.975 -0.778,1.651c-0.179,0.246 -0.309,0.433 -0.391,0.561c-0.313,0.484 -0.456,0.911 -0.428,1.28c0.028,0.369 0.236,0.794 0.624,1.275c0.083,0.102 0.22,0.261 0.412,0.478l0.034,0.032l2.49,-2.013l0.004,-0.298l-0.433,-0.64l0.43,-0.347l2.012,2.49l-0.43,0.347l-0.53,-0.552l-0.293,-0.059l-5.766,4.661l-0.004,0.298l0.418,0.643l-0.419,0.339Zm-0.904,-2.101l2.919,-2.359c-0.082,-0.109 -0.16,-0.211 -0.236,-0.308c-0.075,-0.097 -0.149,-0.19 -0.22,-0.278c-0.524,-0.648 -1.019,-1.027 -1.485,-1.137c-0.467,-0.11 -0.952,0.038 -1.457,0.446c-0.521,0.421 -0.777,0.879 -0.767,1.372c0.01,0.494 0.289,1.079 0.837,1.758l0.409,0.506Zm-4.431,-4.507l-1.78,-2.573l0.444,-0.307l0.502,0.588l0.203,0.028l1.869,-3.803l-4.243,0.186l-0.086,0.211l0.349,0.758l-0.444,0.307l-1.563,-2.26l0.444,-0.307l0.608,0.579l5.279,-0.248l2.492,-1.724l0.034,-0.286l-0.466,-0.789l0.454,-0.314l1.982,2.865l-0.454,0.314l-0.574,-0.714l-0.28,-0.07l-2.346,1.623l-2.34,4.879l0.36,0.751l-0.444,0.306Zm157.724,-3.084l5.235,2.919l-2.919,-5.235l-5.233,-2.919l2.917,5.235Zm-129.646,0l-5.236,2.919l2.919,-5.235l5.233,-2.919l-2.916,5.235Zm161.942,-3.481l-1.943,2.828c-0.588,0.856 -1.174,1.392 -1.758,1.607c-0.584,0.216 -1.179,0.115 -1.786,-0.302c-0.419,-0.288 -0.678,-0.663 -0.777,-1.127c-0.098,-0.464 -0.036,-1.013 0.187,-1.647c-0.454,0.645 -0.962,1.042 -1.524,1.19c-0.562,0.149 -1.119,0.033 -1.672,-0.347c-0.704,-0.483 -1.071,-1.101 -1.102,-1.854c-0.031,-0.752 0.276,-1.597 0.921,-2.536l2.01,-2.926l0.455,0.313l-0.377,0.665l0.026,0.298l6.112,4.198l0.287,-0.081l0.497,-0.584l0.444,0.305Zm-4.62,-0.495c-0.036,0.045 -0.076,0.096 -0.118,0.154c-0.043,0.059 -0.103,0.144 -0.18,0.256c-0.481,0.701 -0.71,1.299 -0.688,1.796c0.023,0.497 0.3,0.928 0.831,1.293c0.452,0.31 0.894,0.391 1.329,0.242c0.434,-0.148 0.859,-0.525 1.276,-1.132c0.037,-0.054 0.099,-0.154 0.186,-0.299c0.086,-0.146 0.159,-0.265 0.217,-0.357l-2.853,-1.953Zm-3.522,-2.419c-0.103,0.126 -0.199,0.249 -0.289,0.368c-0.089,0.119 -0.174,0.236 -0.253,0.352c-0.521,0.758 -0.775,1.396 -0.761,1.914c0.014,0.517 0.296,0.964 0.845,1.341c0.502,0.345 0.979,0.451 1.432,0.319c0.453,-0.133 0.891,-0.509 1.316,-1.126c0.099,-0.145 0.205,-0.312 0.318,-0.504c0.112,-0.191 0.232,-0.402 0.359,-0.634l-2.967,-2.03Zm-179.484,-3.035l-0.477,0.279l-0.441,-0.626l-0.281,-0.103l-6.404,3.736l-0.049,0.295l0.373,0.795l-0.466,0.272l-1.547,-2.652c-0.68,-1.165 -0.98,-2.102 -0.901,-2.811c0.079,-0.708 0.542,-1.309 1.39,-1.804c0.757,-0.441 1.521,-0.523 2.292,-0.245c0.771,0.278 1.425,0.877 1.962,1.797c0.055,0.095 0.117,0.213 0.187,0.355c0.07,0.141 0.158,0.324 0.263,0.547l2.291,-1.329l0.049,-0.295l-0.427,-0.862l0.477,-0.278l1.709,2.929Zm-4.658,0.168c-0.101,-0.225 -0.181,-0.398 -0.238,-0.519c-0.058,-0.121 -0.108,-0.217 -0.15,-0.289c-0.387,-0.663 -0.849,-1.069 -1.388,-1.218c-0.539,-0.15 -1.128,-0.039 -1.768,0.335c-0.617,0.36 -0.969,0.804 -1.055,1.334c-0.087,0.53 0.088,1.17 0.526,1.919c0.092,0.159 0.165,0.28 0.219,0.363c0.053,0.083 0.106,0.16 0.158,0.232l3.696,-2.157Zm198.044,-4.37c-0.725,1.401 -1.635,2.307 -2.732,2.717c-1.097,0.41 -2.282,0.286 -3.555,-0.372c-0.709,-0.366 -1.274,-0.817 -1.695,-1.353c-0.421,-0.535 -0.691,-1.147 -0.809,-1.835c-0.084,-0.487 -0.069,-0.98 0.043,-1.479c0.112,-0.499 0.354,-1.107 0.724,-1.824l1.523,-2.949l0.491,0.254l-0.292,0.707l0.064,0.292l6.587,3.404l0.275,-0.117l0.42,-0.641l0.479,0.247l-1.523,2.949Zm-0.036,-1.276l-6.926,-3.579l-0.489,0.946c-0.563,1.09 -0.697,2.053 -0.401,2.889c0.295,0.836 1.025,1.555 2.189,2.156c1.164,0.602 2.17,0.782 3.017,0.541c0.846,-0.24 1.554,-0.909 2.121,-2.007l0.489,-0.946Zm-205.331,2.764l-3.306,-6.849l1.865,-0.9l0.323,0.669l-1.045,0.709l-0.101,0.26l0.895,1.853l6.849,-3.306l0.074,-0.284l-0.335,-0.846l0.497,-0.24l1.529,3.167l-0.497,0.24l-0.451,-0.782l-0.272,-0.125l-6.849,3.306l0.895,1.853l0.266,0.083l1.208,-0.371l0.32,0.663l-1.865,0.9Zm202.022,-16.129l0.51,0.212l-0.231,0.729l0.088,0.286l6.848,2.84l0.265,-0.139l0.365,-0.674l0.497,0.206l-2.47,5.956l-1.815,-0.753l0.289,-0.698l1.13,0.262l0.259,-0.092l1.193,-2.878l-3.145,-1.304l-0.846,2.04l0.103,0.249l0.854,0.497l-0.244,0.589l-2.738,-1.136l0.244,-0.589l0.949,0.251l0.261,-0.098l0.846,-2.04l-3.485,-1.445l-1.382,3.333l0.127,0.259l1.169,0.734l-0.267,0.644l-2.028,-0.841l2.654,-6.4Zm-206.073,7.59l-1.219,-3.207c-0.39,-1.028 -0.495,-1.86 -0.312,-2.497c0.182,-0.636 0.656,-1.1 1.422,-1.391c0.545,-0.207 1.057,-0.207 1.537,0c0.479,0.206 0.921,0.62 1.325,1.24c-0.034,-0.348 -0.022,-0.655 0.034,-0.92c0.056,-0.265 0.163,-0.498 0.321,-0.699c0.173,-0.225 0.458,-0.469 0.857,-0.733c0.399,-0.265 0.659,-0.452 0.781,-0.564c0.296,-0.258 0.464,-0.521 0.505,-0.79c0.041,-0.269 -0.037,-0.663 -0.235,-1.183l-0.042,-0.111l0.479,-0.182c0.109,0.174 0.202,0.338 0.281,0.491c0.08,0.153 0.146,0.301 0.201,0.444c0.11,0.291 0.175,0.551 0.195,0.78c0.019,0.23 -0.006,0.439 -0.074,0.63c-0.149,0.398 -0.567,0.841 -1.254,1.327c-0.246,0.178 -0.428,0.315 -0.547,0.411c-0.448,0.363 -0.716,0.724 -0.805,1.083c-0.088,0.36 -0.022,0.828 0.197,1.406c0.047,0.123 0.128,0.317 0.243,0.583l0.022,0.04l2.992,-1.137l0.097,-0.283l-0.212,-0.742l0.516,-0.196l1.137,2.992l-0.516,0.196l-0.332,-0.689l-0.26,-0.147l-6.931,2.634l-0.096,0.282l0.197,0.741l-0.504,0.191Zm-0.205,-2.277l3.509,-1.334c-0.044,-0.128 -0.087,-0.25 -0.129,-0.366c-0.041,-0.115 -0.082,-0.226 -0.123,-0.333c-0.295,-0.778 -0.648,-1.292 -1.057,-1.542c-0.409,-0.25 -0.917,-0.26 -1.523,-0.029c-0.627,0.238 -1.012,0.593 -1.156,1.065c-0.144,0.472 -0.061,1.115 0.248,1.93l0.231,0.609Zm114.58,-43.479l-5.396,0c-0.581,0.775 -1.161,1.548 -1.738,2.316l0,37.898c2.126,0.721 4.183,1.289 5.739,1.504c1.224,-3.626 4.106,-10.614 4.718,-12.429c1.015,-3.62 0.244,-11.908 -1.023,-19.151c-0.711,-3.859 -1.443,-7.217 -2.3,-10.138Zm61.133,36.051c3.751,-2.549 6.001,-5.702 6.151,-7.805c0.149,-1.345 -0.451,-2.095 -1.802,-2.095c-1.35,0 -3.599,1.5 -6.601,4.35c-2.397,2.249 -6.149,7.048 -7.95,10.049c3,-0.749 7.05,-2.399 10.202,-4.499Zm42.241,-4.5l-1.002,3.144l-0.513,-0.164l0.178,-0.819l-0.112,-0.277l-4.64,-1.48c-0.898,-0.286 -1.606,-0.312 -2.124,-0.08c-0.518,0.233 -0.905,0.75 -1.16,1.552c-0.253,0.793 -0.234,1.436 0.058,1.929c0.291,0.493 0.881,0.881 1.77,1.165l4.553,1.451l0.31,-0.17l0.358,-0.735l0.514,0.164l-0.865,2.712l-0.513,-0.164l0.132,-0.806l-0.157,-0.306l-4.666,-1.487c-0.614,-0.196 -1.069,-0.389 -1.367,-0.581c-0.298,-0.191 -0.536,-0.426 -0.714,-0.703c-0.224,-0.352 -0.348,-0.788 -0.373,-1.309c-0.025,-0.521 0.056,-1.074 0.242,-1.658c0.188,-0.589 0.442,-1.087 0.763,-1.495c0.321,-0.409 0.675,-0.691 1.061,-0.849c0.311,-0.126 0.642,-0.181 0.99,-0.164c0.349,0.017 0.832,0.124 1.45,0.321l4.754,1.515l0.251,-0.161l0.309,-0.709l0.513,0.164Zm-111.775,-27.547c-1.985,2.641 -3.929,5.222 -5.794,7.686c-4.829,6.209 -8.958,11.389 -12.937,16.044c2.661,3.37 7.591,6.733 11.777,9.066c1.769,0.914 4.349,2.026 6.954,2.97l0,-35.766Zm-110.452,29.273l-0.245,-0.853l7.209,-5.428l-0.065,-0.822l0.53,-0.152l0.844,2.937l-0.531,0.153l-0.293,-0.785l-0.211,-0.042l-2.202,1.645l0.877,3.051l2.735,0.213l0.145,-0.185l-0.178,-0.858l0.53,-0.153l0.728,2.534l-0.531,0.152l-0.372,-0.7l-8.97,-0.707Zm1.3,-0.592l3.955,0.245l-0.749,-2.609l-3.206,2.364Zm214.237,-11.049l2.307,0.526l-0.177,0.775l-1.541,-0.189l-0.264,0.122c-0.142,0.17 -0.267,0.373 -0.374,0.609c-0.108,0.236 -0.195,0.499 -0.261,0.79c-0.14,0.611 -0.108,1.127 0.095,1.548c0.203,0.422 0.545,0.688 1.028,0.798c0.671,0.153 1.417,-0.338 2.237,-1.472c0.091,-0.123 0.16,-0.218 0.206,-0.284c0.594,-0.808 1.091,-1.32 1.493,-1.534c0.401,-0.214 0.869,-0.26 1.403,-0.138c0.752,0.171 1.297,0.587 1.634,1.246c0.338,0.659 0.402,1.445 0.194,2.359c-0.084,0.368 -0.199,0.729 -0.345,1.085c-0.147,0.355 -0.325,0.711 -0.537,1.067l-2.032,-0.463l0.157,-0.686l1.295,0.087l0.261,-0.143c0.132,-0.145 0.243,-0.311 0.333,-0.497c0.09,-0.186 0.161,-0.395 0.213,-0.626c0.125,-0.547 0.082,-1.013 -0.129,-1.398c-0.211,-0.385 -0.56,-0.633 -1.047,-0.744c-0.355,-0.081 -0.674,-0.036 -0.958,0.135c-0.284,0.172 -0.679,0.608 -1.186,1.311c-0.046,0.066 -0.114,0.165 -0.202,0.298c-0.474,0.696 -0.916,1.175 -1.326,1.437c-0.232,0.149 -0.48,0.244 -0.746,0.285c-0.265,0.04 -0.541,0.028 -0.827,-0.037c-0.791,-0.18 -1.358,-0.635 -1.701,-1.366c-0.344,-0.73 -0.399,-1.607 -0.165,-2.633c0.104,-0.457 0.239,-0.879 0.403,-1.266c0.165,-0.387 0.351,-0.721 0.559,-1.002Zm-217.759,2.176c-0.302,-1.549 -0.15,-2.824 0.456,-3.826c0.605,-1.002 1.611,-1.641 3.018,-1.915c0.783,-0.153 1.505,-0.15 2.168,0.008c0.663,0.159 1.254,0.471 1.773,0.937c0.368,0.33 0.663,0.725 0.885,1.187c0.222,0.461 0.41,1.087 0.564,1.878l0.636,3.258l-0.542,0.106l-0.21,-0.736l-0.231,-0.189l-7.277,1.421l-0.143,0.262l0.068,0.763l-0.529,0.104l-0.636,-3.258Zm112.594,-23.812l-30.164,0c0.93,10.794 6.656,21.294 9.799,25.411c3.807,-4.402 8.313,-9.84 13.137,-16.053c2.427,-3.068 4.845,-6.218 7.228,-9.358Zm-111.773,24.79l7.651,-1.494l-0.204,-1.045c-0.235,-1.204 -0.728,-2.042 -1.479,-2.514c-0.75,-0.472 -1.769,-0.582 -3.054,-0.331c-1.286,0.251 -2.187,0.734 -2.701,1.448c-0.515,0.715 -0.654,1.678 -0.417,2.891l0.204,1.045Zm136.204,-24.79l-13.654,0c0.794,2.713 1.574,5.954 2.237,9.875c0.757,4.661 1.157,9.836 1.093,14.497c2.03,-5.203 6.105,-14.843 10.324,-24.372Zm81.98,13.835l2.34,0.351l-0.118,0.786l-1.551,-0.073l-0.254,0.142c-0.129,0.18 -0.238,0.391 -0.328,0.635c-0.089,0.243 -0.156,0.513 -0.201,0.807c-0.092,0.62 -0.022,1.132 0.212,1.537c0.234,0.405 0.596,0.645 1.085,0.718c0.681,0.102 1.387,-0.443 2.12,-1.636c0.081,-0.13 0.143,-0.229 0.184,-0.298c0.531,-0.851 0.989,-1.398 1.373,-1.642c0.384,-0.244 0.847,-0.325 1.389,-0.244c0.763,0.115 1.337,0.488 1.723,1.119c0.386,0.632 0.51,1.412 0.371,2.339c-0.056,0.373 -0.144,0.742 -0.263,1.107c-0.119,0.366 -0.27,0.734 -0.454,1.105l-2.061,-0.309l0.104,-0.695l1.298,-0.012l0.25,-0.162c0.121,-0.154 0.219,-0.328 0.294,-0.521c0.076,-0.192 0.131,-0.405 0.166,-0.639c0.083,-0.555 0.005,-1.017 -0.234,-1.385c-0.24,-0.368 -0.607,-0.589 -1.101,-0.663c-0.359,-0.054 -0.674,0.015 -0.944,0.207c-0.271,0.192 -0.632,0.658 -1.084,1.396c-0.041,0.069 -0.101,0.173 -0.18,0.312c-0.419,0.73 -0.824,1.241 -1.213,1.533c-0.22,0.166 -0.461,0.28 -0.722,0.34c-0.262,0.061 -0.538,0.069 -0.828,0.026c-0.802,-0.12 -1.402,-0.532 -1.799,-1.234c-0.398,-0.702 -0.519,-1.573 -0.363,-2.613c0.07,-0.464 0.172,-0.895 0.307,-1.293c0.135,-0.399 0.296,-0.746 0.482,-1.041Zm-211.281,1.936l-0.549,0.059l-0.147,-0.751l-0.214,-0.208l-7.372,0.794l-0.165,0.249l0.004,0.767l-0.536,0.058l-0.691,-6.411l1.954,-0.211l0.081,0.751l-1.117,0.313l-0.183,0.204l0.334,3.098l3.385,-0.365l-0.236,-2.196l-0.21,-0.169l-0.988,-0.025l-0.068,-0.634l2.947,-0.318l0.068,0.634l-0.953,0.235l-0.182,0.211l0.237,2.196l3.751,-0.404l-0.387,-3.588l-0.236,-0.166l-1.377,-0.083l-0.075,-0.693l2.183,-0.235l0.742,6.888Zm211.477,-7.064l0.55,0.048l-0.011,0.864l0.17,0.246l7.386,0.651l0.21,-0.212l0.154,-0.851l0.537,0.047l-0.3,3.405l-0.537,-0.047l-0.003,-0.865l-0.17,-0.246l-7.385,-0.651l-0.211,0.212l-0.141,0.852l-0.55,-0.048l0.301,-3.405Zm-216.714,-7.306c-0.186,0.238 -0.281,0.564 -0.279,0.799c0.006,0.854 0.759,1.459 1.588,1.453c0.903,-0.007 1.597,-0.703 1.591,-1.59c-0.004,-0.479 -0.252,-1.12 -0.694,-1.458l0.008,-0.025c1.033,0.049 1.644,0.191 2.168,0.61l0.057,0l-0.015,-2.066l-0.057,0.001c-0.518,0.427 -1.127,0.577 -2.159,0.642l-0.008,-0.024c0.436,-0.345 0.676,-0.989 0.672,-1.469c-0.006,-0.887 -0.711,-1.573 -1.613,-1.566c-0.83,0.006 -1.574,0.621 -1.567,1.475c0.001,0.236 0.101,0.561 0.29,0.795l-0.032,0.033c-0.254,-0.21 -0.605,-0.386 -1.06,-0.383c-0.87,0.006 -1.532,0.703 -1.526,1.581c0.007,0.862 0.662,1.565 1.549,1.558c0.455,-0.003 0.803,-0.193 1.054,-0.398l0.033,0.032Zm201.475,-2.809l-0.927,0c0,-0.953 -0.016,-1.887 -0.016,-2.818l0.936,0l0.007,0.58c2.777,0.846 5.592,1.709 8.353,2.551l0,0.793c-2.706,0.828 -5.643,1.723 -8.399,2.565l0,0.559l-0.927,0l0,-2.648l0.927,0l0,1.12l2.031,-0.623l0,-2.742l-1.985,-0.609l0,1.272Zm-180.476,4.229l-0.927,0l0,-0.559c-2.751,-0.84 -5.691,-1.737 -8.396,-2.563l0,-0.796c2.76,-0.842 5.573,-1.702 8.352,-2.548l0.002,-0.58l0.943,0c0,0.929 -0.018,1.863 -0.018,2.816l-0.927,0l0,-1.27l-1.985,0.607l0,2.744l2.029,0.621l0,-1.118l0.927,0l0,2.646Zm201.501,-3.671c0.862,-0.269 1.276,-0.928 1.276,-1.668c-0.001,-0.878 -0.733,-1.585 -1.652,-1.585c-1.09,0.001 -1.894,0.595 -2.634,1.205c-0.707,0.586 -1.943,1.75 -2.244,2.051l0,0.016c0.301,0.301 1.538,1.471 2.246,2.056c0.74,0.61 1.546,1.203 2.635,1.203c0.903,-0.001 1.651,-0.684 1.65,-1.579c0,-0.748 -0.415,-1.415 -1.277,-1.683l0,-0.016Zm-208.954,0.154l3.572,1.088l0,-2.186l-3.572,1.098Zm190.839,-1.096l0,2.182l3.57,-1.085l-3.57,-1.097Zm-94.198,-13.318c-4.574,-5.392 -10.081,-8.922 -15.978,-8.922l-0.204,0c-10.4,0 -14.844,10.986 -14.155,22.765l30.337,0l0,-13.843Zm24.913,13.843c3.157,-7.101 6.347,-14.027 8.778,-18.882c10.117,-20.714 19.927,-31.847 28.728,-37.54l-0.03,-0.26c-4.676,0.517 -11.867,4.14 -18.494,9.063c-8.886,6.733 -17.486,17.601 -24.447,26.664c-4.269,5.693 -7.636,10.353 -11.174,15.267c0.63,1.57 1.334,3.431 2.039,5.688l14.6,0Zm-16.901,0c-0.416,-1.294 -0.862,-2.495 -1.348,-3.611c-0.904,1.205 -1.808,2.41 -2.708,3.611l4.056,0Zm-6.745,-12.271l0,11.76c1.381,-1.827 2.749,-3.644 4.097,-5.433c-1.239,-2.26 -2.612,-4.391 -4.097,-6.327Zm104.851,-2.67l0.55,-0.054l0.141,0.752l0.212,0.21l7.378,-0.737l0.167,-0.248l0.003,-0.766l0.536,-0.054l0.641,6.417l-1.956,0.195l-0.075,-0.752l1.119,-0.304l0.184,-0.203l-0.309,-3.1l-3.388,0.338l0.219,2.198l0.209,0.17l0.988,0.034l0.063,0.634l-2.95,0.295l-0.063,-0.635l0.955,-0.227l0.184,-0.21l-0.22,-2.198l-3.754,0.375l0.358,3.591l0.235,0.168l1.377,0.094l0.069,0.693l-2.184,0.218l-0.689,-6.894Zm-211.525,5.405l-0.55,-0.053l0.017,-0.864l-0.167,-0.247l-7.381,-0.709l-0.212,0.211l-0.16,0.849l-0.537,-0.051l0.327,-3.403l0.537,0.052l-0.004,0.865l0.167,0.247l7.381,0.709l0.212,-0.211l0.147,-0.85l0.55,0.052l-0.327,3.403Zm0.236,-5.127l-2.337,-0.369l0.124,-0.785l1.55,0.085l0.255,-0.14c0.13,-0.179 0.241,-0.39 0.333,-0.632c0.092,-0.243 0.161,-0.512 0.207,-0.806c0.098,-0.619 0.031,-1.132 -0.199,-1.539c-0.231,-0.407 -0.591,-0.649 -1.08,-0.726c-0.68,-0.108 -1.39,0.432 -2.133,1.619c-0.082,0.129 -0.144,0.228 -0.186,0.297c-0.538,0.847 -0.999,1.39 -1.386,1.631c-0.386,0.241 -0.85,0.318 -1.391,0.233c-0.761,-0.121 -1.333,-0.498 -1.714,-1.133c-0.381,-0.634 -0.498,-1.415 -0.352,-2.341c0.059,-0.372 0.149,-0.741 0.271,-1.105c0.122,-0.365 0.276,-0.732 0.463,-1.102l2.059,0.326l-0.11,0.694l-1.298,0.001l-0.252,0.16c-0.121,0.154 -0.221,0.327 -0.298,0.519c-0.077,0.192 -0.134,0.405 -0.17,0.638c-0.088,0.554 -0.013,1.016 0.223,1.387c0.237,0.37 0.602,0.594 1.095,0.672c0.359,0.056 0.675,-0.01 0.947,-0.2c0.271,-0.19 0.636,-0.653 1.094,-1.388c0.042,-0.069 0.103,-0.172 0.182,-0.31c0.425,-0.727 0.834,-1.235 1.226,-1.524c0.221,-0.164 0.462,-0.276 0.725,-0.334c0.262,-0.059 0.538,-0.065 0.828,-0.019c0.8,0.126 1.397,0.542 1.789,1.247c0.392,0.706 0.506,1.578 0.342,2.616c-0.073,0.463 -0.179,0.894 -0.317,1.291c-0.138,0.398 -0.302,0.743 -0.49,1.037Zm219.076,-8.258c0.29,1.551 0.128,2.825 -0.485,3.823c-0.614,0.997 -1.625,1.628 -3.033,1.891c-0.784,0.147 -1.507,0.138 -2.169,-0.026c-0.661,-0.163 -1.25,-0.48 -1.765,-0.95c-0.366,-0.333 -0.658,-0.731 -0.876,-1.194c-0.218,-0.463 -0.401,-1.09 -0.549,-1.883l-0.611,-3.263l0.543,-0.101l0.205,0.737l0.229,0.191l7.288,-1.363l0.145,-0.261l-0.062,-0.764l0.53,-0.099l0.61,3.262Zm-0.813,-0.984l-7.662,1.433l0.195,1.047c0.226,1.206 0.712,2.048 1.459,2.526c0.747,0.477 1.764,0.596 3.052,0.355c1.288,-0.241 2.192,-0.717 2.712,-1.427c0.521,-0.71 0.667,-1.673 0.44,-2.888l-0.196,-1.046Zm-216.956,1.451l-2.303,-0.544l0.183,-0.774l1.539,0.202l0.265,-0.12c0.144,-0.169 0.27,-0.371 0.38,-0.606c0.109,-0.235 0.198,-0.498 0.267,-0.788c0.144,-0.61 0.116,-1.126 -0.083,-1.549c-0.2,-0.424 -0.54,-0.692 -1.022,-0.806c-0.67,-0.158 -1.419,0.327 -2.248,1.455c-0.092,0.122 -0.162,0.216 -0.209,0.281c-0.6,0.804 -1.101,1.312 -1.504,1.522c-0.404,0.211 -0.872,0.254 -1.405,0.128c-0.75,-0.177 -1.292,-0.597 -1.624,-1.258c-0.332,-0.662 -0.391,-1.449 -0.175,-2.362c0.087,-0.367 0.205,-0.727 0.354,-1.081c0.149,-0.355 0.33,-0.709 0.545,-1.064l2.027,0.479l-0.161,0.685l-1.295,-0.096l-0.262,0.14c-0.134,0.144 -0.246,0.309 -0.337,0.495c-0.091,0.185 -0.164,0.393 -0.218,0.623c-0.129,0.546 -0.09,1.013 0.119,1.4c0.208,0.386 0.555,0.637 1.041,0.752c0.354,0.084 0.673,0.041 0.959,-0.128c0.285,-0.169 0.684,-0.603 1.195,-1.301c0.047,-0.066 0.116,-0.164 0.205,-0.296c0.479,-0.693 0.925,-1.169 1.337,-1.427c0.233,-0.148 0.482,-0.241 0.748,-0.279c0.266,-0.039 0.542,-0.024 0.827,0.043c0.789,0.187 1.353,0.646 1.691,1.379c0.338,0.733 0.386,1.611 0.144,2.634c-0.108,0.457 -0.246,0.878 -0.413,1.264c-0.168,0.386 -0.357,0.718 -0.567,0.997Zm215.622,-9.949l0.238,0.855l-7.251,5.371l0.059,0.823l-0.532,0.148l-0.821,-2.944l0.532,-0.149l0.287,0.787l0.211,0.044l2.214,-1.627l-0.852,-3.058l-2.733,-0.235l-0.147,0.184l0.171,0.86l-0.531,0.148l-0.708,-2.539l0.532,-0.148l0.366,0.703l8.965,0.777Zm-1.305,0.582l-3.953,-0.277l0.729,2.615l3.224,-2.338Zm-220.929,-0.6l1.027,-3.136l0.512,0.168l-0.185,0.818l0.11,0.278l4.628,1.515c0.896,0.294 1.603,0.326 2.123,0.097c0.52,-0.228 0.911,-0.743 1.172,-1.542c0.26,-0.791 0.245,-1.435 -0.042,-1.93c-0.287,-0.495 -0.875,-0.888 -1.762,-1.178l-4.541,-1.488l-0.311,0.168l-0.364,0.732l-0.512,-0.168l0.886,-2.705l0.512,0.168l-0.139,0.805l0.155,0.307l4.654,1.524c0.612,0.2 1.066,0.398 1.362,0.591c0.297,0.194 0.533,0.431 0.709,0.71c0.221,0.353 0.341,0.79 0.362,1.311c0.021,0.521 -0.064,1.073 -0.255,1.656c-0.192,0.587 -0.45,1.084 -0.775,1.49c-0.324,0.405 -0.68,0.685 -1.067,0.84c-0.312,0.123 -0.643,0.175 -0.991,0.156c-0.349,-0.02 -0.832,-0.131 -1.448,-0.332l-4.741,-1.553l-0.253,0.159l-0.314,0.707l-0.512,-0.168Zm217.854,-12.496l1.193,3.217c0.383,1.031 0.481,1.864 0.293,2.499c-0.187,0.635 -0.665,1.095 -1.433,1.38c-0.547,0.203 -1.059,0.199 -1.536,-0.012c-0.478,-0.21 -0.917,-0.627 -1.316,-1.25c0.031,0.348 0.017,0.655 -0.041,0.919c-0.059,0.265 -0.168,0.497 -0.327,0.697c-0.174,0.223 -0.462,0.465 -0.863,0.726c-0.401,0.261 -0.663,0.447 -0.785,0.558c-0.298,0.255 -0.468,0.517 -0.511,0.786c-0.043,0.268 0.032,0.663 0.226,1.185l0.041,0.111l-0.481,0.178c-0.107,-0.175 -0.199,-0.339 -0.277,-0.493c-0.078,-0.153 -0.144,-0.302 -0.197,-0.446c-0.109,-0.291 -0.171,-0.552 -0.189,-0.781c-0.017,-0.23 0.009,-0.44 0.079,-0.629c0.152,-0.398 0.573,-0.837 1.264,-1.317c0.248,-0.176 0.431,-0.312 0.55,-0.408c0.451,-0.359 0.722,-0.718 0.813,-1.076c0.092,-0.359 0.03,-0.828 -0.185,-1.407c-0.046,-0.123 -0.125,-0.318 -0.238,-0.585l-0.022,-0.041l-3.002,1.114l-0.098,0.282l0.206,0.744l-0.518,0.192l-1.114,-3.001l0.518,-0.192l0.327,0.692l0.259,0.149l6.951,-2.579l0.099,-0.282l-0.192,-0.743l0.506,-0.187Zm0.186,2.279l-3.518,1.306c0.043,0.129 0.085,0.251 0.125,0.367c0.041,0.116 0.081,0.227 0.121,0.334c0.289,0.78 0.638,1.297 1.045,1.55c0.407,0.254 0.915,0.267 1.523,0.042c0.628,-0.233 1.016,-0.585 1.164,-1.056c0.148,-0.471 0.07,-1.115 -0.233,-1.933l-0.227,-0.61Zm-206.313,3.693l-0.508,-0.215l0.237,-0.728l-0.086,-0.286l-6.826,-2.894l-0.265,0.138l-0.37,0.671l-0.497,-0.211l2.517,-5.936l1.81,0.767l-0.295,0.696l-1.128,-0.271l-0.259,0.09l-1.216,2.868l3.135,1.329l0.862,-2.033l-0.102,-0.25l-0.85,-0.503l0.249,-0.587l2.729,1.157l-0.249,0.587l-0.947,-0.259l-0.262,0.096l-0.862,2.033l3.474,1.473l1.409,-3.322l-0.126,-0.261l-1.163,-0.742l0.272,-0.642l2.022,0.857l-2.705,6.378Zm202.143,-14.542l3.252,6.874l-1.872,0.886l-0.317,-0.672l1.05,-0.7l0.102,-0.26l-0.879,-1.859l-6.875,3.252l-0.077,0.283l0.329,0.848l-0.499,0.236l-1.504,-3.178l0.499,-0.237l0.445,0.786l0.27,0.127l6.875,-3.252l-0.88,-1.86l-0.266,-0.085l-1.21,0.362l-0.315,-0.666l1.872,-0.885Zm-205.372,-0.124c0.735,-1.396 1.653,-2.294 2.753,-2.695c1.1,-0.402 2.284,-0.268 3.552,0.399c0.706,0.372 1.267,0.827 1.684,1.366c0.417,0.539 0.682,1.153 0.795,1.841c0.08,0.488 0.061,0.981 -0.055,1.48c-0.116,0.498 -0.362,1.104 -0.738,1.817l-1.547,2.937l-0.488,-0.257l0.297,-0.705l-0.062,-0.293l-6.56,-3.454l-0.276,0.114l-0.425,0.638l-0.477,-0.251l1.547,-2.937Zm0.026,1.277l6.898,3.632l0.496,-0.942c0.571,-1.086 0.713,-2.048 0.424,-2.886c-0.289,-0.838 -1.014,-1.562 -2.173,-2.173c-1.159,-0.61 -2.163,-0.799 -3.012,-0.565c-0.849,0.234 -1.561,0.898 -2.137,1.991l-0.496,0.943Zm193.387,-3.961l0.479,-0.275l0.436,0.629l0.28,0.105l6.433,-3.686l0.051,-0.294l-0.366,-0.798l0.468,-0.268l1.526,2.664c0.67,1.171 0.964,2.11 0.879,2.817c-0.084,0.708 -0.553,1.306 -1.404,1.794c-0.761,0.435 -1.525,0.511 -2.294,0.227c-0.769,-0.285 -1.418,-0.889 -1.948,-1.813c-0.054,-0.095 -0.116,-0.213 -0.185,-0.356c-0.068,-0.142 -0.154,-0.325 -0.257,-0.549l-2.302,1.311l-0.051,0.295l0.42,0.865l-0.479,0.274l-1.686,-2.942Zm4.659,-0.132c0.099,0.226 0.177,0.4 0.234,0.521c0.057,0.121 0.106,0.218 0.148,0.291c0.381,0.665 0.84,1.075 1.378,1.229c0.538,0.154 1.128,0.047 1.77,-0.321c0.62,-0.356 0.975,-0.798 1.066,-1.327c0.091,-0.529 -0.079,-1.17 -0.511,-1.923c-0.091,-0.16 -0.163,-0.281 -0.216,-0.365c-0.053,-0.083 -0.105,-0.16 -0.156,-0.232l-3.713,2.127Zm-192.233,-7.29l1.965,-2.812c0.595,-0.852 1.185,-1.383 1.771,-1.594c0.585,-0.21 1.18,-0.105 1.783,0.316c0.417,0.292 0.673,0.669 0.768,1.134c0.095,0.465 0.029,1.013 -0.199,1.645c0.459,-0.642 0.97,-1.034 1.533,-1.178c0.563,-0.144 1.119,-0.024 1.669,0.36c0.7,0.489 1.063,1.11 1.088,1.863c0.025,0.752 -0.289,1.595 -0.942,2.529l-2.032,2.91l-0.453,-0.316l0.383,-0.663l-0.025,-0.298l-6.078,-4.246l-0.288,0.079l-0.501,0.58l-0.442,-0.309Zm190.065,-5.073l1.76,2.587l-0.446,0.303l-0.497,-0.592l-0.203,-0.029l-1.899,3.788l4.245,-0.152l0.087,-0.211l-0.343,-0.761l0.446,-0.303l1.545,2.272l-0.445,0.303l-0.604,-0.583l-5.281,0.206l-2.506,1.704l-0.035,0.287l0.459,0.792l-0.456,0.311l-1.96,-2.881l0.457,-0.31l0.568,0.718l0.28,0.072l2.358,-1.604l2.378,-4.861l-0.353,-0.753l0.445,-0.303Zm-181.946,8.051c0.103,-0.125 0.201,-0.247 0.291,-0.365c0.091,-0.119 0.176,-0.235 0.257,-0.35c0.527,-0.755 0.785,-1.391 0.775,-1.908c-0.01,-0.517 -0.288,-0.967 -0.834,-1.348c-0.499,-0.349 -0.976,-0.459 -1.429,-0.33c-0.454,0.13 -0.896,0.501 -1.325,1.116c-0.1,0.143 -0.207,0.31 -0.322,0.5c-0.114,0.191 -0.235,0.401 -0.364,0.632l2.951,2.053Zm155.724,-3.521l-5.233,2.921l2.921,-5.233l5.231,-2.919l-2.919,5.231Zm-134.282,0l5.236,2.921l-2.919,-5.233l-5.233,-2.919l2.916,5.231Zm-24.945,1.074c0.037,-0.044 0.076,-0.095 0.12,-0.153c0.043,-0.058 0.103,-0.143 0.181,-0.254c0.487,-0.697 0.721,-1.294 0.702,-1.791c-0.019,-0.497 -0.293,-0.93 -0.821,-1.299c-0.449,-0.313 -0.891,-0.398 -1.326,-0.253c-0.435,0.145 -0.864,0.519 -1.286,1.123c-0.037,0.054 -0.1,0.153 -0.187,0.297c-0.088,0.145 -0.161,0.263 -0.221,0.356l2.838,1.974Zm180.167,-12.253l2.136,2.685c0.684,0.861 1.036,1.622 1.056,2.284c0.02,0.662 -0.291,1.248 -0.932,1.758c-0.457,0.363 -0.944,0.518 -1.464,0.467c-0.52,-0.052 -1.066,-0.311 -1.64,-0.779c0.138,0.321 0.221,0.617 0.248,0.887c0.027,0.269 -0.005,0.524 -0.094,0.763c-0.096,0.267 -0.294,0.587 -0.594,0.959c-0.3,0.373 -0.491,0.631 -0.572,0.775c-0.204,0.335 -0.284,0.637 -0.242,0.905c0.043,0.269 0.238,0.621 0.584,1.056l0.074,0.093l-0.402,0.319c-0.156,-0.133 -0.295,-0.26 -0.417,-0.382c-0.122,-0.121 -0.23,-0.242 -0.326,-0.362c-0.193,-0.244 -0.334,-0.472 -0.422,-0.685c-0.088,-0.212 -0.129,-0.42 -0.121,-0.621c0.02,-0.425 0.284,-0.974 0.791,-1.646c0.181,-0.244 0.312,-0.43 0.396,-0.558c0.317,-0.482 0.462,-0.907 0.438,-1.276c-0.025,-0.37 -0.23,-0.796 -0.615,-1.28c-0.082,-0.103 -0.218,-0.263 -0.408,-0.481l-0.034,-0.032l-2.505,1.992l-0.006,0.299l0.427,0.643l-0.432,0.343l-1.992,-2.505l0.432,-0.344l0.526,0.556l0.292,0.062l5.803,-4.615l0.006,-0.299l-0.413,-0.646l0.422,-0.335Zm-179.953,4.856l1.988,-2.417l0.416,0.343l-0.427,0.644l0.029,0.203l4.169,0.757l-1.34,-4.031l-0.227,-0.024l-0.634,0.542l-0.416,-0.342l1.746,-2.122l0.416,0.343l-0.39,0.743l1.683,5.01l2.34,1.925l0.285,-0.046l0.631,-0.664l0.427,0.351l-2.214,2.69l-0.426,-0.351l0.53,-0.747l-0.01,-0.289l-2.203,-1.812l-5.333,-0.915l-0.623,0.551l-0.417,-0.342Zm180.84,-2.748l-2.937,2.336c0.081,0.109 0.159,0.212 0.233,0.309c0.075,0.098 0.148,0.191 0.219,0.28c0.518,0.652 1.01,1.035 1.476,1.149c0.465,0.113 0.952,-0.031 1.459,-0.435c0.525,-0.417 0.785,-0.873 0.778,-1.366c-0.006,-0.494 -0.28,-1.082 -0.823,-1.764l-0.405,-0.509Zm-8.697,2.226c-0.416,-0.215 -0.812,-0.461 -1.188,-0.738c-0.376,-0.278 -0.718,-0.579 -1.026,-0.902c-0.305,-0.321 -0.557,-0.653 -0.756,-0.996c-0.199,-0.342 -0.344,-0.689 -0.434,-1.038c-0.2,-0.808 -0.175,-1.616 0.074,-2.425c0.25,-0.809 0.692,-1.515 1.327,-2.119c1.016,-0.967 2.13,-1.435 3.341,-1.405c1.211,0.031 2.3,0.554 3.266,1.57c0.278,0.292 0.543,0.626 0.794,1.001c0.251,0.375 0.487,0.79 0.708,1.245l-1.501,1.427l-0.516,-0.543l0.745,-0.99l0.054,-0.297c-0.092,-0.268 -0.202,-0.511 -0.33,-0.728c-0.128,-0.217 -0.279,-0.418 -0.455,-0.602c-0.7,-0.737 -1.507,-1.082 -2.419,-1.037c-0.913,0.045 -1.801,0.479 -2.664,1.3c-0.918,0.873 -1.423,1.783 -1.517,2.731c-0.093,0.947 0.239,1.82 0.997,2.617c0.133,0.139 0.277,0.27 0.432,0.392c0.155,0.121 0.323,0.232 0.503,0.333l0.297,0.008l1.313,-0.795l0.498,0.524l-1.543,1.467Zm-151.453,-9.006c-0.215,0.416 -0.46,0.813 -0.737,1.189c-0.277,0.377 -0.577,0.719 -0.9,1.028c-0.32,0.305 -0.652,0.558 -0.994,0.758c-0.342,0.2 -0.688,0.345 -1.038,0.436c-0.807,0.201 -1.615,0.178 -2.425,-0.07c-0.809,-0.248 -1.516,-0.689 -2.122,-1.323c-0.968,-1.014 -1.438,-2.127 -1.41,-3.338c0.028,-1.211 0.549,-2.301 1.563,-3.269c0.292,-0.279 0.625,-0.544 1,-0.796c0.374,-0.251 0.789,-0.488 1.244,-0.71l1.429,1.498l-0.542,0.517l-0.991,-0.743l-0.297,-0.054c-0.268,0.093 -0.511,0.204 -0.728,0.332c-0.217,0.128 -0.417,0.28 -0.601,0.456c-0.735,0.702 -1.079,1.509 -1.032,2.421c0.047,0.912 0.482,1.8 1.305,2.662c0.875,0.916 1.786,1.42 2.734,1.511c0.947,0.092 1.819,-0.242 2.615,-1.002c0.139,-0.133 0.269,-0.277 0.391,-0.432c0.121,-0.155 0.232,-0.323 0.332,-0.504l0.007,-0.297l-0.797,-1.311l0.523,-0.499l1.471,1.54Zm-4.35,-7.802l2.681,-2.141c0.86,-0.686 1.621,-1.04 2.282,-1.06c0.662,-0.021 1.249,0.288 1.76,0.929c0.364,0.455 0.52,0.943 0.47,1.463c-0.051,0.519 -0.309,1.066 -0.776,1.641c0.321,-0.139 0.617,-0.222 0.886,-0.249c0.27,-0.028 0.524,0.003 0.764,0.092c0.267,0.096 0.587,0.293 0.96,0.592c0.374,0.299 0.632,0.489 0.776,0.571c0.335,0.203 0.638,0.283 0.906,0.24c0.268,-0.044 0.62,-0.239 1.055,-0.586l0.092,-0.074l0.32,0.401c-0.133,0.156 -0.26,0.296 -0.381,0.418c-0.122,0.122 -0.242,0.231 -0.362,0.326c-0.243,0.194 -0.471,0.336 -0.684,0.424c-0.212,0.089 -0.419,0.129 -0.621,0.122c-0.425,-0.019 -0.974,-0.282 -1.647,-0.788c-0.245,-0.18 -0.431,-0.312 -0.559,-0.395c-0.482,-0.315 -0.908,-0.461 -1.277,-0.435c-0.369,0.026 -0.795,0.231 -1.278,0.617c-0.103,0.082 -0.263,0.218 -0.481,0.409l-0.032,0.034l1.997,2.501l0.299,0.006l0.642,-0.429l0.344,0.432l-2.501,1.997l-0.345,-0.432l0.555,-0.527l0.061,-0.292l-4.626,-5.794l-0.299,-0.006l-0.645,0.414l-0.336,-0.421Zm146.314,-3.899l2.412,1.993l-0.343,0.415l-0.643,-0.429l-0.203,0.029l-0.765,4.168l4.033,-1.333l0.025,-0.226l-0.541,-0.635l0.343,-0.416l2.119,1.75l-0.344,0.415l-0.742,-0.391l-5.013,1.674l-1.93,2.336l0.046,0.285l0.663,0.633l-0.352,0.425l-2.686,-2.218l0.351,-0.426l0.747,0.531l0.288,-0.008l1.817,-2.2l0.925,-5.331l-0.55,-0.625l0.343,-0.416Zm-144.208,3.008l2.342,2.933c0.109,-0.081 0.212,-0.159 0.309,-0.234c0.098,-0.075 0.191,-0.148 0.28,-0.219c0.65,-0.52 1.032,-1.012 1.145,-1.478c0.113,-0.466 -0.032,-0.952 -0.437,-1.459c-0.418,-0.524 -0.874,-0.783 -1.368,-0.776c-0.493,0.007 -1.081,0.283 -1.762,0.827l-0.509,0.406Zm137.35,-7.851l2.809,1.971c0.85,0.596 1.38,1.187 1.59,1.773c0.21,0.586 0.104,1.181 -0.319,1.783c-0.292,0.416 -0.67,0.672 -1.135,0.766c-0.465,0.094 -1.013,0.027 -1.645,-0.202c0.641,0.46 1.033,0.971 1.176,1.535c0.143,0.563 0.021,1.119 -0.364,1.668c-0.49,0.699 -1.112,1.061 -1.864,1.084c-0.753,0.024 -1.595,-0.291 -2.528,-0.946l-2.906,-2.038l0.317,-0.452l0.662,0.384l0.298,-0.024l4.258,-6.07l-0.079,-0.288l-0.579,-0.502l0.309,-0.442Zm-132.817,3.447l2.584,-1.764l0.304,0.445l-0.591,0.499l-0.028,0.202l3.791,1.892l-0.16,-4.244l-0.211,-0.087l-0.76,0.344l-0.304,-0.445l2.269,-1.55l0.304,0.445l-0.582,0.605l0.216,5.281l1.709,2.502l0.286,0.035l0.792,-0.461l0.311,0.456l-2.877,1.965l-0.311,-0.456l0.717,-0.57l0.072,-0.279l-1.609,-2.356l-4.865,-2.368l-0.753,0.354l-0.304,-0.445Zm129.824,4.666c0.125,0.104 0.247,0.202 0.365,0.293c0.118,0.091 0.235,0.176 0.35,0.257c0.753,0.528 1.389,0.788 1.906,0.779c0.518,-0.009 0.967,-0.286 1.35,-0.832c0.35,-0.498 0.46,-0.975 0.332,-1.429c-0.128,-0.454 -0.499,-0.896 -1.113,-1.326c-0.143,-0.101 -0.31,-0.208 -0.5,-0.323c-0.19,-0.114 -0.4,-0.236 -0.631,-0.366l-2.059,2.947Zm-57.407,-0.646l-2.645,0l0,-0.927l1.118,0l-0.619,-2.029l-2.746,0l-0.605,1.985l1.27,0l0,0.927c-0.955,0 -1.889,0.019 -2.818,0.019l0,-0.941l0.577,-0.005c0.851,-2.776 1.711,-5.591 2.556,-8.354l0.791,0.002c0.828,2.705 1.723,5.643 2.562,8.396l0.559,0l0,0.927Zm-59.917,-1.552l-0.276,-0.478l0.628,-0.437l0.105,-0.28l-3.698,-6.427l-0.294,-0.05l-0.798,0.367l-0.268,-0.467l2.66,-1.531c1.17,-0.673 2.109,-0.968 2.816,-0.885c0.708,0.084 1.307,0.551 1.796,1.401c0.437,0.76 0.514,1.525 0.232,2.294c-0.283,0.769 -0.886,1.42 -1.809,1.951c-0.095,0.054 -0.213,0.116 -0.356,0.185c-0.142,0.069 -0.325,0.156 -0.548,0.259l1.315,2.299l0.295,0.051l0.864,-0.422l0.275,0.479l-2.939,1.691Zm119.778,-1.299c0.044,0.036 0.095,0.076 0.153,0.119c0.058,0.043 0.142,0.104 0.253,0.182c0.696,0.488 1.293,0.723 1.79,0.705c0.497,-0.018 0.93,-0.29 1.3,-0.818c0.315,-0.448 0.4,-0.89 0.256,-1.326c-0.144,-0.435 -0.517,-0.865 -1.12,-1.287c-0.054,-0.038 -0.153,-0.101 -0.298,-0.189c-0.144,-0.088 -0.262,-0.161 -0.354,-0.221l-1.98,2.835Zm-64.47,-1.029l2.183,0l-1.091,-3.57l-1.092,3.57Zm54.915,-9.445c1.394,0.738 2.291,1.657 2.69,2.758c0.399,1.101 0.264,2.285 -0.407,3.552c-0.372,0.705 -0.829,1.265 -1.369,1.681c-0.539,0.416 -1.154,0.68 -1.842,0.791c-0.488,0.079 -0.981,0.06 -1.479,-0.057c-0.499,-0.118 -1.104,-0.365 -1.817,-0.742l-2.934,-1.552l0.259,-0.488l0.704,0.298l0.293,-0.06l3.467,-6.554l-0.114,-0.276l-0.637,-0.427l0.252,-0.476l2.934,1.552Zm-1.277,0.024l-3.645,6.891l0.941,0.498c1.084,0.573 2.046,0.716 2.885,0.429c0.838,-0.288 1.564,-1.01 2.177,-2.169c0.613,-1.158 0.803,-2.161 0.57,-3.011c-0.232,-0.849 -0.894,-1.562 -1.987,-2.14l-0.941,-0.498Zm-109.087,7.09c0.226,-0.099 0.4,-0.178 0.521,-0.235c0.121,-0.057 0.218,-0.106 0.29,-0.148c0.665,-0.382 1.074,-0.842 1.227,-1.38c0.153,-0.538 0.045,-1.128 -0.325,-1.77c-0.356,-0.619 -0.799,-0.974 -1.328,-1.063c-0.529,-0.09 -1.17,0.081 -1.922,0.514c-0.16,0.092 -0.281,0.164 -0.364,0.217c-0.084,0.053 -0.161,0.105 -0.233,0.157l2.134,3.708Zm2.927,-7.305l6.868,-3.265l0.889,1.87l-0.671,0.319l-0.702,-1.049l-0.26,-0.102l-1.858,0.883l3.265,6.869l0.283,0.076l0.848,-0.33l0.237,0.498l-3.176,1.51l-0.237,-0.499l0.785,-0.446l0.126,-0.27l-3.265,-6.869l-1.858,0.883l-0.085,0.266l0.364,1.21l-0.665,0.316l-0.888,-1.87Zm92.764,3.393l0.217,-0.508l0.727,0.239l0.286,-0.085l2.907,-6.821l-0.137,-0.266l-0.67,-0.371l0.211,-0.496l5.932,2.528l-0.771,1.808l-0.695,-0.297l0.273,-1.126l-0.09,-0.26l-2.866,-1.221l-1.335,3.132l2.032,0.866l0.25,-0.101l0.505,-0.849l0.587,0.25l-1.162,2.727l-0.587,-0.25l0.26,-0.947l-0.095,-0.262l-2.032,-0.866l-1.479,3.471l3.32,1.415l0.26,-0.125l0.745,-1.162l0.641,0.274l-0.86,2.019l-6.374,-2.716Zm-84.202,-7.393l3.215,-1.199c1.03,-0.385 1.863,-0.484 2.498,-0.298c0.636,0.186 1.097,0.663 1.383,1.431c0.204,0.546 0.201,1.058 -0.009,1.536c-0.209,0.478 -0.625,0.918 -1.248,1.318c0.349,-0.032 0.655,-0.019 0.92,0.039c0.265,0.058 0.497,0.167 0.697,0.326c0.224,0.174 0.466,0.461 0.728,0.861c0.262,0.401 0.448,0.662 0.559,0.784c0.256,0.298 0.519,0.468 0.787,0.51c0.268,0.043 0.663,-0.033 1.185,-0.228l0.111,-0.041l0.179,0.48c-0.175,0.107 -0.339,0.2 -0.493,0.278c-0.153,0.079 -0.301,0.145 -0.445,0.198c-0.291,0.109 -0.552,0.172 -0.782,0.19c-0.229,0.018 -0.439,-0.008 -0.628,-0.077c-0.398,-0.151 -0.838,-0.572 -1.32,-1.262c-0.177,-0.247 -0.313,-0.43 -0.408,-0.549c-0.36,-0.45 -0.72,-0.721 -1.078,-0.811c-0.359,-0.091 -0.828,-0.028 -1.407,0.188c-0.123,0.046 -0.318,0.125 -0.584,0.239l-0.041,0.022l1.119,2.999l0.282,0.098l0.744,-0.207l0.193,0.517l-2.999,1.119l-0.193,-0.517l0.691,-0.328l0.149,-0.259l-2.592,-6.946l-0.283,-0.099l-0.741,0.193l-0.189,-0.505Zm77.701,-4.347l3.134,1.033l-0.169,0.512l-0.818,-0.186l-0.278,0.109l-1.524,4.626c-0.295,0.894 -0.329,1.602 -0.101,2.122c0.228,0.52 0.741,0.912 1.54,1.175c0.791,0.261 1.434,0.248 1.93,-0.038c0.496,-0.287 0.89,-0.873 1.182,-1.76l1.495,-4.538l-0.167,-0.312l-0.731,-0.365l0.169,-0.512l2.703,0.891l-0.169,0.512l-0.804,-0.141l-0.308,0.155l-1.532,4.651c-0.202,0.612 -0.4,1.066 -0.594,1.361c-0.195,0.296 -0.431,0.532 -0.711,0.707c-0.354,0.221 -0.791,0.341 -1.312,0.36c-0.521,0.02 -1.073,-0.066 -1.656,-0.258c-0.586,-0.193 -1.082,-0.453 -1.487,-0.777c-0.405,-0.325 -0.685,-0.682 -0.839,-1.069c-0.123,-0.313 -0.174,-0.644 -0.154,-0.992c0.021,-0.349 0.132,-0.831 0.335,-1.447l1.562,-4.738l-0.159,-0.253l-0.706,-0.316l0.169,-0.512Zm-65.195,-0.056l0.855,-0.24l5.384,7.241l0.823,-0.06l0.149,0.531l-2.943,0.826l-0.149,-0.531l0.786,-0.289l0.043,-0.21l-1.631,-2.212l-3.056,0.858l-0.23,2.734l0.185,0.146l0.859,-0.173l0.149,0.532l-2.537,0.712l-0.15,-0.532l0.703,-0.368l0.76,-8.965Zm55.215,6.65l0.549,-2.302l0.773,0.184l-0.204,1.539l0.119,0.265c0.168,0.144 0.37,0.271 0.605,0.381c0.235,0.11 0.498,0.2 0.788,0.269c0.609,0.145 1.126,0.118 1.549,-0.08c0.424,-0.199 0.693,-0.539 0.808,-1.021c0.159,-0.669 -0.324,-1.42 -1.451,-2.251c-0.122,-0.092 -0.216,-0.162 -0.281,-0.209c-0.803,-0.601 -1.309,-1.103 -1.519,-1.507c-0.21,-0.404 -0.252,-0.872 -0.125,-1.405c0.179,-0.75 0.599,-1.291 1.261,-1.622c0.662,-0.331 1.45,-0.388 2.362,-0.17c0.367,0.087 0.727,0.206 1.081,0.355c0.354,0.15 0.708,0.332 1.062,0.547l-0.483,2.027l-0.684,-0.163l0.099,-1.294l-0.14,-0.263c-0.144,-0.133 -0.309,-0.246 -0.494,-0.337c-0.186,-0.092 -0.393,-0.165 -0.624,-0.22c-0.545,-0.13 -1.012,-0.091 -1.399,0.116c-0.387,0.208 -0.639,0.554 -0.754,1.04c-0.085,0.354 -0.043,0.674 0.126,0.959c0.168,0.286 0.601,0.685 1.299,1.198c0.065,0.047 0.164,0.116 0.296,0.206c0.691,0.48 1.166,0.926 1.424,1.339c0.147,0.233 0.239,0.483 0.278,0.749c0.038,0.266 0.023,0.541 -0.046,0.827c-0.187,0.789 -0.648,1.351 -1.381,1.688c-0.734,0.336 -1.612,0.383 -2.635,0.139c-0.456,-0.109 -0.877,-0.247 -1.262,-0.416c-0.386,-0.168 -0.718,-0.358 -0.997,-0.568Zm-65.442,-2.438l1.312,3.516c0.129,-0.043 0.251,-0.085 0.367,-0.126c0.116,-0.041 0.227,-0.081 0.334,-0.121c0.78,-0.291 1.296,-0.64 1.549,-1.048c0.252,-0.408 0.265,-0.915 0.038,-1.523c-0.234,-0.628 -0.587,-1.015 -1.058,-1.162c-0.471,-0.147 -1.115,-0.068 -1.932,0.237l-0.61,0.227Zm19.705,-6.377c1.551,-0.293 2.825,-0.134 3.824,0.478c0.998,0.611 1.631,1.621 1.897,3.029c0.148,0.784 0.141,1.507 -0.022,2.168c-0.163,0.662 -0.478,1.251 -0.947,1.768c-0.332,0.366 -0.729,0.659 -1.192,0.878c-0.462,0.219 -1.09,0.403 -1.882,0.553l-3.262,0.616l-0.102,-0.542l0.737,-0.206l0.19,-0.23l-1.377,-7.286l-0.261,-0.144l-0.764,0.064l-0.1,-0.53l3.261,-0.616Zm-0.983,0.814l1.448,7.66l1.046,-0.198c1.206,-0.227 2.047,-0.715 2.523,-1.463c0.477,-0.748 0.593,-1.766 0.35,-3.053c-0.244,-1.287 -0.721,-2.191 -1.432,-2.709c-0.711,-0.519 -1.674,-0.664 -2.888,-0.434l-1.047,0.197Zm38.931,6.679l0.374,-2.336l0.785,0.125l-0.088,1.55l0.139,0.256c0.179,0.13 0.39,0.242 0.632,0.334c0.243,0.092 0.511,0.161 0.806,0.208c0.618,0.099 1.131,0.034 1.539,-0.196c0.407,-0.23 0.65,-0.59 0.728,-1.079c0.109,-0.679 -0.43,-1.391 -1.615,-2.135c-0.129,-0.083 -0.228,-0.145 -0.297,-0.187c-0.845,-0.539 -1.388,-1.002 -1.628,-1.389c-0.24,-0.387 -0.317,-0.85 -0.23,-1.391c0.121,-0.762 0.5,-1.333 1.135,-1.712c0.636,-0.38 1.417,-0.496 2.343,-0.348c0.372,0.059 0.74,0.15 1.104,0.273c0.364,0.123 0.731,0.278 1.101,0.465l-0.329,2.058l-0.695,-0.111l0.001,-1.298l-0.159,-0.252c-0.154,-0.122 -0.326,-0.222 -0.518,-0.299c-0.192,-0.077 -0.405,-0.134 -0.638,-0.172c-0.554,-0.088 -1.016,-0.015 -1.387,0.221c-0.37,0.236 -0.595,0.601 -0.674,1.094c-0.057,0.359 0.009,0.675 0.198,0.947c0.189,0.272 0.651,0.638 1.386,1.097c0.068,0.042 0.172,0.103 0.31,0.182c0.726,0.427 1.233,0.837 1.521,1.229c0.164,0.221 0.275,0.463 0.333,0.725c0.058,0.263 0.064,0.539 0.017,0.829c-0.128,0.8 -0.545,1.396 -1.25,1.787c-0.706,0.39 -1.579,0.503 -2.617,0.337c-0.463,-0.074 -0.893,-0.181 -1.29,-0.32c-0.397,-0.139 -0.743,-0.303 -1.037,-0.492Zm-29.953,0.278l-0.056,-0.549l0.752,-0.143l0.21,-0.213l-0.751,-7.376l-0.248,-0.166l-0.766,-0.001l-0.055,-0.537l6.415,-0.652l0.199,1.955l-0.752,0.076l-0.305,-1.118l-0.204,-0.184l-3.1,0.315l0.345,3.387l2.197,-0.223l0.17,-0.209l0.032,-0.988l0.634,-0.064l0.3,2.949l-0.634,0.065l-0.229,-0.955l-0.21,-0.183l-2.198,0.223l0.382,3.754l3.59,-0.365l0.168,-0.236l0.091,-1.376l0.693,-0.071l0.222,2.184l-6.892,0.701Zm24.828,-0.523l0.053,-0.55l0.864,0.019l0.247,-0.168l0.723,-7.379l-0.21,-0.212l-0.849,-0.162l0.052,-0.537l3.402,0.334l-0.053,0.536l-0.864,-0.005l-0.248,0.167l-0.723,7.379l0.21,0.212l0.851,0.149l-0.054,0.55l-3.401,-0.333Zm-41.716,-3.78l-0.27,3.954l2.614,-0.734l-2.344,-3.22Zm32.122,1.281c-0.06,0.894 -0.239,1.55 -0.635,1.984l0,0.057l2.065,0.026l0.001,-0.057c-0.385,-0.444 -0.539,-1.105 -0.585,-2l0.008,-0.008c0.231,0.377 0.603,0.585 1.107,0.591c0.984,0.013 1.529,-0.68 1.541,-1.64c0.01,-0.821 -0.823,-1.791 -1.312,-2.367c-0.561,-0.657 -1.299,-1.512 -1.692,-1.948l-0.016,0c-0.404,0.426 -1.163,1.262 -1.74,1.906c-0.545,0.611 -1.361,1.52 -1.371,2.333c-0.012,0.96 0.516,1.666 1.5,1.678c0.504,0.006 0.881,-0.192 1.121,-0.564l0.008,0.009Z" style="fill:#422673;"/><g></g></svg>