<?xml version="1.0" encoding="UTF-8" standalone="no"?><!DOCTYPE svg PUBLIC "-//W3C//DTD SVG 1.1//EN" "http://www.w3.org/Graphics/SVG/1.1/DTD/svg11.dtd"><svg width="100%" height="100%" viewBox="0 0 314 66" version="1.1" xmlns="http://www.w3.org/2000/svg" xmlns:xlink="http://www.w3.org/1999/xlink" xml:space="preserve" style="fill-rule:evenodd;clip-rule:evenodd;stroke-linejoin:round;stroke-miterlimit:1.41421;"><rect id="アートボード2" x="0.169" y="-200" width="1767.64" height="1137.38" style="fill:none;"/><g></g><g></g><path d="M0.169,54.882c0,2.033 0.557,3.751 1.67,5.155c1.113,1.404 2.614,2.541 4.502,3.413c1.887,0.871 4.09,1.476 6.607,1.815c2.517,0.339 5.179,0.411 7.987,0.218c3.388,-0.291 6.704,-0.944 9.947,-1.961c3.243,-1.016 6.293,-2.226 9.149,-3.63c2.856,-1.404 5.397,-2.808 7.624,-4.211c2.226,-1.404 4.017,-2.59 5.373,-3.558c0.968,0.871 2.25,1.791 3.848,2.759c1.597,0.968 3.17,1.743 4.719,2.323c1.162,0.484 2.711,0.993 4.647,1.525c1.937,0.533 3.582,0.896 4.938,1.089c-0.194,0.291 -0.388,0.605 -0.581,0.944c-0.194,0.339 -0.387,0.751 -0.581,1.235c-0.194,0.193 -0.315,0.459 -0.363,0.798c-0.049,0.339 0.024,0.63 0.218,0.872c0.193,0.242 0.556,0.411 1.089,0.508c0.532,0.097 1.331,0.048 2.396,-0.145c1.065,-0.194 2.009,-0.581 2.832,-1.162c0.823,-0.581 1.766,-1.404 2.831,-2.469c1.356,-0.097 2.88,-0.387 4.575,-0.871c1.694,-0.484 3.315,-1.113 4.864,-1.888c1.84,-0.968 3.461,-2.057 4.865,-3.267c1.404,-1.21 2.638,-2.3 3.703,-3.268c1.356,-1.355 1.888,-2.178 1.598,-2.468c-0.194,-0.194 -0.533,-0.097 -1.017,0.29c-0.484,0.387 -0.968,0.823 -1.452,1.307c-0.968,0.871 -2.178,1.936 -3.631,3.195c-1.452,1.258 -2.952,2.275 -4.501,3.049c-3.001,1.453 -5.76,2.275 -8.278,2.469c4.163,-6.777 8.592,-13.723 13.288,-20.838c4.695,-7.116 9.318,-13.82 13.868,-20.113c0.871,-1.162 1.815,-2.42 2.832,-3.776c1.016,-1.355 2.057,-2.638 3.122,-3.848c1.065,-1.21 2.105,-2.347 3.122,-3.412c1.016,-1.065 1.912,-1.937 2.686,-2.614c0.581,-0.484 1.307,-0.872 2.179,-1.162c0.871,-0.29 1.694,-0.436 2.468,-0.436c0.484,0 1.065,0.097 1.743,0.291c0.678,0.193 1.162,0.387 1.452,0.581c0.968,0.677 1.501,1.016 1.597,1.016c0.194,-0.193 0.194,-0.484 0,-0.871c-0.193,-0.387 -0.532,-0.775 -1.016,-1.162c-0.387,-0.29 -0.992,-0.605 -1.815,-0.944c-0.823,-0.339 -1.912,-0.508 -3.268,-0.508c-2.807,0 -5.711,0.532 -8.713,1.597c-3.001,1.065 -5.905,2.372 -8.713,3.921c-3.678,1.936 -7.381,4.429 -11.109,7.479c-3.727,3.049 -7.527,6.317 -11.399,9.802c-0.871,0.774 -1.84,1.67 -2.904,2.686c-1.065,1.017 -2.13,2.058 -3.195,3.123c-0.484,-0.969 -1.162,-2.058 -2.033,-3.268c-0.872,-1.21 -1.961,-2.323 -3.268,-3.34c-1.307,-1.016 -2.783,-1.888 -4.429,-2.614c-1.645,-0.726 -3.436,-1.137 -5.373,-1.234c-5.227,-0.097 -9.39,1.331 -12.488,4.284c-3.098,2.953 -4.696,6.607 -4.792,10.964c0,1.839 0.29,3.606 0.871,5.3c0.581,1.694 1.283,3.267 2.106,4.72c0.822,1.452 1.694,2.735 2.613,3.848c0.92,1.113 1.719,1.96 2.396,2.541c-2.033,1.355 -4.211,2.735 -6.534,4.139c-2.324,1.404 -4.768,2.686 -7.334,3.848c-2.565,1.162 -5.227,2.154 -7.987,2.977c-2.759,0.823 -5.542,1.38 -8.349,1.67c-4.744,0.387 -8.302,0.073 -10.674,-0.944c-2.372,-1.016 -3.558,-2.299 -3.558,-3.848c-0.096,-0.775 0.121,-1.452 0.654,-2.033c0.532,-0.581 1.186,-1.114 1.96,-1.598c1.065,-0.774 1.864,-1.5 2.396,-2.178c0.533,-0.678 0.847,-1.549 0.944,-2.614c0,-1.355 -0.484,-2.493 -1.452,-3.412c-0.968,-0.92 -2.275,-1.283 -3.921,-1.089c-1.936,0.096 -3.679,0.968 -5.228,2.613c-1.549,1.646 -2.323,3.728 -2.323,6.245l0,0.145Zm229.751,-0.826c0.702,-0.613 1.433,-1.275 2.193,-1.987c0.947,-0.885 1.939,-1.755 2.977,-2.61c1.588,-2.076 3.312,-4.305 5.175,-6.686c1.862,-2.381 3.862,-4.732 5.999,-7.052c1.343,-1.527 2.976,-3.328 4.9,-5.404c1.923,-2.076 3.892,-4.152 5.907,-6.228c2.015,-2.076 3.954,-3.969 5.816,-5.679c1.862,-1.709 3.404,-2.991 4.625,-3.846c1.283,-0.916 2.565,-1.756 3.847,-2.519c1.282,-0.763 2.595,-1.145 3.938,-1.145c1.222,0 2.031,0.336 2.427,1.008c0.397,0.671 0.535,1.435 0.413,2.289c-0.184,1.099 -0.825,2.366 -1.924,3.801c-1.099,1.435 -2.518,2.992 -4.259,4.671c-1.74,1.679 -3.694,3.45 -5.861,5.312c-2.168,1.863 -4.412,3.74 -6.732,5.633c-1.404,1.16 -2.916,2.351 -4.534,3.572c-1.618,1.221 -3.251,2.473 -4.9,3.755c-1.648,1.282 -3.266,2.565 -4.854,3.847c-1.587,1.282 -3.053,2.534 -4.396,3.755c-0.366,0.428 -0.901,1.114 -1.603,2.061c-0.702,0.946 -1.435,1.938 -2.198,2.976c-0.763,1.038 -1.465,2.031 -2.107,2.977c-0.641,0.947 -1.114,1.633 -1.419,2.061l0.183,0.091c1.282,-1.16 2.519,-2.274 3.709,-3.343c1.191,-1.068 2.58,-2.213 4.168,-3.434c0.854,-0.672 1.847,-1.359 2.976,-2.061c1.13,-0.702 2.183,-1.297 3.16,-1.786c0.855,-0.366 1.649,-0.595 2.381,-0.687c0.733,-0.091 1.435,-0.107 2.107,-0.046c1.16,0.123 2.061,0.55 2.702,1.283c0.641,0.732 0.748,1.526 0.32,2.381c-0.305,0.611 -0.839,1.053 -1.603,1.328c-0.763,0.275 -1.663,0.473 -2.701,0.595c-0.855,0.122 -1.649,0.26 -2.382,0.412c-0.732,0.153 -1.251,0.443 -1.557,0.871c-0.305,0.427 -0.519,0.931 -0.641,1.511c-0.122,0.58 -0.152,1.328 -0.091,2.244c0.183,2.076 0.702,3.205 1.557,3.388c0.305,0.062 0.671,0.016 1.099,-0.137c0.427,-0.153 0.854,-0.351 1.282,-0.595c0.977,-0.489 2.137,-1.282 3.48,-2.382c0.977,-0.793 1.817,-1.495 2.519,-2.106c0.702,-0.611 1.328,-1.16 1.878,-1.649c0.129,-0.086 0.266,-0.187 0.41,-0.304l0.03,-0.024l0.021,-0.017c0.044,-0.036 0.089,-0.074 0.134,-0.113c0.038,-0.032 0.076,-0.06 0.114,-0.083c0.023,-0.018 0.046,-0.036 0.069,-0.054c0.519,-0.397 1.023,-0.778 1.511,-1.145c0.489,-0.305 1.13,-0.717 1.924,-1.236c0.793,-0.519 1.618,-1.023 2.472,-1.511c1.344,-0.672 2.733,-1.283 4.168,-1.832c1.435,-0.55 2.763,-0.825 3.984,-0.825l0.091,0c0.916,0 1.603,0.275 2.061,0.825c0.458,0.549 0.657,1.068 0.596,1.557c-0.123,1.221 -0.779,2.289 -1.97,3.205c-1.19,0.916 -2.488,1.71 -3.892,2.382c-1.405,0.671 -2.839,1.251 -4.305,1.74c-1.465,0.488 -2.686,0.885 -3.663,1.19c-0.184,0.367 -0.306,0.718 -0.367,1.054c-0.061,0.336 -0.122,0.656 -0.183,0.961c-0.061,0.672 0.107,1.176 0.504,1.512c0.397,0.335 0.931,0.534 1.603,0.595c1.038,0 2.228,-0.244 3.572,-0.733c1.343,-0.488 2.93,-1.343 4.762,-2.564c1.038,-0.672 2.107,-1.45 3.206,-2.336c1.099,-0.885 1.984,-1.664 2.656,-2.335c0.07,-0.071 0.145,-0.139 0.224,-0.205c0.432,-0.416 0.907,-0.867 1.424,-1.352c0.977,-0.916 1.893,-1.71 2.748,-2.382c1.099,-0.854 2.198,-1.587 3.297,-2.198c1.099,-0.61 2.137,-0.916 3.114,-0.916c0.855,0 1.45,0.229 1.786,0.687c0.336,0.458 0.504,0.932 0.504,1.42c0,0.55 -0.198,1.16 -0.595,1.832c-0.397,0.671 -0.84,1.343 -1.328,2.015c-0.672,0.916 -1.374,1.847 -2.107,2.793c-0.733,0.947 -1.343,1.786 -1.832,2.519l0.275,0.091c1.099,-0.915 2.29,-1.908 3.572,-2.976c1.282,-1.069 2.717,-2.214 4.305,-3.435c1.587,-1.221 3.297,-2.351 5.129,-3.389c1.831,-1.038 3.45,-1.557 4.854,-1.557c0.977,0 1.725,0.214 2.244,0.642c0.519,0.427 0.717,1.038 0.595,1.831c-0.122,0.855 -0.58,1.771 -1.374,2.748c-0.793,0.977 -1.557,1.923 -2.289,2.839c-1.527,1.832 -2.534,3.145 -3.023,3.939c-0.671,1.038 -0.794,1.709 -0.366,2.014c0.244,0.184 0.58,0.229 1.007,0.138c0.428,-0.092 0.825,-0.229 1.191,-0.412c0.549,-0.245 1.191,-0.611 1.923,-1.099c0.733,-0.489 1.557,-1.069 2.473,-1.741c0.733,-0.549 1.527,-1.205 2.381,-1.969c0.855,-0.763 1.557,-1.389 2.107,-1.877c0.244,-0.183 0.473,-0.336 0.687,-0.458c0.214,-0.122 0.382,-0.122 0.504,0c0.122,0.122 0.045,0.32 -0.229,0.595c-0.275,0.275 -0.474,0.473 -0.596,0.595c-0.549,0.489 -1.373,1.237 -2.473,2.244c-1.099,1.008 -2.137,1.847 -3.114,2.519c-0.976,0.733 -2.198,1.527 -3.663,2.381c-1.465,0.855 -2.961,1.283 -4.488,1.283l-0.091,0c-0.855,0 -1.542,-0.229 -2.061,-0.687c-0.519,-0.458 -0.718,-1.023 -0.596,-1.695c0.123,-1.038 0.596,-2.121 1.42,-3.251c0.824,-1.13 1.633,-2.183 2.427,-3.16c0.672,-0.855 1.328,-1.648 1.969,-2.381c0.641,-0.733 1.267,-1.435 1.878,-2.107c0.183,-0.244 0.305,-0.488 0.366,-0.732c0.061,-0.245 -0.03,-0.428 -0.275,-0.55c-0.244,-0.122 -0.625,-0.092 -1.144,0.092c-0.519,0.183 -0.932,0.335 -1.237,0.458c-0.855,0.427 -1.893,1.022 -3.114,1.786c-1.221,0.763 -2.564,1.724 -4.03,2.885c-1.038,0.793 -1.954,1.526 -2.747,2.198c-0.794,0.671 -1.588,1.328 -2.382,1.969c-0.793,0.641 -1.602,1.297 -2.427,1.969c-0.824,0.672 -1.725,1.404 -2.702,2.198c-0.732,0.55 -1.526,0.824 -2.381,0.824c-0.672,0 -1.13,-0.076 -1.374,-0.229c-0.244,-0.152 -0.183,-0.564 0.183,-1.236c0.489,-0.855 1.069,-1.816 1.741,-2.885c0.671,-1.069 1.434,-2.152 2.289,-3.251c0.733,-0.977 1.344,-1.771 1.832,-2.382c0.489,-0.61 1.13,-1.404 1.923,-2.381c0.672,-0.733 0.855,-1.252 0.55,-1.557c-0.122,-0.183 -0.321,-0.244 -0.595,-0.183c-0.275,0.061 -0.535,0.152 -0.779,0.275c-0.488,0.244 -1.068,0.595 -1.74,1.053c-0.672,0.458 -1.282,0.931 -1.832,1.419c-0.671,0.611 -1.374,1.222 -2.106,1.832c-0.354,0.295 -0.7,0.597 -1.04,0.906c-0.14,0.168 -0.251,0.293 -0.334,0.376c-0.672,0.672 -1.511,1.42 -2.519,2.244c-1.007,0.825 -2.091,1.664 -3.251,2.519c-3.969,2.626 -7.541,3.938 -10.716,3.938c-1.71,0 -2.992,-0.335 -3.847,-1.007c-0.855,-0.672 -1.252,-1.588 -1.19,-2.748c0.122,-0.855 0.366,-1.709 0.732,-2.564c0.367,-0.855 0.855,-1.679 1.466,-2.473l-0.092,0l-0.092,0.091c0,0 -0.641,0.642 -0.641,0.642c-0.113,0.085 -0.224,0.167 -0.331,0.245c-0.417,0.385 -0.887,0.822 -1.409,1.312c-0.977,0.915 -2.045,1.801 -3.205,2.656c-0.916,0.732 -2.107,1.511 -3.572,2.335c-1.466,0.824 -2.901,1.237 -4.305,1.237c-0.916,0 -1.694,-0.321 -2.336,-0.962c-0.641,-0.641 -0.9,-1.756 -0.778,-3.343c0.061,-1.221 0.321,-2.274 0.778,-3.16c0.458,-0.885 0.871,-1.511 1.237,-1.877c0.488,-0.428 1.099,-0.764 1.832,-1.008c0.732,-0.244 1.373,-0.427 1.923,-0.549c0.488,-0.123 0.992,-0.26 1.511,-0.413c0.519,-0.152 0.962,-0.442 1.328,-0.87c0.306,-0.305 0.489,-0.748 0.55,-1.328c0.061,-0.58 -0.153,-1.022 -0.641,-1.328c-0.306,-0.183 -0.733,-0.213 -1.283,-0.091c-0.549,0.122 -1.068,0.305 -1.557,0.549c-1.221,0.55 -2.335,1.176 -3.343,1.878c-1.007,0.702 -2.213,1.603 -3.617,2.702c-1.954,1.648 -3.771,3.297 -5.45,4.945c-1.679,1.649 -3.221,2.901 -4.625,3.756c-0.489,0.305 -0.885,0.534 -1.191,0.686c-0.305,0.153 -0.702,0.229 -1.19,0.229c-0.733,0 -1.206,-0.091 -1.42,-0.274c-0.214,-0.184 -0.168,-0.58 0.137,-1.191c0.428,-0.977 0.962,-1.954 1.603,-2.931c0.641,-0.977 1.359,-2.045 2.153,-3.205c0.366,-0.489 0.763,-1.038 1.19,-1.649c0.428,-0.611 0.886,-1.221 1.374,-1.832l0,-0.091c-0.672,0.549 -1.297,1.099 -1.878,1.648c-0.58,0.55 -1.053,1.008 -1.419,1.374c-0.142,0.124 -0.271,0.22 -0.386,0.287c-0.329,0.316 -0.689,0.648 -1.08,0.995c-0.549,0.489 -1.129,0.947 -1.74,1.374c-0.732,0.55 -1.389,0.931 -1.969,1.145c-0.58,0.214 -1.084,0.382 -1.511,0.504c-0.305,0.122 -0.718,0.168 -1.237,0.137c-0.519,-0.03 -0.931,-0.137 -1.236,-0.32c-0.611,0.488 -1.313,0.992 -2.107,1.511c-0.793,0.519 -1.648,0.992 -2.564,1.419c-0.916,0.428 -1.878,0.794 -2.885,1.099c-1.008,0.306 -1.969,0.458 -2.885,0.458c-1.404,0 -2.534,-0.351 -3.389,-1.053c-0.855,-0.702 -1.221,-1.694 -1.099,-2.977c0.122,-1.038 0.412,-2.045 0.87,-3.022c0.458,-0.977 1.023,-1.862 1.695,-2.656l0,-0.092c-0.306,0.306 -0.611,0.596 -0.916,0.871c-0.306,0.274 -0.611,0.564 -0.916,0.87c-0.224,0.167 -0.434,0.322 -0.632,0.464c-0.308,0.272 -0.632,0.56 -0.971,0.864c-0.58,0.519 -1.298,1.083 -2.152,1.694c-2.626,1.832 -5.45,3.175 -8.472,4.03c-3.023,0.855 -6.671,1.282 -10.945,1.282c-1.771,0 -3.542,-0.046 -5.312,-0.137c-1.771,-0.092 -3.45,-0.199 -5.038,-0.321c-1.587,-0.122 -3.037,-0.259 -4.35,-0.412c-1.313,-0.153 -2.366,-0.29 -3.16,-0.412c-0.672,0.122 -1.435,0.244 -2.29,0.366c-0.854,0.122 -1.724,0.229 -2.61,0.321c-0.885,0.091 -1.771,0.168 -2.656,0.229c-0.885,0.061 -1.633,0.091 -2.244,0.091l-2.747,0c-1.038,0 -2.031,-0.045 -2.977,-0.137c-0.947,-0.092 -1.725,-0.244 -2.336,-0.458c-0.61,-0.214 -0.885,-0.534 -0.824,-0.962c0.183,-0.916 1.053,-1.526 2.61,-1.831c1.557,-0.306 3.221,-0.458 4.992,-0.458c0.977,0 2.076,0.045 3.297,0.137c1.221,0.092 2.458,0.198 3.709,0.321c1.252,0.122 2.458,0.244 3.618,0.366c1.16,0.122 2.168,0.244 3.023,0.366c1.587,-0.305 3.572,-0.977 5.953,-2.015c2.381,-1.038 4.549,-2.35 6.503,-3.938c1.282,-1.099 2.427,-2.168 3.434,-3.206c1.008,-1.038 1.969,-2.106 2.885,-3.205c0.916,-1.099 1.863,-2.244 2.84,-3.435c0.976,-1.19 2.106,-2.457 3.388,-3.801c2.259,-2.442 4.549,-4.472 6.869,-6.09c2.321,-1.618 4.732,-2.794 7.236,-3.526l0,-0.092c-1.893,-0.183 -3.832,-0.427 -5.816,-0.733c-1.984,-0.305 -4.198,-0.702 -6.64,-1.19c-2.442,-0.489 -4.9,-0.947 -7.373,-1.374c-2.473,-0.428 -4.931,-0.702 -7.373,-0.824c-2.015,-0.123 -3.953,-0.031 -5.816,0.274c-1.862,0.306 -3.526,0.809 -4.991,1.511c-1.466,0.703 -2.656,1.603 -3.572,2.702c-0.916,1.099 -1.466,2.382 -1.649,3.847c-0.122,1.038 0.031,1.984 0.458,2.839c0.427,0.855 1.038,1.603 1.832,2.244c0.794,0.641 1.74,1.145 2.839,1.511c1.099,0.367 2.29,0.58 3.572,0.642c2.809,0.061 5.083,-0.443 6.823,-1.512c1.741,-1.068 2.672,-2.488 2.794,-4.259c0.183,-0.976 -0.031,-1.862 -0.641,-2.656c-0.122,-0.122 -0.245,-0.229 -0.367,-0.32c-0.122,-0.092 -0.122,-0.168 0,-0.229c0.122,-0.122 0.29,-0.137 0.504,-0.046c0.214,0.092 0.382,0.199 0.504,0.321c0.366,0.183 0.763,0.534 1.19,1.053c0.428,0.519 0.642,1.206 0.642,2.061c0,1.038 -0.306,1.954 -0.916,2.747c-0.611,0.794 -1.45,1.466 -2.519,2.015c-1.068,0.55 -2.305,0.962 -3.709,1.237c-1.405,0.274 -2.84,0.412 -4.305,0.412c-1.465,0 -2.809,-0.214 -4.03,-0.641c-1.221,-0.428 -2.274,-1.008 -3.16,-1.74c-0.885,-0.733 -1.557,-1.603 -2.015,-2.611c-0.458,-1.007 -0.625,-2.122 -0.503,-3.343c0.183,-1.648 0.778,-3.129 1.786,-4.442c1.007,-1.313 2.335,-2.412 3.984,-3.297c1.648,-0.885 3.526,-1.542 5.632,-1.969c2.107,-0.427 4.351,-0.611 6.732,-0.55c2.32,0.061 4.824,0.29 7.51,0.687c2.687,0.397 5.252,0.809 7.694,1.237c2.137,0.366 4.518,0.732 7.144,1.099c2.625,0.366 5.403,0.641 8.334,0.824c4.03,0.183 7.373,-0.214 10.029,-1.191c2.656,-0.976 4.168,-2.533 4.534,-4.671c0.366,-2.015 -0.428,-3.77 -2.381,-5.266c-1.954,-1.496 -4.732,-2.244 -8.335,-2.244l-0.092,0c-2.564,0 -4.884,0.458 -6.96,1.374c-2.076,0.916 -3.633,2.015 -4.671,3.297c-0.306,0.428 -0.596,0.886 -0.87,1.374c-0.275,0.488 -0.443,0.885 -0.504,1.191c-0.183,0.793 -0.336,1.19 -0.458,1.19c-0.244,0 -0.305,-0.397 -0.183,-1.19c0.061,-0.367 0.213,-0.855 0.458,-1.466c0.244,-0.61 0.549,-1.16 0.916,-1.648c1.16,-1.527 2.793,-2.794 4.9,-3.801c2.106,-1.008 4.594,-1.511 7.464,-1.511c1.893,0 3.648,0.213 5.266,0.641c1.618,0.427 2.977,1.068 4.076,1.923c1.099,0.855 1.878,1.893 2.336,3.114c0.458,1.221 0.534,2.626 0.229,4.213c-0.245,1.282 -0.84,2.412 -1.786,3.389c-0.947,0.977 -2.153,1.771 -3.618,2.381c-1.466,0.611 -3.175,1.053 -5.129,1.328c-1.954,0.275 -4.03,0.382 -6.228,0.321c-0.489,-0.061 -0.886,-0.092 -1.191,-0.092c-0.305,0 -0.671,0.061 -1.099,0.183c-0.855,0.306 -1.908,0.947 -3.16,1.924c-1.251,0.977 -2.518,2.228 -3.801,3.755c-0.977,1.16 -1.831,2.259 -2.564,3.297c-0.733,1.038 -1.481,2.076 -2.244,3.114c-0.763,1.038 -1.588,2.091 -2.473,3.16c-0.885,1.068 -1.908,2.152 -3.068,3.251c-3.358,3.053 -6.961,5.45 -10.808,7.19c-3.846,1.74 -7.266,2.915 -10.257,3.526l0,0.092c0.488,0.061 1.236,0.137 2.243,0.229c1.008,0.091 2.153,0.183 3.435,0.274c1.282,0.092 2.687,0.168 4.213,0.229c1.527,0.061 3.084,0.092 4.671,0.092c3.908,-0.061 7.205,-0.397 9.892,-1.008c2.686,-0.61 5.342,-1.77 7.968,-3.48c0.733,-0.488 1.404,-0.992 2.015,-1.511c0.61,-0.519 1.16,-0.992 1.648,-1.42c0.12,-0.08 0.253,-0.173 0.399,-0.279c0.304,-0.275 0.614,-0.533 0.929,-0.774c0.519,-0.397 1.023,-0.778 1.512,-1.145c0.488,-0.305 1.145,-0.733 1.969,-1.282c0.824,-0.55 1.694,-1.069 2.61,-1.557c1.404,-0.794 2.778,-1.389 4.122,-1.786c1.343,-0.397 2.534,-0.656 3.572,-0.779c0.244,-0.061 0.503,-0.076 0.778,-0.045c0.275,0.03 0.473,0.168 0.595,0.412c0,0.122 -0.122,0.214 -0.366,0.275c-0.244,0.061 -0.458,0.152 -0.641,0.274c-2.076,0.977 -4.274,2.656 -6.594,5.038c-0.672,0.61 -1.298,1.282 -1.878,2.015c-0.58,0.732 -1.114,1.465 -1.603,2.198c-0.488,0.732 -0.9,1.45 -1.236,2.152c-0.336,0.702 -0.535,1.267 -0.596,1.694c-0.122,1.038 0.306,1.557 1.283,1.557c1.038,0 2.366,-0.534 3.984,-1.602c1.618,-1.069 3.129,-2.397 4.533,-3.984c0.061,-0.489 0.199,-1.054 0.412,-1.695c0.214,-0.641 0.626,-1.358 1.237,-2.152c0.488,-0.672 1.023,-1.206 1.603,-1.603c0.58,-0.397 1.022,-0.656 1.328,-0.778c0.122,-0.306 0.198,-0.703 0.229,-1.191c0.03,-0.489 0.046,-0.855 0.046,-1.099c-0.123,-0.489 -0.214,-0.809 -0.275,-0.962c-0.061,-0.152 0,-0.259 0.183,-0.32c0.122,-0.122 0.321,-0.107 0.595,0.045c0.275,0.153 0.504,0.321 0.687,0.504c0.916,0.794 1.282,1.862 1.099,3.206c-0.122,1.099 -0.671,2.289 -1.648,3.572c-0.977,1.282 -2.168,2.564 -3.572,3.846c0.183,0.123 0.442,0.168 0.778,0.138c0.336,-0.031 0.657,-0.077 0.962,-0.138c0.305,-0.061 0.733,-0.213 1.282,-0.458c0.55,-0.244 1.16,-0.61 1.832,-1.099c0.61,-0.427 1.175,-0.885 1.694,-1.373c0.519,-0.489 1.023,-0.916 1.511,-1.283c0.159,-0.158 0.328,-0.305 0.509,-0.44Zm-129.374,9.782l-0.091,0c-3.419,0 -5.037,-1.282 -4.854,-3.846c0.122,-0.916 0.412,-1.863 0.87,-2.84c0.458,-0.977 1.053,-1.892 1.786,-2.747l-0.092,0c-0.244,0.244 -0.473,0.473 -0.687,0.687c-0.213,0.213 -0.473,0.442 -0.778,0.687c-0.244,0.183 -0.473,0.351 -0.687,0.503c-0.214,0.153 -0.382,0.168 -0.504,0.046c-0.122,-0.122 -0.091,-0.29 0.092,-0.504c0.183,-0.213 0.366,-0.412 0.549,-0.595c0.489,-0.488 0.992,-0.931 1.511,-1.328c0.519,-0.397 1.023,-0.778 1.512,-1.145c0.488,-0.305 1.145,-0.733 1.969,-1.282c0.824,-0.55 1.694,-1.069 2.61,-1.557c1.588,-0.855 3.084,-1.527 4.488,-2.015c1.404,-0.488 2.717,-0.672 3.938,-0.55c1.038,0.184 1.756,0.596 2.153,1.237c0.396,0.641 0.503,1.389 0.32,2.244c-0.122,0.855 -0.534,1.587 -1.236,2.198c-0.703,0.611 -1.328,0.916 -1.878,0.916c-0.794,0 -1.236,-0.275 -1.328,-0.824c-0.092,-0.55 0.107,-1.161 0.595,-1.832c0.489,-0.855 0.794,-1.542 0.916,-2.061c0.122,-0.519 -0.091,-0.84 -0.641,-0.962c-1.099,-0.183 -2.992,1.099 -5.678,3.847c-1.222,1.221 -2.351,2.61 -3.389,4.167c-1.038,1.557 -1.618,2.885 -1.74,3.984c-0.183,1.405 0.519,2.107 2.106,2.107c0.611,0 1.649,-0.198 3.114,-0.595c1.466,-0.397 3.206,-1.298 5.221,-2.702c0.855,-0.611 1.786,-1.298 2.793,-2.061c1.008,-0.763 1.786,-1.42 2.336,-1.969l0.009,-0.006c0.428,-0.415 0.868,-0.794 1.319,-1.139c0.519,-0.397 1.023,-0.778 1.511,-1.145c0.488,-0.305 1.13,-0.717 1.923,-1.236c0.794,-0.519 1.618,-1.023 2.473,-1.511c1.344,-0.672 2.733,-1.283 4.168,-1.832c1.434,-0.55 2.762,-0.825 3.984,-0.825l0.091,0c0.916,0 1.603,0.275 2.061,0.825c0.458,0.549 0.656,1.068 0.595,1.557c-0.122,1.221 -0.778,2.289 -1.969,3.205c-1.191,0.916 -2.488,1.71 -3.892,2.382c-1.405,0.671 -2.84,1.251 -4.305,1.74c-1.465,0.488 -2.687,0.885 -3.664,1.19c-0.183,0.367 -0.305,0.718 -0.366,1.054c-0.061,0.336 -0.122,0.656 -0.183,0.961c-0.061,0.672 0.107,1.176 0.504,1.512c0.397,0.335 0.931,0.534 1.602,0.595c1.038,0 2.229,-0.244 3.572,-0.733c1.344,-0.488 2.931,-1.343 4.763,-2.564c1.038,-0.672 2.107,-1.45 3.206,-2.336c1.099,-0.885 1.984,-1.664 2.656,-2.335c0.183,-0.183 0.397,-0.351 0.641,-0.504c0.244,-0.153 0.427,-0.168 0.549,-0.046c0.122,0.122 0.061,0.336 -0.183,0.641c-0.244,0.306 -0.427,0.519 -0.549,0.641c-0.672,0.672 -1.512,1.42 -2.519,2.244c-1.008,0.825 -2.091,1.664 -3.251,2.519c-3.969,2.626 -7.541,3.938 -10.716,3.938c-1.71,0 -2.992,-0.335 -3.847,-1.007c-0.855,-0.672 -1.252,-1.588 -1.191,-2.748c0.122,-0.855 0.367,-1.709 0.733,-2.564c0.36,-0.839 0.837,-1.649 1.432,-2.429c-0.176,0.226 -0.378,0.425 -0.608,0.597c-0.488,0.488 -1.206,1.13 -2.152,1.923c-0.946,0.794 -1.969,1.557 -3.068,2.29c-1.588,1.099 -3.358,2.03 -5.312,2.794c-1.954,0.763 -3.725,1.144 -5.313,1.144Zm-45.776,-13.313c1.646,-1.355 3.316,-2.759 5.01,-4.211c1.694,-1.452 3.51,-3.049 5.446,-4.792c1.646,-1.355 3.291,-2.807 4.937,-4.356c1.646,-1.549 3.34,-3.147 5.083,-4.793c0.484,1.065 0.847,2.324 1.089,3.776c0.242,1.452 0.46,2.953 0.653,4.502c0.194,2.226 0.218,4.308 0.073,6.244c-0.145,1.936 -0.46,3.437 -0.944,4.502c-0.194,0.29 -0.46,0.702 -0.799,1.234c-0.339,0.533 -0.726,1.138 -1.161,1.815c-0.436,0.678 -0.872,1.38 -1.307,2.106c-0.436,0.726 -0.799,1.331 -1.089,1.815c-1.356,-0.193 -2.977,-0.581 -4.865,-1.162c-1.888,-0.58 -3.413,-1.113 -4.575,-1.597c-1.355,-0.678 -2.759,-1.452 -4.211,-2.323c-1.452,-0.872 -2.565,-1.743 -3.34,-2.614l0,-0.146Zm65.926,6.719c0.549,-0.916 1.328,-2.015 2.335,-3.297c1.008,-1.282 1.878,-2.259 2.611,-2.931c0.916,-0.855 1.709,-1.465 2.381,-1.832c0.672,-0.366 1.221,-0.58 1.649,-0.641c0.916,0 1.282,0.397 1.099,1.191c-0.061,0.671 -0.412,1.435 -1.054,2.289c-0.641,0.855 -1.541,1.68 -2.701,2.473c-0.977,0.672 -2.046,1.237 -3.206,1.695c-1.16,0.458 -2.198,0.839 -3.114,1.145l0,-0.092Zm141.504,0c0.55,-0.916 1.328,-2.015 2.336,-3.297c1.007,-1.282 1.877,-2.259 2.61,-2.931c0.916,-0.855 1.71,-1.465 2.381,-1.832c0.672,-0.366 1.221,-0.58 1.649,-0.641c0.916,0 1.282,0.397 1.099,1.191c-0.061,0.671 -0.412,1.435 -1.053,2.289c-0.641,0.855 -1.542,1.68 -2.702,2.473c-0.977,0.672 -2.046,1.237 -3.206,1.695c-1.16,0.458 -2.198,0.839 -3.114,1.145l0,-0.092Zm-201.185,-35.762c3.001,0 5.663,0.872 7.986,2.614c2.324,1.743 4.212,3.969 5.664,6.68c-3.389,3.292 -6.825,6.438 -10.31,9.439c-1.937,1.743 -3.825,3.364 -5.664,4.865c-1.839,1.5 -3.485,2.88 -4.937,4.139c-0.484,-0.581 -1.017,-1.38 -1.598,-2.397c-0.581,-1.016 -1.113,-2.154 -1.597,-3.412c-0.484,-1.259 -0.896,-2.614 -1.234,-4.066c-0.339,-1.452 -0.46,-2.953 -0.363,-4.502c0.096,-1.742 0.411,-3.412 0.943,-5.01c0.533,-1.597 1.307,-3.001 2.324,-4.211c1.016,-1.21 2.227,-2.203 3.63,-2.977c1.404,-0.775 3.074,-1.162 5.01,-1.162l0.146,0Zm17.28,27.156c0.775,-1.259 1.888,-2.977 3.34,-5.155c1.452,-2.179 3.001,-4.454 4.647,-6.826c1.646,-2.372 3.316,-4.719 5.01,-7.043c1.694,-2.323 3.171,-4.308 4.429,-5.954c4.454,-5.808 8.616,-10.358 12.489,-13.65c3.872,-3.291 7.503,-5.76 10.891,-7.406l0,-0.145c-1.646,0.194 -3.727,0.75 -6.244,1.67c-2.517,0.92 -5.034,2.057 -7.552,3.412c-3.388,1.937 -6.776,4.26 -10.165,6.971c-3.388,2.711 -6.486,5.324 -9.293,7.842c-1.549,1.452 -3.098,2.952 -4.647,4.501c-1.549,1.549 -3.05,3.001 -4.502,4.357c0.387,0.774 0.75,2.009 1.089,3.703c0.339,1.694 0.605,3.558 0.799,5.591c0.193,2.807 0.048,5.518 -0.436,8.132l0.145,0Zm163.847,-2.476c1.832,-2.381 3.389,-4.381 4.671,-5.999c1.283,-1.618 2.443,-3.068 3.481,-4.351c1.038,-1.282 2.015,-2.473 2.931,-3.572c0.915,-1.099 1.892,-2.289 2.93,-3.572c2.382,-2.869 4.626,-5.388 6.732,-7.556c2.107,-2.167 3.923,-4.014 5.45,-5.541c0.977,-0.916 2.015,-1.755 3.114,-2.518c1.099,-0.764 2.045,-1.145 2.839,-1.145c1.099,0 1.618,0.58 1.557,1.74c-0.122,1.038 -0.672,2.229 -1.649,3.572c-0.977,1.343 -2.259,2.824 -3.846,4.442c-1.588,1.618 -3.404,3.358 -5.45,5.22c-2.045,1.863 -4.167,3.771 -6.365,5.725c-1.038,0.916 -2.061,1.786 -3.069,2.61c-1.007,0.824 -2.137,1.74 -3.388,2.748c-1.252,1.007 -2.672,2.167 -4.259,3.48c-1.588,1.313 -3.481,2.916 -5.679,4.808l0,-0.091Z" style="fill:#fff;"/><g></g></svg>