<?xml version="1.0" encoding="UTF-8" standalone="no"?><!DOCTYPE svg PUBLIC "-//W3C//DTD SVG 1.1//EN" "http://www.w3.org/Graphics/SVG/1.1/DTD/svg11.dtd"><svg width="100%" height="100%" viewBox="0 0 57 58" version="1.1" xmlns="http://www.w3.org/2000/svg" xmlns:xlink="http://www.w3.org/1999/xlink" xml:space="preserve" style="fill-rule:evenodd;clip-rule:evenodd;stroke-linejoin:round;stroke-miterlimit:1.41421;"><rect id="アートボード2" x="-62.831" y="-139" width="1767.64" height="1137.38" style="fill:none;"/><g><g><path d="M5.717,-133.51l0.419,0.004l0.417,0.007l0.418,0.01l0.416,0.012l0.416,0.014l0.415,0.018l0.414,0.02l0.414,0.022l0.413,0.025l0.413,0.028l0.411,0.03l0.411,0.033l0.411,0.036l0.409,0.037l0.409,0.041l0.225,0.024l0.183,0.019l0.407,0.046l0.407,0.048l0.405,0.051l0.405,0.054l0.404,0.056l0.404,0.058l0.402,0.061l0.402,0.063l0.401,0.066l0.4,0.068l0.399,0.071l0.398,0.073l0.398,0.076l0.396,0.078l0.396,0.08l0.395,0.083l0.394,0.085l0.393,0.087l0.392,0.09l0.391,0.093l0.391,0.094l0.389,0.097l0.389,0.099l0.22,0.058l0.167,0.044l0.386,0.105l0.386,0.107l0.384,0.109l0.384,0.111l0.382,0.114l0.382,0.116l0.38,0.118l0.38,0.121l0.378,0.123l0.378,0.125l0.376,0.127l0.375,0.13l0.375,0.131l0.373,0.134l0.372,0.137l0.371,0.138l0.37,0.141l0.369,0.142l0.368,0.145l0.366,0.148l0.366,0.149l0.364,0.151l0.364,0.154l0.362,0.156l0.361,0.158l0.36,0.16l0.358,0.162l0.358,0.164l0.356,0.166l0.355,0.169l0.354,0.17l0.353,0.173l0.351,0.175l0.351,0.176l0.349,0.179l0.348,0.181l0.346,0.183l0.346,0.185l0.344,0.186l0.342,0.189l0.342,0.191l0.34,0.193l0.339,0.195l0.338,0.197l0.336,0.199l0.335,0.2l0.334,0.203l0.163,0.101l0.169,0.104l0.331,0.207l0.329,0.209l0.328,0.211l0.327,0.213l0.325,0.215l0.324,0.217l0.322,0.218l0.322,0.221l0.319,0.222l0.319,0.224l0.316,0.226l0.316,0.228l0.314,0.23l0.312,0.231l0.311,0.234l0.31,0.235l0.308,0.237l0.307,0.239l0.305,0.24l0.304,0.243l0.302,0.244l0.301,0.246l0.299,0.247l0.297,0.25l0.296,0.251l0.295,0.253l0.293,0.254l0.291,0.257l0.29,0.258l0.289,0.259l0.286,0.262l0.286,0.263l0.283,0.265l0.282,0.266l0.28,0.268l0.279,0.27l0.277,0.271l0.276,0.273l0.274,0.275l0.272,0.276l0.27,0.278l0.269,0.28l0.267,0.281l0.266,0.282l0.25,0.27l0.014,0.015l0.261,0.286l0.26,0.288l0.259,0.289l0.256,0.291l0.255,0.292l0.253,0.294l0.252,0.295l0.249,0.297l0.248,0.299l0.246,0.299l0.245,0.302l0.242,0.303l0.241,0.304l0.239,0.306l0.237,0.307l0.236,0.309l0.233,0.31l0.232,0.311l0.23,0.313l0.228,0.315l0.226,0.316l0.224,0.317l0.222,0.318l0.221,0.32l0.218,0.322l0.217,0.323l0.215,0.324l0.213,0.325l0.211,0.327l0.209,0.328l0.207,0.329l0.205,0.331l0.204,0.332l0.201,0.334l0.199,0.334l0.198,0.336l0.195,0.337l0.194,0.339l0.191,0.34l0.189,0.341l0.117,0.213l0.071,0.129l0.184,0.344l0.183,0.345l0.181,0.346l0.179,0.347l0.177,0.349l0.174,0.349l0.173,0.351l0.17,0.353l0.169,0.353l0.166,0.354l0.164,0.356l0.163,0.357l0.16,0.358l0.158,0.359l0.155,0.36l0.154,0.361l0.151,0.362l0.15,0.364l0.147,0.364l0.145,0.366l0.143,0.366l0.14,0.368l0.139,0.369l0.136,0.37l0.134,0.371l0.132,0.371l0.13,0.373l0.127,0.374l0.125,0.375l0.123,0.376l0.121,0.377l0.118,0.378l0.116,0.379l0.114,0.379l0.112,0.381l0.109,0.382l0.107,0.383l0.105,0.383l0.102,0.385l0.1,0.385l0.098,0.386l0.095,0.388l0.093,0.388l0.091,0.389l0.088,0.39l0.086,0.39l0.084,0.392l0.081,0.392l0.079,0.394l0.076,0.394l0.074,0.395l0.072,0.396l0.069,0.396l0.067,0.398l0.064,0.398l0.062,0.399l0.059,0.399l0.057,0.401l0.055,0.401l0.011,0.089l0.041,0.313l0.049,0.403l0.046,0.404l0.044,0.404l0.041,0.405l0.039,0.406l0.037,0.406l0.034,0.407l0.031,0.408l0.029,0.409l0.026,0.409l0.024,0.409l0.021,0.411l0.019,0.411l0.016,0.412l0.013,0.412l0.011,0.413l0.008,0.414l0.006,0.414l0.003,0.415l0,0.415l-0.001,0.152l-0.001,0.264l-0.004,-0.264l-0.001,-0.152l-0.008,-0.415l-0.01,-0.415l-0.013,-0.414l-0.015,-0.413l-0.018,-0.412l-0.021,-0.412l-0.023,-0.411l-0.025,-0.41l-0.029,-0.41l-0.03,-0.409l-0.034,-0.408l-0.035,-0.407l-0.039,-0.407l-0.041,-0.406l-0.043,-0.405l-0.046,-0.404l-0.048,-0.403l-0.051,-0.403l-0.053,-0.402l-0.056,-0.401l-0.046,-0.312l-0.012,-0.088l-0.06,-0.4l-0.063,-0.398l-0.065,-0.398l-0.067,-0.397l-0.07,-0.396l-0.073,-0.395l-0.074,-0.395l-0.077,-0.393l-0.08,-0.393l-0.082,-0.391l-0.084,-0.391l-0.086,-0.39l-0.089,-0.389l-0.091,-0.388l-0.094,-0.387l-0.096,-0.386l-0.098,-0.386l-0.101,-0.384l-0.103,-0.383l-0.105,-0.382l-0.107,-0.382l-0.11,-0.38l-0.112,-0.379l-0.114,-0.379l-0.117,-0.377l-0.119,-0.377l-0.121,-0.375l-0.123,-0.374l-0.125,-0.373l-0.128,-0.373l-0.13,-0.371l-0.132,-0.37l-0.134,-0.369l-0.137,-0.368l-0.138,-0.367l-0.141,-0.365l-0.143,-0.365l-0.145,-0.363l-0.147,-0.363l-0.15,-0.361l-0.151,-0.36l-0.154,-0.359l-0.155,-0.358l-0.158,-0.357l-0.16,-0.355l-0.162,-0.355l-0.164,-0.353l-0.167,-0.352l-0.168,-0.351l-0.17,-0.349l-0.172,-0.349l-0.175,-0.347l-0.176,-0.346l-0.178,-0.345l-0.181,-0.343l-0.182,-0.342l-0.185,-0.341l-0.186,-0.34l-0.188,-0.339l-0.072,-0.126l-0.119,-0.211l-0.191,-0.336l-0.194,-0.335l-0.196,-0.334l-0.198,-0.332l-0.199,-0.331l-0.202,-0.329l-0.203,-0.329l-0.206,-0.327l-0.207,-0.325l-0.209,-0.325l-0.211,-0.323l-0.213,-0.321l-0.215,-0.32l-0.217,-0.319l-0.218,-0.318l-0.22,-0.316l-0.223,-0.314l-0.224,-0.313l-0.226,-0.312l-0.227,-0.311l-0.23,-0.308l-0.231,-0.308l-0.233,-0.306l-0.235,-0.305l-0.237,-0.303l-0.238,-0.301l-0.24,-0.3l-0.242,-0.299l-0.244,-0.297l-0.245,-0.296l-0.247,-0.294l-0.249,-0.293l-0.251,-0.291l-0.252,-0.289l-0.254,-0.288l-0.256,-0.287l-0.257,-0.285l-0.259,-0.283l-0.261,-0.282l-0.262,-0.28l-0.013,-0.014l-0.25,-0.265l-0.266,-0.277l-0.267,-0.276l-0.268,-0.274l-0.27,-0.273l-0.272,-0.271l-0.273,-0.269l-0.275,-0.267l-0.277,-0.266l-0.278,-0.265l-0.279,-0.262l-0.282,-0.261l-0.282,-0.26l-0.285,-0.257l-0.286,-0.256l-0.287,-0.254l-0.289,-0.253l-0.29,-0.251l-0.292,-0.249l-0.294,-0.247l-0.295,-0.246l-0.296,-0.244l-0.298,-0.242l-0.299,-0.24l-0.301,-0.239l-0.302,-0.236l-0.304,-0.235l-0.305,-0.234l-0.307,-0.231l-0.308,-0.23l-0.309,-0.227l-0.311,-0.226l-0.312,-0.224l-0.314,-0.223l-0.315,-0.22l-0.316,-0.219l-0.318,-0.216l-0.319,-0.215l-0.32,-0.213l-0.322,-0.211l-0.323,-0.209l-0.324,-0.208l-0.326,-0.205l-0.327,-0.204l-0.328,-0.201l-0.168,-0.102l-0.162,-0.098l-0.33,-0.198l-0.332,-0.196l-0.333,-0.195l-0.335,-0.192l-0.335,-0.19l-0.337,-0.189l-0.339,-0.186l-0.339,-0.184l-0.341,-0.183l-0.341,-0.18l-0.343,-0.178l-0.345,-0.177l-0.345,-0.174l-0.347,-0.172l-0.348,-0.171l-0.348,-0.168l-0.351,-0.166l-0.351,-0.164l-0.352,-0.162l-0.354,-0.16l-0.355,-0.158l-0.355,-0.155l-0.357,-0.154l-0.358,-0.151l-0.36,-0.15l-0.36,-0.147l-0.361,-0.145l-0.363,-0.143l-0.363,-0.141l-0.365,-0.138l-0.365,-0.137l-0.367,-0.134l-0.367,-0.132l-0.369,-0.13l-0.37,-0.128l-0.371,-0.125l-0.371,-0.124l-0.373,-0.121l-0.374,-0.118l-0.374,-0.117l-0.376,-0.114l-0.377,-0.112l-0.377,-0.11l-0.379,-0.108l-0.379,-0.105l-0.381,-0.103l-0.381,-0.101l-0.165,-0.042l-0.217,-0.057l-0.383,-0.096l-0.384,-0.094l-0.385,-0.092l-0.386,-0.09l-0.387,-0.087l-0.387,-0.085l-0.389,-0.083l-0.389,-0.08l-0.39,-0.078l-0.391,-0.076l-0.392,-0.073l-0.392,-0.071l-0.394,-0.068l-0.394,-0.066l-0.395,-0.063l-0.396,-0.061l-0.397,-0.059l-0.397,-0.056l-0.398,-0.054l-0.399,-0.051l-0.4,-0.049l-0.401,-0.047l-0.401,-0.044l-0.18,-0.018l-0.222,-0.023l-0.402,-0.04l-0.404,-0.037l-0.404,-0.034l-0.405,-0.032l-0.405,-0.029l-0.407,-0.027l-0.407,-0.024l-0.407,-0.022l-0.409,-0.019l-0.408,-0.017l-0.41,-0.014l-0.41,-0.011l-0.411,-0.009l-0.412,-0.006l-0.412,-0.004l-0.413,-0.001l-0.413,0.001l-0.412,0.005l-0.411,0.006l-0.411,0.01l-0.41,0.012l-0.41,0.014l-0.409,0.017l-0.023,0.001l-0.385,0.018l-0.408,0.022l-0.407,0.025l-0.406,0.027l-0.405,0.029l-0.405,0.032l-0.404,0.035l-0.403,0.037l-0.403,0.039l-0.402,0.042l-0.401,0.044l-0.401,0.047l-0.399,0.05l-0.399,0.052l-0.398,0.054l-0.397,0.057l-0.397,0.059l-0.396,0.062l-0.395,0.064l-0.394,0.066l-0.393,0.069l-0.392,0.071l-0.392,0.074l-0.391,0.076l-0.39,0.078l-0.389,0.081l-0.388,0.083l-0.387,0.086l-0.387,0.088l-0.385,0.09l-0.385,0.092l-0.383,0.095l-0.383,0.097l-0.287,0.075l-0.095,0.025l-0.381,0.101l-0.38,0.104l-0.379,0.106l-0.378,0.108l-0.378,0.111l-0.376,0.113l-0.375,0.115l-0.374,0.118l-0.374,0.119l-0.372,0.122l-0.371,0.124l-0.37,0.126l-0.37,0.129l-0.368,0.131l-0.367,0.132l-0.366,0.136l-0.365,0.137l-0.364,0.139l-0.363,0.142l-0.362,0.143l-0.361,0.146l-0.36,0.148l-0.358,0.15l-0.358,0.152l-0.356,0.155l-0.355,0.156l-0.354,0.159l-0.353,0.16l-0.352,0.163l-0.351,0.165l-0.349,0.167l-0.349,0.168l-0.347,0.171l-0.346,0.173l-0.344,0.175l-0.344,0.177l-0.342,0.179l-0.341,0.181l-0.34,0.183l-0.022,0.012l-0.317,0.173l-0.338,0.187l-0.336,0.189l-0.335,0.191l-0.334,0.192l-0.332,0.195l-0.331,0.197l-0.33,0.198l-0.329,0.201l-0.327,0.202l-0.326,0.205l-0.325,0.206l-0.323,0.208l-0.322,0.21l-0.321,0.212l-0.319,0.214l-0.318,0.216l-0.317,0.217l-0.315,0.219l-0.314,0.222l-0.312,0.223l-0.311,0.225l-0.31,0.226l-0.308,0.229l-0.307,0.23l-0.305,0.233l-0.304,0.233l-0.303,0.236l-0.301,0.238l-0.299,0.239l-0.299,0.241l-0.296,0.243l-0.295,0.244l-0.294,0.246l-0.292,0.248l-0.291,0.25l-0.289,0.252l-0.288,0.253l-0.286,0.254l-0.284,0.257l-0.283,0.258l-0.282,0.26l-0.28,0.262l-0.278,0.263l-0.277,0.265l-0.275,0.266l-0.273,0.268l-0.272,0.27l-0.271,0.271l-0.268,0.273l-0.267,0.275l-0.266,0.276l-0.264,0.278l-0.262,0.279l-0.26,0.281l-0.259,0.282l-0.257,0.284l-0.256,0.286l-0.254,0.287l-0.252,0.288l-0.25,0.291l-0.249,0.291l-0.247,0.293l-0.245,0.295l-0.243,0.296l-0.242,0.298l-0.24,0.299l-0.238,0.301l-0.237,0.302l-0.235,0.303l-0.232,0.305l-0.232,0.307l-0.229,0.307l-0.227,0.31l-0.226,0.31l-0.224,0.312l-0.222,0.314l-0.22,0.315l-0.219,0.316l-0.216,0.317l-0.215,0.319l-0.212,0.321l-0.211,0.321l-0.209,0.324l-0.207,0.324l-0.206,0.326l-0.203,0.327l-0.201,0.328l-0.2,0.33l-0.197,0.331l-0.196,0.332l-0.094,0.162l-0.099,0.171l-0.192,0.335l-0.19,0.336l-0.188,0.337l-0.186,0.339l-0.184,0.339l-0.182,0.341l-0.179,0.343l-0.178,0.343l-0.176,0.345l-0.174,0.345l-0.172,0.347l-0.17,0.349l-0.167,0.349l-0.166,0.351l-0.163,0.351l-0.162,0.353l-0.159,0.354l-0.158,0.356l-0.155,0.356l-0.153,0.357l-0.151,0.359l-0.149,0.36l-0.147,0.36l-0.144,0.362l-0.143,0.363l-0.14,0.364l-0.138,0.365l-0.136,0.367l-0.134,0.367l-0.132,0.368l-0.129,0.369l-0.127,0.371l-0.125,0.371l-0.123,0.373l-0.121,0.373l-0.118,0.375l-0.116,0.375l-0.114,0.376l-0.112,0.378l-0.109,0.378l-0.107,0.379l-0.105,0.381l-0.102,0.381l-0.101,0.382l-0.098,0.383l-0.095,0.384l-0.093,0.385l-0.091,0.386l-0.089,0.387l-0.086,0.387l-0.084,0.389l-0.082,0.389l-0.079,0.391l-0.077,0.391l-0.074,0.392l-0.072,0.393l-0.07,0.393l-0.067,0.395l-0.065,0.395l-0.062,0.396l-0.06,0.397l-0.058,0.398l-0.055,0.399l-0.053,0.399l-0.05,0.4l-0.048,0.401l-0.045,0.402l-0.043,0.402l-0.04,0.403l-0.038,0.404l-0.035,0.405l-0.033,0.405l-0.03,0.406l-0.028,0.407l-0.025,0.407l-0.022,0.408l-0.02,0.409l-0.018,0.41l-0.015,0.41l-0.012,0.411l-0.01,0.411l-0.007,0.413l-0.005,0.412l-0.001,0.414l0,0.413l0.004,0.413l0.005,0.412l0.009,0.412l0.011,0.411l0.014,0.41l0.016,0.41l0.019,0.409l0.021,0.408l0.024,0.408l0.027,0.407l0.029,0.406l0.031,0.406l0.034,0.405l0.021,0.231l0.016,0.173l0.039,0.403l0.041,0.403l0.044,0.402l0.047,0.401l0.049,0.401l0.051,0.399l0.054,0.399l0.056,0.398l0.059,0.398l0.061,0.396l0.064,0.396l0.066,0.395l0.068,0.394l0.071,0.393l0.073,0.393l0.076,0.392l0.078,0.39l0.08,0.39l0.083,0.389l0.085,0.389l0.087,0.387l0.09,0.386l0.092,0.386l0.095,0.385l0.096,0.383l0.099,0.383l0.102,0.382l0.103,0.381l0.106,0.38l0.109,0.379l0.11,0.378l0.113,0.377l0.115,0.376l0.117,0.376l0.12,0.374l0.121,0.373l0.124,0.372l0.126,0.371l0.129,0.371l0.13,0.369l0.133,0.368l0.135,0.367l0.137,0.366l0.14,0.365l0.141,0.364l0.144,0.362l0.145,0.362l0.148,0.361l0.15,0.359l0.153,0.359l0.154,0.357l0.156,0.356l0.159,0.355l0.16,0.354l0.163,0.353l0.165,0.352l0.167,0.35l0.168,0.349l0.171,0.348l0.173,0.347l0.175,0.346l0.177,0.345l0.179,0.343l0.181,0.342l0.184,0.341l0.185,0.339l0.187,0.339l0.189,0.337l0.191,0.336l0.193,0.334l0.195,0.334l0.197,0.332l0.198,0.331l0.201,0.329l0.203,0.328l0.205,0.327l0.206,0.326l0.209,0.324l0.21,0.323l0.212,0.321l0.214,0.321l0.216,0.318l0.218,0.318l0.22,0.316l0.221,0.315l0.224,0.313l0.225,0.312l0.227,0.31l0.229,0.309l0.231,0.308l0.232,0.306l0.234,0.305l0.237,0.303l0.237,0.302l0.24,0.301l0.241,0.299l0.244,0.297l0.245,0.296l0.246,0.295l0.249,0.293l0.25,0.291l0.252,0.29l0.253,0.289l0.255,0.287l0.257,0.285l0.259,0.284l0.213,0.231l0.047,0.051l0.262,0.281l0.264,0.279l0.265,0.278l0.267,0.276l0.268,0.274l0.27,0.273l0.272,0.271l0.274,0.27l0.275,0.268l0.276,0.266l0.278,0.265l0.28,0.263l0.281,0.261l0.283,0.26l0.285,0.258l0.286,0.256l0.287,0.255l0.29,0.253l0.29,0.251l0.292,0.249l0.294,0.248l0.295,0.246l0.297,0.245l0.298,0.242l0.3,0.241l0.301,0.239l0.303,0.237l0.304,0.236l0.305,0.234l0.307,0.232l0.309,0.23l0.309,0.228l0.312,0.227l0.312,0.224l0.315,0.223l0.315,0.221l0.317,0.219l0.318,0.218l0.32,0.215l0.321,0.214l0.322,0.211l0.324,0.21l0.325,0.208l0.326,0.206l0.328,0.204l0.329,0.202l0.33,0.2l0.332,0.199l0.333,0.196l0.334,0.195l0.336,0.192l0.336,0.19l0.338,0.189l0.34,0.186l0.34,0.185l0.342,0.182l0.343,0.181l0.344,0.178l0.346,0.177l0.346,0.174l0.348,0.173l0.349,0.17l0.351,0.168l0.351,0.167l0.353,0.164l0.354,0.162l0.354,0.16l0.357,0.158l0.357,0.156l0.358,0.153l0.36,0.152l0.36,0.149l0.362,0.148l0.363,0.145l0.364,0.143l0.365,0.141l0.366,0.138l0.367,0.137l0.368,0.134l0.369,0.132l0.37,0.13l0.372,0.128l0.372,0.126l0.373,0.123l0.375,0.121l0.375,0.119l0.377,0.116l0.377,0.115l0.378,0.112l0.38,0.11l0.38,0.107l0.381,0.105l0.383,0.103l0.383,0.101l0.384,0.098l0.385,0.096l0.386,0.094l0.387,0.091l0.388,0.09l0.388,0.086l0.39,0.085l0.39,0.081l0.392,0.08l0.392,0.077l0.393,0.075l0.394,0.073l0.395,0.07l0.395,0.067l0.397,0.065l0.397,0.063l0.398,0.06l0.399,0.058l0.399,0.056l0.401,0.053l0.401,0.05l0.402,0.048l0.403,0.046l0.403,0.043l0.404,0.04l0.405,0.039l0.406,0.035l0.407,0.033l0.407,0.031l0.408,0.028l0.408,0.025l0.41,0.023l0.41,0.02l0.41,0.018l0.412,0.015l0.412,0.012l0.412,0.01l0.414,0.008l0.414,0.004l0.414,0.003l0.415,-0.001l0.414,-0.003l0.413,-0.006l0.413,-0.008l0.412,-0.011l0.412,-0.014l0.41,-0.016l0.411,-0.018l0.409,-0.022l0.409,-0.024l0.408,-0.026l0.407,-0.029l0.407,-0.031l0.406,-0.034l0.405,-0.037l0.405,-0.039l0.404,-0.041l0.403,-0.044l0.402,-0.047l0.402,-0.049l0.401,-0.051l0.4,-0.054l0.399,-0.056l0.399,-0.059l0.398,-0.061l0.397,-0.064l0.396,-0.066l0.395,-0.069l0.394,-0.071l0.394,-0.073l0.393,-0.076l0.392,-0.078l0.391,-0.081l0.39,-0.082l0.39,-0.086l0.388,-0.087l0.388,-0.09l0.386,-0.092l0.386,-0.095l0.385,-0.097l0.384,-0.099l0.383,-0.102l0.382,-0.104l0.381,-0.106l0.38,-0.108l0.38,-0.111l0.378,-0.113l0.377,-0.115l0.377,-0.118l0.375,-0.12l0.374,-0.122l0.374,-0.124l0.372,-0.126l0.371,-0.129l0.37,-0.131l0.37,-0.133l0.368,-0.135l0.367,-0.138l0.366,-0.139l0.365,-0.142l0.364,-0.144l0.363,-0.146l0.361,-0.149l0.361,-0.15l0.36,-0.153l0.358,-0.154l0.357,-0.157l0.356,-0.159l0.355,-0.161l0.354,-0.163l0.353,-0.165l0.351,-0.167l0.351,-0.17l0.349,-0.171l0.348,-0.173l0.347,-0.176l0.345,-0.177l0.069,-0.036l0.276,-0.144l0.343,-0.181l0.342,-0.184l0.341,-0.185l0.339,-0.188l0.338,-0.189l0.337,-0.192l0.336,-0.193l0.334,-0.195l0.334,-0.198l0.331,-0.199l0.331,-0.201l0.329,-0.204l0.328,-0.205l0.327,-0.207l0.325,-0.209l0.324,-0.211l0.323,-0.212l0.321,-0.215l0.32,-0.216l0.318,-0.219l0.317,-0.22l0.316,-0.222l0.314,-0.224l0.313,-0.226l0.312,-0.228l0.31,-0.229l0.309,-0.231l0.307,-0.234l0.306,-0.234l0.304,-0.237l0.303,-0.239l0.301,-0.24l0.3,-0.242l0.299,-0.244l0.297,-0.245l0.295,-0.247l0.294,-0.25l0.293,-0.25l0.291,-0.253l0.289,-0.254l0.288,-0.256l0.286,-0.257l0.285,-0.26l0.283,-0.261l0.282,-0.262l0.28,-0.265l0.279,-0.266l0.277,-0.267l0.275,-0.27l0.274,-0.271l0.272,-0.272l0.27,-0.274l0.269,-0.276l0.267,-0.278l0.266,-0.279l0.264,-0.28l0.262,-0.282l0.26,-0.284l0.259,-0.285l0.257,-0.287l0.256,-0.289l0.254,-0.29l0.252,-0.291l0.25,-0.293l0.249,-0.295l0.247,-0.296l0.245,-0.298l0.243,-0.299l0.242,-0.3l0.24,-0.302l0.238,-0.304l0.236,-0.305l0.234,-0.306l0.233,-0.308l0.231,-0.309l0.229,-0.311l0.227,-0.312l0.226,-0.314l0.224,-0.315l0.221,-0.317l0.22,-0.317l0.218,-0.32l0.216,-0.32l0.215,-0.322l0.212,-0.323l0.211,-0.325l0.208,-0.326l0.207,-0.328l0.205,-0.328l0.202,-0.33l0.201,-0.332l0.199,-0.332l0.197,-0.334l0.195,-0.336l0.194,-0.336l0.191,-0.338l0.189,-0.339l0.187,-0.34l0.185,-0.342l0.183,-0.343l0.181,-0.344l0.18,-0.345l0.177,-0.347l0.175,-0.348l0.173,-0.348l0.171,-0.351l0.168,-0.351l0.167,-0.353l0.165,-0.353l0.163,-0.355l0.16,-0.356l0.159,-0.357l0.156,-0.359l0.154,-0.359l0.152,-0.361l0.15,-0.362l0.148,-0.362l0.146,-0.364l0.143,-0.365l0.142,-0.367l0.139,-0.367l0.137,-0.368l0.135,-0.369l0.132,-0.371l0.131,-0.371l0.128,-0.373l0.126,-0.373l0.124,-0.375l0.121,-0.376l0.12,-0.376l0.117,-0.378l0.114,-0.378l0.113,-0.38l0.11,-0.381l0.108,-0.381l0.106,-0.383l0.103,-0.383l0.101,-0.384l0.099,-0.386l0.096,-0.386l0.094,-0.387l0.092,-0.388l0.089,-0.39l0.087,-0.389l0.085,-0.391l0.082,-0.392l0.08,-0.393l0.078,-0.393l0.075,-0.394l0.073,-0.396l0.07,-0.396l0.068,-0.397l0.065,-0.397l0.063,-0.399l0.061,-0.399l0.058,-0.4l0.056,-0.401l0.053,-0.402l0.051,-0.403l0.048,-0.403l0.046,-0.404l0.043,-0.405l0.041,-0.405l0.038,-0.407l0.036,-0.407l0.033,-0.408l0.031,-0.408l0.028,-0.409l0.025,-0.41l0.023,-0.411l0.021,-0.411l0.017,-0.412l0.016,-0.413l0.012,-0.413l0.01,-0.414l0.004,-0.219l0.004,-0.196l0.005,-0.415l0.002,-0.416l-0.001,0.416l-0.003,0.415l-0.002,0.196l-0.003,0.219l-0.009,0.414l-0.011,0.413l-0.013,0.413l-0.016,0.412l-0.019,0.412l-0.021,0.411l-0.024,0.41l-0.026,0.409l-0.029,0.409l-0.032,0.408l-0.034,0.407l-0.036,0.407l-0.04,0.406l-0.041,0.405l-0.044,0.405l-0.047,0.403l-0.049,0.403l-0.051,0.403l-0.054,0.401l-0.057,0.401l-0.059,0.399l-0.061,0.399l-0.064,0.399l-0.066,0.397l-0.069,0.397l-0.071,0.396l-0.074,0.395l-0.076,0.394l-0.078,0.393l-0.081,0.392l-0.083,0.392l-0.085,0.391l-0.088,0.389l-0.09,0.389l-0.093,0.388l-0.095,0.387l-0.097,0.386l-0.1,0.386l-0.101,0.384l-0.105,0.383l-0.106,0.383l-0.109,0.381l-0.111,0.381l-0.113,0.379l-0.116,0.379l-0.118,0.378l-0.12,0.376l-0.122,0.376l-0.125,0.374l-0.127,0.374l-0.129,0.372l-0.131,0.372l-0.133,0.37l-0.136,0.37l-0.138,0.368l-0.14,0.367l-0.142,0.367l-0.145,0.365l-0.146,0.364l-0.149,0.363l-0.151,0.362l-0.153,0.36l-0.155,0.36l-0.157,0.359l-0.159,0.357l-0.162,0.356l-0.163,0.355l-0.166,0.354l-0.168,0.353l-0.17,0.351l-0.171,0.351l-0.174,0.349l-0.176,0.348l-0.178,0.347l-0.18,0.345l-0.182,0.344l-0.185,0.343l-0.186,0.342l-0.188,0.341l-0.19,0.339l-0.192,0.338l-0.194,0.337l-0.196,0.336l-0.198,0.334l-0.2,0.333l-0.202,0.331l-0.204,0.331l-0.206,0.329l-0.208,0.328l-0.209,0.326l-0.212,0.325l-0.213,0.324l-0.216,0.322l-0.217,0.321l-0.219,0.319l-0.221,0.318l-0.223,0.317l-0.224,0.316l-0.227,0.314l-0.228,0.312l-0.231,0.311l-0.232,0.31l-0.234,0.308l-0.235,0.307l-0.238,0.305l-0.239,0.304l-0.241,0.303l-0.243,0.301l-0.244,0.299l-0.247,0.298l-0.248,0.297l-0.25,0.294l-0.251,0.294l-0.254,0.292l-0.255,0.29l-0.256,0.289l-0.259,0.287l-0.26,0.286l-0.262,0.284l-0.263,0.283l-0.266,0.281l-0.266,0.279l-0.269,0.278l-0.27,0.276l-0.272,0.275l-0.273,0.273l-0.276,0.271l-0.276,0.27l-0.279,0.268l-0.279,0.266l-0.282,0.265l-0.283,0.263l-0.285,0.261l-0.286,0.26l-0.288,0.258l-0.289,0.256l-0.291,0.255l-0.293,0.253l-0.294,0.251l-0.295,0.25l-0.297,0.247l-0.299,0.246l-0.3,0.244l-0.301,0.243l-0.303,0.24l-0.305,0.239l-0.306,0.237l-0.307,0.236l-0.309,0.233l-0.311,0.232l-0.311,0.23l-0.314,0.228l-0.314,0.226l-0.316,0.224l-0.318,0.223l-0.319,0.22l-0.32,0.219l-0.322,0.217l-0.323,0.215l-0.324,0.213l-0.326,0.211l-0.327,0.209l-0.328,0.208l-0.33,0.205l-0.331,0.204l-0.333,0.201l-0.334,0.2l-0.335,0.198l-0.336,0.195l-0.338,0.194l-0.339,0.192l-0.34,0.189l-0.341,0.188l-0.343,0.186l-0.344,0.184l-0.276,0.145l-0.069,0.036l-0.347,0.18l-0.347,0.178l-0.349,0.175l-0.35,0.174l-0.352,0.171l-0.352,0.17l-0.354,0.167l-0.355,0.165l-0.356,0.163l-0.357,0.161l-0.359,0.159l-0.359,0.157l-0.361,0.155l-0.362,0.152l-0.363,0.151l-0.364,0.148l-0.365,0.146l-0.366,0.144l-0.367,0.142l-0.369,0.139l-0.369,0.138l-0.371,0.135l-0.372,0.133l-0.372,0.131l-0.374,0.128l-0.375,0.127l-0.376,0.124l-0.377,0.122l-0.377,0.119l-0.379,0.118l-0.38,0.115l-0.381,0.112l-0.382,0.111l-0.383,0.108l-0.383,0.106l-0.385,0.104l-0.386,0.101l-0.386,0.099l-0.388,0.097l-0.388,0.094l-0.39,0.092l-0.39,0.09l-0.391,0.087l-0.392,0.085l-0.393,0.082l-0.394,0.08l-0.395,0.078l-0.396,0.075l-0.396,0.073l-0.398,0.071l-0.398,0.068l-0.399,0.065l-0.4,0.063l-0.4,0.061l-0.402,0.058l-0.402,0.056l-0.403,0.053l-0.404,0.051l-0.404,0.049l-0.406,0.046l-0.406,0.043l-0.407,0.041l-0.407,0.038l-0.409,0.036l-0.409,0.033l-0.41,0.031l-0.41,0.028l-0.411,0.025l-0.412,0.023l-0.413,0.021l-0.413,0.017l-0.414,0.016l-0.415,0.012l-0.415,0.01l-0.416,0.008l-0.417,0.004l-0.417,0.003l-0.417,-0.001l-0.417,-0.003l-0.416,-0.006l-0.415,-0.008l-0.415,-0.011l-0.414,-0.014l-0.413,-0.016l-0.413,-0.019l-0.412,-0.021l-0.411,-0.024l-0.411,-0.027l-0.41,-0.029l-0.409,-0.032l-0.409,-0.034l-0.408,-0.037l-0.407,-0.039l-0.407,-0.042l-0.405,-0.044l-0.405,-0.047l-0.404,-0.049l-0.404,-0.052l-0.402,-0.054l-0.402,-0.057l-0.401,-0.059l-0.401,-0.062l-0.399,-0.064l-0.399,-0.066l-0.398,-0.069l-0.397,-0.072l-0.396,-0.073l-0.395,-0.077l-0.395,-0.078l-0.393,-0.081l-0.393,-0.084l-0.392,-0.086l-0.391,-0.088l-0.39,-0.09l-0.389,-0.093l-0.388,-0.095l-0.388,-0.098l-0.386,-0.1l-0.386,-0.102l-0.384,-0.105l-0.384,-0.107l-0.383,-0.109l-0.381,-0.111l-0.381,-0.114l-0.38,-0.116l-0.378,-0.118l-0.378,-0.121l-0.377,-0.123l-0.376,-0.125l-0.374,-0.127l-0.374,-0.13l-0.373,-0.131l-0.371,-0.134l-0.371,-0.136l-0.369,-0.139l-0.369,-0.14l-0.367,-0.143l-0.366,-0.145l-0.366,-0.147l-0.364,-0.149l-0.363,-0.152l-0.361,-0.153l-0.361,-0.156l-0.36,-0.158l-0.358,-0.16l-0.357,-0.162l-0.357,-0.164l-0.355,-0.166l-0.353,-0.168l-0.353,-0.171l-0.351,-0.172l-0.351,-0.175l-0.349,-0.176l-0.347,-0.179l-0.347,-0.18l-0.345,-0.183l-0.345,-0.185l-0.342,-0.187l-0.342,-0.188l-0.34,-0.191l-0.339,-0.193l-0.338,-0.195l-0.337,-0.196l-0.335,-0.199l-0.334,-0.201l-0.333,-0.202l-0.331,-0.205l-0.33,-0.206l-0.329,-0.209l-0.327,-0.21l-0.326,-0.212l-0.325,-0.215l-0.323,-0.216l-0.322,-0.218l-0.32,-0.219l-0.319,-0.222l-0.318,-0.224l-0.316,-0.225l-0.315,-0.228l-0.314,-0.229l-0.312,-0.231l-0.31,-0.232l-0.31,-0.235l-0.307,-0.237l-0.307,-0.238l-0.304,-0.24l-0.304,-0.242l-0.302,-0.243l-0.3,-0.246l-0.299,-0.247l-0.297,-0.249l-0.296,-0.25l-0.294,-0.253l-0.293,-0.254l-0.291,-0.256l-0.29,-0.257l-0.288,-0.26l-0.287,-0.261l-0.285,-0.262l-0.283,-0.265l-0.282,-0.266l-0.28,-0.268l-0.279,-0.269l-0.277,-0.271l-0.275,-0.273l-0.274,-0.274l-0.272,-0.276l-0.27,-0.278l-0.269,-0.279l-0.267,-0.281l-0.266,-0.282l-0.047,-0.051l-0.217,-0.233l-0.262,-0.286l-0.26,-0.287l-0.259,-0.289l-0.257,-0.29l-0.255,-0.292l-0.254,-0.294l-0.252,-0.295l-0.25,-0.296l-0.248,-0.298l-0.247,-0.3l-0.244,-0.301l-0.243,-0.302l-0.242,-0.304l-0.239,-0.306l-0.238,-0.307l-0.236,-0.308l-0.234,-0.31l-0.232,-0.312l-0.23,-0.313l-0.229,-0.314l-0.227,-0.315l-0.225,-0.318l-0.223,-0.318l-0.221,-0.32l-0.219,-0.321l-0.218,-0.323l-0.215,-0.324l-0.214,-0.326l-0.211,-0.326l-0.21,-0.329l-0.208,-0.329l-0.206,-0.331l-0.204,-0.332l-0.202,-0.334l-0.2,-0.334l-0.198,-0.337l-0.196,-0.337l-0.195,-0.339l-0.192,-0.34l-0.19,-0.341l-0.188,-0.343l-0.186,-0.344l-0.185,-0.345l-0.182,-0.346l-0.18,-0.347l-0.178,-0.349l-0.176,-0.35l-0.174,-0.352l-0.172,-0.352l-0.17,-0.354l-0.167,-0.354l-0.166,-0.356l-0.164,-0.358l-0.161,-0.358l-0.159,-0.359l-0.158,-0.361l-0.155,-0.362l-0.153,-0.363l-0.15,-0.364l-0.149,-0.365l-0.146,-0.366l-0.145,-0.368l-0.142,-0.368l-0.14,-0.37l-0.138,-0.371l-0.135,-0.371l-0.133,-0.373l-0.131,-0.374l-0.129,-0.375l-0.127,-0.376l-0.124,-0.377l-0.123,-0.378l-0.119,-0.379l-0.118,-0.38l-0.115,-0.381l-0.113,-0.382l-0.111,-0.383l-0.109,-0.384l-0.106,-0.385l-0.104,-0.386l-0.101,-0.386l-0.099,-0.388l-0.097,-0.389l-0.095,-0.39l-0.092,-0.39l-0.09,-0.392l-0.087,-0.392l-0.085,-0.393l-0.083,-0.395l-0.08,-0.395l-0.078,-0.396l-0.075,-0.396l-0.073,-0.398l-0.071,-0.399l-0.068,-0.399l-0.066,-0.4l-0.063,-0.401l-0.061,-0.402l-0.058,-0.403l-0.056,-0.403l-0.054,-0.404l-0.05,-0.405l-0.049,-0.406l-0.046,-0.407l-0.043,-0.407l-0.041,-0.408l-0.016,-0.175l-0.022,-0.234l-0.036,-0.409l-0.033,-0.411l-0.031,-0.411l-0.028,-0.411l-0.025,-0.413l-0.023,-0.413l-0.02,-0.414l-0.018,-0.414l-0.015,-0.416l-0.012,-0.415l-0.01,-0.417l-0.007,-0.417l-0.005,-0.418l-0.002,-0.418l0.001,-0.419l0.003,-0.417l0.006,-0.417l0.009,-0.417l0.011,-0.416l0.014,-0.415l0.016,-0.415l0.019,-0.414l0.022,-0.413l0.024,-0.412l0.027,-0.412l0.029,-0.411l0.032,-0.411l0.035,-0.41l0.037,-0.409l0.039,-0.408l0.042,-0.407l0.045,-0.407l0.047,-0.406l0.05,-0.406l0.052,-0.404l0.055,-0.404l0.057,-0.403l0.059,-0.402l0.062,-0.401l0.065,-0.401l0.067,-0.4l0.069,-0.399l0.072,-0.398l0.074,-0.397l0.077,-0.396l0.079,-0.396l0.081,-0.395l0.084,-0.393l0.086,-0.393l0.089,-0.392l0.091,-0.391l0.093,-0.391l0.096,-0.389l0.098,-0.388l0.1,-0.388l0.103,-0.386l0.105,-0.386l0.107,-0.385l0.11,-0.383l0.112,-0.383l0.114,-0.382l0.117,-0.38l0.118,-0.38l0.121,-0.379l0.124,-0.378l0.125,-0.376l0.128,-0.376l0.13,-0.375l0.132,-0.373l0.135,-0.373l0.137,-0.371l0.139,-0.371l0.141,-0.369l0.143,-0.368l0.145,-0.368l0.148,-0.366l0.15,-0.365l0.152,-0.363l0.154,-0.363l0.156,-0.362l0.159,-0.36l0.16,-0.36l0.163,-0.358l0.164,-0.357l0.167,-0.356l0.169,-0.354l0.171,-0.354l0.173,-0.352l0.176,-0.351l0.177,-0.35l0.179,-0.349l0.181,-0.347l0.184,-0.346l0.185,-0.345l0.187,-0.344l0.19,-0.342l0.191,-0.341l0.194,-0.34l0.1,-0.174l0.095,-0.165l0.198,-0.337l0.199,-0.336l0.202,-0.335l0.203,-0.333l0.205,-0.332l0.208,-0.331l0.209,-0.329l0.211,-0.328l0.213,-0.327l0.215,-0.325l0.217,-0.324l0.219,-0.323l0.221,-0.321l0.222,-0.319l0.225,-0.319l0.226,-0.317l0.228,-0.315l0.23,-0.314l0.232,-0.313l0.233,-0.311l0.236,-0.31l0.237,-0.308l0.239,-0.307l0.241,-0.305l0.243,-0.304l0.244,-0.303l0.247,-0.301l0.248,-0.299l0.249,-0.298l0.252,-0.296l0.253,-0.295l0.255,-0.293l0.257,-0.292l0.258,-0.29l0.261,-0.289l0.261,-0.287l0.264,-0.285l0.265,-0.284l0.267,-0.282l0.269,-0.281l0.27,-0.279l0.272,-0.278l0.274,-0.275l0.275,-0.275l0.277,-0.272l0.278,-0.271l0.28,-0.269l0.282,-0.268l0.283,-0.266l0.285,-0.264l0.287,-0.263l0.288,-0.26l0.289,-0.26l0.292,-0.257l0.292,-0.256l0.295,-0.254l0.295,-0.252l0.298,-0.25l0.299,-0.249l0.3,-0.247l0.302,-0.245l0.303,-0.244l0.305,-0.241l0.307,-0.24l0.307,-0.238l0.31,-0.236l0.311,-0.235l0.312,-0.232l0.313,-0.231l0.316,-0.229l0.316,-0.227l0.318,-0.225l0.319,-0.224l0.321,-0.221l0.322,-0.22l0.324,-0.218l0.325,-0.215l0.326,-0.214l0.328,-0.212l0.329,-0.21l0.33,-0.208l0.332,-0.207l0.333,-0.204l0.334,-0.202l0.336,-0.201l0.337,-0.198l0.338,-0.196l0.34,-0.195l0.341,-0.192l0.342,-0.191l0.322,-0.176l0.022,-0.012l0.344,-0.186l0.346,-0.185l0.348,-0.182l0.348,-0.18l0.35,-0.178l0.351,-0.176l0.352,-0.174l0.353,-0.172l0.355,-0.17l0.356,-0.168l0.357,-0.165l0.358,-0.164l0.359,-0.161l0.36,-0.159l0.362,-0.158l0.363,-0.155l0.363,-0.152l0.365,-0.151l0.367,-0.149l0.367,-0.146l0.368,-0.144l0.369,-0.142l0.371,-0.14l0.371,-0.138l0.373,-0.135l0.374,-0.134l0.374,-0.131l0.376,-0.128l0.377,-0.127l0.378,-0.124l0.379,-0.122l0.38,-0.12l0.381,-0.117l0.381,-0.116l0.383,-0.112l0.384,-0.111l0.385,-0.108l0.386,-0.106l0.386,-0.104l0.097,-0.025l0.291,-0.076l0.389,-0.099l0.39,-0.097l0.39,-0.094l0.391,-0.091l0.393,-0.09l0.393,-0.087l0.394,-0.084l0.395,-0.083l0.396,-0.08l0.397,-0.077l0.398,-0.075l0.398,-0.073l0.399,-0.07l0.401,-0.067l0.4,-0.066l0.402,-0.063l0.403,-0.06l0.403,-0.058l0.405,-0.055l0.405,-0.053l0.405,-0.05l0.407,-0.048l0.407,-0.046l0.408,-0.043l0.409,-0.04l0.41,-0.038l0.41,-0.035l0.411,-0.033l0.412,-0.03l0.412,-0.027l0.413,-0.025l0.414,-0.023l0.391,-0.018l0.023,-0.001l0.416,-0.017l0.415,-0.015l0.417,-0.011l0.417,-0.009l0.418,-0.007l0.418,-0.003l0.419,-0.001l0.419,0.001Z" style="fill:#79530d;"/></g></g><g></g><g></g><path d="M28.806,0.666c0.183,0 0.365,0.002 0.547,0.007c0.332,0.007 0.664,0.02 0.996,0.039c1.011,0.058 2.018,0.169 3.017,0.335c1.096,0.181 2.182,0.428 3.249,0.738c1.244,0.362 2.463,0.81 3.646,1.34c1.454,0.653 2.852,1.429 4.176,2.317c1.314,0.882 2.555,1.875 3.704,2.965c1.066,1.01 2.054,2.103 2.951,3.266c1.005,1.303 1.896,2.693 2.66,4.151c0.651,1.244 1.209,2.536 1.668,3.864c0.427,1.237 0.767,2.504 1.018,3.789c0.337,1.729 0.51,3.489 0.521,5.25c0.009,1.382 -0.082,2.764 -0.273,4.133c-0.211,1.507 -0.544,2.996 -0.996,4.449c-0.409,1.317 -0.917,2.604 -1.515,3.846c-0.777,1.612 -1.708,3.15 -2.776,4.586c-0.943,1.27 -1.994,2.461 -3.136,3.556c-1.183,1.135 -2.465,2.167 -3.826,3.081c-1.538,1.032 -3.177,1.912 -4.886,2.623c-1.795,0.746 -3.666,1.305 -5.576,1.664c-1.733,0.327 -3.496,0.489 -5.26,0.489c-1.793,0 -3.585,-0.168 -5.346,-0.505c-1.88,-0.36 -3.722,-0.913 -5.489,-1.648c-1.579,-0.656 -3.097,-1.457 -4.531,-2.389c-1.494,-0.97 -2.896,-2.082 -4.182,-3.315c-1.264,-1.213 -2.416,-2.543 -3.436,-3.967c-0.942,-1.318 -1.772,-2.716 -2.475,-4.175c-0.674,-1.399 -1.232,-2.854 -1.666,-4.346c-0.376,-1.294 -0.658,-2.615 -0.845,-3.949c-0.183,-1.308 -0.274,-2.629 -0.274,-3.95c0,-1.822 0.173,-3.644 0.522,-5.433c0.261,-1.341 0.621,-2.664 1.075,-3.953c0.419,-1.189 0.918,-2.35 1.493,-3.472c0.776,-1.516 1.69,-2.96 2.726,-4.312c0.928,-1.21 1.954,-2.346 3.064,-3.392c1.173,-1.105 2.441,-2.11 3.785,-3c1.281,-0.849 2.631,-1.594 4.034,-2.223c1.182,-0.53 2.401,-0.978 3.646,-1.34c1.067,-0.31 2.152,-0.557 3.248,-0.738c0.999,-0.166 2.007,-0.277 3.017,-0.335c0.332,-0.019 0.664,-0.032 0.996,-0.039c0.182,-0.005 0.365,-0.007 0.547,-0.007c0.061,-0.001 0.122,-0.001 0.182,0Zm-0.181,0.297c-0.181,0.001 -0.361,0.003 -0.541,0.007c-0.329,0.007 -0.657,0.02 -0.986,0.039c-1,0.057 -1.997,0.167 -2.985,0.331c-1.085,0.18 -2.159,0.424 -3.214,0.731c-1.231,0.358 -2.437,0.801 -3.607,1.326c-1.388,0.622 -2.724,1.359 -3.992,2.199c-1.33,0.881 -2.584,1.875 -3.745,2.969c-1.098,1.035 -2.113,2.159 -3.032,3.357c-1.025,1.337 -1.929,2.766 -2.697,4.266c-0.569,1.11 -1.063,2.258 -1.477,3.435c-0.45,1.275 -0.806,2.584 -1.064,3.911c-0.345,1.77 -0.517,3.573 -0.517,5.376c0,1.307 0.09,2.614 0.272,3.908c0.184,1.321 0.464,2.628 0.836,3.908c0.429,1.476 0.981,2.916 1.648,4.3c0.696,1.444 1.516,2.827 2.449,4.13c1.009,1.41 2.149,2.726 3.4,3.926c1.272,1.22 2.66,2.32 4.138,3.281c1.419,0.921 2.921,1.714 4.483,2.363c1.749,0.727 3.571,1.274 5.431,1.63c1.742,0.334 3.516,0.501 5.29,0.501c1.745,0 3.49,-0.161 5.205,-0.484c1.889,-0.356 3.741,-0.909 5.516,-1.647c1.692,-0.703 3.314,-1.574 4.835,-2.595c1.347,-0.905 2.615,-1.926 3.787,-3.049c1.129,-1.084 2.169,-2.262 3.102,-3.518c1.057,-1.422 1.978,-2.943 2.746,-4.538c0.593,-1.229 1.095,-2.502 1.5,-3.805c0.447,-1.438 0.777,-2.912 0.985,-4.403c0.19,-1.354 0.279,-2.722 0.271,-4.089c-0.011,-1.743 -0.183,-3.484 -0.516,-5.195c-0.248,-1.271 -0.585,-2.525 -1.007,-3.749c-0.454,-1.313 -1.006,-2.592 -1.651,-3.823c-0.755,-1.442 -1.637,-2.818 -2.632,-4.107c-0.888,-1.151 -1.865,-2.232 -2.92,-3.232c-1.137,-1.078 -2.364,-2.061 -3.665,-2.934c-1.31,-0.879 -2.693,-1.647 -4.132,-2.292c-1.17,-0.525 -2.376,-0.968 -3.607,-1.326c-1.056,-0.307 -2.13,-0.551 -3.214,-0.731c-0.989,-0.164 -1.986,-0.274 -2.986,-0.331c-0.328,-0.019 -0.657,-0.032 -0.985,-0.039c-0.181,-0.004 -0.361,-0.006 -0.541,-0.007c-0.061,0 -0.121,0 -0.181,0Zm0.178,0.799c0.175,0.001 0.35,0.003 0.525,0.007c0.319,0.007 0.638,0.02 0.957,0.038c0.972,0.055 1.94,0.162 2.9,0.321c1.246,0.207 2.478,0.501 3.682,0.88c1.003,0.315 1.986,0.689 2.945,1.119c1.472,0.66 2.885,1.452 4.217,2.364c1.233,0.844 2.397,1.79 3.475,2.824c1.235,1.184 2.359,2.485 3.35,3.88c0.712,1 1.356,2.049 1.926,3.137c0.639,1.22 1.184,2.489 1.63,3.792c0.407,1.191 0.73,2.411 0.967,3.647c0.314,1.635 0.475,3.299 0.485,4.963c0.009,1.328 -0.078,2.657 -0.262,3.972c-0.184,1.311 -0.463,2.608 -0.837,3.877c-0.413,1.406 -0.941,2.777 -1.577,4.097c-0.664,1.378 -1.445,2.699 -2.332,3.946c-0.991,1.394 -2.115,2.695 -3.35,3.879c-1.157,1.11 -2.412,2.118 -3.746,3.008c-1.458,0.972 -3.01,1.803 -4.628,2.475c-1.725,0.717 -3.524,1.254 -5.359,1.6c-1.666,0.314 -3.361,0.47 -5.056,0.47c-1.695,0 -3.39,-0.156 -5.056,-0.47c-1.835,-0.346 -3.634,-0.883 -5.358,-1.6c-1.619,-0.672 -3.171,-1.503 -4.629,-2.475c-1.334,-0.89 -2.589,-1.898 -3.746,-3.008c-1.196,-1.146 -2.287,-2.402 -3.255,-3.746c-0.925,-1.286 -1.739,-2.652 -2.426,-4.079c-0.552,-1.144 -1.022,-2.327 -1.407,-3.538c-0.46,-1.447 -0.797,-2.932 -1.007,-4.436c-0.184,-1.315 -0.271,-2.644 -0.263,-3.972c0.011,-1.693 0.178,-3.384 0.501,-5.046c0.23,-1.181 0.539,-2.346 0.925,-3.485c0.459,-1.357 1.027,-2.677 1.695,-3.944c0.611,-1.158 1.306,-2.271 2.078,-3.329c0.944,-1.295 2.003,-2.506 3.159,-3.615c1.157,-1.11 2.412,-2.118 3.746,-3.007c1.252,-0.835 2.573,-1.566 3.946,-2.181c1.01,-0.453 2.047,-0.844 3.104,-1.169c1.154,-0.355 2.332,-0.632 3.523,-0.83c0.96,-0.159 1.928,-0.266 2.9,-0.321c0.318,-0.018 0.637,-0.031 0.957,-0.038c0.175,-0.004 0.35,-0.006 0.525,-0.007c0.059,0 0.117,0 0.176,0Zm-0.175,0.286c-0.173,0.001 -0.347,0.003 -0.52,0.007c-0.316,0.007 -0.632,0.019 -0.947,0.037c-0.961,0.055 -1.92,0.161 -2.87,0.319c-1.178,0.195 -2.343,0.469 -3.485,0.82c-1.046,0.322 -2.072,0.709 -3.071,1.156c-1.358,0.61 -2.665,1.333 -3.904,2.159c-1.32,0.88 -2.562,1.877 -3.707,2.975c-1.144,1.098 -2.192,2.296 -3.126,3.577c-0.763,1.047 -1.451,2.149 -2.056,3.295c-0.661,1.253 -1.223,2.559 -1.677,3.902c-0.382,1.127 -0.687,2.28 -0.915,3.448c-0.32,1.644 -0.485,3.318 -0.496,4.993c-0.008,1.314 0.078,2.629 0.26,3.931c0.208,1.487 0.542,2.957 0.997,4.388c0.38,1.198 0.846,2.369 1.391,3.501c0.681,1.412 1.485,2.764 2.401,4.035c0.958,1.331 2.038,2.573 3.221,3.708c1.145,1.098 2.387,2.095 3.707,2.976c1.443,0.962 2.978,1.784 4.579,2.449c1.707,0.71 3.486,1.241 5.302,1.583c1.649,0.311 3.326,0.465 5.003,0.465c1.677,0 3.354,-0.154 5.003,-0.465c1.816,-0.342 3.595,-0.873 5.302,-1.583c1.601,-0.665 3.137,-1.487 4.579,-2.449c1.32,-0.881 2.562,-1.878 3.707,-2.976c1.222,-1.172 2.334,-2.459 3.315,-3.839c0.877,-1.233 1.65,-2.541 2.307,-3.904c0.629,-1.306 1.152,-2.663 1.561,-4.054c0.37,-1.256 0.646,-2.539 0.827,-3.835c0.183,-1.302 0.269,-2.617 0.261,-3.931c-0.011,-1.647 -0.171,-3.293 -0.481,-4.911c-0.234,-1.223 -0.554,-2.43 -0.957,-3.608c-0.441,-1.29 -0.98,-2.545 -1.613,-3.752c-0.564,-1.077 -1.201,-2.114 -1.905,-3.105c-0.981,-1.38 -2.093,-2.667 -3.315,-3.839c-1.067,-1.023 -2.218,-1.959 -3.439,-2.794c-1.317,-0.902 -2.715,-1.686 -4.172,-2.34c-0.948,-0.425 -1.922,-0.795 -2.913,-1.107c-1.192,-0.374 -2.411,-0.665 -3.643,-0.869c-0.95,-0.158 -1.909,-0.264 -2.87,-0.319c-0.316,-0.018 -0.631,-0.03 -0.947,-0.037c-0.174,-0.004 -0.347,-0.006 -0.52,-0.007c-0.058,0 -0.116,0 -0.174,0Zm-1.891,50.321l-0.011,0.12l-0.19,-0.002l-0.054,0.037l-0.146,1.622l0.046,0.046l0.187,0.034l-0.01,0.118l-0.748,-0.067l0.011,-0.118l0.19,0l0.054,-0.038l0.146,-1.621l-0.047,-0.047l-0.187,-0.031l0.011,-0.121l0.748,0.068Zm5.452,-0.158l0.013,0.12l-0.165,0.033l-0.046,0.047l0.178,1.619l0.055,0.036l0.168,-0.001l0.013,0.118l-1.408,0.154l-0.047,-0.429l0.165,-0.018l0.069,0.245l0.045,0.04l0.68,-0.075l-0.081,-0.743l-0.482,0.053l-0.037,0.046l-0.006,0.217l-0.139,0.015l-0.071,-0.647l0.139,-0.015l0.052,0.209l0.047,0.04l0.482,-0.053l-0.09,-0.824l-0.788,0.087l-0.036,0.052l-0.018,0.302l-0.152,0.017l-0.053,-0.479l1.513,-0.166Zm-6.579,0.112l-0.078,0.514l-0.172,-0.026l0.016,-0.341l-0.031,-0.055c-0.039,-0.029 -0.086,-0.053 -0.139,-0.073c-0.054,-0.019 -0.113,-0.034 -0.177,-0.044c-0.136,-0.021 -0.249,-0.006 -0.338,0.046c-0.089,0.051 -0.142,0.13 -0.158,0.238c-0.023,0.149 0.097,0.305 0.358,0.466c0.029,0.018 0.051,0.032 0.066,0.041c0.186,0.117 0.306,0.217 0.36,0.302c0.053,0.084 0.071,0.186 0.053,0.305c-0.026,0.168 -0.108,0.294 -0.247,0.378c-0.139,0.085 -0.31,0.111 -0.514,0.08c-0.081,-0.012 -0.162,-0.031 -0.243,-0.058c-0.08,-0.026 -0.161,-0.059 -0.242,-0.1l0.069,-0.452l0.152,0.023l0.002,0.285l0.036,0.055c0.034,0.026 0.072,0.048 0.114,0.065c0.042,0.016 0.089,0.029 0.141,0.036c0.121,0.019 0.223,0.002 0.304,-0.051c0.081,-0.052 0.129,-0.133 0.146,-0.241c0.012,-0.079 -0.003,-0.148 -0.045,-0.208c-0.042,-0.059 -0.144,-0.139 -0.306,-0.238c-0.016,-0.009 -0.038,-0.022 -0.069,-0.04c-0.16,-0.092 -0.272,-0.181 -0.336,-0.267c-0.037,-0.048 -0.061,-0.101 -0.075,-0.159c-0.013,-0.057 -0.014,-0.118 -0.005,-0.182c0.027,-0.176 0.117,-0.307 0.272,-0.394c0.154,-0.087 0.346,-0.113 0.574,-0.079c0.102,0.016 0.196,0.038 0.284,0.068c0.087,0.03 0.164,0.065 0.228,0.106Zm8.348,1.581c-0.34,0.067 -0.62,0.034 -0.84,-0.099c-0.221,-0.132 -0.361,-0.353 -0.422,-0.662c-0.034,-0.172 -0.034,-0.33 0.001,-0.476c0.034,-0.146 0.103,-0.276 0.205,-0.39c0.072,-0.081 0.159,-0.146 0.26,-0.195c0.101,-0.048 0.239,-0.09 0.412,-0.124l0.716,-0.141l0.023,0.119l-0.161,0.046l-0.042,0.051l0.315,1.598l0.058,0.031l0.168,-0.015l0.022,0.116l-0.715,0.141Zm-4.437,-0.857l-0.634,-0.836l-0.623,0.844l0.634,0.835l0.623,-0.843Zm-5.624,-1l-0.116,0.506l-0.17,-0.039l0.042,-0.338l-0.027,-0.058c-0.037,-0.032 -0.082,-0.059 -0.133,-0.083c-0.052,-0.024 -0.11,-0.043 -0.174,-0.058c-0.134,-0.031 -0.247,-0.024 -0.34,0.021c-0.093,0.044 -0.151,0.119 -0.175,0.225c-0.034,0.147 0.073,0.311 0.322,0.492c0.027,0.02 0.048,0.035 0.062,0.045c0.177,0.131 0.29,0.241 0.336,0.329c0.047,0.088 0.057,0.191 0.03,0.308c-0.038,0.165 -0.129,0.285 -0.274,0.359c-0.145,0.073 -0.318,0.087 -0.518,0.041c-0.081,-0.018 -0.16,-0.044 -0.238,-0.076c-0.079,-0.032 -0.157,-0.072 -0.235,-0.118l0.103,-0.446l0.15,0.034l-0.019,0.285l0.031,0.057c0.032,0.029 0.068,0.054 0.109,0.073c0.041,0.02 0.087,0.036 0.137,0.047c0.121,0.028 0.223,0.019 0.308,-0.027c0.084,-0.047 0.139,-0.123 0.164,-0.23c0.017,-0.078 0.008,-0.148 -0.03,-0.211c-0.037,-0.062 -0.133,-0.149 -0.287,-0.26c-0.015,-0.011 -0.036,-0.026 -0.066,-0.045c-0.152,-0.104 -0.257,-0.202 -0.315,-0.292c-0.032,-0.051 -0.053,-0.105 -0.062,-0.164c-0.009,-0.058 -0.006,-0.119 0.009,-0.181c0.039,-0.174 0.14,-0.298 0.3,-0.374c0.161,-0.075 0.353,-0.086 0.579,-0.035c0.1,0.023 0.193,0.053 0.278,0.089c0.085,0.037 0.158,0.078 0.219,0.124Zm10.276,1.676l-0.332,-1.68l-0.229,0.046c-0.264,0.052 -0.448,0.16 -0.552,0.325c-0.103,0.165 -0.127,0.389 -0.071,0.672c0.056,0.282 0.162,0.479 0.319,0.592c0.157,0.113 0.369,0.143 0.635,0.091l0.23,-0.046Zm-12.456,-0.211l-0.69,-0.221l0.036,-0.113l0.18,0.039l0.061,-0.024l0.327,-1.019c0.063,-0.197 0.069,-0.352 0.018,-0.466c-0.051,-0.114 -0.164,-0.199 -0.34,-0.256c-0.174,-0.055 -0.316,-0.052 -0.424,0.012c-0.108,0.064 -0.194,0.194 -0.257,0.389l-0.32,0.999l0.037,0.068l0.161,0.079l-0.036,0.113l-0.595,-0.191l0.036,-0.113l0.177,0.03l0.067,-0.035l0.329,-1.024c0.043,-0.135 0.086,-0.235 0.128,-0.3c0.042,-0.065 0.094,-0.118 0.155,-0.157c0.077,-0.049 0.173,-0.076 0.287,-0.081c0.115,-0.005 0.236,0.013 0.364,0.054c0.13,0.041 0.239,0.098 0.328,0.168c0.09,0.071 0.152,0.149 0.186,0.233c0.028,0.069 0.04,0.141 0.036,0.218c-0.004,0.077 -0.028,0.183 -0.071,0.318l-0.335,1.044l0.035,0.055l0.156,0.068l-0.036,0.113Zm14.319,-0.1l-0.187,0.054l-1.195,-1.581l-0.181,0.015l-0.033,-0.117l0.644,-0.186l0.034,0.116l-0.172,0.065l-0.009,0.046l0.362,0.483l0.67,-0.194l0.045,-0.6l-0.04,-0.032l-0.189,0.039l-0.033,-0.116l0.556,-0.161l0.033,0.117l-0.153,0.082l-0.152,1.97Zm-0.13,-0.285l0.052,-0.869l-0.573,0.166l0.521,0.703Zm2.869,-0.704l-0.704,0.269c-0.225,0.087 -0.408,0.11 -0.548,0.07c-0.14,-0.04 -0.242,-0.144 -0.306,-0.312c-0.046,-0.119 -0.046,-0.232 -0.001,-0.337c0.045,-0.106 0.136,-0.203 0.272,-0.292c-0.076,0.008 -0.144,0.005 -0.202,-0.007c-0.058,-0.012 -0.109,-0.036 -0.154,-0.07c-0.049,-0.038 -0.103,-0.101 -0.161,-0.188c-0.058,-0.088 -0.1,-0.145 -0.124,-0.172c-0.057,-0.064 -0.115,-0.101 -0.174,-0.11c-0.059,-0.009 -0.146,0.008 -0.26,0.052l-0.024,0.009l-0.04,-0.105c0.038,-0.024 0.074,-0.044 0.107,-0.062c0.034,-0.017 0.067,-0.032 0.098,-0.044c0.064,-0.024 0.121,-0.039 0.171,-0.043c0.051,-0.004 0.097,0.001 0.139,0.016c0.087,0.032 0.184,0.124 0.292,0.275c0.039,0.054 0.069,0.094 0.09,0.119c0.08,0.099 0.159,0.158 0.238,0.177c0.079,0.019 0.182,0.005 0.309,-0.044c0.027,-0.01 0.07,-0.028 0.128,-0.053l0.009,-0.005l-0.251,-0.657l-0.062,-0.021l-0.163,0.047l-0.044,-0.114l0.657,-0.251l0.044,0.114l-0.152,0.073l-0.032,0.057l0.581,1.521l0.063,0.021l0.162,-0.043l0.042,0.11Zm-18.506,-1.478l-0.047,0.112l-0.16,-0.052l-0.063,0.02l-0.627,1.503l0.031,0.058l0.148,0.08l-0.046,0.11l-1.307,-0.545l0.166,-0.399l0.153,0.064l-0.058,0.248l0.02,0.057l0.632,0.263l0.288,-0.69l-0.448,-0.187l-0.055,0.023l-0.109,0.187l-0.129,-0.054l0.25,-0.601l0.13,0.054l-0.056,0.209l0.021,0.057l0.448,0.187l0.319,-0.765l-0.732,-0.305l-0.057,0.028l-0.161,0.256l-0.141,-0.059l0.185,-0.445l1.405,0.586Zm18.006,1.524l-0.294,-0.77c-0.028,0.01 -0.055,0.019 -0.08,0.029c-0.026,0.009 -0.05,0.018 -0.074,0.027c-0.17,0.065 -0.283,0.143 -0.338,0.233c-0.055,0.089 -0.057,0.201 -0.006,0.334c0.053,0.138 0.131,0.222 0.235,0.254c0.103,0.031 0.245,0.013 0.424,-0.056l0.133,-0.051Zm2.374,-0.939l-1.503,0.729l-0.198,-0.409l0.147,-0.071l0.156,0.229l0.057,0.022l0.406,-0.197l-0.729,-1.503l-0.062,-0.017l-0.186,0.074l-0.052,-0.109l0.695,-0.337l0.052,0.109l-0.171,0.1l-0.027,0.059l0.729,1.503l0.406,-0.197l0.018,-0.059l-0.082,-0.265l0.146,-0.07l0.198,0.409Zm-23.597,0.143c-0.308,-0.159 -0.507,-0.36 -0.596,-0.601c-0.09,-0.241 -0.062,-0.501 0.083,-0.781c0.081,-0.155 0.18,-0.279 0.298,-0.371c0.118,-0.093 0.252,-0.152 0.403,-0.177c0.107,-0.018 0.216,-0.015 0.325,0.01c0.11,0.025 0.243,0.078 0.4,0.16l0.647,0.335l-0.055,0.108l-0.156,-0.064l-0.064,0.014l-0.75,1.445l0.026,0.06l0.14,0.093l-0.054,0.105l-0.647,-0.336Zm0.28,-0.007l0.789,-1.52l-0.208,-0.108c-0.239,-0.124 -0.451,-0.154 -0.634,-0.089c-0.184,0.065 -0.342,0.225 -0.475,0.48c-0.132,0.255 -0.172,0.476 -0.12,0.662c0.053,0.186 0.199,0.342 0.44,0.467l0.208,0.108Zm23.908,-2.769l0.062,0.105l-0.137,0.097l-0.023,0.062l0.823,1.405l0.065,0.011l0.175,-0.083l0.059,0.103l-0.581,0.34c-0.256,0.15 -0.462,0.217 -0.617,0.2c-0.156,-0.017 -0.288,-0.119 -0.397,-0.305c-0.098,-0.166 -0.116,-0.334 -0.055,-0.503c0.061,-0.17 0.192,-0.314 0.394,-0.432c0.021,-0.012 0.047,-0.026 0.078,-0.041c0.031,-0.016 0.071,-0.035 0.12,-0.058l-0.293,-0.503l-0.065,-0.01l-0.189,0.094l-0.061,-0.105l0.642,-0.377Zm-12.453,-42.201c0.381,0.002 0.762,0.012 1.142,0.033c0.796,0.042 1.589,0.128 2.375,0.255c0.908,0.148 1.807,0.352 2.69,0.612c0.956,0.281 1.892,0.627 2.802,1.035c1.082,0.485 2.126,1.058 3.117,1.71c1.115,0.734 2.163,1.568 3.129,2.489c0.981,0.935 1.877,1.96 2.672,3.058c0.695,0.958 1.313,1.972 1.847,3.029c0.436,0.865 0.816,1.76 1.135,2.675c0.354,1.016 0.634,2.057 0.836,3.113c0.279,1.455 0.411,2.938 0.397,4.42c-0.009,0.967 -0.08,1.934 -0.215,2.891c-0.137,0.982 -0.34,1.955 -0.608,2.909c-0.349,1.242 -0.807,2.454 -1.367,3.616c-0.572,1.188 -1.251,2.324 -2.025,3.391c-0.782,1.08 -1.662,2.089 -2.624,3.012c-1.043,1.001 -2.184,1.9 -3.401,2.68c-1.095,0.702 -2.251,1.308 -3.452,1.807c-1.347,0.56 -2.75,0.986 -4.181,1.269c-1.428,0.283 -2.885,0.424 -4.341,0.424c-1.433,0 -2.866,-0.136 -4.273,-0.41c-1.455,-0.284 -2.881,-0.714 -4.249,-1.283c-1.263,-0.525 -2.476,-1.167 -3.62,-1.916c-1.154,-0.754 -2.238,-1.616 -3.233,-2.571c-0.93,-0.892 -1.783,-1.865 -2.546,-2.904c-0.806,-1.098 -1.511,-2.271 -2.103,-3.499c-0.501,-1.039 -0.92,-2.117 -1.252,-3.221c-0.325,-1.081 -0.567,-2.186 -0.723,-3.304c-0.141,-1.005 -0.213,-2.019 -0.216,-3.034c-0.004,-1.434 0.128,-2.869 0.398,-4.277c0.206,-1.079 0.494,-2.141 0.858,-3.177c0.337,-0.957 0.74,-1.89 1.205,-2.791c0.574,-1.111 1.241,-2.173 1.993,-3.171c0.734,-0.977 1.55,-1.893 2.434,-2.736c0.869,-0.828 1.805,-1.587 2.796,-2.265c1.071,-0.733 2.206,-1.372 3.389,-1.907c0.907,-0.41 1.843,-0.759 2.798,-1.043c0.903,-0.269 1.824,-0.479 2.755,-0.631c0.739,-0.12 1.485,-0.202 2.233,-0.247c0.404,-0.025 0.808,-0.037 1.212,-0.041c0.072,0 0.144,0 0.216,0Zm12.492,43.224c-0.049,0.023 -0.087,0.04 -0.114,0.053c-0.026,0.013 -0.047,0.024 -0.063,0.033c-0.146,0.085 -0.235,0.187 -0.267,0.305c-0.033,0.119 -0.008,0.248 0.074,0.389c0.079,0.135 0.177,0.212 0.294,0.231c0.116,0.019 0.257,-0.02 0.421,-0.117c0.035,-0.02 0.061,-0.036 0.08,-0.048c0.018,-0.012 0.035,-0.023 0.05,-0.035l-0.475,-0.811Zm-12.635,-42.99c-0.377,0.002 -0.754,0.012 -1.13,0.032c-0.788,0.043 -1.573,0.127 -2.351,0.253c-0.921,0.15 -1.832,0.358 -2.726,0.624c-0.923,0.275 -1.828,0.611 -2.707,1.005c-1.192,0.535 -2.336,1.176 -3.414,1.914c-0.981,0.671 -1.907,1.421 -2.766,2.241c-0.876,0.835 -1.682,1.741 -2.409,2.707c-0.744,0.988 -1.405,2.039 -1.972,3.138c-0.46,0.892 -0.859,1.815 -1.192,2.762c-0.361,1.024 -0.645,2.076 -0.85,3.143c-0.267,1.394 -0.397,2.813 -0.393,4.232c0.003,1.004 0.074,2.008 0.213,3.003c0.155,1.106 0.394,2.199 0.716,3.268c0.329,1.093 0.743,2.159 1.239,3.187c0.585,1.215 1.283,2.376 2.081,3.463c0.755,1.028 1.598,1.99 2.519,2.873c0.985,0.945 2.057,1.798 3.199,2.545c1.132,0.74 2.333,1.376 3.582,1.895c1.354,0.563 2.764,0.988 4.204,1.269c1.392,0.271 2.81,0.406 4.228,0.406c1.441,0 2.882,-0.139 4.296,-0.419c1.416,-0.281 2.803,-0.702 4.136,-1.256c1.188,-0.494 2.332,-1.093 3.415,-1.787c1.205,-0.773 2.334,-1.662 3.366,-2.653c0.952,-0.913 1.823,-1.912 2.597,-2.98c0.766,-1.056 1.437,-2.181 2.003,-3.356c0.555,-1.149 1.008,-2.348 1.353,-3.577c0.265,-0.944 0.466,-1.907 0.602,-2.878c0.132,-0.948 0.203,-1.904 0.212,-2.861c0.014,-1.466 -0.116,-2.934 -0.392,-4.374c-0.2,-1.045 -0.477,-2.075 -0.828,-3.08c-0.315,-0.906 -0.691,-1.79 -1.123,-2.647c-0.528,-1.045 -1.14,-2.049 -1.827,-2.997c-0.787,-1.086 -1.674,-2.1 -2.645,-3.026c-0.955,-0.911 -1.993,-1.736 -3.096,-2.462c-0.962,-0.633 -1.974,-1.191 -3.023,-1.666c-0.919,-0.415 -1.866,-0.766 -2.833,-1.051c-0.829,-0.244 -1.673,-0.438 -2.525,-0.582c-0.777,-0.131 -1.56,-0.221 -2.346,-0.268c-0.4,-0.024 -0.8,-0.037 -1.2,-0.04c-0.071,0 -0.142,0 -0.213,0Zm0.845,41.897l-0.123,0c-0.184,0.605 -0.381,1.25 -0.562,1.844l-0.174,0.001c-0.186,-0.607 -0.375,-1.225 -0.562,-1.835l-0.126,-0.001l0,-0.207c0.204,0 0.409,0.004 0.619,0.004l0,0.204l-0.279,0l0.133,0.436l0.603,0l0.136,-0.446l-0.246,0l0,-0.203l0.581,0l0,0.203Zm14.501,0.591l-0.564,0.392l-0.068,-0.097l0.129,-0.111l0.006,-0.044l-0.836,-0.409l0.042,0.931l0.047,0.019l0.166,-0.077l0.068,0.098l-0.496,0.344l-0.067,-0.097l0.126,-0.134l-0.056,-1.16l-0.38,-0.546l-0.063,-0.008l-0.173,0.103l-0.069,-0.1l0.628,-0.436l0.069,0.1l-0.156,0.126l-0.015,0.061l0.357,0.515l1.073,0.512l0.164,-0.079l0.068,0.097Zm-29.166,0.986l-0.62,-0.428c-0.188,-0.129 -0.305,-0.258 -0.352,-0.387c-0.047,-0.128 -0.025,-0.259 0.067,-0.392c0.063,-0.092 0.146,-0.149 0.248,-0.17c0.102,-0.022 0.222,-0.008 0.361,0.042c-0.141,-0.1 -0.228,-0.212 -0.261,-0.336c-0.032,-0.123 -0.006,-0.245 0.077,-0.367c0.107,-0.154 0.243,-0.235 0.408,-0.241c0.165,-0.006 0.351,0.061 0.557,0.203l0.642,0.443l-0.069,0.1l-0.146,-0.083l-0.066,0.005l-0.924,1.341l0.017,0.063l0.129,0.11l-0.068,0.097Zm14.132,-0.928l-0.479,0l0.24,0.784l0.239,-0.784Zm-14.021,-0.087c-0.01,-0.008 -0.021,-0.016 -0.034,-0.026c-0.013,-0.009 -0.031,-0.022 -0.056,-0.039c-0.154,-0.106 -0.285,-0.157 -0.394,-0.152c-0.109,0.005 -0.204,0.065 -0.284,0.182c-0.069,0.099 -0.087,0.196 -0.054,0.292c0.032,0.095 0.115,0.189 0.248,0.28c0.012,0.009 0.034,0.022 0.066,0.041c0.031,0.019 0.058,0.035 0.078,0.048l0.43,-0.626Zm-1.625,-0.037l-0.534,-0.433l0.075,-0.092l0.142,0.093l0.045,-0.007l0.16,-0.916l-0.883,0.299l-0.005,0.05l0.12,0.138l-0.075,0.092l-0.468,-0.38l0.074,-0.092l0.164,0.084l1.098,-0.376l0.42,-0.516l-0.01,-0.063l-0.147,-0.138l0.077,-0.094l0.593,0.483l-0.076,0.094l-0.165,-0.115l-0.063,0.002l-0.396,0.486l-0.193,1.173l0.121,0.136l-0.074,0.092Zm2.158,-0.735c-0.028,-0.023 -0.055,-0.044 -0.081,-0.064c-0.026,-0.019 -0.052,-0.038 -0.077,-0.056c-0.167,-0.114 -0.307,-0.17 -0.42,-0.167c-0.114,0.002 -0.212,0.064 -0.295,0.185c-0.076,0.11 -0.1,0.214 -0.071,0.314c0.029,0.099 0.111,0.196 0.247,0.289c0.032,0.022 0.068,0.046 0.11,0.07c0.042,0.025 0.089,0.052 0.139,0.08l0.448,-0.651Zm29.971,-0.373l-0.585,0.474c-0.188,0.153 -0.354,0.232 -0.5,0.237c-0.145,0.006 -0.274,-0.061 -0.388,-0.201c-0.08,-0.099 -0.115,-0.206 -0.105,-0.32c0.01,-0.115 0.066,-0.235 0.167,-0.362c-0.07,0.031 -0.135,0.05 -0.194,0.056c-0.059,0.007 -0.115,0 -0.168,-0.019c-0.059,-0.02 -0.129,-0.063 -0.212,-0.128c-0.082,-0.065 -0.139,-0.107 -0.171,-0.124c-0.074,-0.044 -0.141,-0.061 -0.2,-0.051c-0.058,0.01 -0.135,0.053 -0.23,0.13l-0.02,0.017l-0.071,-0.088c0.029,-0.035 0.056,-0.065 0.083,-0.092c0.026,-0.027 0.052,-0.052 0.079,-0.073c0.053,-0.043 0.102,-0.074 0.149,-0.094c0.047,-0.02 0.092,-0.029 0.136,-0.028c0.094,0.004 0.215,0.06 0.363,0.17c0.054,0.04 0.096,0.068 0.124,0.086c0.106,0.069 0.2,0.1 0.281,0.094c0.081,-0.007 0.174,-0.053 0.28,-0.138c0.022,-0.018 0.057,-0.049 0.105,-0.091l0.007,-0.007l-0.443,-0.546l-0.066,-0.001l-0.14,0.095l-0.077,-0.094l0.546,-0.443l0.077,0.094l-0.121,0.117l-0.013,0.064l1.026,1.265l0.066,0.001l0.141,-0.092l0.074,0.092Zm-0.461,0.199l-0.519,-0.64c-0.024,0.018 -0.047,0.035 -0.068,0.052c-0.021,0.016 -0.041,0.032 -0.061,0.048c-0.142,0.115 -0.225,0.224 -0.249,0.327c-0.024,0.102 0.009,0.209 0.099,0.32c0.092,0.114 0.193,0.17 0.301,0.168c0.109,-0.003 0.237,-0.064 0.386,-0.185l0.111,-0.09Zm-16.108,-23.29c0.559,0.641 0.99,1.317 1.252,1.873c0.502,-0.74 1.362,-1.876 1.831,-2.503c2.076,-2.728 3.932,-5.004 6.013,-6.538c1.578,-1.194 3.41,-2.16 5.173,-2.16c0.859,0 1.396,0.34 1.65,0.568c0.305,0.284 0.533,0.682 0.41,0.796c-0.084,0.056 -0.194,-0.114 -0.544,-0.398c-0.201,-0.171 -0.673,-0.341 -1.036,-0.341c-0.498,0 -0.975,0.17 -1.373,0.625c-0.875,1.024 -2.214,3.469 -3.034,5.345c-0.909,1.996 -1.844,4.152 -2.765,6.366l11.615,0l0,0.278l-11.731,0c-1.212,2.921 -2.397,5.932 -3.464,8.795c0.344,-0.669 0.898,-1.295 1.409,-1.701c0.989,-0.856 2.999,-1.943 4.217,-1.746c0.758,0.132 1.022,0.626 0.89,1.252c-0.132,0.626 -0.692,1.121 -1.119,1.121c-0.561,0 -0.561,-0.461 -0.264,-0.956c0.362,-0.626 0.493,-1.021 0.098,-1.087c-0.362,-0.066 -1.12,0.428 -2.042,1.384c-0.89,0.889 -1.747,2.141 -1.845,2.932c-0.066,0.495 0.23,0.759 0.758,0.759c0.428,0 1.581,-0.199 3.031,-1.187c0.543,-0.373 1.236,-0.943 1.754,-1.389c0.406,-0.373 0.7,-0.6 1.178,-0.951c0.362,-0.264 0.988,-0.658 1.614,-0.988c0.955,-0.494 1.944,-0.922 2.834,-0.922l0.033,0c0.725,0 0.988,0.461 0.955,0.888c-0.066,0.858 -1.12,1.517 -2.108,2.011c-0.956,0.461 -2.076,0.857 -2.834,1.055c-0.132,0.263 -0.198,0.559 -0.198,0.757c0,0.494 0.264,0.758 0.758,0.758c0.428,0 1.548,-0.231 2.998,-1.219c0.627,-0.429 1.384,-1.022 2.011,-1.582c0.197,-0.164 0.296,-0.198 0.361,-0.131c0.066,0.098 -0.065,0.264 -0.263,0.428c-0.428,0.395 -1.482,1.252 -2.076,1.648c-1.384,0.923 -2.603,1.35 -3.723,1.35c-1.219,0 -1.779,-0.461 -1.746,-1.318c0.033,-0.659 0.329,-1.252 0.988,-2.042l-0.032,-0.033c-0.051,0.05 -0.169,0.16 -0.3,0.277c-0.037,0.037 -0.08,0.076 -0.129,0.118c-0.428,0.395 -1.351,1.187 -1.944,1.582c-1.153,0.79 -2.701,1.416 -3.822,1.416c-1.223,0 -1.817,-0.471 -1.782,-1.323c-0.014,0.001 -0.027,0.002 -0.041,0.003c-0.533,0.853 -0.939,1.251 -1.596,1.421c-1.272,0.342 -1.313,-0.397 -1.179,-0.796c0.095,-0.341 0.197,-0.625 0.262,-0.852c-0.307,-0.043 -0.695,-0.139 -1.103,-0.265l0,9.727l-0.279,0l0,-9.816c-0.61,-0.201 -1.234,-0.453 -1.68,-0.67c-1.055,-0.511 -2.234,-1.307 -2.902,-1.99c-1.538,1.535 -3.778,3.904 -7.982,4.302c-3.488,0.341 -6.588,-1.024 -6.957,-4.151l-0.006,-0.056c-0.235,-1.99 0.773,-3.412 1.942,-3.469c1.028,-0.114 1.748,0.625 1.875,1.706c0.101,0.852 -0.246,1.365 -0.813,1.933c-0.405,0.398 -0.72,0.796 -0.646,1.422c0.14,1.195 1.747,2.161 4.653,1.876c3.481,-0.398 5.195,-1.857 7.428,-4.018c-0.956,-0.949 -2.832,-3.43 -3.225,-6.263l-10.91,0l0,-0.278l10.878,0c-0.304,-3.354 1.464,-5.91 4.69,-5.854c1.423,0.066 2.696,0.915 3.655,1.916l0,-15.286l0.279,0l0,15.591Zm15.6,21.384c0.047,-0.091 0.1,-0.179 0.16,-0.262c0.06,-0.083 0.126,-0.159 0.196,-0.227c0.07,-0.068 0.142,-0.124 0.217,-0.168c0.075,-0.045 0.151,-0.077 0.227,-0.098c0.177,-0.046 0.355,-0.042 0.533,0.011c0.178,0.053 0.334,0.149 0.468,0.287c0.215,0.221 0.32,0.465 0.316,0.731c-0.004,0.266 -0.117,0.506 -0.338,0.721c-0.064,0.061 -0.136,0.12 -0.218,0.176c-0.082,0.056 -0.173,0.109 -0.272,0.158l-0.317,-0.326l0.118,-0.115l0.22,0.162l0.065,0.011c0.059,-0.021 0.112,-0.046 0.159,-0.074c0.047,-0.029 0.091,-0.063 0.131,-0.101c0.161,-0.156 0.235,-0.334 0.223,-0.534c-0.012,-0.2 -0.109,-0.394 -0.291,-0.582c-0.194,-0.2 -0.395,-0.309 -0.603,-0.328c-0.209,-0.018 -0.4,0.057 -0.573,0.225c-0.03,0.029 -0.059,0.061 -0.085,0.096c-0.027,0.034 -0.051,0.071 -0.072,0.111l-0.001,0.065l0.177,0.287l-0.114,0.11l-0.326,-0.336Zm-33.28,-1.717c0.092,0.047 0.179,0.1 0.262,0.161c0.083,0.06 0.159,0.125 0.227,0.196c0.068,0.07 0.123,0.142 0.168,0.217c0.044,0.075 0.076,0.151 0.097,0.228c0.045,0.177 0.041,0.354 -0.012,0.532c-0.054,0.178 -0.15,0.334 -0.288,0.468c-0.222,0.214 -0.465,0.319 -0.731,0.314c-0.266,-0.004 -0.507,-0.117 -0.721,-0.339c-0.061,-0.064 -0.12,-0.136 -0.175,-0.218c-0.056,-0.082 -0.109,-0.173 -0.158,-0.273l0.327,-0.316l0.114,0.119l-0.162,0.219l-0.011,0.065c0.021,0.059 0.045,0.112 0.074,0.159c0.028,0.048 0.062,0.092 0.101,0.132c0.155,0.16 0.333,0.235 0.533,0.223c0.2,-0.011 0.394,-0.108 0.583,-0.29c0.2,-0.193 0.309,-0.394 0.328,-0.602c0.019,-0.209 -0.055,-0.4 -0.223,-0.573c-0.03,-0.031 -0.062,-0.059 -0.096,-0.086c-0.034,-0.026 -0.071,-0.05 -0.111,-0.072l-0.065,-0.001l-0.287,0.177l-0.111,-0.115l0.337,-0.325Zm37.808,-0.411l-0.432,0.534l-0.092,-0.074l0.092,-0.142l-0.006,-0.045l-0.917,-0.159l0.301,0.883l0.05,0.005l0.138,-0.12l0.092,0.074l-0.38,0.469l-0.092,-0.074l0.085,-0.164l-0.379,-1.098l-0.517,-0.419l-0.062,0.011l-0.138,0.147l-0.094,-0.076l0.481,-0.595l0.095,0.076l-0.115,0.165l0.002,0.064l0.487,0.394l1.173,0.192l0.136,-0.122l0.092,0.074Zm-39.516,1.377l-0.474,-0.586c-0.152,-0.188 -0.23,-0.355 -0.236,-0.5c-0.005,-0.145 0.062,-0.275 0.202,-0.388c0.1,-0.08 0.207,-0.115 0.321,-0.105c0.114,0.011 0.234,0.067 0.361,0.168c-0.031,-0.07 -0.049,-0.135 -0.056,-0.194c-0.006,-0.059 0,-0.115 0.02,-0.168c0.02,-0.059 0.063,-0.129 0.128,-0.211c0.066,-0.083 0.107,-0.14 0.125,-0.172c0.044,-0.074 0.061,-0.14 0.051,-0.199c-0.01,-0.059 -0.053,-0.136 -0.13,-0.231l-0.016,-0.02l0.087,-0.071c0.035,0.029 0.066,0.057 0.093,0.083c0.027,0.027 0.051,0.053 0.072,0.079c0.043,0.054 0.074,0.103 0.094,0.15c0.02,0.047 0.029,0.092 0.028,0.136c-0.004,0.094 -0.061,0.215 -0.171,0.363c-0.04,0.054 -0.068,0.095 -0.086,0.123c-0.069,0.107 -0.1,0.2 -0.094,0.281c0.006,0.082 0.052,0.175 0.137,0.28c0.018,0.023 0.048,0.058 0.09,0.105l0.008,0.007l0.547,-0.442l0,-0.065l-0.094,-0.141l0.094,-0.076l0.442,0.547l-0.095,0.076l-0.116,-0.121l-0.064,-0.013l-1.267,1.024l-0.001,0.065l0.092,0.141l-0.092,0.075Zm-0.198,-0.462l0.641,-0.518c-0.018,-0.024 -0.036,-0.046 -0.052,-0.067c-0.017,-0.022 -0.033,-0.042 -0.049,-0.061c-0.115,-0.143 -0.223,-0.226 -0.326,-0.25c-0.102,-0.024 -0.209,0.008 -0.32,0.098c-0.114,0.092 -0.17,0.193 -0.168,0.301c0.002,0.109 0.063,0.237 0.184,0.386l0.09,0.111Zm-0.974,-0.989l-0.391,-0.566l0.098,-0.067l0.11,0.129l0.045,0.006l0.41,-0.835l-0.932,0.041l-0.019,0.046l0.077,0.167l-0.097,0.067l-0.344,-0.496l0.098,-0.068l0.133,0.127l1.16,-0.054l0.547,-0.379l0.007,-0.063l-0.102,-0.173l0.1,-0.069l0.435,0.629l-0.1,0.069l-0.126,-0.156l-0.061,-0.016l-0.515,0.357l-0.514,1.071l0.079,0.165l-0.098,0.068Zm34.643,-0.678l1.15,0.641l-0.641,-1.149l-1.149,-0.642l0.64,1.15Zm-28.476,0l-1.15,0.641l0.642,-1.149l1.149,-0.642l-0.641,1.15Zm35.57,-0.764l-0.427,0.621c-0.129,0.188 -0.257,0.305 -0.386,0.353c-0.128,0.047 -0.259,0.025 -0.392,-0.067c-0.092,-0.063 -0.149,-0.145 -0.171,-0.247c-0.021,-0.102 -0.008,-0.223 0.041,-0.362c-0.099,0.142 -0.211,0.229 -0.334,0.262c-0.124,0.032 -0.246,0.007 -0.368,-0.077c-0.154,-0.106 -0.235,-0.242 -0.242,-0.407c-0.006,-0.165 0.061,-0.351 0.203,-0.557l0.441,-0.643l0.1,0.069l-0.083,0.146l0.006,0.066l1.342,0.922l0.063,-0.018l0.11,-0.128l0.097,0.067Zm-1.015,-0.109c-0.008,0.01 -0.016,0.021 -0.026,0.034c-0.009,0.013 -0.022,0.031 -0.039,0.056c-0.106,0.154 -0.156,0.285 -0.151,0.394c0.005,0.11 0.066,0.204 0.182,0.284c0.1,0.068 0.197,0.086 0.292,0.054c0.096,-0.033 0.189,-0.116 0.281,-0.249c0.008,-0.012 0.021,-0.034 0.04,-0.066c0.019,-0.032 0.035,-0.058 0.048,-0.078l-0.627,-0.429Zm-0.773,-0.531c-0.023,0.027 -0.044,0.054 -0.064,0.08c-0.019,0.027 -0.038,0.052 -0.055,0.078c-0.115,0.166 -0.17,0.306 -0.167,0.42c0.003,0.114 0.065,0.212 0.185,0.295c0.11,0.075 0.215,0.099 0.315,0.07c0.099,-0.03 0.196,-0.112 0.289,-0.248c0.021,-0.031 0.045,-0.068 0.07,-0.11c0.024,-0.042 0.051,-0.089 0.079,-0.139l-0.652,-0.446Zm-39.423,-0.667l-0.105,0.061l-0.097,-0.137l-0.061,-0.023l-1.407,0.821l-0.011,0.065l0.082,0.174l-0.102,0.06l-0.34,-0.583c-0.149,-0.256 -0.215,-0.461 -0.198,-0.617c0.018,-0.156 0.119,-0.288 0.306,-0.396c0.166,-0.097 0.334,-0.115 0.503,-0.054c0.169,0.061 0.313,0.193 0.431,0.395c0.012,0.02 0.026,0.046 0.041,0.077c0.015,0.032 0.035,0.072 0.058,0.121l0.503,-0.292l0.011,-0.065l-0.094,-0.189l0.105,-0.061l0.375,0.643Zm-1.023,0.037c-0.022,-0.05 -0.04,-0.088 -0.052,-0.114c-0.013,-0.027 -0.024,-0.048 -0.033,-0.064c-0.085,-0.145 -0.187,-0.234 -0.305,-0.267c-0.119,-0.033 -0.248,-0.009 -0.388,0.073c-0.136,0.079 -0.213,0.177 -0.232,0.293c-0.019,0.117 0.019,0.257 0.115,0.422c0.021,0.035 0.037,0.061 0.048,0.08c0.012,0.018 0.024,0.035 0.035,0.051l0.812,-0.474Zm43.499,-0.96c-0.159,0.308 -0.359,0.507 -0.6,0.597c-0.241,0.09 -0.501,0.063 -0.781,-0.082c-0.155,-0.08 -0.279,-0.179 -0.372,-0.297c-0.092,-0.118 -0.152,-0.252 -0.178,-0.403c-0.018,-0.107 -0.015,-0.215 0.01,-0.325c0.025,-0.11 0.078,-0.243 0.159,-0.401l0.334,-0.647l0.108,0.055l-0.064,0.156l0.014,0.064l1.447,0.747l0.06,-0.025l0.093,-0.141l0.105,0.054l-0.335,0.648Zm-0.008,-0.28l-1.521,-0.786l-0.107,0.207c-0.124,0.24 -0.153,0.451 -0.088,0.635c0.064,0.184 0.225,0.341 0.48,0.474c0.256,0.132 0.477,0.171 0.663,0.118c0.186,-0.052 0.341,-0.199 0.466,-0.441l0.107,-0.207Zm-45.1,0.607l-0.726,-1.505l0.41,-0.197l0.071,0.147l-0.23,0.155l-0.022,0.058l0.197,0.406l1.504,-0.726l0.016,-0.062l-0.073,-0.186l0.109,-0.052l0.336,0.695l-0.109,0.053l-0.099,-0.172l-0.06,-0.027l-1.504,0.726l0.196,0.407l0.059,0.018l0.265,-0.082l0.07,0.146l-0.41,0.198Zm44.374,-3.543l0.112,0.047l-0.051,0.16l0.019,0.063l1.504,0.623l0.058,-0.03l0.081,-0.148l0.109,0.045l-0.543,1.308l-0.398,-0.165l0.063,-0.153l0.248,0.057l0.057,-0.02l0.262,-0.632l-0.69,-0.287l-0.186,0.449l0.022,0.054l0.188,0.109l-0.054,0.13l-0.601,-0.25l0.054,-0.129l0.208,0.055l0.057,-0.021l0.186,-0.449l-0.765,-0.317l-0.304,0.732l0.028,0.057l0.257,0.161l-0.059,0.142l-0.445,-0.185l0.583,-1.406Zm-45.263,1.667l-0.268,-0.704c-0.086,-0.226 -0.109,-0.409 -0.069,-0.549c0.04,-0.139 0.145,-0.241 0.313,-0.305c0.119,-0.046 0.232,-0.046 0.337,0c0.106,0.045 0.203,0.136 0.291,0.272c-0.007,-0.076 -0.005,-0.144 0.008,-0.202c0.012,-0.058 0.036,-0.109 0.07,-0.153c0.038,-0.05 0.101,-0.103 0.189,-0.161c0.087,-0.058 0.144,-0.1 0.171,-0.124c0.065,-0.057 0.102,-0.115 0.111,-0.174c0.009,-0.059 -0.008,-0.145 -0.052,-0.26l-0.009,-0.024l0.105,-0.04c0.024,0.038 0.045,0.074 0.062,0.108c0.018,0.033 0.032,0.066 0.044,0.097c0.025,0.064 0.039,0.121 0.043,0.172c0.004,0.05 -0.001,0.096 -0.016,0.138c-0.033,0.088 -0.125,0.185 -0.276,0.292c-0.054,0.039 -0.094,0.069 -0.12,0.09c-0.098,0.08 -0.157,0.159 -0.176,0.238c-0.02,0.079 -0.005,0.182 0.043,0.308c0.01,0.027 0.028,0.07 0.053,0.129l0.005,0.008l0.657,-0.249l0.021,-0.062l-0.046,-0.163l0.113,-0.044l0.25,0.658l-0.113,0.043l-0.073,-0.152l-0.057,-0.032l-1.523,0.579l-0.021,0.062l0.043,0.162l-0.11,0.042Zm-0.045,-0.5l0.77,-0.293c-0.009,-0.028 -0.019,-0.055 -0.028,-0.08c-0.009,-0.026 -0.018,-0.05 -0.027,-0.073c-0.065,-0.171 -0.142,-0.284 -0.232,-0.339c-0.09,-0.055 -0.201,-0.057 -0.335,-0.007c-0.137,0.053 -0.222,0.131 -0.254,0.234c-0.031,0.104 -0.013,0.245 0.055,0.424l0.051,0.134Zm25.167,-9.55l-1.186,0c-0.127,0.171 -0.255,0.34 -0.381,0.509l0,8.324c0.467,0.158 0.918,0.283 1.26,0.33c0.269,-0.796 0.902,-2.331 1.036,-2.73c0.223,-0.795 0.054,-2.615 -0.224,-4.206c-0.156,-0.848 -0.317,-1.585 -0.505,-2.227Zm13.427,7.919c0.824,-0.56 1.318,-1.253 1.351,-1.715c0.033,-0.295 -0.099,-0.46 -0.396,-0.46c-0.296,0 -0.79,0.33 -1.45,0.956c-0.526,0.494 -1.35,1.548 -1.746,2.207c0.659,-0.165 1.549,-0.527 2.241,-0.988Zm9.278,-0.989l-0.22,0.691l-0.113,-0.036l0.039,-0.18l-0.024,-0.061l-1.019,-0.325c-0.197,-0.063 -0.353,-0.069 -0.467,-0.018c-0.114,0.052 -0.198,0.165 -0.255,0.341c-0.055,0.174 -0.051,0.316 0.013,0.424c0.064,0.108 0.194,0.194 0.389,0.256l1,0.319l0.068,-0.038l0.079,-0.161l0.112,0.036l-0.189,0.595l-0.113,-0.036l0.029,-0.177l-0.035,-0.067l-1.024,-0.326c-0.135,-0.043 -0.235,-0.086 -0.301,-0.128c-0.065,-0.042 -0.117,-0.094 -0.157,-0.155c-0.049,-0.077 -0.076,-0.173 -0.081,-0.287c-0.006,-0.114 0.012,-0.236 0.053,-0.364c0.041,-0.129 0.097,-0.239 0.167,-0.329c0.071,-0.089 0.149,-0.151 0.233,-0.186c0.069,-0.028 0.141,-0.04 0.218,-0.036c0.076,0.004 0.183,0.027 0.318,0.071l1.044,0.332l0.056,-0.035l0.067,-0.156l0.113,0.036Zm-24.551,-6.05c-0.436,0.58 -0.863,1.147 -1.272,1.688c-1.061,1.364 -1.968,2.501 -2.842,3.524c0.585,0.74 1.667,1.479 2.587,1.991c0.388,0.201 0.955,0.445 1.527,0.652l0,-7.855Zm-24.26,6.429l-0.054,-0.187l1.584,-1.192l-0.015,-0.181l0.117,-0.033l0.185,0.645l-0.116,0.033l-0.065,-0.172l-0.046,-0.009l-0.484,0.361l0.193,0.67l0.601,0.047l0.031,-0.041l-0.039,-0.188l0.117,-0.034l0.16,0.557l-0.117,0.033l-0.082,-0.153l-1.97,-0.156Zm0.286,-0.13l0.868,0.054l-0.164,-0.573l-0.704,0.519Zm47.056,-2.427l0.506,0.116l-0.038,0.17l-0.339,-0.041l-0.058,0.026c-0.031,0.038 -0.058,0.082 -0.082,0.134c-0.024,0.052 -0.043,0.11 -0.057,0.174c-0.031,0.134 -0.024,0.247 0.02,0.34c0.045,0.092 0.12,0.151 0.226,0.175c0.148,0.034 0.311,-0.074 0.492,-0.323c0.02,-0.027 0.035,-0.048 0.045,-0.063c0.13,-0.177 0.24,-0.289 0.328,-0.336c0.088,-0.048 0.191,-0.058 0.308,-0.031c0.165,0.038 0.285,0.129 0.359,0.274c0.074,0.144 0.088,0.317 0.042,0.518c-0.018,0.081 -0.043,0.16 -0.075,0.238c-0.032,0.078 -0.072,0.156 -0.118,0.235l-0.446,-0.102l0.034,-0.151l0.284,0.019l0.058,-0.031c0.029,-0.032 0.053,-0.068 0.073,-0.109c0.02,-0.041 0.035,-0.087 0.047,-0.138c0.027,-0.12 0.018,-0.222 -0.029,-0.307c-0.046,-0.084 -0.123,-0.139 -0.23,-0.163c-0.078,-0.018 -0.148,-0.008 -0.21,0.03c-0.063,0.037 -0.149,0.133 -0.261,0.287c-0.01,0.015 -0.025,0.037 -0.044,0.066c-0.104,0.153 -0.201,0.258 -0.291,0.315c-0.051,0.033 -0.106,0.054 -0.164,0.063c-0.058,0.009 -0.119,0.006 -0.182,-0.008c-0.173,-0.04 -0.298,-0.14 -0.373,-0.3c-0.076,-0.16 -0.088,-0.353 -0.037,-0.578c0.023,-0.101 0.053,-0.193 0.089,-0.279c0.036,-0.085 0.077,-0.158 0.123,-0.22Zm-47.83,0.478c-0.066,-0.34 -0.033,-0.62 0.1,-0.84c0.133,-0.22 0.354,-0.36 0.663,-0.421c0.172,-0.033 0.331,-0.033 0.476,0.002c0.146,0.035 0.276,0.104 0.39,0.206c0.081,0.072 0.145,0.159 0.194,0.261c0.049,0.101 0.09,0.238 0.124,0.412l0.14,0.716l-0.119,0.023l-0.046,-0.162l-0.051,-0.041l-1.599,0.312l-0.031,0.058l0.015,0.167l-0.116,0.023l-0.14,-0.716Zm24.731,-5.23l-6.626,0c0.205,2.371 1.462,4.677 2.153,5.582c0.836,-0.967 1.826,-2.162 2.885,-3.526c0.533,-0.674 1.064,-1.366 1.588,-2.056Zm-24.551,5.445l1.681,-0.328l-0.045,-0.229c-0.052,-0.265 -0.16,-0.449 -0.325,-0.553c-0.165,-0.103 -0.388,-0.127 -0.671,-0.072c-0.282,0.055 -0.48,0.161 -0.593,0.318c-0.113,0.157 -0.143,0.368 -0.091,0.635l0.044,0.229Zm29.917,-5.445l-2.999,0c0.174,0.596 0.346,1.308 0.491,2.169c0.166,1.024 0.254,2.161 0.24,3.184c0.446,-1.142 1.341,-3.26 2.268,-5.353Zm18.006,3.039l0.514,0.077l-0.026,0.173l-0.34,-0.016l-0.056,0.031c-0.028,0.039 -0.052,0.086 -0.072,0.139c-0.02,0.054 -0.034,0.113 -0.044,0.178c-0.021,0.136 -0.005,0.248 0.046,0.337c0.052,0.089 0.131,0.142 0.239,0.158c0.149,0.022 0.304,-0.097 0.465,-0.359c0.018,-0.029 0.032,-0.051 0.041,-0.066c0.116,-0.187 0.217,-0.307 0.301,-0.361c0.085,-0.053 0.186,-0.071 0.305,-0.053c0.168,0.025 0.294,0.107 0.379,0.246c0.085,0.138 0.112,0.31 0.081,0.513c-0.012,0.082 -0.031,0.163 -0.057,0.244c-0.026,0.08 -0.06,0.161 -0.1,0.242l-0.453,-0.068l0.023,-0.152l0.285,-0.003l0.055,-0.035c0.027,-0.034 0.048,-0.073 0.065,-0.115c0.016,-0.042 0.028,-0.089 0.036,-0.14c0.018,-0.122 0.001,-0.224 -0.051,-0.304c-0.053,-0.081 -0.134,-0.13 -0.242,-0.146c-0.079,-0.012 -0.148,0.003 -0.208,0.045c-0.059,0.043 -0.138,0.145 -0.238,0.307c-0.009,0.015 -0.022,0.038 -0.039,0.069c-0.092,0.16 -0.181,0.272 -0.267,0.336c-0.048,0.037 -0.101,0.062 -0.158,0.075c-0.058,0.013 -0.118,0.015 -0.182,0.006c-0.176,-0.027 -0.308,-0.117 -0.395,-0.271c-0.088,-0.155 -0.114,-0.346 -0.08,-0.574c0.015,-0.102 0.038,-0.197 0.068,-0.284c0.029,-0.088 0.064,-0.164 0.105,-0.229Zm-46.406,0.425l-0.121,0.013l-0.032,-0.165l-0.047,-0.046l-1.619,0.175l-0.037,0.055l0.001,0.168l-0.118,0.013l-0.151,-1.408l0.429,-0.047l0.018,0.165l-0.246,0.069l-0.04,0.045l0.074,0.68l0.743,-0.08l-0.052,-0.482l-0.046,-0.037l-0.217,-0.006l-0.015,-0.139l0.647,-0.07l0.015,0.139l-0.209,0.052l-0.04,0.046l0.052,0.483l0.824,-0.089l-0.085,-0.788l-0.052,-0.037l-0.302,-0.018l-0.017,-0.152l0.48,-0.052l0.163,1.513Zm46.449,-1.551l0.121,0.01l-0.002,0.19l0.037,0.054l1.622,0.143l0.047,-0.047l0.033,-0.187l0.118,0.011l-0.066,0.748l-0.118,-0.011l0,-0.19l-0.037,-0.054l-1.623,-0.143l-0.046,0.047l-0.031,0.187l-0.121,-0.011l0.066,-0.747Zm-47.6,-1.605c-0.04,0.052 -0.061,0.124 -0.061,0.176c0.001,0.187 0.167,0.32 0.349,0.318c0.198,-0.001 0.351,-0.154 0.349,-0.349c0,-0.105 -0.055,-0.246 -0.152,-0.32l0.002,-0.005c0.227,0.01 0.361,0.042 0.476,0.134l0.012,0l-0.003,-0.454l-0.013,0c-0.113,0.094 -0.247,0.127 -0.474,0.141l-0.001,-0.005c0.095,-0.076 0.148,-0.218 0.147,-0.323c-0.001,-0.195 -0.156,-0.345 -0.354,-0.344c-0.182,0.001 -0.346,0.137 -0.344,0.324c0,0.052 0.022,0.123 0.063,0.175l-0.007,0.007c-0.055,-0.046 -0.132,-0.085 -0.232,-0.084c-0.192,0.001 -0.337,0.154 -0.336,0.347c0.002,0.189 0.146,0.344 0.341,0.342c0.1,0 0.176,-0.042 0.231,-0.087l0.007,0.007Zm44.253,-0.617l-0.203,0c0,-0.209 -0.004,-0.414 -0.004,-0.619l0.206,0l0.001,0.127c0.61,0.186 1.229,0.376 1.835,0.561l0,0.174c-0.594,0.182 -1.239,0.378 -1.845,0.563l0,0.123l-0.203,0l0,-0.582l0.203,0l0,0.247l0.446,-0.137l0,-0.603l-0.436,-0.134l0,0.28Zm-39.64,0.929l-0.204,0l0,-0.123c-0.604,-0.184 -1.25,-0.381 -1.844,-0.563l0,-0.175c0.606,-0.185 1.224,-0.374 1.834,-0.559l0.001,-0.128l0.207,0c0,0.204 -0.004,0.409 -0.004,0.619l-0.204,0l0,-0.279l-0.436,0.133l0,0.603l0.446,0.136l0,-0.245l0.204,0l0,0.581Zm44.258,-0.806c0.19,-0.06 0.281,-0.204 0.281,-0.367c-0.001,-0.193 -0.161,-0.348 -0.363,-0.348c-0.24,0 -0.416,0.131 -0.579,0.265c-0.155,0.128 -0.427,0.384 -0.493,0.45l0,0.004c0.066,0.066 0.338,0.323 0.494,0.451c0.162,0.134 0.339,0.265 0.578,0.264c0.199,0 0.363,-0.15 0.363,-0.346c0,-0.165 -0.091,-0.311 -0.281,-0.37l0,-0.003Zm-45.895,0.033l0.784,0.239l0,-0.48l-0.784,0.241Zm41.916,-0.241l0,0.48l0.785,-0.239l-0.785,-0.241Zm-20.69,-2.925c-1.004,-1.184 -2.214,-1.959 -3.509,-1.959l-0.045,0c-2.284,0 -3.26,2.413 -3.109,5l6.663,0l0,-3.041Zm5.472,3.041c0.694,-1.56 1.395,-3.081 1.928,-4.148c2.222,-4.549 4.377,-6.994 6.31,-8.245l-0.006,-0.057c-1.027,0.114 -2.607,0.909 -4.062,1.991c-1.952,1.478 -3.841,3.866 -5.37,5.856c-0.938,1.251 -1.677,2.274 -2.454,3.353c0.138,0.345 0.293,0.754 0.448,1.25l3.206,0Zm-3.712,0c-0.091,-0.284 -0.189,-0.548 -0.296,-0.793c-0.199,0.264 -0.397,0.529 -0.595,0.793l0.891,0Zm-1.481,-2.695l0,2.583c0.303,-0.402 0.603,-0.801 0.9,-1.194c-0.273,-0.496 -0.574,-0.964 -0.9,-1.389Zm23.03,-0.587l0.12,-0.012l0.031,0.165l0.047,0.047l1.621,-0.162l0.036,-0.055l0.001,-0.168l0.118,-0.012l0.14,1.41l-0.429,0.042l-0.017,-0.165l0.246,-0.066l0.041,-0.045l-0.068,-0.681l-0.745,0.074l0.049,0.483l0.045,0.037l0.217,0.008l0.014,0.139l-0.648,0.065l-0.014,-0.139l0.21,-0.05l0.041,-0.047l-0.049,-0.482l-0.824,0.082l0.079,0.789l0.051,0.037l0.302,0.02l0.016,0.153l-0.48,0.047l-0.151,-1.514Zm-46.461,1.187l-0.12,-0.011l0.003,-0.19l-0.037,-0.054l-1.621,-0.156l-0.046,0.046l-0.035,0.187l-0.118,-0.011l0.071,-0.748l0.118,0.012l-0.001,0.189l0.037,0.055l1.621,0.156l0.047,-0.047l0.032,-0.187l0.121,0.012l-0.072,0.747Zm0.052,-1.126l-0.513,-0.081l0.027,-0.172l0.341,0.018l0.055,-0.03c0.029,-0.04 0.053,-0.086 0.074,-0.139c0.02,-0.054 0.035,-0.113 0.045,-0.177c0.022,-0.136 0.007,-0.249 -0.044,-0.338c-0.05,-0.09 -0.129,-0.143 -0.237,-0.16c-0.149,-0.023 -0.305,0.095 -0.468,0.356c-0.018,0.028 -0.032,0.05 -0.041,0.065c-0.118,0.186 -0.22,0.306 -0.305,0.358c-0.084,0.053 -0.186,0.07 -0.305,0.052c-0.167,-0.027 -0.293,-0.11 -0.377,-0.249c-0.083,-0.14 -0.109,-0.311 -0.077,-0.514c0.013,-0.082 0.033,-0.163 0.06,-0.243c0.026,-0.08 0.06,-0.161 0.101,-0.242l0.452,0.071l-0.024,0.153l-0.285,0l-0.055,0.035c-0.027,0.034 -0.049,0.072 -0.065,0.114c-0.017,0.042 -0.03,0.089 -0.038,0.14c-0.019,0.122 -0.003,0.224 0.049,0.305c0.052,0.081 0.132,0.13 0.241,0.148c0.079,0.012 0.148,-0.003 0.208,-0.044c0.059,-0.042 0.139,-0.144 0.24,-0.305c0.009,-0.015 0.022,-0.038 0.04,-0.068c0.093,-0.16 0.183,-0.272 0.269,-0.335c0.049,-0.036 0.102,-0.061 0.159,-0.073c0.058,-0.013 0.119,-0.015 0.182,-0.005c0.176,0.028 0.307,0.12 0.393,0.274c0.086,0.155 0.111,0.347 0.075,0.575c-0.016,0.102 -0.039,0.196 -0.069,0.284c-0.031,0.087 -0.067,0.163 -0.108,0.227Zm48.119,-1.813c0.064,0.34 0.028,0.62 -0.107,0.839c-0.134,0.219 -0.356,0.358 -0.666,0.415c-0.172,0.033 -0.331,0.031 -0.476,-0.005c-0.145,-0.036 -0.275,-0.106 -0.388,-0.209c-0.08,-0.073 -0.144,-0.16 -0.192,-0.262c-0.048,-0.102 -0.088,-0.24 -0.121,-0.414l-0.134,-0.716l0.119,-0.023l0.045,0.162l0.051,0.042l1.6,-0.299l0.032,-0.058l-0.013,-0.167l0.116,-0.022l0.134,0.717Zm-0.179,-0.217l-1.683,0.315l0.043,0.23c0.05,0.265 0.157,0.45 0.321,0.555c0.164,0.105 0.387,0.131 0.67,0.078c0.283,-0.053 0.482,-0.158 0.596,-0.314c0.114,-0.156 0.146,-0.367 0.096,-0.634l-0.043,-0.23Zm-47.653,0.319l-0.506,-0.119l0.041,-0.17l0.338,0.044l0.058,-0.027c0.031,-0.037 0.059,-0.081 0.083,-0.133c0.024,-0.051 0.044,-0.109 0.059,-0.173c0.031,-0.134 0.025,-0.247 -0.018,-0.34c-0.044,-0.093 -0.119,-0.152 -0.225,-0.177c-0.147,-0.035 -0.312,0.072 -0.494,0.32c-0.02,0.026 -0.035,0.047 -0.045,0.061c-0.132,0.177 -0.242,0.288 -0.331,0.335c-0.088,0.046 -0.191,0.055 -0.308,0.028c-0.165,-0.039 -0.284,-0.131 -0.357,-0.277c-0.073,-0.145 -0.086,-0.318 -0.039,-0.518c0.019,-0.081 0.045,-0.16 0.078,-0.238c0.033,-0.078 0.073,-0.155 0.12,-0.233l0.445,0.105l-0.035,0.15l-0.285,-0.021l-0.057,0.031c-0.03,0.032 -0.054,0.068 -0.074,0.109c-0.02,0.04 -0.036,0.086 -0.048,0.137c-0.029,0.119 -0.02,0.222 0.026,0.307c0.046,0.085 0.122,0.14 0.229,0.165c0.077,0.018 0.148,0.009 0.21,-0.028c0.063,-0.037 0.15,-0.132 0.263,-0.286c0.01,-0.014 0.025,-0.036 0.045,-0.065c0.105,-0.152 0.203,-0.256 0.293,-0.313c0.052,-0.033 0.106,-0.053 0.165,-0.062c0.058,-0.008 0.119,-0.005 0.181,0.01c0.174,0.041 0.297,0.142 0.372,0.303c0.074,0.161 0.084,0.354 0.031,0.578c-0.023,0.101 -0.054,0.193 -0.09,0.278c-0.037,0.085 -0.079,0.158 -0.125,0.219Zm47.36,-2.185l0.053,0.188l-1.593,1.179l0.013,0.181l-0.117,0.033l-0.18,-0.647l0.117,-0.033l0.063,0.173l0.046,0.01l0.486,-0.358l-0.187,-0.671l-0.6,-0.052l-0.032,0.04l0.037,0.189l-0.117,0.033l-0.155,-0.558l0.117,-0.032l0.08,0.154l1.969,0.171Zm-0.286,0.128l-0.868,-0.061l0.16,0.574l0.708,-0.513Zm-48.526,-0.132l0.225,-0.689l0.113,0.037l-0.041,0.179l0.024,0.062l1.017,0.332c0.197,0.065 0.352,0.072 0.466,0.022c0.114,-0.05 0.2,-0.163 0.258,-0.339c0.057,-0.174 0.054,-0.315 -0.01,-0.424c-0.063,-0.109 -0.192,-0.195 -0.386,-0.259l-0.998,-0.326l-0.068,0.037l-0.08,0.16l-0.113,-0.037l0.195,-0.594l0.112,0.037l-0.03,0.177l0.034,0.067l1.022,0.335c0.135,0.044 0.234,0.087 0.299,0.13c0.065,0.043 0.117,0.094 0.156,0.156c0.048,0.077 0.075,0.173 0.08,0.288c0.004,0.114 -0.015,0.235 -0.056,0.364c-0.043,0.129 -0.099,0.238 -0.171,0.327c-0.071,0.089 -0.149,0.15 -0.234,0.184c-0.069,0.027 -0.141,0.039 -0.218,0.034c-0.076,-0.004 -0.182,-0.028 -0.318,-0.073l-1.041,-0.341l-0.056,0.035l-0.069,0.156l-0.112,-0.037Zm47.85,-2.745l0.262,0.707c0.085,0.226 0.106,0.409 0.065,0.549c-0.041,0.139 -0.146,0.24 -0.315,0.303c-0.12,0.044 -0.233,0.043 -0.337,-0.003c-0.105,-0.046 -0.202,-0.138 -0.289,-0.275c0.006,0.077 0.003,0.144 -0.009,0.202c-0.013,0.059 -0.037,0.11 -0.072,0.153c-0.039,0.049 -0.102,0.103 -0.19,0.16c-0.088,0.057 -0.145,0.098 -0.172,0.123c-0.066,0.056 -0.103,0.113 -0.112,0.172c-0.01,0.059 0.007,0.146 0.049,0.26l0.009,0.025l-0.105,0.039c-0.024,-0.039 -0.044,-0.075 -0.061,-0.108c-0.017,-0.034 -0.032,-0.067 -0.044,-0.098c-0.023,-0.064 -0.037,-0.122 -0.041,-0.172c-0.004,-0.05 0.002,-0.096 0.017,-0.138c0.034,-0.087 0.126,-0.184 0.278,-0.289c0.054,-0.039 0.095,-0.069 0.121,-0.09c0.099,-0.079 0.158,-0.158 0.178,-0.236c0.02,-0.079 0.007,-0.182 -0.04,-0.309c-0.01,-0.027 -0.028,-0.07 -0.053,-0.129l-0.005,-0.009l-0.659,0.245l-0.021,0.062l0.045,0.163l-0.114,0.042l-0.244,-0.659l0.113,-0.042l0.072,0.152l0.057,0.033l1.527,-0.567l0.021,-0.062l-0.042,-0.163l0.111,-0.041Zm0.041,0.501l-0.773,0.287c0.01,0.028 0.019,0.055 0.028,0.08c0.009,0.026 0.018,0.05 0.026,0.073c0.064,0.172 0.141,0.285 0.23,0.341c0.089,0.056 0.201,0.059 0.335,0.009c0.138,-0.051 0.223,-0.128 0.255,-0.232c0.033,-0.103 0.016,-0.245 -0.051,-0.424l-0.05,-0.134Zm-45.315,0.811l-0.112,-0.047l0.052,-0.16l-0.019,-0.063l-1.499,-0.636l-0.058,0.03l-0.082,0.148l-0.109,-0.046l0.553,-1.304l0.398,0.168l-0.065,0.153l-0.248,-0.059l-0.057,0.019l-0.267,0.63l0.689,0.292l0.189,-0.446l-0.022,-0.055l-0.187,-0.111l0.055,-0.129l0.599,0.254l-0.055,0.129l-0.208,-0.056l-0.057,0.021l-0.189,0.446l0.763,0.324l0.309,-0.73l-0.028,-0.057l-0.255,-0.163l0.06,-0.141l0.444,0.188l-0.594,1.401Zm44.399,-3.194l0.715,1.51l-0.412,0.194l-0.069,-0.147l0.23,-0.154l0.023,-0.057l-0.193,-0.409l-1.51,0.715l-0.017,0.062l0.072,0.186l-0.11,0.052l-0.33,-0.698l0.11,-0.052l0.097,0.173l0.06,0.027l1.51,-0.714l-0.193,-0.408l-0.059,-0.019l-0.266,0.079l-0.069,-0.146l0.411,-0.194Zm-45.109,-0.027c0.162,-0.307 0.363,-0.504 0.605,-0.593c0.242,-0.088 0.502,-0.058 0.78,0.088c0.155,0.082 0.279,0.182 0.37,0.3c0.092,0.119 0.15,0.254 0.175,0.405c0.017,0.107 0.013,0.215 -0.012,0.325c-0.026,0.109 -0.08,0.242 -0.162,0.399l-0.34,0.645l-0.107,-0.057l0.065,-0.154l-0.014,-0.065l-1.441,-0.759l-0.06,0.026l-0.094,0.14l-0.104,-0.055l0.339,-0.645Zm0.006,0.28l1.515,0.798l0.109,-0.207c0.126,-0.239 0.157,-0.45 0.093,-0.634c-0.063,-0.184 -0.222,-0.343 -0.477,-0.477c-0.255,-0.134 -0.475,-0.176 -0.662,-0.124c-0.186,0.051 -0.342,0.197 -0.469,0.437l-0.109,0.207Zm42.477,-0.87l0.105,-0.06l0.096,0.138l0.061,0.023l1.413,-0.81l0.011,-0.064l-0.08,-0.176l0.103,-0.058l0.335,0.585c0.147,0.257 0.211,0.463 0.193,0.618c-0.019,0.156 -0.121,0.287 -0.309,0.394c-0.167,0.096 -0.335,0.113 -0.503,0.05c-0.169,-0.062 -0.312,-0.195 -0.428,-0.398c-0.012,-0.021 -0.026,-0.047 -0.041,-0.078c-0.015,-0.031 -0.034,-0.072 -0.056,-0.121l-0.506,0.288l-0.011,0.065l0.092,0.19l-0.105,0.06l-0.37,-0.646Zm1.023,-0.029c0.022,0.05 0.039,0.088 0.051,0.114c0.013,0.027 0.024,0.048 0.033,0.064c0.083,0.146 0.184,0.236 0.302,0.27c0.119,0.034 0.248,0.011 0.389,-0.07c0.136,-0.078 0.214,-0.175 0.234,-0.292c0.02,-0.116 -0.017,-0.257 -0.112,-0.422c-0.02,-0.035 -0.036,-0.062 -0.047,-0.08c-0.012,-0.018 -0.023,-0.035 -0.035,-0.051l-0.815,0.467Zm-42.223,-1.601l0.432,-0.618c0.13,-0.187 0.26,-0.304 0.388,-0.35c0.129,-0.046 0.26,-0.023 0.392,0.07c0.092,0.063 0.148,0.146 0.169,0.249c0.021,0.102 0.006,0.222 -0.044,0.361c0.101,-0.141 0.213,-0.227 0.337,-0.259c0.123,-0.032 0.246,-0.005 0.366,0.079c0.154,0.108 0.234,0.244 0.239,0.409c0.006,0.166 -0.063,0.351 -0.206,0.556l-0.447,0.639l-0.099,-0.069l0.084,-0.146l-0.006,-0.065l-1.335,-0.933l-0.063,0.017l-0.11,0.128l-0.097,-0.068Zm41.747,-1.115l0.386,0.569l-0.098,0.066l-0.109,-0.13l-0.044,-0.006l-0.418,0.832l0.933,-0.034l0.019,-0.046l-0.075,-0.167l0.098,-0.066l0.339,0.499l-0.098,0.066l-0.132,-0.128l-1.16,0.045l-0.551,0.375l-0.008,0.063l0.101,0.174l-0.1,0.068l-0.43,-0.633l0.1,-0.068l0.125,0.158l0.061,0.016l0.518,-0.353l0.523,-1.067l-0.078,-0.166l0.098,-0.067Zm-39.964,1.769c0.023,-0.028 0.044,-0.054 0.064,-0.08c0.02,-0.026 0.039,-0.052 0.057,-0.077c0.115,-0.166 0.172,-0.306 0.17,-0.419c-0.002,-0.114 -0.063,-0.213 -0.183,-0.296c-0.11,-0.077 -0.215,-0.101 -0.314,-0.073c-0.1,0.029 -0.197,0.11 -0.291,0.245c-0.022,0.032 -0.046,0.068 -0.071,0.11c-0.025,0.042 -0.052,0.088 -0.08,0.139l0.648,0.451Zm34.204,-0.774l-1.149,0.642l0.641,-1.149l1.149,-0.641l-0.641,1.148Zm-29.494,0l1.15,0.642l-0.641,-1.149l-1.15,-0.641l0.641,1.148Zm-5.479,0.237c0.008,-0.01 0.017,-0.021 0.026,-0.034c0.01,-0.013 0.023,-0.031 0.04,-0.056c0.107,-0.153 0.158,-0.284 0.154,-0.393c-0.004,-0.109 -0.064,-0.205 -0.18,-0.286c-0.099,-0.068 -0.196,-0.087 -0.291,-0.055c-0.096,0.032 -0.19,0.114 -0.283,0.246c-0.008,0.012 -0.022,0.034 -0.041,0.066c-0.019,0.032 -0.035,0.058 -0.048,0.078l0.623,0.434Zm39.573,-2.692l0.469,0.59c0.15,0.189 0.227,0.356 0.232,0.502c0.004,0.145 -0.064,0.274 -0.205,0.386c-0.1,0.079 -0.207,0.114 -0.322,0.102c-0.114,-0.011 -0.234,-0.068 -0.36,-0.171c0.031,0.071 0.049,0.136 0.055,0.195c0.005,0.059 -0.001,0.115 -0.021,0.168c-0.021,0.058 -0.065,0.128 -0.13,0.21c-0.066,0.082 -0.108,0.139 -0.126,0.17c-0.045,0.074 -0.063,0.14 -0.053,0.199c0.009,0.059 0.052,0.137 0.128,0.232l0.016,0.021l-0.088,0.07c-0.034,-0.03 -0.065,-0.058 -0.092,-0.084c-0.026,-0.027 -0.05,-0.053 -0.071,-0.08c-0.043,-0.053 -0.074,-0.103 -0.093,-0.15c-0.019,-0.047 -0.028,-0.092 -0.027,-0.137c0.005,-0.093 0.063,-0.214 0.174,-0.361c0.04,-0.054 0.069,-0.095 0.087,-0.123c0.07,-0.106 0.102,-0.199 0.096,-0.28c-0.005,-0.081 -0.05,-0.175 -0.135,-0.281c-0.018,-0.023 -0.047,-0.058 -0.089,-0.106l-0.008,-0.007l-0.55,0.438l-0.001,0.065l0.094,0.142l-0.095,0.075l-0.438,-0.55l0.095,-0.076l0.115,0.122l0.065,0.014l1.274,-1.014l0.002,-0.065l-0.091,-0.142l0.093,-0.074Zm-39.526,1.067l0.436,-0.531l0.092,0.075l-0.094,0.142l0.006,0.044l0.916,0.166l-0.294,-0.885l-0.05,-0.005l-0.139,0.119l-0.092,-0.075l0.384,-0.466l0.091,0.075l-0.085,0.163l0.369,1.101l0.514,0.422l0.063,-0.01l0.138,-0.146l0.094,0.077l-0.486,0.591l-0.094,-0.077l0.117,-0.164l-0.002,-0.063l-0.484,-0.398l-1.172,-0.201l-0.137,0.121l-0.091,-0.075Zm39.72,-0.604l-0.645,0.513c0.018,0.024 0.035,0.047 0.052,0.068c0.016,0.022 0.032,0.042 0.047,0.062c0.114,0.143 0.222,0.227 0.325,0.252c0.102,0.025 0.209,-0.007 0.32,-0.096c0.116,-0.091 0.173,-0.191 0.171,-0.3c-0.001,-0.108 -0.061,-0.237 -0.181,-0.387l-0.089,-0.112Zm-1.91,0.489c-0.091,-0.047 -0.178,-0.101 -0.261,-0.162c-0.082,-0.061 -0.157,-0.127 -0.225,-0.198c-0.067,-0.071 -0.123,-0.144 -0.166,-0.219c-0.044,-0.075 -0.076,-0.151 -0.096,-0.228c-0.044,-0.177 -0.038,-0.355 0.017,-0.533c0.055,-0.177 0.152,-0.332 0.291,-0.465c0.223,-0.212 0.468,-0.315 0.734,-0.308c0.266,0.006 0.505,0.121 0.717,0.344c0.061,0.064 0.12,0.138 0.175,0.22c0.055,0.082 0.107,0.174 0.155,0.274l-0.329,0.313l-0.114,-0.119l0.164,-0.218l0.012,-0.065c-0.02,-0.059 -0.045,-0.112 -0.073,-0.16c-0.028,-0.048 -0.061,-0.092 -0.1,-0.132c-0.153,-0.162 -0.331,-0.238 -0.531,-0.228c-0.2,0.01 -0.395,0.105 -0.585,0.286c-0.202,0.191 -0.313,0.391 -0.333,0.599c-0.021,0.209 0.052,0.4 0.219,0.575c0.029,0.031 0.06,0.06 0.095,0.086c0.034,0.027 0.07,0.052 0.11,0.074l0.065,0.001l0.289,-0.174l0.109,0.115l-0.339,0.322Zm-33.266,-1.978c-0.047,0.091 -0.101,0.178 -0.162,0.261c-0.06,0.083 -0.126,0.158 -0.197,0.226c-0.071,0.067 -0.143,0.122 -0.219,0.166c-0.075,0.044 -0.151,0.076 -0.228,0.096c-0.177,0.044 -0.354,0.039 -0.532,-0.015c-0.178,-0.055 -0.333,-0.152 -0.466,-0.291c-0.213,-0.223 -0.316,-0.467 -0.31,-0.733c0.006,-0.266 0.121,-0.505 0.343,-0.718c0.064,-0.061 0.138,-0.119 0.22,-0.175c0.082,-0.055 0.173,-0.107 0.273,-0.156l0.314,0.329l-0.119,0.114l-0.218,-0.164l-0.065,-0.011c-0.059,0.02 -0.112,0.044 -0.16,0.073c-0.047,0.028 -0.091,0.061 -0.132,0.1c-0.161,0.154 -0.237,0.331 -0.227,0.532c0.011,0.2 0.106,0.395 0.287,0.584c0.192,0.201 0.392,0.312 0.601,0.332c0.208,0.02 0.399,-0.053 0.574,-0.22c0.031,-0.029 0.059,-0.061 0.086,-0.095c0.026,-0.034 0.051,-0.071 0.073,-0.11l0.001,-0.066l-0.175,-0.288l0.115,-0.109l0.323,0.338Zm-0.955,-1.714l0.589,-0.47c0.189,-0.151 0.356,-0.228 0.501,-0.233c0.145,-0.004 0.274,0.064 0.386,0.204c0.08,0.1 0.115,0.207 0.104,0.321c-0.011,0.115 -0.068,0.235 -0.171,0.361c0.071,-0.03 0.136,-0.049 0.195,-0.055c0.059,-0.006 0.115,0.001 0.168,0.021c0.058,0.021 0.129,0.064 0.211,0.13c0.082,0.065 0.138,0.107 0.17,0.125c0.074,0.045 0.14,0.062 0.199,0.053c0.059,-0.01 0.136,-0.053 0.232,-0.129l0.02,-0.016l0.07,0.088c-0.029,0.034 -0.057,0.065 -0.084,0.092c-0.026,0.026 -0.053,0.05 -0.079,0.071c-0.053,0.043 -0.103,0.074 -0.15,0.093c-0.047,0.02 -0.092,0.029 -0.137,0.027c-0.093,-0.004 -0.214,-0.062 -0.361,-0.173c-0.054,-0.039 -0.095,-0.068 -0.123,-0.087c-0.106,-0.069 -0.2,-0.101 -0.281,-0.095c-0.081,0.005 -0.174,0.051 -0.28,0.135c-0.023,0.018 -0.058,0.048 -0.106,0.09l-0.007,0.008l0.439,0.549l0.065,0.001l0.141,-0.094l0.076,0.095l-0.55,0.438l-0.075,-0.094l0.122,-0.116l0.013,-0.064l-1.016,-1.273l-0.066,-0.001l-0.141,0.091l-0.074,-0.093Zm32.137,-0.856l0.53,0.438l-0.076,0.091l-0.141,-0.094l-0.044,0.006l-0.168,0.915l0.885,-0.292l0.006,-0.05l-0.119,-0.14l0.075,-0.091l0.466,0.384l-0.076,0.092l-0.163,-0.086l-1.101,0.367l-0.424,0.514l0.01,0.062l0.146,0.139l-0.077,0.094l-0.59,-0.488l0.077,-0.093l0.164,0.117l0.063,-0.002l0.399,-0.484l0.203,-1.171l-0.12,-0.137l0.075,-0.091Zm-31.675,0.661l0.515,0.644c0.024,-0.018 0.046,-0.035 0.068,-0.052c0.021,-0.016 0.042,-0.032 0.061,-0.048c0.143,-0.114 0.227,-0.222 0.252,-0.324c0.025,-0.103 -0.007,-0.21 -0.096,-0.321c-0.092,-0.115 -0.192,-0.172 -0.301,-0.17c-0.108,0.001 -0.237,0.062 -0.387,0.181l-0.112,0.09Zm30.169,-1.725l0.617,0.433c0.186,0.131 0.303,0.261 0.349,0.39c0.046,0.128 0.023,0.259 -0.07,0.391c-0.064,0.092 -0.147,0.148 -0.25,0.168c-0.102,0.021 -0.222,0.006 -0.361,-0.044c0.141,0.101 0.227,0.213 0.258,0.337c0.032,0.124 0.005,0.246 -0.079,0.366c-0.108,0.154 -0.245,0.234 -0.41,0.239c-0.165,0.005 -0.35,-0.064 -0.555,-0.208l-0.638,-0.448l0.069,-0.099l0.146,0.084l0.065,-0.005l0.935,-1.333l-0.017,-0.064l-0.127,-0.11l0.068,-0.097Zm-29.173,0.757l0.568,-0.387l0.066,0.097l-0.129,0.11l-0.007,0.045l0.833,0.415l-0.035,-0.932l-0.046,-0.019l-0.167,0.075l-0.067,-0.097l0.498,-0.341l0.067,0.098l-0.128,0.133l0.048,1.16l0.375,0.549l0.063,0.008l0.174,-0.101l0.068,0.1l-0.632,0.431l-0.068,-0.1l0.157,-0.125l0.016,-0.061l-0.353,-0.518l-1.069,-0.52l-0.165,0.078l-0.067,-0.098Zm28.515,1.025c0.028,0.023 0.054,0.044 0.08,0.064c0.026,0.02 0.052,0.039 0.077,0.057c0.166,0.116 0.305,0.173 0.419,0.171c0.114,-0.002 0.212,-0.063 0.296,-0.183c0.077,-0.109 0.102,-0.214 0.073,-0.314c-0.028,-0.099 -0.109,-0.196 -0.244,-0.291c-0.032,-0.022 -0.068,-0.046 -0.11,-0.071c-0.042,-0.025 -0.088,-0.052 -0.138,-0.08l-0.453,0.647Zm-12.609,-0.142l-0.581,0l0,-0.203l0.246,0l-0.136,-0.446l-0.604,0l-0.132,0.436l0.279,0l0,0.204c-0.21,0 -0.415,0.004 -0.619,0.004l0,-0.207l0.126,-0.001c0.187,-0.61 0.376,-1.228 0.562,-1.835l0.174,0.001c0.181,0.594 0.378,1.239 0.562,1.844l0.123,0l0,0.203Zm-13.16,-0.341l-0.061,-0.105l0.138,-0.096l0.023,-0.061l-0.812,-1.412l-0.065,-0.011l-0.175,0.081l-0.059,-0.103l0.584,-0.336c0.257,-0.148 0.463,-0.213 0.619,-0.194c0.155,0.018 0.287,0.121 0.394,0.307c0.096,0.167 0.113,0.335 0.051,0.504c-0.062,0.169 -0.194,0.312 -0.397,0.429c-0.021,0.012 -0.047,0.025 -0.078,0.04c-0.031,0.016 -0.072,0.035 -0.121,0.057l0.289,0.505l0.065,0.011l0.19,-0.092l0.06,0.105l-0.645,0.371Zm26.308,-0.285c0.01,0.008 0.021,0.017 0.034,0.026c0.012,0.01 0.031,0.023 0.055,0.04c0.153,0.107 0.284,0.159 0.394,0.155c0.109,-0.004 0.204,-0.064 0.285,-0.18c0.069,-0.098 0.088,-0.195 0.056,-0.291c-0.031,-0.096 -0.113,-0.19 -0.246,-0.283c-0.012,-0.008 -0.033,-0.022 -0.065,-0.041c-0.032,-0.019 -0.058,-0.036 -0.078,-0.049l-0.435,0.623Zm-14.16,-0.226l0.479,0l-0.239,-0.784l-0.24,0.784Zm12.061,-2.074c0.307,0.162 0.504,0.363 0.591,0.605c0.088,0.242 0.058,0.502 -0.089,0.78c-0.082,0.155 -0.182,0.278 -0.301,0.37c-0.118,0.091 -0.253,0.149 -0.404,0.173c-0.108,0.018 -0.216,0.014 -0.325,-0.012c-0.11,-0.026 -0.243,-0.08 -0.399,-0.163l-0.645,-0.341l0.057,-0.107l0.155,0.065l0.064,-0.013l0.762,-1.44l-0.025,-0.06l-0.14,-0.094l0.055,-0.104l0.644,0.341Zm-0.28,0.005l-0.801,1.513l0.207,0.11c0.238,0.126 0.449,0.157 0.634,0.094c0.184,-0.063 0.343,-0.222 0.478,-0.476c0.134,-0.255 0.176,-0.475 0.125,-0.662c-0.051,-0.186 -0.196,-0.343 -0.436,-0.47l-0.207,-0.109Zm-23.96,1.557c0.049,-0.022 0.087,-0.039 0.114,-0.052c0.027,-0.012 0.048,-0.023 0.064,-0.032c0.146,-0.084 0.236,-0.185 0.269,-0.303c0.034,-0.118 0.01,-0.248 -0.071,-0.389c-0.078,-0.136 -0.176,-0.214 -0.292,-0.234c-0.116,-0.019 -0.257,0.018 -0.422,0.113c-0.035,0.021 -0.062,0.036 -0.08,0.048c-0.018,0.012 -0.035,0.023 -0.051,0.034l0.469,0.815Zm0.642,-1.604l1.509,-0.718l0.195,0.411l-0.147,0.07l-0.154,-0.23l-0.057,-0.023l-0.408,0.194l0.717,1.509l0.062,0.017l0.186,-0.073l0.052,0.11l-0.697,0.331l-0.053,-0.109l0.173,-0.098l0.028,-0.06l-0.718,-1.508l-0.408,0.194l-0.018,0.058l0.08,0.266l-0.146,0.069l-0.196,-0.41Zm20.376,0.745l0.047,-0.112l0.16,0.053l0.063,-0.019l0.638,-1.498l-0.03,-0.059l-0.147,-0.081l0.046,-0.109l1.303,0.555l-0.169,0.397l-0.153,-0.065l0.06,-0.247l-0.019,-0.057l-0.63,-0.269l-0.293,0.688l0.446,0.191l0.055,-0.023l0.111,-0.186l0.129,0.055l-0.255,0.599l-0.129,-0.055l0.057,-0.208l-0.021,-0.058l-0.446,-0.19l-0.325,0.763l0.729,0.31l0.057,-0.027l0.164,-0.255l0.141,0.06l-0.189,0.443l-1.4,-0.596Zm-18.495,-1.624l0.706,-0.264c0.227,-0.084 0.409,-0.106 0.549,-0.065c0.14,0.041 0.241,0.146 0.304,0.314c0.045,0.12 0.044,0.233 -0.002,0.338c-0.046,0.105 -0.138,0.201 -0.274,0.289c0.076,-0.007 0.144,-0.004 0.202,0.009c0.058,0.013 0.109,0.036 0.153,0.071c0.049,0.039 0.102,0.102 0.16,0.19c0.057,0.088 0.098,0.145 0.123,0.172c0.056,0.065 0.113,0.102 0.172,0.112c0.059,0.009 0.146,-0.008 0.261,-0.05l0.024,-0.009l0.039,0.105c-0.038,0.024 -0.074,0.044 -0.108,0.061c-0.034,0.017 -0.066,0.032 -0.098,0.044c-0.064,0.024 -0.121,0.038 -0.171,0.041c-0.051,0.004 -0.097,-0.001 -0.138,-0.017c-0.088,-0.033 -0.184,-0.125 -0.29,-0.277c-0.039,-0.054 -0.069,-0.094 -0.09,-0.12c-0.079,-0.099 -0.158,-0.159 -0.237,-0.178c-0.079,-0.02 -0.182,-0.007 -0.309,0.041c-0.027,0.01 -0.07,0.027 -0.128,0.052l-0.009,0.005l0.246,0.659l0.062,0.022l0.163,-0.046l0.042,0.114l-0.658,0.245l-0.043,-0.113l0.152,-0.072l0.033,-0.057l-0.57,-1.526l-0.062,-0.021l-0.162,0.042l-0.042,-0.111Zm17.067,-0.955l0.688,0.227l-0.037,0.112l-0.18,-0.04l-0.061,0.023l-0.335,1.017c-0.064,0.196 -0.072,0.351 -0.022,0.466c0.05,0.114 0.163,0.2 0.339,0.258c0.173,0.057 0.315,0.054 0.423,-0.009c0.109,-0.063 0.196,-0.191 0.26,-0.386l0.329,-0.997l-0.037,-0.068l-0.161,-0.081l0.037,-0.112l0.594,0.196l-0.037,0.112l-0.177,-0.031l-0.067,0.034l-0.337,1.022c-0.044,0.134 -0.088,0.234 -0.13,0.299c-0.043,0.065 -0.095,0.117 -0.156,0.155c-0.078,0.048 -0.174,0.075 -0.289,0.079c-0.114,0.005 -0.235,-0.014 -0.363,-0.057c-0.129,-0.042 -0.238,-0.099 -0.327,-0.17c-0.089,-0.072 -0.15,-0.15 -0.184,-0.235c-0.027,-0.069 -0.038,-0.141 -0.034,-0.218c0.004,-0.077 0.029,-0.182 0.074,-0.318l0.343,-1.04l-0.035,-0.056l-0.155,-0.069l0.037,-0.113Zm-14.32,-0.012l0.188,-0.053l1.182,1.591l0.181,-0.014l0.033,0.117l-0.646,0.181l-0.033,-0.116l0.172,-0.064l0.01,-0.046l-0.358,-0.486l-0.672,0.189l-0.05,0.6l0.04,0.032l0.189,-0.038l0.033,0.117l-0.557,0.157l-0.033,-0.117l0.154,-0.081l0.167,-1.969Zm12.128,1.46l0.12,-0.505l0.17,0.04l-0.045,0.338l0.026,0.059c0.037,0.031 0.082,0.059 0.133,0.083c0.052,0.024 0.11,0.044 0.173,0.059c0.134,0.032 0.248,0.026 0.341,-0.017c0.093,-0.044 0.152,-0.119 0.177,-0.225c0.035,-0.147 -0.071,-0.311 -0.319,-0.494c-0.026,-0.02 -0.047,-0.036 -0.061,-0.046c-0.177,-0.132 -0.288,-0.242 -0.334,-0.331c-0.046,-0.089 -0.055,-0.191 -0.027,-0.308c0.039,-0.165 0.131,-0.284 0.277,-0.357c0.145,-0.072 0.318,-0.085 0.518,-0.037c0.081,0.019 0.16,0.045 0.238,0.078c0.077,0.033 0.155,0.073 0.233,0.12l-0.106,0.445l-0.15,-0.036l0.021,-0.284l-0.03,-0.058c-0.032,-0.029 -0.068,-0.054 -0.109,-0.074c-0.041,-0.02 -0.086,-0.036 -0.137,-0.048c-0.12,-0.028 -0.222,-0.02 -0.307,0.026c-0.085,0.045 -0.14,0.121 -0.166,0.228c-0.018,0.078 -0.009,0.148 0.028,0.211c0.037,0.062 0.132,0.15 0.285,0.263c0.015,0.01 0.036,0.025 0.065,0.045c0.152,0.105 0.256,0.204 0.313,0.294c0.032,0.051 0.053,0.106 0.061,0.165c0.008,0.058 0.005,0.119 -0.01,0.181c-0.041,0.174 -0.142,0.297 -0.303,0.371c-0.162,0.074 -0.354,0.084 -0.579,0.031c-0.1,-0.024 -0.193,-0.055 -0.277,-0.092c-0.085,-0.037 -0.158,-0.078 -0.219,-0.125Zm-14.374,-0.535l0.288,0.772c0.028,-0.009 0.055,-0.018 0.08,-0.027c0.026,-0.009 0.05,-0.018 0.074,-0.027c0.171,-0.064 0.285,-0.141 0.34,-0.23c0.055,-0.09 0.058,-0.201 0.008,-0.335c-0.051,-0.138 -0.129,-0.223 -0.232,-0.255c-0.103,-0.032 -0.245,-0.015 -0.424,0.052l-0.134,0.05Zm4.328,-1.401c0.34,-0.064 0.62,-0.029 0.84,0.105c0.219,0.135 0.358,0.356 0.416,0.666c0.033,0.172 0.031,0.331 -0.004,0.476c-0.036,0.145 -0.105,0.275 -0.208,0.388c-0.073,0.081 -0.161,0.145 -0.262,0.193c-0.102,0.048 -0.24,0.088 -0.414,0.121l-0.716,0.136l-0.023,-0.119l0.162,-0.046l0.042,-0.05l-0.302,-1.6l-0.058,-0.032l-0.168,0.014l-0.022,-0.116l0.717,-0.136Zm-0.216,0.179l0.318,1.683l0.23,-0.044c0.265,-0.05 0.449,-0.157 0.554,-0.321c0.105,-0.165 0.13,-0.388 0.077,-0.671c-0.054,-0.283 -0.159,-0.481 -0.315,-0.595c-0.156,-0.114 -0.368,-0.146 -0.634,-0.095l-0.23,0.043Zm8.551,1.467l0.082,-0.513l0.173,0.028l-0.02,0.34l0.031,0.056c0.039,0.029 0.085,0.053 0.139,0.073c0.053,0.021 0.112,0.036 0.176,0.046c0.136,0.022 0.249,0.008 0.338,-0.043c0.09,-0.05 0.143,-0.129 0.16,-0.237c0.024,-0.149 -0.094,-0.305 -0.354,-0.469c-0.029,-0.018 -0.05,-0.032 -0.065,-0.041c-0.186,-0.118 -0.305,-0.22 -0.358,-0.305c-0.053,-0.085 -0.07,-0.187 -0.051,-0.306c0.027,-0.167 0.11,-0.292 0.25,-0.376c0.139,-0.083 0.311,-0.109 0.514,-0.076c0.082,0.013 0.163,0.033 0.243,0.06c0.08,0.027 0.16,0.061 0.242,0.102l-0.073,0.452l-0.152,-0.024l0,-0.285l-0.035,-0.056c-0.034,-0.026 -0.072,-0.048 -0.114,-0.065c-0.042,-0.017 -0.089,-0.03 -0.14,-0.038c-0.122,-0.02 -0.223,-0.003 -0.305,0.048c-0.081,0.052 -0.13,0.132 -0.148,0.241c-0.012,0.079 0.002,0.148 0.044,0.208c0.041,0.059 0.143,0.14 0.304,0.241c0.015,0.009 0.038,0.022 0.068,0.04c0.16,0.093 0.271,0.183 0.334,0.27c0.037,0.048 0.061,0.101 0.074,0.159c0.012,0.058 0.014,0.118 0.003,0.182c-0.028,0.176 -0.119,0.306 -0.274,0.392c-0.155,0.086 -0.347,0.111 -0.575,0.074c-0.102,-0.016 -0.196,-0.039 -0.283,-0.07c-0.088,-0.03 -0.164,-0.066 -0.228,-0.108Zm-6.579,0.061l-0.012,-0.12l0.165,-0.032l0.046,-0.047l-0.165,-1.62l-0.055,-0.036l-0.168,-0.001l-0.012,-0.117l1.409,-0.144l0.044,0.43l-0.165,0.017l-0.067,-0.246l-0.045,-0.04l-0.681,0.069l0.076,0.744l0.482,-0.049l0.038,-0.046l0.007,-0.217l0.139,-0.014l0.066,0.647l-0.139,0.015l-0.051,-0.21l-0.046,-0.04l-0.483,0.049l0.084,0.824l0.789,-0.08l0.037,-0.052l0.02,-0.302l0.152,-0.016l0.049,0.48l-1.514,0.154Zm5.453,-0.115l0.012,-0.12l0.19,0.004l0.054,-0.037l0.159,-1.621l-0.046,-0.047l-0.187,-0.035l0.012,-0.118l0.747,0.073l-0.012,0.118l-0.19,-0.001l-0.054,0.037l-0.159,1.62l0.046,0.047l0.187,0.033l-0.012,0.12l-0.747,-0.073Zm-9.163,-0.83l-0.059,0.868l0.574,-0.161l-0.515,-0.707Zm7.056,0.281c-0.013,0.197 -0.053,0.341 -0.139,0.436l-0.001,0.013l0.454,0.005l0,-0.012c-0.084,-0.098 -0.118,-0.243 -0.128,-0.439l0.001,-0.002c0.051,0.083 0.133,0.128 0.244,0.13c0.216,0.002 0.336,-0.15 0.338,-0.361c0.002,-0.18 -0.181,-0.393 -0.288,-0.519c-0.123,-0.145 -0.285,-0.333 -0.372,-0.428l-0.003,0c-0.089,0.093 -0.256,0.277 -0.382,0.418c-0.12,0.134 -0.299,0.334 -0.302,0.513c-0.002,0.211 0.114,0.366 0.33,0.368c0.111,0.002 0.193,-0.042 0.246,-0.124l0.002,0.002Z" style="fill:#fff;"/><g></g></svg>