<?xml version="1.0" encoding="UTF-8" standalone="no"?><!DOCTYPE svg PUBLIC "-//W3C//DTD SVG 1.1//EN" "http://www.w3.org/Graphics/SVG/1.1/DTD/svg11.dtd"><svg width="100%" height="100%" viewBox="0 0 160 50" version="1.1" xmlns="http://www.w3.org/2000/svg" xmlns:xlink="http://www.w3.org/1999/xlink" xml:space="preserve" style="fill-rule:evenodd;clip-rule:evenodd;stroke-linejoin:round;stroke-miterlimit:1.41421;"><rect id="アートボード2" x="-1238.83" y="-270" width="1767.64" height="1137.38" style="fill:none;"/><g></g><g></g><path d="M19.654,10.836c1.797,0 3.542,0.423 5.236,1.27c1.694,0.847 3.054,2.015 4.081,3.504c0.565,-0.154 1.219,-0.295 1.963,-0.424c0.745,-0.128 1.476,-0.192 2.195,-0.192c1.232,-0.052 2.425,0 3.58,0.154c1.155,0.154 2.169,0.449 3.042,0.885c0.873,0.437 1.527,1.04 1.963,1.81c0.437,0.77 0.552,1.745 0.347,2.926c-0.205,1.18 -0.821,2.22 -1.848,3.118c-1.027,0.899 -2.246,1.643 -3.658,2.233c-1.411,0.591 -2.951,1.027 -4.62,1.309c-1.668,0.283 -3.221,0.424 -4.658,0.424c-2.156,0 -4.286,-0.257 -6.391,-0.77c-2.105,-0.514 -3.85,-1.284 -5.236,-2.31c-1.489,1.334 -2.836,2.746 -4.043,4.235c-1.206,1.488 -2.258,2.99 -3.157,4.504c-0.898,1.515 -1.591,3.003 -2.079,4.466c-0.487,1.463 -0.731,2.811 -0.731,4.043c0,2.258 0.616,3.863 1.848,4.812c1.232,0.95 2.823,1.425 4.774,1.425c2.31,0 4.376,-0.411 6.198,-1.232c1.823,-0.822 3.478,-1.72 4.967,-2.695c0.873,-0.616 1.784,-1.322 2.733,-2.118c0.95,-0.795 1.605,-1.399 1.964,-1.809c0.029,-0.03 0.062,-0.061 0.097,-0.094c0.045,-0.047 0.089,-0.093 0.134,-0.137c0.411,-0.411 0.834,-0.783 1.27,-1.117c0.437,-0.333 0.86,-0.654 1.271,-0.962c0.411,-0.257 0.962,-0.616 1.655,-1.078c0.693,-0.462 1.425,-0.899 2.195,-1.309c1.181,-0.668 2.336,-1.168 3.465,-1.502c1.129,-0.333 2.13,-0.552 3.003,-0.654c0.205,-0.052 0.423,-0.064 0.654,-0.039c0.231,0.026 0.398,0.141 0.501,0.347c0,0.102 -0.103,0.179 -0.308,0.231c-0.205,0.051 -0.385,0.128 -0.539,0.231c-1.745,0.821 -3.593,2.233 -5.544,4.235c-0.565,0.513 -1.091,1.078 -1.579,1.694c-0.487,0.616 -0.936,1.232 -1.347,1.848c-0.411,0.616 -0.757,1.219 -1.04,1.809c-0.282,0.591 -0.449,1.065 -0.5,1.425c-0.103,0.872 0.257,1.309 1.078,1.309c0.873,0 1.989,-0.449 3.349,-1.348c1.361,-0.898 2.631,-2.015 3.812,-3.349c0.051,-0.411 0.167,-0.886 0.346,-1.425c0.18,-0.539 0.527,-1.142 1.04,-1.809c0.411,-0.565 0.86,-1.014 1.347,-1.348c0.488,-0.333 0.86,-0.552 1.117,-0.654c0.103,-0.257 0.167,-0.591 0.192,-1.001c0.026,-0.411 0.039,-0.719 0.039,-0.924c-0.103,-0.411 -0.18,-0.68 -0.231,-0.809c-0.051,-0.128 0,-0.218 0.154,-0.269c0.103,-0.103 0.269,-0.09 0.5,0.038c0.231,0.129 0.424,0.27 0.578,0.424c0.77,0.667 1.078,1.565 0.924,2.695c-0.103,0.924 -0.565,1.925 -1.386,3.003c-0.821,1.078 -1.822,2.156 -3.003,3.234c0.154,0.102 0.372,0.141 0.654,0.115c0.283,-0.025 0.552,-0.064 0.809,-0.115c0.257,-0.052 0.616,-0.18 1.078,-0.385c0.462,-0.206 0.975,-0.514 1.54,-0.924c0.513,-0.36 0.988,-0.745 1.424,-1.155c0.321,-0.301 0.634,-0.575 0.94,-0.821c0.491,-0.483 1.063,-1.031 1.717,-1.643c0.821,-0.77 1.591,-1.438 2.31,-2.002c0.924,-0.719 1.848,-1.335 2.772,-1.848c0.924,-0.514 1.797,-0.77 2.618,-0.77c0.719,0 1.219,0.192 1.501,0.577c0.283,0.385 0.424,0.783 0.424,1.194c0,0.462 -0.167,0.975 -0.501,1.54c-0.333,0.564 -0.705,1.129 -1.116,1.694c-0.565,0.77 -1.155,1.553 -1.771,2.348c-0.616,0.796 -1.129,1.502 -1.54,2.118l0.231,0.077c0.924,-0.77 1.925,-1.604 3.003,-2.503c1.078,-0.898 2.284,-1.861 3.619,-2.887c1.335,-1.027 2.772,-1.977 4.312,-2.849c1.54,-0.873 2.9,-1.309 4.081,-1.309c0.821,0 1.45,0.179 1.886,0.539c0.437,0.359 0.604,0.872 0.501,1.54c-0.103,0.718 -0.488,1.488 -1.155,2.31c-0.667,0.821 -1.309,1.617 -1.925,2.387c-1.283,1.54 -2.13,2.643 -2.541,3.311c-0.565,0.872 -0.667,1.437 -0.308,1.694c0.205,0.154 0.488,0.192 0.847,0.115c0.359,-0.077 0.693,-0.192 1.001,-0.346c0.462,-0.206 1.001,-0.514 1.617,-0.924c0.616,-0.411 1.309,-0.899 2.079,-1.463c0.616,-0.462 1.283,-1.014 2.002,-1.656c0.719,-0.641 1.309,-1.168 1.771,-1.578c0.124,-0.093 0.243,-0.176 0.357,-0.25c0.719,-0.646 1.473,-1.319 2.261,-2.022c1.181,-1.052 2.13,-1.912 2.849,-2.579c-0.513,0 -0.95,0.013 -1.309,0.038c-0.359,0.026 -0.847,0.039 -1.463,0.039c-0.616,0.102 -0.898,-0.026 -0.847,-0.385c0.051,-0.206 0.744,-0.36 2.079,-0.462l1.078,0c0.308,0 0.667,-0.026 1.078,-0.077c1.181,-1.489 2.464,-2.978 3.85,-4.466c1.386,-1.489 2.515,-2.67 3.388,-3.542c0.719,-0.719 1.501,-1.425 2.348,-2.118c0.847,-0.693 1.682,-1.039 2.503,-1.039c0.411,0 0.68,0.051 0.808,0.154c0.129,0.102 0.244,0.205 0.347,0.308c-0.462,0.41 -1.142,1.091 -2.041,2.04c-0.898,0.95 -1.783,1.938 -2.656,2.965c-0.873,1.026 -1.681,1.976 -2.426,2.849c-0.744,0.872 -1.501,1.822 -2.271,2.849c0.872,-0.052 1.668,-0.077 2.387,-0.077l2.002,0c0.257,0 0.526,0.038 0.808,0.115c0.283,0.077 0.373,0.193 0.27,0.347c-0.103,0.256 -0.282,0.385 -0.539,0.385l-3.234,0c-0.667,0 -1.437,0.025 -2.31,0.077c-0.411,0.462 -0.86,1.039 -1.348,1.732c-0.487,0.693 -0.988,1.425 -1.501,2.195c-0.513,0.77 -1.001,1.553 -1.463,2.348c-0.462,0.796 -0.873,1.527 -1.232,2.195c-0.257,0.41 -0.398,0.834 -0.424,1.27c-0.025,0.437 0.116,0.757 0.424,0.963c0.257,0.154 0.552,0.179 0.885,0.077c0.334,-0.103 0.655,-0.231 0.963,-0.385c0.411,-0.257 0.937,-0.578 1.578,-0.963c0.642,-0.385 1.271,-0.834 1.887,-1.347c0.719,-0.565 1.412,-1.13 2.079,-1.694c0.667,-0.565 1.206,-1.053 1.617,-1.463c0.119,-0.089 0.233,-0.174 0.344,-0.255c0.102,-0.084 0.206,-0.166 0.31,-0.246c0.437,-0.333 0.86,-0.654 1.271,-0.962c0.411,-0.257 0.962,-0.616 1.655,-1.078c0.693,-0.462 1.425,-0.899 2.195,-1.309c1.386,-0.719 2.759,-1.296 4.119,-1.733c1.361,-0.436 2.554,-0.577 3.581,-0.423c0.77,0.154 1.296,0.513 1.578,1.078c0.283,0.564 0.296,1.18 0.039,1.848l0.077,0c0.873,-0.976 1.655,-1.707 2.348,-2.195c0.693,-0.487 1.348,-0.731 1.964,-0.731c0.821,-0.052 1.296,0.025 1.424,0.231c0.129,0.205 -0.012,0.539 -0.423,1.001c-0.513,0.564 -1.155,1.296 -1.925,2.194c-0.77,0.899 -1.566,1.861 -2.387,2.888c-0.667,0.77 -1.194,1.437 -1.579,2.002c-0.385,0.564 -0.757,1.155 -1.116,1.771c-0.565,0.872 -0.642,1.463 -0.231,1.771c0.205,0.154 0.475,0.179 0.808,0.077c0.334,-0.103 0.655,-0.231 0.963,-0.385c0.411,-0.206 0.937,-0.526 1.578,-0.963c0.642,-0.436 1.271,-0.911 1.887,-1.424c0.821,-0.668 1.54,-1.258 2.156,-1.771c0.616,-0.514 1.129,-0.976 1.54,-1.386c0.205,-0.154 0.398,-0.308 0.577,-0.462c0.065,-0.055 0.124,-0.094 0.179,-0.116c0.401,-0.306 0.79,-0.601 1.169,-0.885c0.411,-0.257 0.962,-0.616 1.655,-1.078c0.693,-0.462 1.425,-0.899 2.195,-1.309c1.335,-0.719 2.592,-1.284 3.773,-1.694c1.181,-0.411 2.284,-0.565 3.311,-0.462c0.873,0.154 1.476,0.5 1.809,1.039c0.334,0.539 0.424,1.168 0.27,1.887c-0.103,0.718 -0.449,1.334 -1.04,1.848c-0.59,0.513 -1.116,0.77 -1.578,0.77c-0.667,0 -1.04,-0.231 -1.117,-0.693c-0.077,-0.462 0.09,-0.976 0.501,-1.54c0.411,-0.719 0.667,-1.296 0.77,-1.733c0.103,-0.436 -0.077,-0.706 -0.539,-0.808c-0.924,-0.154 -2.515,0.924 -4.774,3.234c-1.027,1.026 -1.976,2.194 -2.849,3.503c-0.873,1.309 -1.36,2.426 -1.463,3.35c-0.154,1.18 0.436,1.771 1.771,1.771c0.513,0 1.386,-0.167 2.618,-0.501c1.232,-0.333 2.695,-1.091 4.389,-2.271c0.719,-0.514 1.501,-1.091 2.348,-1.733c0.582,-0.44 1.073,-0.839 1.473,-1.194c0.108,-0.125 0.216,-0.224 0.324,-0.299c0.058,-0.055 0.114,-0.109 0.167,-0.162l0.066,-0.045c0.964,-0.866 1.994,-1.788 3.091,-2.766c1.181,-1.052 2.13,-1.912 2.849,-2.579c-0.513,0 -0.95,0.013 -1.309,0.038c-0.359,0.026 -0.847,0.039 -1.463,0.039c-0.616,0.102 -0.898,-0.026 -0.847,-0.385c0.051,-0.206 0.744,-0.36 2.079,-0.462l1.078,0c0.308,0 0.667,-0.026 1.078,-0.077c1.181,-1.489 2.464,-2.978 3.85,-4.466c1.386,-1.489 2.515,-2.67 3.388,-3.542c0.719,-0.719 1.501,-1.425 2.348,-2.118c0.847,-0.693 1.682,-1.039 2.503,-1.039c0.411,0 0.68,0.051 0.808,0.154c0.129,0.102 0.244,0.205 0.347,0.308c-0.462,0.41 -1.142,1.091 -2.041,2.04c-0.898,0.95 -1.783,1.938 -2.656,2.965c-0.873,1.026 -1.681,1.976 -2.426,2.849c-0.744,0.872 -1.501,1.822 -2.271,2.849c0.872,-0.052 1.668,-0.077 2.387,-0.077l2.002,0c0.257,0 0.526,0.038 0.808,0.115c0.283,0.077 0.373,0.193 0.27,0.347c-0.103,0.256 -0.282,0.385 -0.539,0.385l-3.234,0c-0.668,0 -1.438,0.025 -2.31,0.077c-0.411,0.462 -0.86,1.039 -1.348,1.732c-0.487,0.693 -0.988,1.425 -1.501,2.195c-0.513,0.77 -1.001,1.553 -1.463,2.348c-0.462,0.796 -0.873,1.527 -1.232,2.195c-0.257,0.41 -0.398,0.834 -0.424,1.27c-0.025,0.437 0.116,0.757 0.424,0.963c0.257,0.154 0.552,0.179 0.885,0.077c0.334,-0.103 0.655,-0.231 0.963,-0.385c0.411,-0.257 0.937,-0.578 1.578,-0.963c0.642,-0.385 1.271,-0.834 1.887,-1.347c0.719,-0.565 1.412,-1.13 2.079,-1.694c0.12,-0.101 0.235,-0.2 0.346,-0.297c0.188,-0.272 0.406,-0.532 0.655,-0.781c0.821,-0.822 1.694,-1.181 2.618,-1.078c0.565,0 0.95,0.179 1.155,0.539c0.205,0.359 0.257,0.718 0.154,1.078c-0.154,0.667 -0.719,1.309 -1.694,1.925c-0.308,0.205 -0.667,0.5 -1.078,0.885c-0.411,0.385 -0.642,0.86 -0.693,1.425c-0.051,0.616 0.128,1.091 0.539,1.424c0.411,0.334 0.975,0.501 1.694,0.501c0.77,0 1.604,-0.321 2.502,-0.963c0.899,-0.641 1.784,-1.707 2.657,-3.195c0.359,-0.565 0.706,-1.245 1.039,-2.041c0.334,-0.795 0.655,-1.578 0.963,-2.348c0.308,-0.77 0.603,-1.476 0.885,-2.118c0.283,-0.641 0.527,-1.091 0.732,-1.347l0,-0.077c-0.411,0.41 -0.963,0.872 -1.656,1.386c-0.693,0.513 -1.373,1.026 -2.04,1.54c-0.513,0.41 -1.065,0.795 -1.656,1.155c-0.59,0.359 -1.013,0.59 -1.27,0.693c-0.411,0.256 -0.667,0.308 -0.77,0.154c-0.051,-0.154 0.077,-0.385 0.385,-0.693c0.411,-0.257 0.898,-0.578 1.463,-0.963c0.565,-0.385 1.155,-0.783 1.771,-1.193c0.719,-0.514 1.437,-1.065 2.156,-1.656c0.719,-0.59 1.514,-1.27 2.387,-2.04c0.103,-0.154 0.269,-0.372 0.5,-0.655c0.231,-0.282 0.475,-0.5 0.732,-0.654c0.411,-0.36 0.821,-0.591 1.232,-0.693c0.411,-0.103 0.744,-0.154 1.001,-0.154c0.873,0 1.155,0.192 0.847,0.577c-0.308,0.385 -0.719,0.732 -1.232,1.04c-0.359,0.256 -0.706,0.462 -1.04,0.616c-0.333,0.154 -0.603,0.333 -0.808,0.539c-0.308,0.308 -0.475,0.629 -0.501,0.962c-0.025,0.334 -0.038,0.706 -0.038,1.117c0.051,1.078 0.064,2.13 0.038,3.157c-0.025,1.026 -0.269,2.079 -0.731,3.157c-0.257,0.564 -0.616,1.155 -1.078,1.771c-0.462,0.616 -0.924,1.078 -1.386,1.386l0,0.077c0.462,-0.206 0.988,-0.462 1.578,-0.77c0.591,-0.308 1.194,-0.668 1.81,-1.078c1.078,-0.668 2.066,-1.361 2.964,-2.079c0.899,-0.719 1.605,-1.284 2.118,-1.694c0.154,-0.154 0.334,-0.295 0.539,-0.424c0.205,-0.128 0.359,-0.141 0.462,-0.038c0.103,0.102 0.051,0.269 -0.154,0.5c-0.205,0.231 -0.359,0.398 -0.462,0.501c-0.411,0.359 -0.988,0.86 -1.733,1.501c-0.744,0.642 -1.552,1.245 -2.425,1.81c-0.873,0.564 -1.72,1.065 -2.541,1.501c-0.821,0.437 -1.591,0.809 -2.31,1.117c-0.719,0.308 -1.681,0.616 -2.888,0.924c-1.206,0.308 -2.399,0.462 -3.58,0.462c-1.027,0 -1.861,-0.141 -2.503,-0.424c-0.641,-0.282 -1.129,-0.641 -1.463,-1.078c-0.333,-0.436 -0.551,-0.924 -0.654,-1.463c-0.103,-0.539 -0.103,-1.091 0,-1.655c0.023,-0.162 0.054,-0.321 0.092,-0.477c-0.75,0.662 -1.499,1.257 -2.248,1.786c-0.359,0.308 -0.796,0.641 -1.309,1.001c-0.513,0.359 -1.078,0.693 -1.694,1.001c-0.616,0.308 -1.271,0.577 -1.964,0.808c-0.693,0.231 -1.398,0.347 -2.117,0.347c-0.873,0 -1.489,-0.218 -1.848,-0.655c-0.359,-0.436 -0.513,-0.937 -0.462,-1.501c0.103,-0.976 0.539,-2.118 1.309,-3.427c0.77,-1.309 1.72,-2.708 2.849,-4.196l0,-0.077c-0.565,0.564 -1.206,1.168 -1.925,1.809c-0.357,0.319 -0.676,0.603 -0.958,0.852c-0.146,0.188 -0.314,0.353 -0.505,0.496c-0.411,0.41 -1.014,0.949 -1.81,1.617c-0.795,0.667 -1.655,1.309 -2.579,1.925c-1.335,0.924 -2.823,1.707 -4.466,2.348c-1.643,0.642 -3.131,0.963 -4.466,0.963l-0.077,0c-2.875,0 -4.235,-1.078 -4.081,-3.234c0.103,-0.77 0.346,-1.566 0.731,-2.387c0.385,-0.822 0.886,-1.592 1.502,-2.31l-0.077,0c-0.205,0.205 -0.398,0.398 -0.578,0.577c-0.179,0.18 -0.397,0.372 -0.654,0.578c-0.04,0.03 -0.079,0.059 -0.117,0.087c-0.397,0.367 -0.885,0.8 -1.462,1.299c-0.949,0.821 -1.783,1.514 -2.502,2.079c-0.77,0.616 -1.745,1.283 -2.926,2.002c-1.181,0.718 -2.413,1.078 -3.696,1.078c-0.719,0 -1.258,-0.154 -1.617,-0.462c-0.359,-0.308 -0.565,-0.693 -0.616,-1.155c-0.051,-0.411 0.026,-0.873 0.231,-1.386c0.205,-0.513 0.487,-0.975 0.847,-1.386l-0.077,0c-0.514,0.462 -1.104,0.937 -1.771,1.424c-0.667,0.488 -1.373,0.95 -2.118,1.386c-0.744,0.437 -1.514,0.796 -2.31,1.078c-0.795,0.283 -1.552,0.449 -2.271,0.501c-0.873,0.051 -1.643,-0.129 -2.31,-0.539c-0.667,-0.411 -0.95,-1.258 -0.847,-2.541c0.103,-0.565 0.308,-1.194 0.616,-1.887c0.308,-0.693 0.821,-1.45 1.54,-2.271l-0.077,0l-0.693,0.693l-0.064,0.048c-0.386,0.367 -0.852,0.801 -1.399,1.299c-0.873,0.796 -1.745,1.502 -2.618,2.118c-0.359,0.308 -0.796,0.641 -1.309,1.001c-0.513,0.359 -1.078,0.693 -1.694,1.001c-0.616,0.308 -1.271,0.577 -1.964,0.808c-0.693,0.231 -1.398,0.347 -2.117,0.347c-0.873,0 -1.489,-0.218 -1.848,-0.655c-0.359,-0.436 -0.513,-0.937 -0.462,-1.501c0.103,-0.976 0.539,-2.118 1.309,-3.427c0.77,-1.309 1.72,-2.708 2.849,-4.196l0,-0.077c-0.565,0.564 -1.206,1.168 -1.925,1.809c-0.719,0.642 -1.283,1.142 -1.694,1.502c-0.149,0.148 -0.309,0.273 -0.482,0.374c-0.291,0.265 -0.618,0.564 -0.981,0.896c-0.924,0.847 -1.797,1.553 -2.618,2.118c-0.821,0.616 -1.848,1.283 -3.08,2.002c-1.232,0.718 -2.49,1.078 -3.773,1.078l-0.077,0c-0.719,0 -1.296,-0.193 -1.733,-0.578c-0.436,-0.385 -0.603,-0.86 -0.5,-1.424c0.103,-0.873 0.5,-1.784 1.193,-2.734c0.693,-0.949 1.374,-1.835 2.041,-2.656c0.565,-0.719 1.116,-1.386 1.655,-2.002c0.539,-0.616 1.066,-1.207 1.579,-1.771c0.154,-0.206 0.257,-0.411 0.308,-0.616c0.051,-0.206 -0.026,-0.36 -0.231,-0.462c-0.205,-0.103 -0.526,-0.077 -0.963,0.077c-0.436,0.154 -0.782,0.282 -1.039,0.385c-0.719,0.359 -1.591,0.86 -2.618,1.501c-1.027,0.642 -2.156,1.45 -3.388,2.426c-0.873,0.667 -1.643,1.283 -2.31,1.848c-0.667,0.564 -1.335,1.116 -2.002,1.655c-0.667,0.539 -1.348,1.091 -2.041,1.656c-0.693,0.564 -1.45,1.18 -2.271,1.848c-0.616,0.462 -1.283,0.693 -2.002,0.693c-0.565,0 -0.95,-0.064 -1.155,-0.193c-0.205,-0.128 -0.154,-0.475 0.154,-1.039c0.411,-0.719 0.898,-1.527 1.463,-2.426c0.565,-0.898 1.206,-1.809 1.925,-2.733c0.616,-0.822 1.129,-1.489 1.54,-2.002c0.411,-0.514 0.95,-1.181 1.617,-2.002c0.565,-0.616 0.719,-1.053 0.462,-1.309c-0.103,-0.154 -0.27,-0.206 -0.501,-0.154c-0.231,0.051 -0.449,0.128 -0.654,0.231c-0.411,0.205 -0.898,0.5 -1.463,0.885c-0.565,0.385 -1.078,0.783 -1.54,1.194c-0.565,0.513 -1.155,1.026 -1.771,1.54c-0.616,0.513 -1.206,1.052 -1.771,1.617c-0.03,0.022 -0.06,0.045 -0.09,0.067c-0.19,0.177 -0.391,0.36 -0.603,0.549c-0.462,0.41 -0.95,0.795 -1.463,1.155c-0.616,0.462 -1.168,0.783 -1.656,0.962c-0.487,0.18 -0.911,0.321 -1.27,0.424c-0.257,0.102 -0.603,0.141 -1.04,0.115c-0.436,-0.025 -0.782,-0.115 -1.039,-0.269c-0.513,0.41 -1.104,0.834 -1.771,1.27c-0.667,0.437 -1.386,0.834 -2.156,1.194c-0.77,0.359 -1.579,0.667 -2.426,0.924c-0.847,0.256 -1.655,0.385 -2.425,0.385c-1.181,0 -2.13,-0.295 -2.849,-0.886c-0.719,-0.59 -1.027,-1.424 -0.924,-2.502c0.103,-0.873 0.346,-1.72 0.731,-2.541c0.385,-0.822 0.86,-1.566 1.425,-2.233l0,-0.077c-0.257,0.256 -0.513,0.5 -0.77,0.731c-0.217,0.195 -0.433,0.399 -0.65,0.613c-0.059,0.11 -0.125,0.201 -0.197,0.273c-0.205,0.205 -0.501,0.487 -0.886,0.847c-0.385,0.359 -0.808,0.744 -1.27,1.155c-0.462,0.41 -0.95,0.808 -1.463,1.193c-0.513,0.385 -0.975,0.706 -1.386,0.963c-1.591,1.129 -3.35,2.117 -5.275,2.964c-1.925,0.847 -4.042,1.322 -6.352,1.425c-3.183,0.102 -5.801,-0.449 -7.854,-1.656c-2.053,-1.206 -3.131,-3.247 -3.234,-6.121c-0.051,-1.694 0.269,-3.401 0.962,-5.121c0.693,-1.719 1.643,-3.401 2.849,-5.043c1.207,-1.643 2.58,-3.183 4.12,-4.62c1.54,-1.438 3.106,-2.747 4.697,-3.927c-0.565,-0.719 -1.027,-1.489 -1.386,-2.31c-0.359,-0.822 -0.539,-1.669 -0.539,-2.541c0,-1.078 0.218,-2.054 0.654,-2.926c0.437,-0.873 1.014,-1.63 1.733,-2.272c0.719,-0.641 1.553,-1.129 2.502,-1.463c0.95,-0.333 1.938,-0.5 2.965,-0.5l0.077,0Zm81.543,23.485l-0.077,0c-0.719,0 -1.72,0.462 -3.003,1.386c-1.283,0.924 -2.618,2.079 -4.004,3.465c-1.489,1.437 -2.592,2.682 -3.311,3.734c-0.719,1.053 -1.052,1.835 -1.001,2.349c0.051,0.513 0.385,0.77 1.001,0.77c0.719,0 1.72,-0.36 3.003,-1.078c1.283,-0.719 2.438,-1.566 3.465,-2.541c0.616,-0.514 1.232,-1.104 1.848,-1.771c0.616,-0.668 1.181,-1.309 1.694,-1.925c0.513,-0.616 0.937,-1.194 1.27,-1.733c0.334,-0.539 0.501,-0.962 0.501,-1.27c0.051,-0.924 -0.411,-1.386 -1.386,-1.386Zm-73.689,-7.238c1.386,0 2.733,-0.154 4.042,-0.462c1.309,-0.308 2.49,-0.757 3.542,-1.348c1.053,-0.59 1.951,-1.283 2.695,-2.079c0.745,-0.795 1.22,-1.655 1.425,-2.579c0.411,-1.797 0.064,-3.106 -1.04,-3.927c-1.103,-0.822 -2.682,-1.207 -4.735,-1.155c-0.616,0.051 -1.322,0.154 -2.118,0.308c-0.795,0.154 -1.424,0.333 -1.886,0.539c0.308,0.564 0.565,1.219 0.77,1.963c0.205,0.745 0.359,1.476 0.462,2.195c0.051,0.616 0.051,1.116 0,1.501c-0.051,0.385 -0.128,0.526 -0.231,0.424c-0.103,-0.052 -0.141,-0.18 -0.116,-0.385c0.026,-0.206 -0.038,-0.591 -0.192,-1.155c-0.154,-0.77 -0.411,-1.553 -0.77,-2.349c-0.359,-0.795 -0.719,-1.424 -1.078,-1.886c-2.053,0.77 -4.158,1.848 -6.314,3.234c-2.156,1.386 -4.055,2.823 -5.698,4.312c1.335,1.026 3.003,1.758 5.005,2.194c2.002,0.437 4.055,0.655 6.16,0.655l0.077,0Zm-8.47,-15.246c1.54,0 3.093,0.359 4.658,1.078c1.566,0.718 2.939,1.745 4.12,3.08c-2.156,0.616 -4.389,1.488 -6.699,2.618c-2.31,1.129 -4.517,2.387 -6.622,3.773c-0.513,-0.668 -0.937,-1.373 -1.271,-2.118c-0.333,-0.744 -0.5,-1.476 -0.5,-2.194c0,-1.951 0.629,-3.478 1.886,-4.582c1.258,-1.103 2.708,-1.655 4.351,-1.655l0.077,0Z" style="fill:#fff;"/><g></g></svg>