<?xml version="1.0" encoding="UTF-8" standalone="no"?><!DOCTYPE svg PUBLIC "-//W3C//DTD SVG 1.1//EN" "http://www.w3.org/Graphics/SVG/1.1/DTD/svg11.dtd"><svg width="100%" height="100%" viewBox="0 0 58 58" version="1.1" xmlns="http://www.w3.org/2000/svg" xmlns:xlink="http://www.w3.org/1999/xlink" xml:space="preserve" style="fill-rule:evenodd;clip-rule:evenodd;stroke-linejoin:round;stroke-miterlimit:1.41421;"><rect id="アートボード2" x="-309.831" y="-139" width="1767.64" height="1137.38" style="fill:none;"/><rect x="-0.021" y="-0.474" width="58.501" height="58.501" style="fill:#422673;"/><g></g><g></g><g><path d="M28.867,22.908l0.63,-0.364l0.63,0.364l0,0.727l-0.63,0.364l-0.63,-0.364l0,-0.727Z" style="fill:#fff;fill-rule:nonzero;"/><path d="M23.173,27.907l6.324,3.651l0,-0.978l-5.477,-3.163l-0.847,0.49Z" style="fill:#fff;fill-rule:nonzero;"/><path d="M21.538,28.852l7.959,4.595l0,-0.978l-7.112,-4.106l-0.847,0.489Z" style="fill:#fff;fill-rule:nonzero;"/><path d="M29.497,20.654l-2.267,1.308l0,1.645l0.848,-0.485l0,-0.669l1.419,-0.821l1.419,0.821l0,0.669l0.847,0.487l0,-1.647l-2.266,-1.308Z" style="fill:#fff;fill-rule:nonzero;"/><path d="M29.497,24.911l-1.415,-0.818l-0.852,0.487l0,0.001l2.267,1.308l2.264,-1.307l-0.848,-0.489l-1.416,0.818Z" style="fill:#fff;fill-rule:nonzero;"/><path d="M33.4,21.018l-2.209,-1.275l0,-2.8l4.634,2.676l0,0.009l0.848,-0.494l0,-0.005l-6.329,-3.653l0,4.757l2.209,1.275l0,3.528l-3.056,1.764l-3.056,-1.764l0,-3.528l3.056,-1.765l0,-0.978l-3.902,2.253l0,4.507l3.902,2.253l3.903,-2.253l0,-4.507Z" style="fill:#fff;fill-rule:nonzero;"/><path d="M35.825,20.607l0,6.318l-3.786,2.186l0,0.979l4.634,-2.674l0,-7.301l-0.848,0.492Z" style="fill:#fff;fill-rule:nonzero;"/><path d="M29.497,14.075l7.964,4.598l0,0.002l0.847,-0.491l-8.811,-5.088l-8.812,5.088l0,10.176l0.004,0.002l0.846,-0.49l-0.002,-0.001l0.788,-0.456l0.003,0.003l0.542,-0.315l0,-0.001l0.304,-0.175l-0.002,-0.002l0,-7.306l5.481,-3.165l0,0.911l-4.691,2.709l0,6.397l5.539,3.197l0,-0.979l-4.692,-2.708l0,-5.418l4.692,-2.709l0,-0.16l0,-0.819l0,-0.91l0,-0.325l0,-0.654l-7.176,4.143l0,7.304l-0.79,0.455l0,-8.215l7.966,-4.598Z" style="fill:#fff;fill-rule:nonzero;"/><path d="M37.461,19.656l0,8.215l-6.269,3.62l0,-2.801l3.844,-2.219l0,-6.397l-2.997,-1.731l0,0.978l2.149,1.242l0,5.418l-3.844,2.219l0,4.758l7.964,-4.599l0,-9.196l-0.847,0.493Z" style="fill:#fff;fill-rule:nonzero;"/><path d="M21.776,42.958c-0.056,0.189 -0.112,0.374 -0.169,0.555c-0.056,0.18 -0.132,0.341 -0.229,0.481c-0.097,0.141 -0.221,0.253 -0.371,0.337c-0.15,0.084 -0.345,0.126 -0.585,0.126c-0.051,0 -0.099,-0.003 -0.145,-0.011c-0.046,-0.008 -0.089,-0.017 -0.13,-0.027l0,-0.474c0.066,0.015 0.137,0.023 0.214,0.023c0.158,0 0.283,-0.046 0.375,-0.137c0.091,-0.091 0.167,-0.204 0.225,-0.338c0.059,-0.135 0.103,-0.276 0.134,-0.422c0.031,-0.148 0.064,-0.279 0.1,-0.396l-0.215,0l-1.453,-4.015l0.62,0l1.239,3.571l0.015,0l0.903,-3.571l0.627,0l-1.155,4.298Zm2.233,1.453l-0.604,0l0,-5.751l0.604,0l0,0.489l0.015,0.015c0.062,-0.112 0.139,-0.205 0.234,-0.279c0.094,-0.074 0.199,-0.13 0.313,-0.168c0.115,-0.038 0.236,-0.065 0.363,-0.08c0.128,-0.016 0.255,-0.023 0.383,-0.023c0.367,0 0.655,0.051 0.864,0.153c0.209,0.102 0.366,0.243 0.471,0.424c0.104,0.181 0.169,0.398 0.195,0.65c0.025,0.253 0.038,0.529 0.038,0.83c0,0.398 -0.027,0.728 -0.08,0.991c-0.054,0.263 -0.142,0.473 -0.264,0.631c-0.123,0.158 -0.283,0.269 -0.482,0.332c-0.199,0.064 -0.446,0.096 -0.742,0.096c-0.117,0 -0.24,-0.005 -0.367,-0.015c-0.128,-0.011 -0.25,-0.033 -0.367,-0.069c-0.118,-0.036 -0.226,-0.088 -0.325,-0.157c-0.1,-0.069 -0.178,-0.162 -0.234,-0.279l-0.015,0l0,2.21Zm11.687,-4.62l-0.627,0l0,-0.083c0,-0.26 0.042,-0.463 0.126,-0.609c0.084,-0.145 0.199,-0.254 0.344,-0.328c0.146,-0.074 0.315,-0.119 0.509,-0.134c0.193,-0.016 0.403,-0.023 0.627,-0.023c0.25,0 0.482,0.011 0.696,0.034c0.214,0.023 0.399,0.079 0.554,0.169c0.156,0.089 0.277,0.221 0.364,0.397c0.086,0.176 0.13,0.417 0.13,0.723l0,2.738l-0.605,0l0,-0.413l-0.015,-0.015c-0.056,0.117 -0.133,0.208 -0.233,0.271c-0.1,0.064 -0.208,0.111 -0.325,0.142c-0.118,0.03 -0.242,0.048 -0.375,0.053c-0.133,0.005 -0.263,0.008 -0.39,0.008c-0.224,0 -0.431,-0.014 -0.62,-0.042c-0.188,-0.028 -0.35,-0.086 -0.485,-0.172c-0.135,-0.087 -0.24,-0.21 -0.314,-0.371c-0.074,-0.161 -0.11,-0.371 -0.11,-0.631c0,-0.275 0.034,-0.497 0.103,-0.666c0.068,-0.168 0.171,-0.295 0.305,-0.382c0.135,-0.086 0.3,-0.144 0.494,-0.172c0.194,-0.028 0.415,-0.042 0.665,-0.042c0.097,0 0.214,0.004 0.352,0.011c0.138,0.008 0.27,0.026 0.398,0.054c0.127,0.028 0.239,0.069 0.336,0.122c0.097,0.054 0.156,0.127 0.176,0.218l0.038,0l0,-0.742c0,-0.183 -0.024,-0.328 -0.072,-0.436c-0.049,-0.107 -0.119,-0.187 -0.21,-0.241c-0.092,-0.053 -0.205,-0.087 -0.337,-0.103c-0.133,-0.015 -0.283,-0.023 -0.451,-0.023c-0.118,0 -0.239,0.003 -0.364,0.008c-0.125,0.005 -0.238,0.025 -0.34,0.061c-0.102,0.036 -0.185,0.091 -0.248,0.165c-0.064,0.074 -0.096,0.179 -0.096,0.317l0,0.137Zm-21.89,2.93l-0.918,0c-0.525,0 -0.934,-0.157 -1.227,-0.47c-0.293,-0.314 -0.44,-0.759 -0.44,-1.335l0,-2.218c0,-0.403 0.06,-0.724 0.18,-0.964c0.12,-0.239 0.285,-0.422 0.497,-0.547c0.211,-0.125 0.464,-0.205 0.757,-0.241c0.293,-0.035 0.613,-0.053 0.96,-0.053l0.535,0c0.301,0 0.552,0.033 0.754,0.099c0.201,0.067 0.362,0.167 0.482,0.302c0.119,0.136 0.205,0.308 0.256,0.517c0.051,0.209 0.076,0.454 0.076,0.734l0,0.184l-0.65,0l0,-0.161c0,-0.199 -0.013,-0.368 -0.038,-0.509c-0.026,-0.14 -0.075,-0.255 -0.149,-0.344c-0.074,-0.089 -0.177,-0.153 -0.31,-0.191c-0.132,-0.038 -0.303,-0.057 -0.512,-0.057l-0.368,0c-0.336,0 -0.62,0.014 -0.852,0.042c-0.232,0.028 -0.42,0.084 -0.563,0.168c-0.142,0.084 -0.246,0.206 -0.309,0.367c-0.064,0.161 -0.096,0.371 -0.096,0.631l0,1.575c0,0.327 0.009,0.61 0.027,0.85c0.018,0.239 0.064,0.437 0.138,0.592c0.073,0.156 0.187,0.271 0.34,0.345c0.153,0.073 0.364,0.11 0.635,0.11l0.772,0c0.26,0 0.477,-0.011 0.65,-0.034c0.174,-0.023 0.314,-0.069 0.421,-0.137c0.107,-0.07 0.182,-0.168 0.226,-0.295c0.043,-0.127 0.065,-0.293 0.065,-0.497l0,-0.459l0.65,0l0,0.535c0,0.332 -0.05,0.593 -0.149,0.784c-0.1,0.191 -0.238,0.338 -0.413,0.44c-0.176,0.102 -0.387,0.167 -0.631,0.195c-0.245,0.028 -0.51,0.042 -0.796,0.042Zm30.54,-1.92c0,0.316 0.01,0.569 0.031,0.757c0.02,0.189 0.07,0.333 0.149,0.432c0.079,0.1 0.197,0.165 0.356,0.196c0.158,0.03 0.372,0.045 0.642,0.045c0.204,0 0.376,-0.005 0.516,-0.015c0.141,-0.01 0.254,-0.037 0.341,-0.08c0.086,-0.043 0.147,-0.106 0.183,-0.187c0.036,-0.082 0.054,-0.194 0.054,-0.337l0,-0.153l0.619,0l0,0.146c0,0.264 -0.047,0.472 -0.141,0.622c-0.095,0.151 -0.221,0.262 -0.379,0.333c-0.158,0.072 -0.34,0.116 -0.547,0.134c-0.206,0.018 -0.422,0.027 -0.646,0.027c-0.393,0 -0.707,-0.034 -0.945,-0.103c-0.237,-0.069 -0.419,-0.184 -0.547,-0.344c-0.127,-0.161 -0.211,-0.373 -0.252,-0.635c-0.041,-0.263 -0.061,-0.585 -0.061,-0.968c0,-0.418 0.027,-0.759 0.08,-1.025c0.054,-0.265 0.148,-0.474 0.283,-0.627c0.135,-0.153 0.319,-0.259 0.551,-0.317c0.232,-0.059 0.529,-0.088 0.891,-0.088c0.326,0 0.599,0.023 0.818,0.069c0.22,0.046 0.395,0.134 0.528,0.264c0.133,0.129 0.227,0.31 0.283,0.543c0.056,0.231 0.084,0.534 0.084,0.906l0,0.405l-2.891,0Zm-1.552,1.874l-0.605,0l0,-0.505l-0.015,-0.015c-0.061,0.122 -0.136,0.221 -0.226,0.295c-0.089,0.074 -0.191,0.131 -0.306,0.172c-0.114,0.041 -0.235,0.067 -0.363,0.08c-0.127,0.013 -0.26,0.019 -0.397,0.019c-0.357,0 -0.641,-0.05 -0.849,-0.149c-0.209,-0.1 -0.368,-0.238 -0.475,-0.417c-0.107,-0.178 -0.176,-0.394 -0.206,-0.646c-0.031,-0.253 -0.046,-0.532 -0.046,-0.838c0,-0.301 0.014,-0.577 0.042,-0.83c0.028,-0.252 0.095,-0.469 0.202,-0.65c0.107,-0.181 0.266,-0.322 0.475,-0.424c0.209,-0.102 0.494,-0.153 0.857,-0.153c0.112,0 0.234,0.005 0.367,0.015c0.132,0.01 0.26,0.034 0.382,0.073c0.122,0.038 0.232,0.093 0.329,0.164c0.096,0.072 0.168,0.168 0.214,0.291l0.015,0l0,-2.218l0.605,0l0,5.736Zm-25.783,0l-0.604,0l0,-4.015l0.589,0l-0.031,0.497l0.015,0.015c0.051,-0.112 0.119,-0.204 0.203,-0.275c0.084,-0.072 0.176,-0.128 0.275,-0.168c0.1,-0.041 0.207,-0.07 0.322,-0.089c0.114,-0.017 0.228,-0.026 0.34,-0.026c0.387,0 0.67,0.094 0.849,0.283c0.178,0.188 0.267,0.471 0.267,0.848l0,0.291l-0.573,0l0,-0.267c0,-0.25 -0.049,-0.423 -0.145,-0.52c-0.097,-0.097 -0.273,-0.146 -0.528,-0.146c-0.189,0 -0.347,0.023 -0.474,0.069c-0.128,0.046 -0.23,0.114 -0.306,0.203c-0.077,0.089 -0.13,0.2 -0.161,0.332c-0.031,0.133 -0.043,0.289 -0.038,0.467l0,2.501Zm15.228,0l-0.605,0l0,-4.015l0.589,0l-0.03,0.497l0.015,0.015c0.051,-0.112 0.119,-0.204 0.203,-0.275c0.084,-0.072 0.176,-0.128 0.275,-0.168c0.1,-0.041 0.207,-0.07 0.321,-0.089c0.115,-0.017 0.229,-0.026 0.341,-0.026c0.387,0 0.67,0.094 0.849,0.283c0.178,0.188 0.267,0.471 0.267,0.848l0,0.291l-0.573,0l0,-0.267c0,-0.25 -0.049,-0.423 -0.146,-0.52c-0.096,-0.097 -0.272,-0.146 -0.527,-0.146c-0.189,0 -0.347,0.023 -0.475,0.069c-0.127,0.046 -0.229,0.114 -0.305,0.203c-0.077,0.089 -0.131,0.2 -0.161,0.332c-0.031,0.133 -0.043,0.289 -0.038,0.467l0,2.501Zm-0.559,-5.163l-1.858,0l0,5.163l-0.65,0l0,-5.163l-1.859,0l0,-0.573l4.367,0l0,0.573Zm5.351,4.704c0.145,-0.01 0.275,-0.038 0.39,-0.084c0.115,-0.046 0.206,-0.12 0.275,-0.222c0.069,-0.102 0.103,-0.244 0.103,-0.428c0,-0.189 -0.028,-0.334 -0.084,-0.436c-0.056,-0.102 -0.135,-0.176 -0.237,-0.222c-0.102,-0.046 -0.229,-0.072 -0.382,-0.08c-0.154,-0.008 -0.324,-0.012 -0.513,-0.012c-0.178,0 -0.331,0.007 -0.459,0.02c-0.127,0.012 -0.232,0.042 -0.313,0.087c-0.082,0.047 -0.142,0.115 -0.18,0.207c-0.038,0.092 -0.058,0.219 -0.058,0.382c0,0.194 0.021,0.345 0.062,0.452c0.041,0.107 0.102,0.186 0.184,0.237c0.081,0.051 0.185,0.082 0.313,0.095c0.127,0.013 0.278,0.02 0.451,0.02c0.153,0 0.302,-0.006 0.448,-0.016Zm4.611,-0.053c0.146,-0.046 0.259,-0.128 0.341,-0.245c0.081,-0.117 0.136,-0.277 0.164,-0.478c0.028,-0.202 0.042,-0.458 0.042,-0.769c0,-0.275 -0.011,-0.512 -0.034,-0.711c-0.023,-0.199 -0.074,-0.361 -0.153,-0.486c-0.079,-0.125 -0.193,-0.218 -0.341,-0.279c-0.147,-0.061 -0.344,-0.092 -0.588,-0.092c-0.23,0 -0.418,0.016 -0.566,0.046c-0.148,0.031 -0.264,0.101 -0.349,0.211c-0.084,0.109 -0.142,0.267 -0.175,0.474c-0.034,0.206 -0.05,0.485 -0.05,0.837c0,0.347 0.019,0.624 0.057,0.83c0.038,0.207 0.101,0.363 0.188,0.47c0.086,0.108 0.204,0.178 0.351,0.211c0.148,0.033 0.329,0.049 0.544,0.049c0.234,0 0.424,-0.022 0.569,-0.068Zm-17.151,-2.964c-0.153,0.064 -0.265,0.161 -0.337,0.291c-0.071,0.129 -0.113,0.293 -0.126,0.489c-0.013,0.196 -0.019,0.427 -0.019,0.692c0,0.24 0.009,0.455 0.027,0.647c0.018,0.191 0.064,0.354 0.137,0.489c0.074,0.135 0.188,0.24 0.341,0.314c0.153,0.073 0.365,0.11 0.635,0.11c0.234,0 0.423,-0.02 0.565,-0.061c0.143,-0.04 0.256,-0.118 0.337,-0.233c0.081,-0.115 0.137,-0.273 0.164,-0.474c0.029,-0.201 0.043,-0.465 0.043,-0.792c0,-0.301 -0.01,-0.552 -0.031,-0.753c-0.02,-0.201 -0.068,-0.362 -0.142,-0.482c-0.073,-0.12 -0.184,-0.205 -0.332,-0.256c-0.148,-0.051 -0.349,-0.077 -0.604,-0.077c-0.286,0 -0.505,0.032 -0.658,0.096Zm22.119,1.113c-0.01,-0.286 -0.029,-0.509 -0.057,-0.67c-0.028,-0.16 -0.08,-0.281 -0.157,-0.363c-0.077,-0.081 -0.184,-0.131 -0.321,-0.149c-0.138,-0.018 -0.322,-0.027 -0.551,-0.027c-0.276,0 -0.488,0.019 -0.638,0.058c-0.151,0.038 -0.264,0.104 -0.341,0.199c-0.076,0.094 -0.126,0.219 -0.149,0.374c-0.023,0.156 -0.04,0.348 -0.05,0.578l2.264,0Z" style="fill:#fff;"/></g><g></g></svg>