<?xml version="1.0" encoding="UTF-8" standalone="no"?><!DOCTYPE svg PUBLIC "-//W3C//DTD SVG 1.1//EN" "http://www.w3.org/Graphics/SVG/1.1/DTD/svg11.dtd"><svg width="100%" height="100%" viewBox="0 0 58 58" version="1.1" xmlns="http://www.w3.org/2000/svg" xmlns:xlink="http://www.w3.org/1999/xlink" xml:space="preserve" style="fill-rule:evenodd;clip-rule:evenodd;stroke-linejoin:round;stroke-miterlimit:1.41421;"><rect id="アートボード2" x="-374.831" y="-139" width="1767.64" height="1137.38" style="fill:none;"/><g></g><g></g><g><path d="M27.339,27.962l1.694,-0.978l1.694,0.978l0,1.955l-1.694,0.977l-1.694,-0.977l0,-1.955Z" style="fill:#422673;fill-rule:nonzero;"/><path d="M12.032,41.399l17.001,9.814l0,-2.628l-14.723,-8.501l-2.278,1.315Z" style="fill:#422673;fill-rule:nonzero;"/><path d="M7.639,43.939l21.394,12.352l0,-2.629l-19.119,-11.037l-2.275,1.314Z" style="fill:#422673;fill-rule:nonzero;"/><path d="M29.033,21.903l-6.093,3.517l0,4.42l2.278,-1.302l0,-1.8l3.815,-2.206l3.814,2.206l0,1.798l2.278,1.31l0,-4.426l-6.092,-3.517Z" style="fill:#422673;fill-rule:nonzero;"/><path d="M29.033,33.347l-3.803,-2.2l-2.29,1.309l0,0.002l6.093,3.518l6.087,-3.514l-2.281,-1.316l-3.806,2.201Z" style="fill:#422673;fill-rule:nonzero;"/><path d="M39.525,22.882l-5.937,-3.427l0,-7.528l12.456,7.194l0,0.023l2.278,-1.328l0,-0.013l-17.011,-9.82l0,12.789l5.937,3.426l0,9.485l-8.215,4.742l-8.215,-4.742l0,-9.485l8.215,-4.743l0,-2.63l-10.489,6.057l0,12.116l10.489,6.055l10.492,-6.055l0,-12.116Z" style="fill:#422673;fill-rule:nonzero;"/><path d="M46.044,21.776l0,16.985l-10.178,5.876l0,2.631l12.456,-7.189l0,-19.625l-2.278,1.322Z" style="fill:#422673;fill-rule:nonzero;"/><path d="M29.033,4.218l21.408,12.359l0,0.007l2.278,-1.321l-23.686,-13.676l-23.687,13.676l0,27.353l0.009,0.006l2.275,-1.315l-0.005,-0.005l2.118,-1.224l0.009,0.006l1.457,-0.846l0,-0.003l0.818,-0.47l-0.006,-0.005l0,-19.639l14.733,-8.507l0,2.448l-12.611,7.281l0,17.196l14.89,8.595l0,-2.631l-12.612,-7.279l0,-14.565l12.612,-7.283l0,-0.43l0,-2.202l0,-2.446l0,-0.872l0,-1.758l-19.29,11.135l0,19.634l-2.122,1.225l0,-22.085l21.412,-12.359Z" style="fill:#422673;fill-rule:nonzero;"/><path d="M50.441,19.219l0,22.083l-16.852,9.732l0,-7.53l10.334,-5.966l0,-17.195l-8.056,-4.651l0,2.628l5.777,3.339l0,14.564l-10.333,5.965l0,12.79l21.408,-12.362l0,-24.721l-2.278,1.324Z" style="fill:#422673;fill-rule:nonzero;"/></g><g></g></svg>