<?xml version="1.0" encoding="UTF-8" standalone="no"?><!DOCTYPE svg PUBLIC "-//W3C//DTD SVG 1.1//EN" "http://www.w3.org/Graphics/SVG/1.1/DTD/svg11.dtd"><svg width="100%" height="100%" viewBox="0 0 58 58" version="1.1" xmlns="http://www.w3.org/2000/svg" xmlns:xlink="http://www.w3.org/1999/xlink" xml:space="preserve" style="fill-rule:evenodd;clip-rule:evenodd;stroke-linejoin:round;stroke-miterlimit:1.41421;"><rect id="アートボード2" x="-443.831" y="-139" width="1980.6" height="2180.25" style="fill:none;"/><g></g><g></g><path d="M49.543,0.212c4.571,0 8.282,3.711 8.282,8.282l0,41.251c0,4.571 -3.711,8.282 -8.282,8.282l-9.957,0l0,-23.779l6.669,0l0.863,-8.403l-7.532,0l0,-4.94c0,-1.855 1.229,-2.288 2.095,-2.288c0.864,0 5.314,0 5.314,0l0,-8.155l-7.319,-0.029c-8.126,0 -9.975,6.083 -9.975,9.976l0,5.436l-4.699,0l0,8.403l4.699,0l0,23.779l-21.409,0c-4.571,0 -8.282,-3.711 -8.282,-8.282l0,-41.251c0,-4.571 3.711,-8.282 8.282,-8.282l41.251,0Z" style="fill:#422673;"/><g></g></svg>