<?xml version="1.0" encoding="UTF-8" standalone="no"?><!DOCTYPE svg PUBLIC "-//W3C//DTD SVG 1.1//EN" "http://www.w3.org/Graphics/SVG/1.1/DTD/svg11.dtd"><svg width="100%" height="100%" viewBox="0 0 191 80" version="1.1" xmlns="http://www.w3.org/2000/svg" xmlns:xlink="http://www.w3.org/1999/xlink" xml:space="preserve" style="fill-rule:evenodd;clip-rule:evenodd;stroke-linejoin:round;stroke-miterlimit:1.41421;"><rect id="アートボード2" x="-686.831" y="-270" width="1767.64" height="1137.38" style="fill:none;"/><g></g><g></g><path d="M43.483,41.08c-0.881,0.854 -1.715,1.63 -2.504,2.327c-1.104,0.975 -2.182,1.784 -3.234,2.425c-1.052,0.642 -2.13,1.13 -3.234,1.463c-1.104,0.334 -2.272,0.501 -3.504,0.501c-1.488,0 -2.977,-0.154 -4.466,-0.462c-1.488,-0.308 -2.772,-0.668 -3.85,-1.078c-1.283,-0.514 -2.541,-1.04 -3.773,-1.579c-1.232,-0.539 -2.104,-0.86 -2.618,-0.962c-0.462,0.359 -1.039,0.77 -1.732,1.232c-0.693,0.462 -1.489,0.885 -2.387,1.27c-0.898,0.385 -1.874,0.719 -2.926,1.001c-1.052,0.283 -2.169,0.424 -3.35,0.424c-1.54,0.051 -2.72,-0.09 -3.542,-0.424c-0.821,-0.333 -1.18,-0.783 -1.078,-1.347c0.052,-0.616 0.462,-1.181 1.232,-1.694c0.77,-0.514 1.733,-0.937 2.888,-1.271c1.155,-0.333 2.387,-0.577 3.696,-0.731c1.309,-0.154 2.528,-0.231 3.657,-0.231c0.565,0 1.245,0.025 2.041,0.077c0.796,0.051 1.322,0.128 1.578,0.231c1.078,-0.976 2.028,-2.015 2.849,-3.119c0.822,-1.103 1.617,-2.271 2.387,-3.503c0.77,-1.232 1.579,-2.516 2.426,-3.85c0.847,-1.335 1.835,-2.747 2.964,-4.235c-1.283,-0.257 -2.502,-0.629 -3.657,-1.117c-1.155,-0.487 -2.169,-1.052 -3.042,-1.694c-0.872,-0.641 -1.565,-1.386 -2.079,-2.233c-0.513,-0.847 -0.77,-1.758 -0.77,-2.733l0,-0.077c0,-0.976 0.244,-1.912 0.732,-2.811c0.488,-0.898 1.219,-1.694 2.194,-2.387c0.976,-0.693 2.169,-1.245 3.581,-1.655c1.412,-0.411 3.016,-0.616 4.812,-0.616c2.875,0 5.275,0.372 7.2,1.116c1.925,0.745 3.606,1.707 5.043,2.888c0.976,-0.411 2.118,-0.732 3.427,-0.963c1.309,-0.231 2.477,-0.398 3.503,-0.5c1.027,-0.052 2.002,0.038 2.926,0.269c0.924,0.231 1.707,0.578 2.349,1.04c0.642,0.462 1.116,1.039 1.424,1.732c0.308,0.693 0.385,1.476 0.231,2.349c-0.256,1.232 -0.962,2.323 -2.117,3.272c-1.155,0.95 -2.503,1.758 -4.043,2.426c-1.54,0.667 -3.118,1.193 -4.735,1.578c-1.617,0.385 -2.99,0.655 -4.12,0.809c-1.334,0.102 -2.784,0.167 -4.35,0.192c-1.566,0.026 -2.939,-0.038 -4.12,-0.192c-1.283,1.848 -2.476,3.478 -3.58,4.889c-1.104,1.412 -2.195,2.67 -3.273,3.773c-1.078,1.104 -2.168,2.105 -3.272,3.003c-1.104,0.899 -2.272,1.758 -3.504,2.58c0.514,0.102 1.309,0.282 2.387,0.539c1.078,0.256 2.208,0.539 3.388,0.847c1.386,0.359 2.849,0.68 4.389,0.962c1.54,0.283 2.721,0.424 3.542,0.424c1.13,0 2.182,-0.09 3.157,-0.27c0.976,-0.179 1.951,-0.475 2.926,-0.885c0.976,-0.411 1.977,-0.963 3.003,-1.656c1.027,-0.693 2.131,-1.553 3.311,-2.579c0.112,-0.083 0.226,-0.174 0.345,-0.273c0.044,-0.037 0.09,-0.076 0.138,-0.116c0.057,-0.049 0.114,-0.099 0.172,-0.15c0.052,-0.046 0.101,-0.085 0.146,-0.115c0.416,-0.347 0.881,-0.732 1.394,-1.156c0.59,-0.487 1.193,-0.975 1.809,-1.463c0.616,-0.487 1.155,-0.885 1.617,-1.193c1.027,-0.719 1.848,-1.181 2.464,-1.386c0.616,-0.206 1.284,-0.308 2.002,-0.308c0.822,-0.052 1.297,0.013 1.425,0.192c0.128,0.18 -0.064,0.526 -0.578,1.04c-0.718,0.77 -1.386,1.553 -2.002,2.348c-0.616,0.796 -1.309,1.656 -2.079,2.58c-1.334,1.642 -2.258,2.9 -2.772,3.773c-0.462,0.872 -0.539,1.437 -0.231,1.694c0.206,0.256 0.475,0.321 0.809,0.192c0.334,-0.128 0.68,-0.269 1.039,-0.423c0.411,-0.206 0.937,-0.526 1.579,-0.963c0.642,-0.436 1.245,-0.911 1.809,-1.424c0.822,-0.668 1.54,-1.258 2.156,-1.771c0.213,-0.178 0.414,-0.349 0.602,-0.514c0.082,-0.089 0.164,-0.174 0.245,-0.256c0.411,-0.411 0.835,-0.783 1.271,-1.117c0.436,-0.333 0.86,-0.654 1.27,-0.962c0.411,-0.257 0.963,-0.616 1.656,-1.078c0.693,-0.462 1.424,-0.899 2.194,-1.309c1.335,-0.719 2.695,-1.296 4.081,-1.733c1.386,-0.436 2.593,-0.577 3.619,-0.423c0.77,0.154 1.297,0.513 1.579,1.078c0.282,0.564 0.295,1.18 0.038,1.848l0.077,0c0.873,-0.976 1.592,-1.707 2.156,-2.195c0.565,-0.487 1.13,-0.731 1.694,-0.731c1.438,0 1.771,0.41 1.001,1.232c-0.718,0.821 -1.514,1.758 -2.387,2.81c-0.872,1.053 -1.668,2.092 -2.387,3.119c-0.718,0.872 -1.873,2.361 -3.465,4.466c-1.591,2.104 -3.85,5.159 -6.776,9.163c-1.694,2.31 -3.118,4.26 -4.273,5.852c-1.155,1.591 -2.207,3.08 -3.157,4.466c-0.95,1.386 -1.899,2.797 -2.849,4.235c-0.95,1.437 -2.066,3.157 -3.35,5.159c-0.154,0.256 -0.282,0.552 -0.385,0.885c-0.102,0.334 -0.102,0.552 0,0.655c0.206,0.154 0.591,-0.052 1.155,-0.616c0.206,-0.206 0.514,-0.578 0.924,-1.117c0.411,-0.539 0.873,-1.18 1.386,-1.925c0.514,-0.744 1.066,-1.527 1.656,-2.348c0.59,-0.822 1.142,-1.617 1.655,-2.387c1.027,-1.438 2.246,-3.119 3.658,-5.044c1.412,-1.925 3.093,-4.196 5.043,-6.814c1.643,-2.105 3.299,-4.094 4.967,-5.968c1.668,-1.873 3.298,-3.632 4.889,-5.274c0.873,-0.924 1.733,-1.784 2.58,-2.58c0.847,-0.795 1.553,-1.424 2.117,-1.886c0.165,-0.132 0.313,-0.247 0.446,-0.347c0.396,-0.346 0.851,-0.731 1.364,-1.155c0.59,-0.487 1.193,-0.975 1.809,-1.463c0.616,-0.487 1.181,-0.911 1.694,-1.27c1.027,-0.719 1.848,-1.168 2.464,-1.348c0.616,-0.179 1.284,-0.295 2.002,-0.346c0.822,0 1.284,0.077 1.386,0.231c0.103,0.154 -0.077,0.487 -0.539,1.001c-0.513,0.564 -1.116,1.27 -1.809,2.117c-0.693,0.847 -1.425,1.733 -2.195,2.657c-0.616,0.821 -1.193,1.617 -1.732,2.387c-0.539,0.77 -0.911,1.36 -1.117,1.771c-0.308,0.667 -0.359,1.103 -0.154,1.309c0.308,0.308 0.899,0.282 1.771,-0.077c0.873,-0.462 1.771,-1.027 2.695,-1.694c0.924,-0.668 1.977,-1.438 3.157,-2.31c1.746,-1.284 3.26,-2.477 4.543,-3.581c1.284,-1.103 2.541,-2.143 3.773,-3.118c0.308,-0.257 0.616,-0.462 0.924,-0.616c0.308,-0.154 0.745,-0.231 1.309,-0.231c0.668,0 1.143,0.064 1.425,0.192c0.282,0.129 0.192,0.475 -0.27,1.04c-0.718,0.872 -1.386,1.655 -2.002,2.348c-0.616,0.693 -1.309,1.553 -2.079,2.58c-0.667,0.821 -1.257,1.578 -1.771,2.271c-0.513,0.693 -0.872,1.245 -1.078,1.656c-0.256,0.41 -0.385,0.77 -0.385,1.078c0,0.308 0.052,0.513 0.154,0.616c0.36,0.205 0.95,0.128 1.771,-0.231c0.411,-0.206 0.937,-0.526 1.579,-0.963c0.642,-0.436 1.27,-0.911 1.886,-1.424c0.77,-0.616 1.476,-1.194 2.118,-1.733c0.642,-0.539 1.168,-1.014 1.578,-1.424c0.082,-0.041 0.162,-0.086 0.239,-0.135l0.069,-0.058c0.462,-0.385 0.989,-0.821 1.579,-1.309c0.59,-0.487 1.193,-0.975 1.809,-1.463c0.616,-0.487 1.155,-0.885 1.617,-1.193c1.027,-0.719 1.848,-1.181 2.464,-1.386c0.616,-0.206 1.284,-0.308 2.002,-0.308c0.822,-0.052 1.297,0.013 1.425,0.192c0.128,0.18 -0.064,0.526 -0.578,1.04c-0.718,0.77 -1.386,1.553 -2.002,2.348c-0.616,0.796 -1.309,1.656 -2.079,2.58c-1.334,1.642 -2.258,2.9 -2.772,3.773c-0.462,0.872 -0.539,1.437 -0.231,1.694c0.206,0.256 0.475,0.321 0.809,0.192c0.334,-0.128 0.68,-0.269 1.039,-0.423c0.411,-0.206 0.937,-0.526 1.579,-0.963c0.642,-0.436 1.245,-0.911 1.809,-1.424c0.822,-0.668 1.54,-1.258 2.156,-1.771c0.213,-0.178 0.414,-0.349 0.602,-0.514c0.082,-0.089 0.164,-0.174 0.245,-0.256c0.411,-0.411 0.835,-0.783 1.271,-1.117c0.436,-0.333 0.86,-0.654 1.27,-0.962c0.411,-0.308 0.963,-0.68 1.656,-1.117c0.693,-0.436 1.424,-0.86 2.194,-1.27c1.335,-0.719 2.683,-1.296 4.043,-1.733c1.36,-0.436 2.579,-0.577 3.657,-0.423c0.719,0.102 1.22,0.423 1.502,0.962c0.282,0.539 0.372,1.014 0.269,1.425l0.077,0c1.438,-2.054 2.927,-4.017 4.466,-5.891c1.54,-1.873 3.286,-3.965 5.236,-6.275c1.335,-1.592 2.785,-3.196 4.351,-4.813c1.566,-1.617 3.17,-3.195 4.812,-4.735c0.873,-0.873 1.823,-1.309 2.849,-1.309c0.719,0 1.104,0.179 1.155,0.539c-0.513,0.513 -1.129,1.142 -1.848,1.886c-0.718,0.745 -1.475,1.553 -2.271,2.426c-0.796,0.872 -1.591,1.758 -2.387,2.656c-0.796,0.899 -1.553,1.758 -2.272,2.58c-0.616,0.718 -1.257,1.476 -1.925,2.271c-0.667,0.796 -1.386,1.656 -2.156,2.58c-0.77,0.924 -1.604,1.95 -2.502,3.08c-0.898,1.129 -1.912,2.412 -3.042,3.85c-0.616,0.77 -1.257,1.604 -1.925,2.502c-0.667,0.899 -1.296,1.771 -1.886,2.618c-0.59,0.847 -1.117,1.604 -1.579,2.272c-0.462,0.667 -0.77,1.155 -0.924,1.463c-0.564,0.872 -0.667,1.437 -0.308,1.694c0.257,0.256 0.604,0.308 1.04,0.154c0.436,-0.154 0.86,-0.36 1.27,-0.616c0.36,-0.206 0.809,-0.514 1.348,-0.924c0.539,-0.411 1.091,-0.822 1.655,-1.232c0.822,-0.668 1.54,-1.258 2.156,-1.771c0.616,-0.514 1.13,-0.976 1.54,-1.386c0.098,-0.049 0.193,-0.106 0.284,-0.173l0.024,-0.02l0.223,-0.185c0.016,-0.015 0.031,-0.03 0.047,-0.046c0.061,-0.06 0.117,-0.105 0.169,-0.133c0.349,-0.29 0.729,-0.605 1.14,-0.945c0.59,-0.487 1.193,-0.975 1.809,-1.463c0.616,-0.487 1.155,-0.885 1.617,-1.193c1.027,-0.719 1.848,-1.181 2.464,-1.386c0.616,-0.206 1.284,-0.308 2.002,-0.308c0.822,-0.052 1.297,0.013 1.425,0.192c0.128,0.18 -0.064,0.526 -0.578,1.04c-0.718,0.77 -1.386,1.553 -2.002,2.348c-0.616,0.796 -1.309,1.656 -2.079,2.58c-1.334,1.642 -2.258,2.9 -2.772,3.773c-0.462,0.872 -0.539,1.437 -0.231,1.694c0.206,0.256 0.475,0.321 0.809,0.192c0.334,-0.128 0.68,-0.269 1.039,-0.423c0.411,-0.206 0.937,-0.526 1.579,-0.963c0.642,-0.436 1.245,-0.911 1.809,-1.424c0.822,-0.668 1.54,-1.258 2.156,-1.771c0.148,-0.123 0.29,-0.243 0.426,-0.36c0.14,-0.18 0.281,-0.316 0.421,-0.41c1.027,-0.924 2.131,-1.912 3.311,-2.965c1.181,-1.052 2.131,-1.912 2.849,-2.579c-0.513,0 -0.949,0.013 -1.309,0.038c-0.359,0.026 -0.847,0.039 -1.463,0.039c-0.616,0.102 -0.898,-0.026 -0.847,-0.385c0.052,-0.206 0.745,-0.36 2.079,-0.462l1.078,0c0.309,0 0.668,-0.026 1.078,-0.077c1.181,-1.489 2.464,-2.978 3.85,-4.466c1.386,-1.489 2.516,-2.67 3.388,-3.542c0.719,-0.719 1.502,-1.425 2.349,-2.118c0.847,-0.693 1.681,-1.039 2.502,-1.039c0.411,0 0.681,0.051 0.809,0.154c0.128,0.102 0.244,0.205 0.346,0.308c-0.462,0.41 -1.142,1.091 -2.04,2.04c-0.898,0.95 -1.784,1.938 -2.657,2.965c-0.872,1.026 -1.681,1.976 -2.425,2.849c-0.744,0.872 -1.502,1.822 -2.272,2.849c0.873,-0.052 1.669,-0.077 2.387,-0.077l2.002,0c0.257,0 0.527,0.038 0.809,0.115c0.282,0.077 0.372,0.193 0.269,0.347c-0.102,0.256 -0.282,0.385 -0.539,0.385l-3.234,0c-0.667,0 -1.437,0.025 -2.31,0.077c-0.41,0.462 -0.859,1.039 -1.347,1.732c-0.488,0.693 -0.988,1.425 -1.502,2.195c-0.513,0.77 -1.001,1.553 -1.463,2.348c-0.462,0.796 -0.872,1.527 -1.232,2.195c-0.256,0.41 -0.397,0.834 -0.423,1.27c-0.026,0.437 0.115,0.757 0.423,0.963c0.257,0.154 0.552,0.179 0.886,0.077c0.334,-0.103 0.654,-0.231 0.962,-0.385c0.411,-0.257 0.937,-0.578 1.579,-0.963c0.642,-0.385 1.27,-0.834 1.886,-1.347c0.719,-0.565 1.412,-1.13 2.079,-1.694c0.668,-0.565 1.207,-1.053 1.617,-1.463c0.206,-0.154 0.398,-0.295 0.578,-0.424c0.028,-0.02 0.056,-0.037 0.082,-0.052c0.352,-0.297 0.735,-0.626 1.15,-0.987c0.59,-0.514 1.193,-1.014 1.809,-1.502c0.616,-0.487 1.155,-0.885 1.617,-1.193c1.027,-0.719 1.848,-1.168 2.464,-1.348c0.616,-0.179 1.284,-0.295 2.002,-0.346c0.822,0 1.284,0.077 1.386,0.231c0.103,0.154 -0.077,0.487 -0.539,1.001c-0.718,0.821 -1.36,1.591 -1.925,2.31c-0.564,0.718 -1.232,1.54 -2.002,2.464c-0.667,0.821 -1.206,1.54 -1.617,2.156c-0.41,0.616 -0.847,1.283 -1.309,2.002c-0.359,0.718 -0.436,1.18 -0.231,1.386c0.154,0.154 0.398,0.192 0.732,0.115c0.334,-0.077 0.706,-0.218 1.116,-0.423c0.873,-0.411 1.771,-0.95 2.695,-1.617c0.924,-0.668 1.977,-1.438 3.157,-2.31c1.694,-1.284 3.157,-2.426 4.389,-3.427c1.232,-1.001 2.516,-2.066 3.85,-3.195c0.308,-0.257 0.616,-0.462 0.924,-0.616c0.308,-0.154 0.745,-0.231 1.309,-0.231c0.668,0 1.13,0.064 1.386,0.192c0.257,0.129 0.18,0.449 -0.231,0.963c-0.616,0.821 -1.334,1.771 -2.156,2.849c-0.821,1.078 -1.617,2.13 -2.387,3.157c-0.667,0.872 -1.796,2.361 -3.388,4.466c-1.591,2.104 -3.85,5.159 -6.776,9.163c-1.694,2.31 -3.118,4.26 -4.273,5.852c-1.155,1.591 -2.22,3.08 -3.196,4.466c-0.975,1.386 -1.925,2.797 -2.849,4.235c-0.924,1.437 -2.027,3.157 -3.311,5.159c-0.154,0.256 -0.282,0.552 -0.385,0.885c-0.102,0.334 -0.102,0.552 0,0.655c0.206,0.154 0.591,-0.052 1.155,-0.616c0.206,-0.206 0.514,-0.578 0.924,-1.117c0.411,-0.539 0.873,-1.18 1.386,-1.925c0.514,-0.744 1.053,-1.527 1.617,-2.348c0.565,-0.822 1.13,-1.617 1.694,-2.387c0.873,-1.232 2.041,-2.862 3.504,-4.89c1.463,-2.027 3.195,-4.35 5.197,-6.968c1.592,-2.002 3.222,-3.966 4.89,-5.891c1.668,-1.925 3.324,-3.709 4.966,-5.351c0.873,-0.873 1.707,-1.694 2.503,-2.464c0.796,-0.77 1.553,-1.463 2.271,-2.079c0.154,-0.154 0.334,-0.295 0.539,-0.424c0.206,-0.128 0.36,-0.141 0.462,-0.038c0.103,0.102 0.052,0.269 -0.154,0.5c-0.205,0.231 -0.359,0.398 -0.462,0.501c-0.513,0.462 -1.193,1.103 -2.04,1.925c-0.847,0.821 -1.733,1.694 -2.657,2.618c-1.488,1.488 -3.092,3.234 -4.812,5.236c-1.72,2.002 -3.35,3.978 -4.89,5.929c-1.796,2.412 -3.477,4.684 -5.043,6.814c-1.566,2.131 -2.939,4.068 -4.12,5.814c-1.232,1.745 -2.387,3.375 -3.465,4.889c-1.078,1.515 -2.104,2.708 -3.08,3.581c-0.308,0.308 -0.667,0.564 -1.078,0.77c-0.41,0.205 -0.795,0.282 -1.155,0.231c-0.975,-0.103 -1.463,-0.668 -1.463,-1.694c0,-0.668 0.347,-1.617 1.04,-2.849c0.693,-1.232 1.399,-2.439 2.117,-3.619c0.668,-1.078 1.335,-2.118 2.002,-3.119c0.668,-1.001 1.399,-2.079 2.195,-3.234c0.796,-1.155 1.681,-2.425 2.656,-3.811c0.976,-1.386 2.156,-3.029 3.542,-4.928c1.848,-2.567 3.709,-5.134 5.583,-7.7c1.874,-2.567 3.965,-5.442 6.275,-8.624l-0.231,-0.077c-0.821,0.667 -1.796,1.45 -2.926,2.348c-1.129,0.899 -2.13,1.656 -3.003,2.272c-1.334,0.975 -2.772,1.95 -4.312,2.926c-1.54,0.975 -2.951,1.463 -4.235,1.463c-1.488,0 -2.156,-0.745 -2.002,-2.233c0.052,-0.36 0.193,-0.822 0.424,-1.386c0.231,-0.565 0.5,-1.078 0.808,-1.54c1.284,-2.054 3.106,-4.184 5.467,-6.391l0,-0.077c-0.256,0.154 -0.693,0.449 -1.309,0.885c-0.616,0.437 -1.206,0.886 -1.771,1.348c-0.564,0.462 -1.103,0.911 -1.617,1.347c-0.513,0.437 -1.103,0.963 -1.771,1.579c-0.032,0.024 -0.064,0.048 -0.095,0.07c-0.347,0.327 -0.751,0.702 -1.214,1.123c-0.872,0.796 -1.745,1.502 -2.618,2.118c-0.359,0.308 -0.795,0.641 -1.309,1.001c-0.513,0.359 -1.078,0.693 -1.694,1.001c-0.616,0.308 -1.27,0.577 -1.963,0.808c-0.693,0.231 -1.399,0.347 -2.118,0.347c-0.872,0 -1.488,-0.218 -1.848,-0.655c-0.359,-0.436 -0.513,-0.937 -0.462,-1.501c0.103,-0.976 0.539,-2.118 1.309,-3.427c0.77,-1.309 1.72,-2.708 2.849,-4.196l0,-0.077c-0.564,0.564 -1.206,1.168 -1.925,1.809c-0.206,0.184 -0.399,0.357 -0.58,0.517c-0.147,0.164 -0.262,0.287 -0.344,0.369c-0.462,0.462 -1.167,1.103 -2.117,1.925c-0.95,0.821 -1.784,1.514 -2.503,2.079c-0.77,0.616 -1.758,1.296 -2.964,2.04c-1.206,0.745 -2.451,1.117 -3.735,1.117c-0.821,0 -1.424,-0.193 -1.809,-0.578c-0.385,-0.385 -0.552,-0.86 -0.501,-1.424c0,-0.514 0.116,-1.014 0.347,-1.502c0.231,-0.487 0.5,-0.962 0.808,-1.424c0.36,-0.616 0.809,-1.245 1.348,-1.887c0.539,-0.641 1.091,-1.27 1.655,-1.886c0.565,-0.616 1.091,-1.181 1.579,-1.694c0.488,-0.514 0.885,-0.899 1.193,-1.155l0,-0.077c-0.256,0.154 -0.693,0.449 -1.309,0.885c-0.616,0.437 -1.206,0.886 -1.771,1.348c-0.564,0.462 -1.103,0.911 -1.617,1.347c-0.513,0.437 -1.103,0.963 -1.771,1.579c-0.131,0.098 -0.247,0.176 -0.346,0.232c-0.288,0.269 -0.608,0.563 -0.963,0.884c-0.821,0.745 -1.719,1.476 -2.695,2.195c-0.821,0.616 -1.809,1.283 -2.964,2.002c-1.155,0.718 -2.374,1.078 -3.658,1.078l-0.077,0c-0.718,0 -1.244,-0.154 -1.578,-0.462c-0.334,-0.308 -0.526,-0.693 -0.578,-1.155c-0.051,-0.411 0.026,-0.873 0.231,-1.386c0.206,-0.513 0.488,-0.975 0.847,-1.386l-0.077,0c-0.564,0.462 -1.18,0.95 -1.848,1.463c-0.667,0.513 -1.373,0.975 -2.117,1.386c-0.744,0.41 -1.502,0.757 -2.272,1.039c-0.77,0.283 -1.514,0.449 -2.233,0.501c-0.872,0.051 -1.642,-0.129 -2.31,-0.539c-0.667,-0.411 -0.949,-1.258 -0.847,-2.541c0.103,-0.565 0.308,-1.194 0.616,-1.887c0.253,-0.567 0.642,-1.177 1.17,-1.831c-0.449,0.429 -1.057,0.975 -1.824,1.639c-0.95,0.821 -1.784,1.514 -2.503,2.079c-0.77,0.616 -1.758,1.296 -2.964,2.04c-1.206,0.745 -2.451,1.117 -3.735,1.117c-0.821,0 -1.424,-0.193 -1.809,-0.578c-0.385,-0.385 -0.552,-0.86 -0.501,-1.424c0,-0.514 0.116,-1.014 0.347,-1.502c0.231,-0.487 0.5,-0.962 0.808,-1.424c0.36,-0.616 0.809,-1.245 1.348,-1.887c0.539,-0.641 1.091,-1.27 1.655,-1.886c0.565,-0.616 1.091,-1.181 1.579,-1.694c0.488,-0.514 0.885,-0.899 1.193,-1.155l0,-0.077c-0.256,0.154 -0.693,0.449 -1.309,0.885c-0.616,0.437 -1.206,0.886 -1.771,1.348c-0.564,0.462 -1.103,0.911 -1.617,1.347c-0.513,0.437 -1.103,0.963 -1.771,1.579c-0.129,0.097 -0.243,0.174 -0.342,0.23c-0.307,0.288 -0.655,0.609 -1.044,0.963c-0.872,0.796 -1.745,1.502 -2.618,2.118c-0.77,0.616 -1.745,1.283 -2.926,2.002c-1.18,0.718 -2.412,1.078 -3.696,1.078c-1.591,0 -2.387,-0.616 -2.387,-1.848c0,-0.565 0.129,-1.117 0.385,-1.656c0.257,-0.539 0.539,-1.039 0.847,-1.501c0.411,-0.616 0.873,-1.194 1.386,-1.733c0.514,-0.539 1.053,-1.091 1.617,-1.655l-0.154,-0.154c-0.821,0.718 -1.719,1.45 -2.695,2.194c-0.975,0.745 -1.899,1.45 -2.772,2.118c-1.591,1.18 -3.067,2.181 -4.427,3.003c-1.36,0.821 -2.631,1.232 -3.812,1.232c-0.821,0 -1.463,-0.18 -1.925,-0.539c-0.462,-0.36 -0.667,-0.899 -0.616,-1.617c0.052,-0.411 0.206,-0.886 0.462,-1.425c0.257,-0.539 0.539,-1.039 0.847,-1.501c0.565,-0.77 1.348,-1.746 2.349,-2.926c1.001,-1.181 2.092,-2.336 3.272,-3.465l0,-0.077c-0.256,0.154 -0.693,0.449 -1.309,0.885c-0.616,0.437 -1.206,0.886 -1.771,1.348c-0.564,0.462 -1.103,0.911 -1.617,1.347c-0.513,0.437 -1.103,0.963 -1.771,1.579c-0.14,0.105 -0.263,0.187 -0.367,0.244c-0.314,0.294 -0.654,0.623 -1.019,0.988c-0.821,0.821 -1.694,1.694 -2.618,2.618c-1.488,1.488 -3.092,3.234 -4.812,5.236c-1.72,2.002 -3.35,3.978 -4.89,5.929c-1.232,1.642 -2.284,3.054 -3.157,4.235c-0.872,1.18 -1.655,2.246 -2.348,3.195c-0.693,0.95 -1.322,1.835 -1.887,2.657c-0.564,0.821 -1.155,1.668 -1.771,2.541c-1.232,1.745 -2.399,3.388 -3.503,4.928c-1.104,1.54 -2.118,2.72 -3.042,3.542c-0.308,0.308 -0.667,0.564 -1.078,0.77c-0.41,0.205 -0.795,0.282 -1.155,0.231c-0.975,-0.103 -1.463,-0.668 -1.463,-1.694c0,-0.668 0.347,-1.617 1.04,-2.849c0.693,-1.232 1.399,-2.439 2.117,-3.619c0.668,-1.078 1.335,-2.118 2.002,-3.119c0.668,-1.001 1.399,-2.079 2.195,-3.234c0.796,-1.155 1.694,-2.425 2.695,-3.811c1.001,-1.386 2.194,-3.029 3.58,-4.928c1.797,-2.464 3.414,-4.684 4.851,-6.661c1.438,-1.976 2.721,-3.709 3.85,-5.197l0,-0.077c-0.462,0.462 -1.026,0.949 -1.694,1.463c-0.667,0.513 -1.373,0.988 -2.117,1.424c-0.744,0.437 -1.514,0.796 -2.31,1.078c-0.796,0.283 -1.553,0.449 -2.272,0.501c-0.872,0.051 -1.642,-0.129 -2.31,-0.539c-0.667,-0.411 -0.949,-1.258 -0.847,-2.541c0.103,-0.565 0.308,-1.194 0.616,-1.887c0.308,-0.693 0.796,-1.399 1.463,-2.117l-0.044,0.044c-0.462,0.458 -1.153,1.085 -2.073,1.881c-0.95,0.821 -1.784,1.514 -2.503,2.079c-0.77,0.616 -1.758,1.296 -2.964,2.04c-1.206,0.745 -2.451,1.117 -3.735,1.117c-0.821,0 -1.424,-0.193 -1.809,-0.578c-0.385,-0.385 -0.552,-0.86 -0.501,-1.424c0,-0.514 0.116,-1.014 0.347,-1.502c0.231,-0.487 0.5,-0.962 0.808,-1.424c0.36,-0.616 0.809,-1.245 1.348,-1.887c0.539,-0.641 1.091,-1.27 1.655,-1.886c0.565,-0.616 1.091,-1.181 1.579,-1.694c0.488,-0.514 0.885,-0.899 1.193,-1.155l0,-0.077c-0.256,0.154 -0.693,0.449 -1.309,0.885c-0.616,0.437 -1.206,0.886 -1.771,1.348c-0.564,0.462 -1.103,0.911 -1.617,1.347c-0.513,0.437 -1.103,0.963 -1.771,1.579c-0.184,0.138 -0.338,0.235 -0.46,0.291Zm-28.184,2.25c-0.513,0.462 -1.103,0.911 -1.771,1.347c-0.667,0.437 -1.373,0.809 -2.117,1.117c-0.744,0.308 -1.476,0.552 -2.195,0.731c-0.718,0.18 -1.386,0.27 -2.002,0.27c-0.564,0.051 -1.142,-0.039 -1.732,-0.27c-0.59,-0.231 -0.834,-0.552 -0.732,-0.962c0.103,-0.719 0.745,-1.348 1.925,-1.887c1.181,-0.539 2.593,-0.834 4.235,-0.885c0.822,-0.052 1.617,-0.013 2.387,0.115c0.77,0.129 1.438,0.244 2.002,0.347l0,0.077Zm54.439,-9.009c0.976,0 1.438,0.462 1.386,1.386c0,0.308 -0.166,0.731 -0.5,1.27c-0.334,0.539 -0.757,1.117 -1.271,1.733c-0.513,0.616 -1.078,1.257 -1.694,1.925c-0.616,0.667 -1.232,1.257 -1.848,1.771c-1.026,0.975 -2.181,1.822 -3.465,2.541c-1.283,0.718 -2.284,1.078 -3.003,1.078c-0.616,0 -0.949,-0.257 -1.001,-0.77c-0.051,-0.514 0.283,-1.296 1.001,-2.349c0.719,-1.052 1.823,-2.297 3.311,-3.734c1.386,-1.386 2.721,-2.541 4.004,-3.465c1.284,-0.924 2.285,-1.386 3.003,-1.386l0.077,0Zm47.74,11.704c0.719,0 1.707,-0.36 2.965,-1.078c1.258,-0.719 2.4,-1.566 3.426,-2.541c0.616,-0.514 1.232,-1.104 1.848,-1.771c0.616,-0.668 1.181,-1.309 1.694,-1.925c0.514,-0.616 0.937,-1.194 1.271,-1.733c0.334,-0.539 0.5,-0.962 0.5,-1.27c0.052,-0.924 -0.41,-1.386 -1.386,-1.386c-0.77,0 -1.796,0.462 -3.08,1.386c-1.283,0.924 -2.618,2.079 -4.004,3.465c-1.488,1.437 -2.592,2.682 -3.311,3.734c-0.718,1.053 -1.052,1.835 -1.001,2.349c0.052,0.513 0.385,0.77 1.001,0.77l0.077,0Zm-85.624,-18.48c1.13,0.154 2.426,0.205 3.889,0.154c1.463,-0.052 2.862,-0.154 4.196,-0.308c1.078,-0.154 2.298,-0.437 3.658,-0.847c1.36,-0.411 2.669,-0.937 3.927,-1.579c1.258,-0.641 2.361,-1.424 3.311,-2.348c0.95,-0.924 1.553,-1.951 1.809,-3.08c0.257,-1.284 -0.051,-2.31 -0.924,-3.08c-0.872,-0.77 -2.13,-1.13 -3.773,-1.078c-0.462,0 -0.975,0.051 -1.54,0.154c-0.564,0.102 -1.129,0.256 -1.694,0.462c-0.564,0.205 -1.103,0.423 -1.617,0.654c-0.513,0.231 -0.924,0.449 -1.232,0.655c0.257,0.359 0.514,0.744 0.77,1.155c0.257,0.41 0.488,0.872 0.693,1.386c0.308,0.975 0.462,1.694 0.462,2.156c0,0.462 -0.051,0.693 -0.154,0.693c-0.102,0 -0.179,-0.167 -0.231,-0.501c-0.051,-0.333 -0.359,-1.065 -0.924,-2.194c-0.256,-0.411 -0.551,-0.822 -0.885,-1.232c-0.334,-0.411 -0.629,-0.719 -0.886,-0.924c-1.488,0.872 -2.99,2.194 -4.504,3.965c-1.514,1.771 -2.99,3.683 -4.428,5.737l0.077,0Zm29.337,-4.235c0.514,0 0.848,0.192 1.001,0.577c0.154,0.385 0,0.86 -0.462,1.425c-0.462,0.616 -1.078,1.116 -1.848,1.501c-0.77,0.385 -1.36,0.578 -1.771,0.578c-0.205,-0.257 -0.32,-0.629 -0.346,-1.117c-0.026,-0.487 0.064,-0.988 0.269,-1.501c0.257,-0.565 0.655,-0.95 1.194,-1.155c0.539,-0.206 1.168,-0.308 1.886,-0.308l0.077,0Zm58.135,0c0.514,0 0.848,0.192 1.001,0.577c0.154,0.385 0,0.86 -0.462,1.425c-0.462,0.616 -1.078,1.116 -1.848,1.501c-0.77,0.385 -1.36,0.578 -1.771,0.578c-0.205,-0.257 -0.32,-0.629 -0.346,-1.117c-0.026,-0.487 0.064,-0.988 0.269,-1.501c0.257,-0.565 0.655,-0.95 1.194,-1.155c0.539,-0.206 1.168,-0.308 1.886,-0.308l0.077,0Zm34.573,0c0.514,0 0.848,0.192 1.001,0.577c0.154,0.385 0,0.86 -0.462,1.425c-0.462,0.616 -1.078,1.116 -1.848,1.501c-0.77,0.385 -1.36,0.578 -1.771,0.578c-0.205,-0.257 -0.32,-0.629 -0.346,-1.117c-0.026,-0.487 0.064,-0.988 0.269,-1.501c0.257,-0.565 0.655,-0.95 1.194,-1.155c0.539,-0.206 1.168,-0.308 1.886,-0.308l0.077,0Zm-135.751,-3.773c0,-1.643 0.886,-3.093 2.657,-4.351c1.771,-1.257 4.299,-1.886 7.584,-1.886c2.721,0 5.005,0.372 6.853,1.116c1.848,0.745 3.311,1.476 4.389,2.195c-0.924,0.359 -1.899,0.885 -2.926,1.578c-1.026,0.693 -2.079,1.502 -3.157,2.426c-1.078,0.924 -2.143,1.912 -3.195,2.964c-1.052,1.053 -2.015,2.143 -2.888,3.273c-1.232,-0.257 -2.412,-0.616 -3.542,-1.078c-1.129,-0.462 -2.117,-1.001 -2.964,-1.617c-0.847,-0.616 -1.527,-1.309 -2.041,-2.079c-0.513,-0.77 -0.77,-1.592 -0.77,-2.464l0,-0.077Z" style="fill:#462876;"/><g></g></svg>