<?xml version="1.0" encoding="UTF-8" standalone="no"?><!DOCTYPE svg PUBLIC "-//W3C//DTD SVG 1.1//EN" "http://www.w3.org/Graphics/SVG/1.1/DTD/svg11.dtd"><svg width="100%" height="100%" viewBox="0 0 344 55" version="1.1" xmlns="http://www.w3.org/2000/svg" xmlns:xlink="http://www.w3.org/1999/xlink" xml:space="preserve" style="fill-rule:evenodd;clip-rule:evenodd;stroke-linejoin:round;stroke-miterlimit:1.41421;"><rect id="アートボード2" x="-888.831" y="-270" width="1767.64" height="1137.38" style="fill:none;"/><g></g><g></g><path d="M120.005,30.086c-0.565,-0.822 -1.335,-1.515 -2.31,-2.079c-0.976,-0.565 -2.054,-1.001 -3.234,-1.309c-1.181,-0.308 -2.375,-0.501 -3.581,-0.578c-1.206,-0.077 -2.323,-0.064 -3.349,0.039c-1.438,0.102 -3.055,0.423 -4.851,0.962c-1.797,0.539 -3.504,1.309 -5.121,2.31c-1.617,1.001 -3.003,2.22 -4.158,3.658c-1.155,1.437 -1.809,3.105 -1.963,5.005c-0.103,1.642 0.141,3.08 0.731,4.312c0.59,1.232 1.296,2.207 2.118,2.926c-1.438,1.334 -2.657,2.669 -3.658,4.004c-1.001,1.334 -1.707,2.566 -2.117,3.696c-0.052,0.102 -0.09,0.269 -0.116,0.5c-0.026,0.231 0.013,0.372 0.116,0.424c0.154,0.051 0.359,-0.18 0.616,-0.693c0.462,-1.027 1.244,-2.156 2.348,-3.388c1.104,-1.232 2.374,-2.49 3.812,-3.773c1.694,1.18 3.696,1.938 6.006,2.271c2.31,0.334 4.491,0.449 6.545,0.347c2.515,-0.154 4.94,-0.578 7.276,-1.271c2.336,-0.693 4.569,-1.707 6.699,-3.041c2.13,-1.335 4.107,-3.029 5.929,-5.082c1.822,-2.054 3.478,-4.518 4.967,-7.392c0.616,-1.181 1.283,-2.477 2.002,-3.889c0.718,-1.411 1.437,-2.785 2.156,-4.119c0.359,-0.103 0.705,-0.231 1.039,-0.385c0.334,-0.154 0.68,-0.308 1.04,-0.462c2.618,-1.078 4.812,-2.297 6.583,-3.658c1.771,-1.36 2.708,-2.682 2.811,-3.965c0.102,-0.873 -0.154,-1.45 -0.77,-1.733c-0.616,-0.282 -1.232,-0.398 -1.848,-0.346c-1.592,0.154 -3.183,0.77 -4.774,1.848c-1.54,1.078 -3.068,2.451 -4.582,4.119c-1.514,1.669 -2.964,3.581 -4.35,5.737c-2.054,0.821 -4.03,1.642 -5.929,2.464c-1.9,0.821 -3.902,1.694 -6.006,2.618l-0.077,-0.077Zm-10.241,11.242l-0.077,0c-0.924,0 -1.913,-0.129 -2.965,-0.385c-1.052,-0.257 -2.015,-0.668 -2.887,-1.232c-0.822,0.564 -1.605,1.103 -2.349,1.617c-0.744,0.513 -1.501,1.052 -2.271,1.617c-0.411,0.308 -0.835,0.629 -1.271,0.962c-0.436,0.334 -0.86,0.68 -1.27,1.04c1.437,1.386 3.259,2.284 5.467,2.695c2.207,0.41 4.337,0.539 6.391,0.385c4.106,-0.36 7.712,-1.861 10.818,-4.505c3.106,-2.643 6.045,-6.532 8.817,-11.665c0.564,-1.027 1.129,-2.002 1.694,-2.926c0.564,-0.924 1.129,-1.823 1.694,-2.695l0,-0.077c-1.9,0.77 -3.735,1.54 -5.506,2.31c-1.771,0.77 -3.606,1.591 -5.505,2.464c0.308,0.718 0.462,1.514 0.462,2.387c-0.052,1.283 -0.437,2.425 -1.155,3.426c-0.719,1.001 -1.617,1.835 -2.695,2.503c-1.078,0.667 -2.272,1.18 -3.581,1.54c-1.309,0.359 -2.579,0.539 -3.811,0.539Zm-76.461,-16.247c0,1.078 -0.385,2.31 -1.155,3.696c-0.77,1.386 -1.797,2.682 -3.08,3.888c-1.284,1.207 -2.798,2.208 -4.543,3.003c-1.746,0.796 -3.568,1.142 -5.467,1.04c-1.951,-0.103 -3.35,-0.719 -4.197,-1.848c-0.847,-1.13 -1.219,-2.464 -1.116,-4.004c0.154,-2.413 0.885,-4.595 2.194,-6.545c1.309,-1.951 3.016,-3.619 5.121,-5.005c2.104,-1.386 4.555,-2.451 7.353,-3.196c2.798,-0.744 5.788,-1.116 8.971,-1.116c2.464,0 4.697,0.333 6.699,1.001c2.002,0.667 3.413,1.309 4.235,1.925c-1.181,0.718 -2.4,1.655 -3.658,2.81c-1.258,1.155 -2.502,2.4 -3.734,3.735c-1.232,1.334 -2.413,2.682 -3.542,4.042c-1.13,1.361 -2.156,2.605 -3.08,3.735c-2.259,2.72 -4.338,5.082 -6.237,7.084c-1.9,2.002 -3.927,3.644 -6.083,4.928c-0.822,-0.206 -1.771,-0.424 -2.849,-0.655c-1.078,-0.231 -2.182,-0.449 -3.311,-0.654c-1.13,-0.206 -2.246,-0.385 -3.35,-0.539c-1.104,-0.154 -2.066,-0.257 -2.887,-0.308c-2.464,-0.103 -4.402,0.115 -5.814,0.654c-1.412,0.539 -2.117,1.322 -2.117,2.349c0,0.564 0.231,1.001 0.693,1.309c0.462,0.308 1.052,0.564 1.771,0.77c0.718,0.205 1.475,0.333 2.271,0.385c0.796,0.051 1.553,0.077 2.272,0.077c2.002,0 4.081,-0.129 6.237,-0.385c2.156,-0.257 4.029,-0.668 5.621,-1.232c1.386,0.359 2.951,0.693 4.697,1.001c1.745,0.308 3.465,0.462 5.159,0.462c1.54,0 2.938,-0.244 4.196,-0.732c1.258,-0.487 2.323,-1.116 3.196,-1.886c0.41,-0.36 0.654,-0.642 0.731,-0.847c0.077,-0.206 0.064,-0.334 -0.038,-0.385c-0.103,-0.103 -0.193,-0.09 -0.27,0.038c-0.077,0.129 -0.321,0.321 -0.731,0.578c-0.924,0.667 -1.913,1.116 -2.965,1.347c-1.052,0.231 -2.143,0.347 -3.272,0.347c-0.462,0 -1.014,-0.039 -1.656,-0.116c-0.642,-0.077 -1.335,-0.179 -2.079,-0.308c-0.744,-0.128 -1.476,-0.256 -2.194,-0.385c-0.719,-0.128 -1.335,-0.244 -1.848,-0.346l0,-0.077c1.334,-0.565 3.169,-1.527 5.505,-2.888c2.336,-1.36 4.813,-3.426 7.431,-6.198c0.359,0.102 0.924,0.179 1.694,0.231c0.77,0.051 1.488,0.051 2.156,0c0.667,-0.052 1.501,-0.167 2.502,-0.347c1.001,-0.179 2.041,-0.487 3.119,-0.924c1.078,-0.436 2.143,-1.014 3.195,-1.732c1.052,-0.719 1.964,-1.643 2.734,-2.772c0.924,-1.335 1.501,-2.618 1.732,-3.85c0.231,-1.232 0.218,-2.374 -0.038,-3.427c-0.257,-1.052 -0.681,-2.002 -1.271,-2.849c-0.59,-0.847 -1.245,-1.578 -1.963,-2.194c0.564,-0.411 1.296,-0.899 2.194,-1.463c0.898,-0.565 1.861,-1.078 2.888,-1.54c1.129,-0.514 2.335,-0.911 3.619,-1.194c1.283,-0.282 2.515,-0.423 3.696,-0.423c2.412,0 4.106,0.539 5.082,1.617c0.154,0.154 0.243,0.269 0.269,0.346c0.026,0.077 0.09,0.116 0.193,0.116c0.205,-0.052 0.205,-0.283 0,-0.693c-0.411,-0.719 -1.143,-1.258 -2.195,-1.617c-1.052,-0.36 -2.194,-0.539 -3.426,-0.539c-1.438,0 -2.849,0.192 -4.235,0.577c-1.386,0.385 -2.567,0.783 -3.542,1.194c-0.976,0.41 -1.977,0.924 -3.003,1.54c-1.027,0.616 -1.797,1.129 -2.31,1.54c-1.181,-0.719 -2.772,-1.386 -4.774,-2.002c-2.002,-0.616 -4.492,-0.924 -7.469,-0.924c-3.491,0 -6.841,0.423 -10.049,1.27c-3.208,0.847 -6.032,2.002 -8.47,3.465c-2.438,1.463 -4.402,3.17 -5.89,5.121c-1.489,1.95 -2.259,4.055 -2.31,6.314c-0.103,2.361 0.616,4.081 2.156,5.159c1.54,1.078 3.67,1.668 6.391,1.771c2.002,0.102 3.939,-0.218 5.813,-0.963c1.874,-0.744 3.529,-1.707 4.967,-2.887c1.437,-1.181 2.579,-2.516 3.426,-4.004c0.847,-1.489 1.271,-2.952 1.271,-4.389c0,-1.438 -0.424,-2.516 -1.271,-3.234c-0.847,-0.719 -1.835,-1.104 -2.964,-1.155c-1.438,-0.103 -2.631,0.141 -3.581,0.731c-0.95,0.591 -1.63,1.091 -2.04,1.502c-0.462,0.513 -0.783,0.962 -0.963,1.347c-0.18,0.385 -0.218,0.603 -0.115,0.655c0.102,0.051 0.243,-0.077 0.423,-0.385c0.18,-0.308 0.526,-0.693 1.04,-1.155c0.462,-0.411 1.142,-0.847 2.04,-1.309c0.898,-0.462 1.887,-0.668 2.965,-0.616c0.924,0.051 1.694,0.398 2.31,1.039c0.616,0.642 0.924,1.45 0.924,2.426l0,0.077Zm192.654,0c0,1.078 -0.385,2.31 -1.155,3.696c-0.77,1.386 -1.797,2.682 -3.08,3.888c-1.284,1.207 -2.798,2.208 -4.543,3.003c-1.746,0.796 -3.568,1.142 -5.467,1.04c-1.951,-0.103 -3.35,-0.719 -4.197,-1.848c-0.847,-1.13 -1.219,-2.464 -1.116,-4.004c0.154,-2.413 0.885,-4.595 2.194,-6.545c1.309,-1.951 3.016,-3.619 5.121,-5.005c2.104,-1.386 4.555,-2.451 7.353,-3.196c2.798,-0.744 5.788,-1.116 8.971,-1.116c2.464,0 4.697,0.333 6.699,1.001c2.002,0.667 3.413,1.309 4.235,1.925c-1.181,0.718 -2.4,1.655 -3.658,2.81c-1.258,1.155 -2.502,2.4 -3.734,3.735c-1.232,1.334 -2.413,2.682 -3.542,4.042c-1.13,1.361 -2.156,2.605 -3.08,3.735c-2.259,2.72 -4.338,5.082 -6.237,7.084c-1.9,2.002 -3.927,3.644 -6.083,4.928c-0.822,-0.206 -1.771,-0.424 -2.849,-0.655c-1.078,-0.231 -2.182,-0.449 -3.311,-0.654c-1.13,-0.206 -2.246,-0.385 -3.35,-0.539c-1.104,-0.154 -2.066,-0.257 -2.887,-0.308c-2.464,-0.103 -4.402,0.115 -5.814,0.654c-1.412,0.539 -2.117,1.322 -2.117,2.349c0,0.564 0.231,1.001 0.693,1.309c0.462,0.308 1.052,0.564 1.771,0.77c0.718,0.205 1.475,0.333 2.271,0.385c0.796,0.051 1.553,0.077 2.272,0.077c2.002,0 4.081,-0.129 6.237,-0.385c2.156,-0.257 4.029,-0.668 5.621,-1.232c1.386,0.359 2.951,0.693 4.697,1.001c1.745,0.308 3.465,0.462 5.159,0.462c1.54,0 2.938,-0.244 4.196,-0.732c1.258,-0.487 2.323,-1.116 3.196,-1.886c0.41,-0.36 0.654,-0.642 0.731,-0.847c0.077,-0.206 0.064,-0.334 -0.038,-0.385c-0.103,-0.103 -0.193,-0.09 -0.27,0.038c-0.077,0.129 -0.321,0.321 -0.731,0.578c-0.924,0.667 -1.913,1.116 -2.965,1.347c-1.052,0.231 -2.143,0.347 -3.272,0.347c-0.462,0 -1.014,-0.039 -1.656,-0.116c-0.642,-0.077 -1.335,-0.179 -2.079,-0.308c-0.744,-0.128 -1.476,-0.256 -2.194,-0.385c-0.719,-0.128 -1.335,-0.244 -1.848,-0.346l0,-0.077c1.334,-0.565 3.169,-1.527 5.505,-2.888c2.336,-1.36 4.813,-3.426 7.431,-6.198c0.359,0.102 0.924,0.179 1.694,0.231c0.77,0.051 1.488,0.051 2.156,0c0.667,-0.052 1.501,-0.167 2.502,-0.347c1.001,-0.179 2.041,-0.487 3.119,-0.924c1.078,-0.436 2.143,-1.014 3.195,-1.732c1.052,-0.719 1.964,-1.643 2.734,-2.772c0.924,-1.335 1.501,-2.618 1.732,-3.85c0.231,-1.232 0.218,-2.374 -0.038,-3.427c-0.257,-1.052 -0.681,-2.002 -1.271,-2.849c-0.59,-0.847 -1.245,-1.578 -1.963,-2.194c0.564,-0.411 1.296,-0.899 2.194,-1.463c0.898,-0.565 1.861,-1.078 2.888,-1.54c1.129,-0.514 2.335,-0.911 3.619,-1.194c1.283,-0.282 2.515,-0.423 3.696,-0.423c2.412,0 4.106,0.539 5.082,1.617c0.154,0.154 0.243,0.269 0.269,0.346c0.026,0.077 0.09,0.116 0.193,0.116c0.205,-0.052 0.205,-0.283 0,-0.693c-0.411,-0.719 -1.143,-1.258 -2.195,-1.617c-1.052,-0.36 -2.194,-0.539 -3.426,-0.539c-1.438,0 -2.849,0.192 -4.235,0.577c-1.386,0.385 -2.567,0.783 -3.542,1.194c-0.976,0.41 -1.977,0.924 -3.003,1.54c-1.027,0.616 -1.797,1.129 -2.31,1.54c-1.181,-0.719 -2.772,-1.386 -4.774,-2.002c-2.002,-0.616 -4.492,-0.924 -7.469,-0.924c-3.491,0 -6.841,0.423 -10.049,1.27c-3.208,0.847 -6.032,2.002 -8.47,3.465c-2.438,1.463 -4.402,3.17 -5.89,5.121c-1.489,1.95 -2.259,4.055 -2.31,6.314c-0.103,2.361 0.616,4.081 2.156,5.159c1.54,1.078 3.67,1.668 6.391,1.771c2.002,0.102 3.939,-0.218 5.813,-0.963c1.874,-0.744 3.529,-1.707 4.967,-2.887c1.437,-1.181 2.579,-2.516 3.426,-4.004c0.847,-1.489 1.271,-2.952 1.271,-4.389c0,-1.438 -0.424,-2.516 -1.271,-3.234c-0.847,-0.719 -1.835,-1.104 -2.964,-1.155c-1.438,-0.103 -2.631,0.141 -3.581,0.731c-0.95,0.591 -1.63,1.091 -2.04,1.502c-0.462,0.513 -0.783,0.962 -0.963,1.347c-0.18,0.385 -0.218,0.603 -0.115,0.655c0.102,0.051 0.243,-0.077 0.423,-0.385c0.18,-0.308 0.526,-0.693 1.04,-1.155c0.462,-0.411 1.142,-0.847 2.04,-1.309c0.898,-0.462 1.887,-0.668 2.965,-0.616c0.924,0.051 1.694,0.398 2.31,1.039c0.616,0.642 0.924,1.45 0.924,2.426l0,0.077Zm-70.72,14.009c0.582,-0.532 1.209,-1.096 1.882,-1.689c0.872,-0.77 1.771,-1.54 2.695,-2.31c1.129,-1.489 2.528,-3.26 4.196,-5.313c1.668,-2.054 3.324,-4.056 4.967,-6.006c1.386,-1.592 2.861,-3.247 4.427,-4.967c1.566,-1.719 3.131,-3.375 4.697,-4.966c1.566,-1.592 3.067,-3.067 4.505,-4.428c1.437,-1.36 2.72,-2.502 3.85,-3.426c0.872,-0.719 1.873,-1.412 3.003,-2.079c1.129,-0.668 2.258,-1.001 3.388,-1.001c1.026,0 1.694,0.282 2.002,0.847c0.308,0.564 0.41,1.206 0.308,1.925c-0.154,0.924 -0.693,1.989 -1.617,3.195c-0.924,1.207 -2.105,2.516 -3.542,3.927c-1.438,1.412 -3.068,2.901 -4.89,4.466c-1.822,1.566 -3.709,3.144 -5.659,4.736c-2.362,1.95 -4.774,3.901 -7.238,5.852c-2.464,1.95 -5.134,4.183 -8.008,6.699c-0.308,0.359 -0.732,0.911 -1.271,1.655c-0.539,0.745 -1.091,1.54 -1.655,2.387c-0.565,0.847 -1.091,1.681 -1.579,2.503c-0.488,0.821 -0.834,1.488 -1.039,2.002c-0.154,0.256 -0.296,0.616 -0.424,1.078c-0.128,0.462 -0.064,0.821 0.193,1.078c0.256,0.205 0.628,0.231 1.116,0.077c0.488,-0.154 0.911,-0.334 1.271,-0.539c0.359,-0.206 0.821,-0.488 1.386,-0.847c0.564,-0.36 1.103,-0.77 1.617,-1.232c0.667,-0.514 1.347,-1.065 2.04,-1.656c0.693,-0.59 1.245,-1.091 1.656,-1.501c0.036,-0.019 0.073,-0.038 0.109,-0.058c0.179,-0.154 0.361,-0.302 0.545,-0.443c0.436,-0.333 0.86,-0.654 1.271,-0.962c0.41,-0.257 0.949,-0.603 1.617,-1.04c0.667,-0.436 1.36,-0.86 2.079,-1.27c1.129,-0.565 2.297,-1.078 3.503,-1.54c1.206,-0.462 2.323,-0.693 3.35,-0.693l0.077,0c0.77,0 1.347,0.231 1.732,0.693c0.385,0.462 0.552,0.898 0.501,1.309c-0.103,1.026 -0.655,1.925 -1.656,2.695c-1.001,0.77 -2.092,1.437 -3.272,2.002c-1.181,0.564 -2.387,1.052 -3.619,1.463c-1.232,0.41 -2.259,0.744 -3.08,1.001c-0.154,0.308 -0.257,0.603 -0.308,0.885c-0.052,0.283 -0.103,0.552 -0.154,0.809c-0.052,0.564 0.089,0.988 0.423,1.27c0.334,0.283 0.783,0.449 1.348,0.501c0.872,0 1.873,-0.206 3.003,-0.616c1.129,-0.411 2.464,-1.13 4.004,-2.156c0.872,-0.565 1.771,-1.219 2.695,-1.964c0.924,-0.744 1.668,-1.399 2.233,-1.963c0.154,-0.154 0.333,-0.295 0.539,-0.424c0.205,-0.128 0.359,-0.141 0.462,-0.038c0.102,0.102 0.051,0.282 -0.154,0.539c-0.206,0.256 -0.36,0.436 -0.462,0.539c-0.565,0.564 -1.271,1.193 -2.118,1.886c-0.847,0.693 -1.758,1.399 -2.733,2.118c-3.337,2.207 -6.34,3.311 -9.009,3.311c-1.438,0 -2.516,-0.283 -3.234,-0.847c-0.719,-0.565 -1.053,-1.335 -1.001,-2.31c0.102,-0.719 0.308,-1.438 0.616,-2.156c0.308,-0.719 0.718,-1.412 1.232,-2.079l-0.077,0l-0.616,0.616c-0.031,0.023 -0.062,0.046 -0.093,0.069c-0.38,0.356 -0.837,0.769 -1.37,1.24c-0.873,0.77 -1.746,1.488 -2.618,2.156c-0.77,0.616 -1.797,1.283 -3.08,2.002c-1.284,0.718 -2.567,1.078 -3.85,1.078c-0.77,0 -1.374,-0.167 -1.81,-0.501c-0.436,-0.333 -0.629,-0.86 -0.577,-1.578c0.051,-0.976 0.5,-2.156 1.347,-3.542c0.847,-1.386 1.81,-2.798 2.888,-4.235l-0.077,0l-1.694,1.54c-0.565,0.513 -1.027,0.949 -1.386,1.309c-0.122,0.106 -0.232,0.188 -0.331,0.244c-0.445,0.424 -1.041,0.958 -1.787,1.604c-0.95,0.821 -1.784,1.514 -2.502,2.079c-0.77,0.616 -1.746,1.283 -2.926,2.002c-1.181,0.718 -2.413,1.078 -3.696,1.078c-0.719,0 -1.258,-0.154 -1.617,-0.462c-0.36,-0.308 -0.565,-0.693 -0.616,-1.155c-0.052,-0.411 0.025,-0.873 0.231,-1.386c0.205,-0.514 0.487,-0.976 0.847,-1.386l-0.077,0c-0.514,0.462 -1.104,0.937 -1.771,1.424c-0.668,0.488 -1.374,0.95 -2.118,1.386c-0.744,0.437 -1.514,0.796 -2.31,1.078c-0.796,0.283 -1.553,0.449 -2.271,0.501c-0.873,0.051 -1.643,-0.129 -2.31,-0.539c-0.668,-0.411 -0.95,-1.258 -0.847,-2.541c0.102,-0.565 0.308,-1.194 0.616,-1.887c0.308,-0.693 0.821,-1.45 1.54,-2.271l-0.077,0l-0.693,0.693c-0.206,0.154 -0.398,0.295 -0.578,0.423c-0.18,0.129 -0.321,0.141 -0.423,0.039c-0.103,-0.103 -0.077,-0.244 0.077,-0.424c0.154,-0.179 0.308,-0.346 0.462,-0.5c0.41,-0.411 0.834,-0.783 1.27,-1.117c0.436,-0.333 0.86,-0.654 1.271,-0.962c0.41,-0.257 0.962,-0.616 1.655,-1.078c0.693,-0.462 1.425,-0.899 2.195,-1.309c1.386,-0.719 2.759,-1.296 4.119,-1.733c1.36,-0.436 2.554,-0.577 3.581,-0.423c0.77,0.154 1.296,0.513 1.578,1.078c0.282,0.564 0.295,1.18 0.039,1.848l0.077,0c0.872,-0.976 1.655,-1.707 2.348,-2.195c0.693,-0.487 1.348,-0.731 1.964,-0.731c0.821,-0.052 1.296,0.025 1.424,0.231c0.128,0.205 -0.013,0.539 -0.423,1.001c-0.514,0.564 -1.155,1.296 -1.925,2.194c-0.77,0.899 -1.566,1.861 -2.387,2.888c-0.668,0.77 -1.194,1.437 -1.579,2.002c-0.385,0.564 -0.757,1.155 -1.116,1.771c-0.565,0.872 -0.642,1.463 -0.231,1.771c0.205,0.154 0.474,0.179 0.808,0.077c0.334,-0.103 0.655,-0.231 0.963,-0.385c0.41,-0.206 0.936,-0.526 1.578,-0.963c0.642,-0.436 1.271,-0.911 1.887,-1.424c0.821,-0.668 1.54,-1.258 2.156,-1.771c0.616,-0.514 1.129,-0.976 1.54,-1.386c0.205,-0.154 0.397,-0.308 0.577,-0.462l0.005,-0.005Zm-93.049,1.595c-0.371,0.352 -0.811,0.759 -1.319,1.22c-0.822,0.745 -1.72,1.476 -2.695,2.195c-0.822,0.616 -1.848,1.283 -3.08,2.002c-1.232,0.718 -2.49,1.078 -3.773,1.078c-0.822,0 -1.438,-0.193 -1.848,-0.578c-0.411,-0.385 -0.591,-0.86 -0.539,-1.424c0.051,-0.873 0.462,-1.797 1.232,-2.772c0.77,-0.976 1.591,-1.874 2.464,-2.695c0.462,-0.462 0.975,-0.924 1.54,-1.386c0.564,-0.462 1.09,-0.886 1.578,-1.271c0.488,-0.385 0.911,-0.731 1.271,-1.039c0.359,-0.308 0.564,-0.539 0.616,-0.693c0.154,-0.411 -0.077,-0.629 -0.693,-0.655c-0.616,-0.025 -1.412,-0.013 -2.387,0.039c-0.462,0.051 -0.822,0.064 -1.078,0.038c-0.257,-0.025 -0.488,-0.09 -0.693,-0.192c-0.308,0.359 -0.732,0.795 -1.271,1.309c-0.539,0.513 -1.091,1.052 -1.655,1.617c-0.616,0.616 -1.232,1.193 -1.848,1.732c-0.616,0.539 -1.13,1.014 -1.54,1.425c-0.514,0.41 -0.847,0.539 -1.001,0.385c-0.103,-0.103 -0.077,-0.244 0.077,-0.424c0.154,-0.179 0.308,-0.321 0.462,-0.423c0.513,-0.462 1.039,-0.95 1.578,-1.463c0.539,-0.514 1.142,-1.104 1.81,-1.771c0.513,-0.514 1.039,-1.027 1.578,-1.54c0.539,-0.514 0.937,-0.899 1.194,-1.155c-0.36,-0.257 -0.552,-0.616 -0.578,-1.078c-0.026,-0.462 0.167,-0.924 0.578,-1.386c0.718,-0.873 1.694,-1.309 2.926,-1.309c0.308,0 0.59,0.064 0.847,0.192c0.256,0.129 0.436,0.321 0.539,0.578c-0.257,0.205 -0.475,0.372 -0.655,0.5c-0.18,0.129 -0.398,0.321 -0.654,0.578c-0.514,0.564 -0.732,0.975 -0.655,1.232c0.077,0.256 0.372,0.41 0.886,0.462c1.078,0.051 2.079,0.141 3.003,0.269c0.924,0.129 1.386,0.552 1.386,1.271l0,0.077c0,0.513 -0.373,1.155 -1.117,1.925c-0.744,0.77 -1.553,1.668 -2.425,2.695c-0.616,0.718 -1.155,1.399 -1.617,2.04c-0.462,0.642 -0.796,1.168 -1.001,1.579c-0.36,0.667 -0.385,1.155 -0.077,1.463c0.154,0.102 0.397,0.115 0.731,0.038c0.334,-0.077 0.655,-0.192 0.963,-0.346c0.41,-0.257 0.936,-0.578 1.578,-0.963c0.642,-0.385 1.271,-0.834 1.887,-1.347c0.872,-0.668 1.591,-1.245 2.156,-1.733c0.311,-0.269 0.615,-0.534 0.91,-0.795l0.014,-0.013c0.245,-0.246 0.495,-0.478 0.75,-0.696c0.1,-0.127 0.235,-0.255 0.405,-0.382c0.085,-0.064 0.161,-0.106 0.229,-0.126c0.396,-0.302 0.782,-0.594 1.157,-0.875c0.41,-0.257 0.949,-0.603 1.617,-1.04c0.667,-0.436 1.36,-0.86 2.079,-1.27c1.129,-0.565 2.297,-1.078 3.503,-1.54c1.206,-0.462 2.323,-0.693 3.35,-0.693l0.077,0c0.77,0 1.347,0.231 1.732,0.693c0.385,0.462 0.552,0.898 0.501,1.309c-0.103,1.026 -0.655,1.925 -1.656,2.695c-1.001,0.77 -2.092,1.437 -3.272,2.002c-1.181,0.564 -2.387,1.052 -3.619,1.463c-1.232,0.41 -2.259,0.744 -3.08,1.001c-0.154,0.308 -0.257,0.603 -0.308,0.885c-0.052,0.283 -0.103,0.552 -0.154,0.809c-0.052,0.564 0.089,0.988 0.423,1.27c0.334,0.283 0.783,0.449 1.348,0.501c0.872,0 1.873,-0.206 3.003,-0.616c1.129,-0.411 2.464,-1.13 4.004,-2.156c0.872,-0.565 1.771,-1.219 2.695,-1.964c0.924,-0.744 1.668,-1.399 2.233,-1.963c0.154,-0.154 0.333,-0.295 0.539,-0.424c0.205,-0.128 0.359,-0.141 0.462,-0.038c0.102,0.102 0.051,0.282 -0.154,0.539c-0.206,0.256 -0.36,0.436 -0.462,0.539c-0.565,0.564 -1.271,1.193 -2.118,1.886c-0.847,0.693 -1.758,1.399 -2.733,2.118c-3.337,2.207 -6.34,3.311 -9.009,3.311c-1.438,0 -2.516,-0.283 -3.234,-0.847c-0.719,-0.565 -1.053,-1.335 -1.001,-2.31c0.102,-0.719 0.308,-1.438 0.616,-2.156c0.308,-0.719 0.718,-1.412 1.232,-2.079l-0.077,0l-0.616,0.616l-0.067,0.05Zm256.015,-4.747c1.437,-2.054 2.926,-4.017 4.466,-5.891c1.54,-1.873 3.285,-3.965 5.236,-6.275c1.334,-1.592 2.784,-3.196 4.35,-4.813c1.566,-1.617 3.17,-3.195 4.813,-4.735c0.872,-0.873 1.822,-1.309 2.849,-1.309c0.718,0 1.103,0.179 1.155,0.539c-0.514,0.513 -1.13,1.142 -1.848,1.886c-0.719,0.745 -1.476,1.553 -2.272,2.426c-0.796,0.872 -1.591,1.758 -2.387,2.656c-0.796,0.899 -1.553,1.758 -2.271,2.58c-0.616,0.718 -1.258,1.476 -1.925,2.271c-0.668,0.796 -1.386,1.656 -2.156,2.58c-0.77,0.924 -1.605,1.95 -2.503,3.08c-0.898,1.129 -1.912,2.412 -3.041,3.85c-0.616,0.77 -1.258,1.604 -1.925,2.502c-0.668,0.899 -1.297,1.771 -1.887,2.618c-0.59,0.847 -1.116,1.604 -1.578,2.272c-0.462,0.667 -0.77,1.155 -0.924,1.463c-0.565,0.872 -0.668,1.437 -0.308,1.694c0.256,0.256 0.603,0.308 1.039,0.154c0.436,-0.154 0.86,-0.36 1.271,-0.616c0.359,-0.206 0.808,-0.514 1.347,-0.924c0.539,-0.411 1.091,-0.822 1.656,-1.232c0.821,-0.668 1.54,-1.258 2.156,-1.771c0.616,-0.514 1.129,-0.976 1.54,-1.386c0.205,-0.103 0.397,-0.244 0.577,-0.424c0.18,-0.179 0.321,-0.218 0.424,-0.115c0.154,0.102 0.115,0.282 -0.116,0.539c-0.231,0.256 -0.398,0.436 -0.5,0.539c-0.462,0.462 -1.104,1.065 -1.925,1.809c-0.822,0.745 -1.72,1.476 -2.695,2.195c-0.822,0.616 -1.81,1.283 -2.965,2.002c-1.155,0.718 -2.374,1.078 -3.657,1.078l-0.077,0c-0.719,0 -1.245,-0.154 -1.579,-0.462c-0.334,-0.308 -0.526,-0.693 -0.577,-1.155c-0.052,-0.411 0.025,-0.873 0.231,-1.386c0.205,-0.514 0.487,-0.976 0.847,-1.386l-0.077,0c-0.565,0.462 -1.181,0.949 -1.848,1.463c-0.668,0.513 -1.374,0.975 -2.118,1.386c-0.744,0.41 -1.501,0.757 -2.271,1.039c-0.77,0.283 -1.515,0.449 -2.233,0.501c-0.873,0.051 -1.643,-0.129 -2.31,-0.539c-0.668,-0.411 -0.95,-1.258 -0.847,-2.541c0.102,-0.565 0.308,-1.194 0.616,-1.887c0.308,-0.693 0.821,-1.45 1.54,-2.271l-0.077,0l-0.693,0.693c-0.031,0.022 -0.06,0.045 -0.09,0.067c-0.19,0.177 -0.391,0.36 -0.603,0.549c-0.462,0.41 -0.95,0.795 -1.463,1.155c-0.616,0.462 -1.168,0.783 -1.656,0.962c-0.488,0.18 -0.911,0.321 -1.27,0.424c-0.257,0.102 -0.604,0.141 -1.04,0.115c-0.436,-0.025 -0.783,-0.115 -1.039,-0.269c-0.514,0.41 -1.104,0.834 -1.771,1.27c-0.668,0.437 -1.386,0.834 -2.156,1.194c-0.77,0.359 -1.579,0.667 -2.426,0.924c-0.847,0.256 -1.655,0.385 -2.425,0.385c-1.181,0 -2.131,-0.295 -2.849,-0.886c-0.719,-0.59 -1.027,-1.424 -0.924,-2.502c0.102,-0.873 0.346,-1.72 0.731,-2.541c0.385,-0.822 0.86,-1.566 1.425,-2.233l0,-0.077c-0.083,0.083 -0.166,0.164 -0.249,0.245c-0.034,0.054 -0.079,0.114 -0.136,0.178c-0.206,0.231 -0.36,0.398 -0.462,0.501c-0.462,0.462 -1.168,1.103 -2.118,1.925c-0.95,0.821 -1.784,1.514 -2.502,2.079c-0.77,0.616 -1.759,1.296 -2.965,2.04c-1.206,0.745 -2.451,1.117 -3.734,1.117c-0.822,0 -1.425,-0.193 -1.81,-0.578c-0.385,-0.385 -0.552,-0.86 -0.5,-1.424c0,-0.514 0.115,-1.014 0.346,-1.502c0.231,-0.487 0.501,-0.962 0.809,-1.424c0.359,-0.616 0.808,-1.245 1.347,-1.887c0.539,-0.641 1.091,-1.27 1.656,-1.886c0.564,-0.616 1.09,-1.181 1.578,-1.694c0.488,-0.514 0.886,-0.899 1.194,-1.155l0,-0.077c-0.257,0.154 -0.693,0.449 -1.309,0.885c-0.616,0.437 -1.207,0.886 -1.771,1.348c-0.565,0.462 -1.104,0.911 -1.617,1.347c-0.514,0.437 -1.104,0.963 -1.771,1.579c-0.132,0.098 -0.248,0.176 -0.347,0.232c-0.288,0.269 -0.608,0.563 -0.962,0.884c-0.822,0.745 -1.72,1.476 -2.695,2.195c-0.822,0.616 -1.848,1.283 -3.08,2.002c-1.232,0.718 -2.49,1.078 -3.773,1.078c-0.822,0 -1.438,-0.193 -1.848,-0.578c-0.411,-0.385 -0.591,-0.86 -0.539,-1.424c0.051,-0.873 0.462,-1.797 1.232,-2.772c0.77,-0.976 1.591,-1.874 2.464,-2.695c0.462,-0.462 0.975,-0.924 1.54,-1.386c0.564,-0.462 1.09,-0.886 1.578,-1.271c0.488,-0.385 0.911,-0.731 1.271,-1.039c0.359,-0.308 0.564,-0.539 0.616,-0.693c0.154,-0.411 -0.077,-0.629 -0.693,-0.655c-0.616,-0.025 -1.412,-0.013 -2.387,0.039c-0.462,0.051 -0.822,0.064 -1.078,0.038c-0.257,-0.025 -0.488,-0.09 -0.693,-0.192c-0.308,0.359 -0.732,0.795 -1.271,1.309c-0.539,0.513 -1.091,1.052 -1.655,1.617c-0.616,0.616 -1.232,1.193 -1.848,1.732c-0.235,0.205 -0.454,0.401 -0.659,0.588c-0.11,0.132 -0.199,0.231 -0.265,0.298c-0.565,0.564 -1.271,1.193 -2.118,1.886c-0.847,0.693 -1.758,1.399 -2.733,2.118c-3.337,2.207 -6.34,3.311 -9.009,3.311c-1.438,0 -2.516,-0.283 -3.234,-0.847c-0.719,-0.565 -1.053,-1.335 -1.001,-2.31c0.102,-0.719 0.308,-1.438 0.616,-2.156c0.308,-0.719 0.718,-1.412 1.232,-2.079l-0.077,0l-0.616,0.616c-0.206,0.154 -0.398,0.295 -0.578,0.423c-0.18,0.129 -0.321,0.141 -0.423,0.039c-0.103,-0.103 -0.077,-0.244 0.077,-0.424c0.154,-0.179 0.308,-0.346 0.462,-0.5c0.41,-0.411 0.834,-0.783 1.27,-1.117c0.436,-0.333 0.86,-0.654 1.271,-0.962c0.41,-0.257 0.949,-0.603 1.617,-1.04c0.667,-0.436 1.36,-0.86 2.079,-1.27c1.129,-0.565 2.297,-1.078 3.503,-1.54c1.206,-0.462 2.323,-0.693 3.35,-0.693l0.077,0c0.77,0 1.347,0.231 1.732,0.693c0.385,0.462 0.552,0.898 0.501,1.309c-0.103,1.026 -0.655,1.925 -1.656,2.695c-1.001,0.77 -2.092,1.437 -3.272,2.002c-1.181,0.564 -2.387,1.052 -3.619,1.463c-1.232,0.41 -2.259,0.744 -3.08,1.001c-0.154,0.308 -0.257,0.603 -0.308,0.885c-0.052,0.283 -0.103,0.552 -0.154,0.809c-0.052,0.564 0.089,0.988 0.423,1.27c0.334,0.283 0.783,0.449 1.348,0.501c0.872,0 1.873,-0.206 3.003,-0.616c1.129,-0.411 2.464,-1.13 4.004,-2.156c0.872,-0.565 1.771,-1.219 2.695,-1.964c0.924,-0.744 1.668,-1.399 2.233,-1.963c0.138,-0.139 0.297,-0.267 0.477,-0.384c0.135,-0.127 0.271,-0.256 0.408,-0.386c0.539,-0.514 1.142,-1.104 1.81,-1.771c0.513,-0.514 1.039,-1.027 1.578,-1.54c0.539,-0.514 0.937,-0.899 1.194,-1.155c-0.36,-0.257 -0.552,-0.616 -0.578,-1.078c-0.026,-0.462 0.167,-0.924 0.578,-1.386c0.718,-0.873 1.694,-1.309 2.926,-1.309c0.308,0 0.59,0.064 0.847,0.192c0.256,0.129 0.436,0.321 0.539,0.578c-0.257,0.205 -0.475,0.372 -0.655,0.5c-0.18,0.129 -0.398,0.321 -0.654,0.578c-0.514,0.564 -0.732,0.975 -0.655,1.232c0.077,0.256 0.372,0.41 0.886,0.462c1.078,0.051 2.079,0.141 3.003,0.269c0.924,0.129 1.386,0.552 1.386,1.271l0,0.077c0,0.513 -0.373,1.155 -1.117,1.925c-0.744,0.77 -1.553,1.668 -2.425,2.695c-0.616,0.718 -1.155,1.399 -1.617,2.04c-0.462,0.642 -0.796,1.168 -1.001,1.579c-0.36,0.667 -0.385,1.155 -0.077,1.463c0.154,0.102 0.397,0.115 0.731,0.038c0.334,-0.077 0.655,-0.192 0.963,-0.346c0.41,-0.257 0.936,-0.578 1.578,-0.963c0.642,-0.385 1.271,-0.834 1.887,-1.347c0.872,-0.668 1.591,-1.245 2.156,-1.733c0.314,-0.272 0.621,-0.539 0.92,-0.803l0.004,-0.005c0.123,-0.124 0.346,-0.322 0.669,-0.595l0.024,-0.021c0.102,-0.154 0.256,-0.308 0.462,-0.462c0.094,-0.071 0.177,-0.115 0.25,-0.131c0.337,-0.28 0.703,-0.583 1.097,-0.909c0.59,-0.487 1.194,-0.975 1.81,-1.463c0.616,-0.487 1.155,-0.885 1.617,-1.193c1.026,-0.719 1.848,-1.181 2.464,-1.386c0.616,-0.206 1.283,-0.308 2.002,-0.308c0.821,-0.052 1.296,0.013 1.424,0.192c0.128,0.18 -0.064,0.526 -0.577,1.04c-0.719,0.77 -1.386,1.553 -2.002,2.348c-0.616,0.796 -1.309,1.656 -2.079,2.58c-1.335,1.642 -2.259,2.9 -2.772,3.773c-0.462,0.872 -0.539,1.437 -0.231,1.694c0.205,0.256 0.474,0.321 0.808,0.192c0.334,-0.128 0.68,-0.269 1.04,-0.423c0.41,-0.206 0.936,-0.526 1.578,-0.963c0.642,-0.436 1.245,-0.911 1.81,-1.424c0.821,-0.668 1.54,-1.258 2.156,-1.771c0.212,-0.178 0.413,-0.349 0.601,-0.514c0.082,-0.089 0.164,-0.174 0.246,-0.256c0.41,-0.411 0.834,-0.783 1.27,-1.117c0.436,-0.333 0.86,-0.654 1.271,-0.962c0.41,-0.257 0.962,-0.616 1.655,-1.078c0.693,-0.462 1.425,-0.899 2.195,-1.309c1.18,-0.668 2.335,-1.168 3.465,-1.502c1.129,-0.333 2.13,-0.552 3.003,-0.654c0.205,-0.052 0.423,-0.064 0.654,-0.039c0.231,0.026 0.398,0.141 0.501,0.347c0,0.102 -0.103,0.179 -0.308,0.231c-0.206,0.051 -0.385,0.128 -0.539,0.231c-1.746,0.821 -3.594,2.233 -5.544,4.235c-0.565,0.513 -1.091,1.078 -1.579,1.694c-0.488,0.616 -0.937,1.232 -1.347,1.848c-0.411,0.616 -0.758,1.219 -1.04,1.809c-0.282,0.591 -0.449,1.065 -0.5,1.425c-0.103,0.872 0.256,1.309 1.078,1.309c0.872,0 1.989,-0.449 3.349,-1.348c1.36,-0.898 2.631,-2.015 3.812,-3.349c0.051,-0.411 0.166,-0.886 0.346,-1.425c0.18,-0.539 0.526,-1.142 1.04,-1.809c0.41,-0.565 0.859,-1.014 1.347,-1.348c0.488,-0.333 0.86,-0.552 1.117,-0.654c0.102,-0.257 0.166,-0.591 0.192,-1.001c0.026,-0.411 0.039,-0.719 0.039,-0.924c-0.103,-0.411 -0.18,-0.68 -0.231,-0.809c-0.052,-0.128 0,-0.218 0.154,-0.269c0.102,-0.103 0.269,-0.09 0.5,0.038c0.231,0.129 0.424,0.27 0.578,0.424c0.77,0.667 1.078,1.565 0.924,2.695c-0.103,0.924 -0.565,1.925 -1.386,3.003c-0.822,1.078 -1.823,2.156 -3.003,3.234c0.154,0.102 0.372,0.141 0.654,0.115c0.282,-0.025 0.552,-0.064 0.809,-0.115c0.256,-0.052 0.616,-0.18 1.078,-0.385c0.462,-0.206 0.975,-0.514 1.54,-0.924c0.513,-0.36 0.988,-0.745 1.424,-1.155c0.348,-0.328 0.688,-0.622 1.019,-0.884c0.271,-0.248 0.547,-0.479 0.829,-0.695c0.436,-0.333 0.86,-0.654 1.271,-0.962c0.41,-0.308 0.962,-0.68 1.655,-1.117c0.693,-0.436 1.425,-0.86 2.195,-1.27c1.334,-0.719 2.682,-1.296 4.042,-1.733c1.36,-0.436 2.58,-0.577 3.658,-0.423c0.718,0.102 1.219,0.423 1.501,0.962c0.282,0.539 0.372,1.014 0.27,1.425l0.077,0Zm-298.914,9.625c-0.514,0.205 -1.168,0.385 -1.964,0.539c-0.796,0.154 -1.681,0.295 -2.656,0.423c-0.976,0.129 -1.977,0.218 -3.003,0.27c-1.027,0.051 -2.028,0.077 -3.003,0.077c-0.514,0 -1.117,-0.026 -1.81,-0.077c-0.693,-0.052 -1.347,-0.141 -1.963,-0.27c-0.616,-0.128 -1.143,-0.308 -1.579,-0.539c-0.436,-0.231 -0.654,-0.526 -0.654,-0.885c0,-0.719 0.628,-1.142 1.886,-1.271c1.258,-0.128 2.836,-0.115 4.736,0.039c0.667,0.051 1.45,0.141 2.348,0.269c0.898,0.129 1.797,0.27 2.695,0.424c0.898,0.154 1.784,0.321 2.657,0.5c0.872,0.18 1.642,0.321 2.31,0.424l0,0.077Zm192.654,0c-0.514,0.205 -1.168,0.385 -1.964,0.539c-0.796,0.154 -1.681,0.295 -2.656,0.423c-0.976,0.129 -1.977,0.218 -3.003,0.27c-1.027,0.051 -2.028,0.077 -3.003,0.077c-0.514,0 -1.117,-0.026 -1.81,-0.077c-0.693,-0.052 -1.347,-0.141 -1.963,-0.27c-0.616,-0.128 -1.143,-0.308 -1.579,-0.539c-0.436,-0.231 -0.654,-0.526 -0.654,-0.885c0,-0.719 0.628,-1.142 1.886,-1.271c1.258,-0.128 2.836,-0.115 4.736,0.039c0.667,0.051 1.45,0.141 2.348,0.269c0.898,0.129 1.797,0.27 2.695,0.424c0.898,0.154 1.784,0.321 2.657,0.5c0.872,0.18 1.642,0.321 2.31,0.424l0,0.077Zm93.709,0.462c0.718,0 1.706,-0.36 2.964,-1.078c1.258,-0.719 2.4,-1.566 3.427,-2.541c0.616,-0.514 1.232,-1.104 1.848,-1.771c0.616,-0.668 1.18,-1.309 1.694,-1.925c0.513,-0.616 0.936,-1.194 1.27,-1.733c0.334,-0.539 0.501,-0.962 0.501,-1.27c0.051,-0.924 -0.411,-1.386 -1.386,-1.386c-0.77,0 -1.797,0.462 -3.08,1.386c-1.284,0.924 -2.618,2.079 -4.004,3.465c-1.489,1.437 -2.593,2.682 -3.311,3.734c-0.719,1.053 -1.053,1.835 -1.001,2.349c0.051,0.513 0.385,0.77 1.001,0.77l0.077,0Zm-160.006,-11.704c0.975,0 1.437,0.462 1.386,1.386c0,0.308 -0.167,0.731 -0.501,1.27c-0.334,0.539 -0.757,1.117 -1.27,1.733c-0.514,0.616 -1.078,1.257 -1.694,1.925c-0.616,0.667 -1.232,1.257 -1.848,1.771c-1.027,0.975 -2.182,1.822 -3.465,2.541c-1.284,0.718 -2.285,1.078 -3.003,1.078c-0.616,0 -0.95,-0.257 -1.001,-0.77c-0.052,-0.514 0.282,-1.296 1.001,-2.349c0.718,-1.052 1.822,-2.297 3.311,-3.734c1.386,-1.386 2.72,-2.541 4.004,-3.465c1.283,-0.924 2.284,-1.386 3.003,-1.386l0.077,0Zm-26.873,-3.619l-5.082,2.31c-1.694,0.77 -3.427,1.617 -5.198,2.541c-1.771,0.924 -3.478,1.899 -5.12,2.926c-0.873,-0.719 -1.489,-1.617 -1.848,-2.695c-0.103,-0.154 -0.142,-0.295 -0.116,-0.424c0.026,-0.128 -0.013,-0.192 -0.115,-0.192c-0.103,-0.052 -0.18,0.025 -0.231,0.231c-0.052,0.205 -0.052,0.385 0,0.539c0.154,1.129 0.693,2.104 1.617,2.926c-0.822,0.564 -1.63,1.103 -2.426,1.617c-0.796,0.513 -1.553,1.052 -2.271,1.617c-0.36,0.308 -0.732,0.616 -1.117,0.924c-0.385,0.308 -0.731,0.616 -1.039,0.924c-0.565,-0.668 -1.014,-1.527 -1.348,-2.58c-0.334,-1.052 -0.449,-2.246 -0.346,-3.58c0.154,-1.797 0.68,-3.363 1.578,-4.697c0.898,-1.335 2.002,-2.439 3.311,-3.311c1.309,-0.873 2.721,-1.553 4.235,-2.041c1.514,-0.487 2.939,-0.783 4.274,-0.885c0.924,-0.103 1.95,-0.116 3.08,-0.039c1.129,0.077 2.22,0.257 3.272,0.539c1.052,0.283 2.015,0.693 2.888,1.232c0.872,0.539 1.514,1.219 1.925,2.041l0.077,0.077Zm124.124,11.165c0.462,-0.77 1.116,-1.694 1.963,-2.772c0.847,-1.078 1.579,-1.9 2.195,-2.464c0.77,-0.719 1.437,-1.232 2.002,-1.54c0.564,-0.308 1.026,-0.488 1.386,-0.539c0.77,0 1.078,0.333 0.924,1.001c-0.052,0.564 -0.347,1.206 -0.886,1.925c-0.539,0.718 -1.296,1.411 -2.271,2.079c-0.822,0.564 -1.72,1.039 -2.695,1.424c-0.976,0.385 -1.848,0.706 -2.618,0.963l0,-0.077Zm-71.764,0c0.462,-0.77 1.116,-1.694 1.963,-2.772c0.847,-1.078 1.579,-1.9 2.195,-2.464c0.77,-0.719 1.437,-1.232 2.002,-1.54c0.564,-0.308 1.026,-0.488 1.386,-0.539c0.77,0 1.078,0.333 0.924,1.001c-0.052,0.564 -0.347,1.206 -0.886,1.925c-0.539,0.718 -1.296,1.411 -2.271,2.079c-0.822,0.564 -1.72,1.039 -2.695,1.424c-0.976,0.385 -1.848,0.706 -2.618,0.963l0,-0.077Zm-105.105,0c0.462,-0.77 1.116,-1.694 1.963,-2.772c0.847,-1.078 1.579,-1.9 2.195,-2.464c0.77,-0.719 1.437,-1.232 2.002,-1.54c0.564,-0.308 1.026,-0.488 1.386,-0.539c0.77,0 1.078,0.333 0.924,1.001c-0.052,0.564 -0.347,1.206 -0.886,1.925c-0.539,0.718 -1.296,1.411 -2.271,2.079c-0.822,0.564 -1.72,1.039 -2.695,1.424c-0.976,0.385 -1.848,0.706 -2.618,0.963l0,-0.077Zm43.582,-1.309c1.026,0 2.104,-0.167 3.234,-0.501c1.129,-0.333 2.156,-0.808 3.08,-1.424c0.924,-0.616 1.694,-1.373 2.31,-2.272c0.616,-0.898 0.949,-1.886 1.001,-2.964c0,-0.668 -0.077,-1.284 -0.231,-1.848c-0.822,0.41 -1.656,0.808 -2.503,1.193c-0.847,0.385 -1.732,0.783 -2.656,1.194c-1.284,0.616 -2.747,1.386 -4.389,2.31c-1.643,0.924 -3.311,1.95 -5.005,3.08c0.872,0.462 1.758,0.783 2.656,0.962c0.898,0.18 1.707,0.27 2.426,0.27l0.077,0Zm-72.765,-5.698c0.41,-0.308 0.705,-0.591 0.885,-0.847c0.18,-0.257 0.475,-0.616 0.886,-1.078c0.667,-0.822 1.424,-1.887 2.271,-3.196c0.847,-1.309 1.745,-2.656 2.695,-4.042c0.95,-1.386 1.912,-2.708 2.888,-3.966c0.975,-1.257 1.899,-2.271 2.772,-3.041c0.462,0.462 0.847,1.065 1.155,1.809c0.308,0.745 0.487,1.566 0.539,2.464c0.051,0.899 -0.065,1.861 -0.347,2.888c-0.282,1.026 -0.783,2.053 -1.501,3.08c-1.181,1.642 -2.567,3.003 -4.158,4.081c-1.592,1.078 -3.286,1.719 -5.082,1.925c-0.411,0.102 -0.924,0.154 -1.54,0.154c-0.616,0 -1.104,-0.052 -1.463,-0.154l0,-0.077Zm192.654,0c0.41,-0.308 0.705,-0.591 0.885,-0.847c0.18,-0.257 0.475,-0.616 0.886,-1.078c0.667,-0.822 1.424,-1.887 2.271,-3.196c0.847,-1.309 1.745,-2.656 2.695,-4.042c0.95,-1.386 1.912,-2.708 2.888,-3.966c0.975,-1.257 1.899,-2.271 2.772,-3.041c0.462,0.462 0.847,1.065 1.155,1.809c0.308,0.745 0.487,1.566 0.539,2.464c0.051,0.899 -0.065,1.861 -0.347,2.888c-0.282,1.026 -0.783,2.053 -1.501,3.08c-1.181,1.642 -2.567,3.003 -4.158,4.081c-1.592,1.078 -3.286,1.719 -5.082,1.925c-0.411,0.102 -0.924,0.154 -1.54,0.154c-0.616,0 -1.104,-0.052 -1.463,-0.154l0,-0.077Zm-64.064,-2.31c1.026,-1.386 1.963,-2.618 2.81,-3.696c0.847,-1.078 1.694,-2.156 2.541,-3.234c0.847,-1.078 1.784,-2.22 2.811,-3.427c1.026,-1.206 2.233,-2.656 3.619,-4.35c2.002,-2.413 3.85,-4.53 5.544,-6.353c1.694,-1.822 3.182,-3.375 4.466,-4.658c0.821,-0.77 1.655,-1.476 2.502,-2.118c0.847,-0.641 1.604,-0.962 2.272,-0.962c0.924,0 1.36,0.487 1.309,1.463c-0.103,0.872 -0.565,1.886 -1.386,3.041c-0.822,1.155 -1.9,2.413 -3.234,3.773c-1.335,1.361 -2.862,2.824 -4.582,4.389c-1.72,1.566 -3.503,3.144 -5.351,4.736c-0.873,0.77 -1.72,1.501 -2.541,2.194c-0.822,0.693 -1.72,1.45 -2.695,2.272c-0.976,0.821 -2.105,1.796 -3.388,2.926c-1.284,1.129 -2.849,2.489 -4.697,4.081l0,-0.077Zm122.969,-9.24c0.513,0 0.847,0.192 1.001,0.577c0.154,0.385 0,0.86 -0.462,1.425c-0.462,0.616 -1.078,1.116 -1.848,1.501c-0.77,0.385 -1.361,0.578 -1.771,0.578c-0.206,-0.257 -0.321,-0.629 -0.347,-1.117c-0.026,-0.487 0.064,-0.988 0.27,-1.501c0.256,-0.565 0.654,-0.95 1.193,-1.155c0.539,-0.206 1.168,-0.308 1.887,-0.308l0.077,0Zm-150.997,-0.539c0.77,-1.335 1.578,-2.593 2.425,-3.773c0.847,-1.181 1.63,-2.105 2.349,-2.772c1.283,-1.284 2.464,-2.002 3.542,-2.156c0.513,-0.103 0.962,-0.039 1.347,0.192c0.385,0.231 0.526,0.629 0.424,1.194c-0.103,0.616 -0.411,1.245 -0.924,1.886c-0.514,0.642 -1.181,1.258 -2.002,1.848c-0.822,0.591 -1.733,1.142 -2.734,1.656c-1.001,0.513 -2.04,1.001 -3.118,1.463c-0.206,0.102 -0.424,0.192 -0.655,0.269c-0.231,0.077 -0.449,0.167 -0.654,0.27l0,-0.077Z" style="fill:#fff;"/><g></g></svg>