<?xml version="1.0" standalone="no"?>
<!DOCTYPE svg PUBLIC "-//W3C//DTD SVG 20010904//EN"
 "http://www.w3.org/TR/2001/REC-SVG-20010904/DTD/svg10.dtd">
<svg version="1.0" xmlns="http://www.w3.org/2000/svg"
 width="16.000000pt" height="16.000000pt" viewBox="0 0 16.000000 16.000000"
 preserveAspectRatio="xMidYMid meet">
<metadata>
Created by potrace 1.11, written by Peter Selinger 2001-2013
</metadata>
<g transform="translate(0.000000,16.000000) scale(0.006154,-0.006154)"
fill="#000000" stroke="none">
<path d="M1145 2578 c-252 -41 -395 -96 -577 -220 -294 -201 -496 -531 -544
-888 -15 -110 -9 -297 12 -418 19 -109 87 -288 153 -399 288 -491 862 -734
1416 -600 328 79 641 313 806 603 209 369 230 806 55 1188 -161 352 -514 635
-886 711 -3 0 -21 4 -40 8 -19 4 -46 10 -60 13 -41 10 -281 11 -335 2z m360
-22 c11 -2 52 -11 91 -20 338 -73 663 -328 831 -652 93 -179 133 -345 138
-564 3 -123 -1 -163 -21 -264 -78 -379 -305 -687 -646 -875 -97 -53 -268 -113
-363 -128 -16 -2 -41 -7 -55 -10 -56 -12 -300 -10 -371 3 -124 22 -131 24
-224 56 -725 248 -1065 1088 -718 1773 145 287 412 523 706 624 50 18 210 56
272 65 37 5 332 -1 360 -8z"/>
<path d="M1209 2536 c-2 -2 -32 -6 -65 -9 -192 -18 -429 -115 -597 -245 -187
-143 -345 -362 -417 -580 -53 -161 -66 -245 -64 -427 5 -458 268 -870 687
-1079 467 -233 1017 -149 1400 213 165 157 286 366 347 599 20 78 33 181 34
272 1 161 -31 340 -86 480 -150 382 -518 684 -921 756 -80 14 -308 28 -318 20z
m216 -21 c285 -30 551 -159 746 -362 162 -169 254 -332 309 -543 29 -114 31
-126 36 -265 20 -470 -231 -901 -656 -1127 -102 -54 -200 -88 -360 -124 -47
-10 -305 -13 -365 -3 -439 69 -792 340 -963 739 -153 357 -116 795 96 1125
215 335 558 535 972 567 47 4 101 2 185 -7z"/>
<path d="M1148 2454 c-4 -3 -3 -18 1 -32 5 -15 7 -35 5 -44 -1 -10 4 -18 12
-18 10 0 11 6 4 26 -9 24 -8 26 10 21 12 -3 20 0 20 8 0 7 -8 12 -17 11 -11 0
-17 6 -17 17 2 17 -7 22 -18 11z"/>
<path d="M1180 2456 c0 -2 7 -7 16 -10 8 -3 12 -2 9 4 -6 10 -25 14 -25 6z"/>
<path d="M1412 2417 c-1 -21 -4 -42 -7 -46 -2 -4 2 -8 10 -8 7 0 12 8 10 18
-2 10 0 31 4 47 6 20 5 29 -4 29 -7 0 -12 -16 -13 -40z"/>
<path d="M1463 2434 c-3 -8 4 -25 16 -38 17 -18 19 -25 9 -29 -10 -4 -10 -6 0
-6 23 -2 26 30 4 45 -12 8 -19 21 -16 29 4 8 3 15 0 15 -4 0 -9 -7 -13 -16z"/>
<path d="M1500 2435 c7 -9 15 -13 17 -11 7 7 -7 26 -19 26 -6 0 -6 -6 2 -15z"/>
<path d="M1046 2418 c4 -13 8 -35 8 -49 1 -21 5 -25 23 -21 12 2 30 13 39 23
23 26 5 69 -28 68 l-23 0 23 -10 c18 -7 23 -15 20 -36 -2 -16 -10 -29 -20 -31
-12 -2 -18 7 -23 37 -4 23 -11 41 -17 41 -5 0 -6 -9 -2 -22z"/>
<path d="M1283 2421 c-10 -15 -9 -22 6 -35 20 -18 36 -21 26 -6 -3 6 -1 10 5
10 17 0 7 44 -10 48 -8 1 -20 -6 -27 -17z"/>
<path d="M1543 2414 c-4 -10 0 -20 10 -26 21 -11 22 -38 2 -38 -8 0 -15 5 -15
11 0 5 -5 7 -11 3 -8 -4 -7 -9 2 -15 43 -27 73 10 38 48 -22 23 -22 23 -2 23
12 0 24 -5 26 -10 3 -6 4 -5 3 2 -4 20 -45 22 -53 2z"/>
<path d="M968 2370 c-1 -28 0 -50 5 -50 4 0 7 8 8 18 0 9 2 32 3 50 2 17 0 32
-4 32 -5 0 -10 -23 -12 -50z"/>
<path d="M1623 2396 c-2 -11 -4 -32 -5 -45 -2 -13 3 -26 10 -28 7 -3 10 1 6
11 -3 9 -1 29 4 45 8 22 7 31 -1 34 -7 2 -13 -5 -14 -17z"/>
<path d="M990 2394 c0 -15 37 -61 44 -54 3 3 -6 19 -19 35 -13 17 -24 25 -25
19z"/>
<path d="M1682 2396 c8 -10 -11 -66 -23 -66 -5 0 -9 -5 -9 -11 0 -20 28 10 39
41 7 22 7 31 -2 36 -7 4 -9 4 -5 0z"/>
<path d="M863 2384 c-8 -4 -8 -12 3 -32 8 -15 14 -35 14 -44 0 -12 5 -15 17
-11 11 4 12 8 5 11 -14 4 -16 32 -3 32 5 0 14 -7 21 -15 7 -8 17 -15 23 -15 5
0 3 8 -5 18 -9 9 -18 26 -20 37 -3 19 -31 29 -55 19z m45 -21 c6 -19 -25 -16
-32 3 -4 11 -1 14 11 12 9 -2 18 -9 21 -15z"/>
<path d="M1200 2375 c-11 -13 -10 -14 4 -9 9 3 16 10 16 15 0 13 -6 11 -20 -6z"/>
<path d="M1450 2375 c0 -8 4 -15 10 -15 5 0 7 7 4 15 -4 8 -8 15 -10 15 -2 0
-4 -7 -4 -15z"/>
<path d="M1723 2374 c8 -8 -13 -64 -25 -64 -5 0 -6 -4 -3 -10 10 -16 22 -11
28 12 5 18 8 19 21 8 13 -10 16 -10 16 4 0 10 -4 15 -9 11 -13 -8 -21 8 -12
24 6 10 12 9 25 -4 9 -9 16 -12 16 -6 0 6 -9 15 -19 21 -21 11 -48 14 -38 4z"/>
<path d="M798 2353 c-16 -8 -28 -19 -27 -26 0 -9 2 -9 6 1 2 6 8 12 13 12 8 0
34 -59 32 -72 -1 -4 5 -5 12 -2 12 5 11 11 -5 37 -23 39 -24 45 -1 49 9 2 13
6 7 9 -5 3 -22 -1 -37 -8z"/>
<path d="M1794 2304 l-21 -43 27 -10 c41 -14 66 9 61 55 0 7 -11 18 -23 26
-22 15 -24 13 -44 -28z m56 -8 c0 -29 -17 -45 -40 -39 -18 5 -18 7 -3 38 18
37 43 37 43 1z"/>
<path d="M714 2308 l-22 -10 26 -39 c26 -39 51 -55 33 -20 -8 14 -7 22 4 31
29 24 -4 54 -41 38z m32 -34 c-6 -16 -8 -16 -20 2 -11 14 -11 21 -3 26 17 10
31 -7 23 -28z"/>
<path d="M1235 2312 c-22 -1 -65 -7 -95 -13 -30 -6 -66 -12 -80 -15 -14 -2
-59 -17 -100 -31 -269 -96 -478 -292 -590 -555 -35 -83 -72 -208 -62 -208 4 0
16 33 26 72 11 40 22 80 27 88 4 8 25 51 46 95 103 216 304 401 529 486 126
47 200 61 334 65 293 9 541 -93 750 -306 173 -177 273 -419 274 -667 1 -51 4
-93 9 -93 14 0 6 176 -12 265 -32 153 -117 339 -201 440 -89 105 -243 228
-350 277 -106 49 -238 85 -344 94 -106 9 -120 9 -161 6z"/>
<path d="M1279 2245 c-14 -37 -14 -45 -3 -45 8 0 13 6 12 13 -2 6 4 12 12 12
8 0 14 -6 13 -12 -2 -7 2 -13 8 -13 7 0 9 8 4 23 -3 12 -9 32 -12 45 -8 33
-16 27 -34 -23z"/>
<path d="M1730 2286 c0 -2 7 -6 15 -10 8 -3 15 -1 15 4 0 6 -7 10 -15 10 -8 0
-15 -2 -15 -4z"/>
<path d="M668 2255 c5 -27 -7 -32 -26 -13 -9 9 -15 9 -24 -1 -7 -7 -8 -12 -3
-11 21 4 55 -13 60 -31 4 -11 12 -16 22 -12 14 5 14 7 -1 15 -10 6 -16 22 -16
43 0 19 -4 35 -9 35 -4 0 -6 -11 -3 -25z"/>
<path d="M1918 2230 l-27 -37 23 -13 c26 -13 46 -7 46 15 0 7 5 15 11 17 14 5
3 44 -14 51 -7 3 -25 -12 -39 -33z m40 -4 c-8 -6 -13 -16 -11 -23 5 -14 -13
-26 -27 -18 -6 4 -1 18 12 35 12 16 26 26 31 23 6 -4 4 -10 -5 -17z"/>
<path d="M571 2202 l-20 -17 29 -32 c16 -18 32 -28 35 -23 3 5 1 11 -5 15 -22
14 -8 24 28 19 l37 -4 -32 10 c-18 6 -33 17 -33 25 0 23 -17 26 -39 7z m29
-18 c0 -9 -5 -14 -12 -12 -18 6 -21 28 -4 28 9 0 16 -7 16 -16z"/>
<path d="M2005 2192 c-3 -15 -13 -34 -21 -43 -13 -15 -13 -17 1 -23 9 -3 13
-2 10 4 -4 6 13 18 36 28 27 12 38 21 31 26 -7 4 -12 2 -12 -3 0 -6 -9 -11
-20 -11 -17 0 -19 3 -10 19 6 12 6 22 1 25 -5 3 -12 -6 -16 -22z"/>
<path d="M1291 1858 c0 -178 0 -333 -1 -346 l0 -23 -22 21 c-66 63 -163 79
-243 40 -67 -32 -115 -119 -115 -207 l0 -33 -245 0 c-135 0 -245 -3 -245 -8 0
-4 105 -7 233 -6 127 0 239 -3 248 -7 9 -5 19 -21 22 -36 10 -49 53 -136 96
-193 l41 -54 -28 -24 c-87 -74 -150 -114 -209 -132 -110 -34 -253 -24 -289 21
-27 33 -25 56 11 107 40 59 43 84 15 130 -16 26 -26 32 -53 32 -66 0 -108 -60
-102 -144 5 -84 41 -134 125 -178 39 -20 58 -23 150 -22 152 2 234 35 350 141
l54 50 43 -33 c24 -19 71 -46 103 -61 l60 -27 1 -66 c0 -36 0 -133 0 -217 0
-84 4 -155 8 -157 4 -3 8 91 8 209 0 118 2 218 6 221 3 4 13 4 22 0 12 -4 14
-14 10 -39 -5 -26 -3 -36 9 -40 25 -10 59 1 85 27 l24 24 18 -21 c14 -18 27
-22 76 -22 68 1 138 32 214 96 l49 41 -15 -36 c-20 -47 -19 -62 5 -86 42 -42
155 -14 263 66 36 27 68 55 71 62 7 16 1 12 -85 -49 -104 -75 -189 -93 -189
-40 0 24 12 32 97 65 85 32 133 72 133 110 0 79 -142 33 -310 -99 -102 -80
-126 -93 -185 -101 -53 -8 -64 6 -42 57 18 44 101 135 140 155 l30 16 -6 -28
c-3 -16 -9 -37 -12 -46 -13 -32 25 -35 52 -4 24 28 24 61 -1 79 -34 24 -153
-17 -217 -75 -17 -16 -33 -27 -35 -25 -5 5 127 340 137 347 4 3 125 5 268 4
144 0 261 3 261 8 0 4 -117 8 -260 8 -143 0 -260 3 -260 8 0 12 113 268 155
352 87 173 134 217 198 185 38 -19 40 -19 27 4 -16 31 -72 44 -130 32 -151
-32 -286 -150 -497 -433 l-50 -67 -28 42 -28 42 0 353 c0 193 -4 352 -8 352
-4 0 -8 -145 -8 -322z m596 -10 c-89 -66 -176 -190 -277 -394 l-71 -145 -71 3
c-68 3 -72 4 -80 30 -9 25 -1 39 83 150 133 175 255 295 348 341 82 41 111 47
68 15z m-671 -341 c52 -27 72 -57 74 -112 3 -94 19 -85 -151 -85 l-152 0 6 55
c3 34 16 74 32 100 14 25 27 45 28 45 1 0 20 6 41 14 41 14 69 10 122 -17z
m108 -167 c-19 -19 -19 -19 -17 13 4 75 3 74 21 39 15 -31 15 -34 -4 -52z m46
-20 c0 -5 -7 -10 -16 -10 -8 0 -12 5 -9 10 3 6 10 10 16 10 5 0 9 -4 9 -10z
m-88 -35 c-6 -12 -64 -88 -72 -95 -3 -3 -30 -35 -59 -72 -30 -38 -58 -68 -61
-68 -27 0 -112 234 -89 242 26 9 287 2 281 -7z m106 -48 c31 -142 31 -208 0
-293 -21 -60 -25 -64 -48 -59 -14 4 -27 8 -29 10 -3 4 -5 293 -2 363 1 23 35
44 57 35 6 -2 16 -27 22 -56z m142 50 c0 -10 -81 -200 -90 -210 -3 -4 -7 12
-8 35 -2 43 -19 148 -28 171 -3 9 15 12 61 12 36 0 65 -3 65 -8z m-237 -221
c2 -161 1 -166 -18 -160 -31 9 -124 66 -146 90 l-21 22 89 110 c48 61 89 109
91 107 2 -2 4 -78 5 -169z m754 -53 c7 -19 -48 -73 -98 -99 -27 -13 -49 -20
-49 -15 0 14 69 94 99 113 27 19 42 19 48 1z"/>
<path d="M507 2152 c-10 -10 -17 -25 -17 -34 0 -21 31 -46 54 -42 26 4 51 30
37 38 -6 4 -11 1 -11 -7 0 -22 -25 -27 -49 -11 -27 19 -27 44 -1 51 11 3 20 9
20 14 0 15 -16 10 -33 -9z"/>
<path d="M2092 2104 c-12 -8 -22 -26 -22 -38 0 -30 26 -54 41 -39 8 8 6 11 -7
10 -24 -2 -31 35 -10 52 21 17 51 9 49 -13 -1 -12 2 -15 9 -8 12 12 4 28 -21
41 -13 7 -24 6 -39 -5z"/>
<path d="M430 2044 c10 -25 9 -26 -14 -20 -14 3 -28 2 -31 -4 -4 -6 6 -10 24
-10 16 0 37 -7 46 -16 9 -9 19 -14 22 -10 4 3 -3 15 -15 26 -12 12 -22 30 -22
40 0 11 -4 20 -10 20 -6 0 -6 -9 0 -26z"/>
<path d="M2155 2030 c-10 -11 -24 -20 -31 -20 -8 0 -11 -6 -8 -15 5 -11 13 -8
37 15 18 17 35 26 40 21 13 -13 -1 -31 -17 -25 -18 7 -31 -45 -15 -60 9 -8 10
-8 5 1 -9 16 3 43 19 43 19 0 27 17 20 40 -8 25 -27 25 -50 0z"/>
<path d="M612 1974 c7 -14 25 -32 40 -40 l29 -15 -15 29 c-8 15 -26 33 -40 40
-25 11 -25 11 -14 -14z"/>
<path d="M1950 1969 c-34 -35 -33 -49 4 -30 24 13 53 61 37 61 -5 0 -24 -14
-41 -31z"/>
<path d="M346 1965 c-13 -20 -14 -25 -3 -25 8 0 26 -9 40 -20 30 -24 33 -24
40 -6 3 8 -1 13 -11 12 -10 -1 -17 7 -18 19 -2 40 -4 45 -18 45 -7 0 -21 -11
-30 -25z m38 -10 c-3 -8 -12 -11 -19 -9 -8 3 -11 12 -9 19 3 8 12 11 19 9 8
-3 11 -12 9 -19z"/>
<path d="M2230 1981 c0 -5 -12 -24 -26 -41 -15 -17 -23 -34 -19 -38 3 -4 11 1
16 11 7 11 22 17 45 17 19 0 33 4 30 9 -3 5 -15 7 -26 4 -22 -6 -26 7 -9 24 8
8 8 13 0 17 -6 4 -11 3 -11 -3z"/>
<path d="M412 1958 c2 -6 10 -14 16 -16 7 -2 10 2 6 12 -7 18 -28 22 -22 4z"/>
<path d="M2260 1890 c-14 -11 -31 -20 -37 -20 -15 0 -17 -16 -4 -24 5 -3 12 1
15 10 5 14 8 14 22 -1 33 -32 70 0 42 37 -12 16 -15 16 -38 -2z m32 -32 c-9
-9 -15 -9 -24 0 -10 10 -10 15 2 22 9 6 19 5 24 0 7 -7 6 -14 -2 -22z"/>
<path d="M276 1848 c-17 -24 -21 -39 -8 -36 13 3 62 -25 62 -36 0 -5 7 -1 15
10 18 23 19 56 3 72 -19 19 -55 14 -72 -10z m62 0 c13 -13 16 -48 4 -48 -18 0
-62 26 -62 37 0 22 40 29 58 11z"/>
<path d="M2320 1833 c5 -2 10 -9 10 -14 0 -12 -59 -41 -70 -34 -5 3 -7 -1 -4
-9 5 -14 9 -14 34 -1 16 8 36 15 44 15 12 0 13 5 7 22 -4 12 -13 23 -20 24 -6
1 -7 0 -1 -3z"/>
<path d="M231 1758 c-6 -17 -8 -29 -5 -25 4 3 23 -2 44 -13 l37 -19 12 26 c9
20 9 29 0 37 -9 8 -10 8 -5 -1 10 -18 -4 -42 -20 -36 -9 3 -13 12 -10 19 3 7
0 16 -6 20 -6 4 -8 3 -4 -4 9 -15 -13 -27 -26 -14 -8 8 -7 16 2 27 7 8 8 15 2
15 -5 0 -15 -14 -21 -32z"/>
<path d="M2332 1733 c-18 -7 -37 -11 -42 -8 -6 3 -7 -1 -4 -9 5 -12 11 -13 25
-5 24 12 27 -12 4 -31 -8 -7 -12 -17 -9 -22 3 -5 13 0 21 12 8 11 22 19 31 18
11 -2 18 5 20 21 5 33 -8 40 -46 24z m38 -18 c0 -8 -7 -15 -15 -15 -16 0 -20
12 -8 23 11 12 23 8 23 -8z"/>
<path d="M210 1702 c0 -4 15 -12 33 -17 22 -7 32 -16 32 -30 0 -21 -1 -21 -52
-10 -18 3 -33 3 -33 -2 0 -9 15 -13 65 -16 26 -2 30 2 33 26 2 15 1 27 -1 27
-3 0 -21 7 -41 15 -20 8 -36 12 -36 7z"/>
<path d="M2325 1633 c32 -8 48 -43 20 -43 -8 0 -15 -7 -15 -15 0 -11 10 -8 40
13 45 31 48 38 21 45 -14 3 -18 1 -14 -9 3 -8 0 -14 -6 -14 -6 0 -11 7 -11 15
0 10 -9 15 -27 14 -22 -1 -23 -2 -8 -6z"/>
<path d="M177 1598 c-12 -38 33 -69 47 -32 4 10 13 13 28 9 23 -6 23 -6 3 10
-19 15 -21 14 -38 -7 -15 -18 -20 -19 -27 -8 -6 9 -5 17 2 21 7 4 7 9 0 13 -6
3 -12 0 -15 -6z"/>
<path d="M2416 1563 c-8 -9 -14 -10 -51 -12 -15 -1 -25 -7 -25 -16 0 -12 4
-13 19 -5 11 5 31 10 45 10 16 0 26 6 26 15 0 17 -3 18 -14 8z"/>
<path d="M251 1552 c-1 -8 -6 -10 -13 -6 -10 5 -10 4 -1 -6 15 -16 28 -8 20
12 -4 11 -6 11 -6 0z"/>
<path d="M2421 1519 c-1 -21 -41 -32 -60 -16 -11 10 -13 9 -9 -3 5 -17 47 -24
66 -11 8 4 12 17 9 27 -4 15 -5 15 -6 3z"/>
<path d="M160 1496 c0 -33 20 -38 47 -13 26 24 43 15 25 -13 -10 -16 -9 -18 3
-14 19 8 19 38 1 54 -12 9 -18 7 -33 -9 -22 -27 -37 -27 -30 -1 3 11 1 20 -4
20 -5 0 -9 -11 -9 -24z"/>
<path d="M296 1426 c-67 -536 294 -1022 834 -1121 115 -21 302 -13 423 18 359
95 644 384 726 739 25 105 31 158 20 158 -5 0 -9 -15 -9 -32 0 -67 -50 -234
-100 -333 -43 -88 -162 -253 -182 -255 -4 0 -14 13 -22 28 -8 15 -26 33 -40
40 l-26 12 15 -30 c9 -17 19 -30 23 -30 5 0 17 -6 27 -14 17 -12 16 -15 -25
-52 -37 -34 -66 -55 -170 -124 -36 -24 -196 -86 -255 -99 -112 -25 -150 -28
-262 -26 -430 11 -808 298 -932 710 -36 119 -51 318 -31 423 4 23 4 42 0 42
-4 0 -11 -24 -14 -54z"/>
<path d="M2390 1449 c-25 -3 -39 -7 -32 -7 8 -1 10 -7 6 -14 -6 -10 -4 -10 7
0 18 17 32 15 25 -3 -3 -9 0 -15 9 -15 9 0 12 6 9 15 -4 10 0 15 11 15 12 0
16 -6 12 -20 -3 -11 -1 -20 4 -20 11 0 12 47 2 52 -5 2 -28 1 -53 -3z"/>
<path d="M150 1429 c0 -10 15 -14 45 -15 25 -1 45 2 45 7 0 5 -13 9 -29 9 -16
0 -36 3 -45 6 -10 4 -16 1 -16 -7z"/>
<path d="M2360 1400 c0 -5 5 -10 11 -10 5 0 7 5 4 10 -3 6 -8 10 -11 10 -2 0
-4 -4 -4 -10z"/>
<path d="M353 1323 c-50 -17 -54 -28 -15 -36 15 -3 35 -9 45 -12 10 -4 17 -3
17 4 0 6 -7 11 -16 11 -9 0 -14 6 -11 13 2 6 10 11 16 10 6 -2 11 4 11 12 0 8
-1 14 -2 14 -2 -1 -22 -8 -45 -16z m7 -23 c0 -5 -2 -10 -4 -10 -3 0 -8 5 -11
10 -3 6 -1 10 4 10 6 0 11 -4 11 -10z"/>
<path d="M2382 1319 l-23 -18 25 -16 c30 -20 44 -14 44 19 0 32 -18 38 -46 15z"/>
<path d="M185 1314 c-15 -11 -17 -18 -9 -32 15 -23 44 -28 44 -7 0 9 5 13 10
10 16 -10 12 4 -7 25 -16 16 -20 17 -38 4z"/>
<path d="M2194 1323 c4 -5 13 -8 19 -8 5 0 12 -6 15 -12 2 -8 -5 -13 -19 -13
-14 0 -19 -4 -13 -9 9 -10 94 8 94 19 0 7 -69 30 -90 30 -7 0 -10 -3 -6 -7z
m66 -17 c0 -3 -4 -8 -10 -11 -5 -3 -10 -1 -10 4 0 6 5 11 10 11 6 0 10 -2 10
-4z"/>
<path d="M220 1203 c0 -4 5 -15 10 -23 8 -13 10 -13 10 2 0 9 -4 20 -10 23 -5
3 -10 3 -10 -2z"/>
<path d="M157 1193 c-4 -3 -7 -18 -7 -32 0 -25 2 -26 45 -23 25 2 45 9 45 14
0 6 -7 7 -15 4 -10 -4 -19 2 -24 16 l-8 22 -5 -22 c-9 -31 -32 -28 -26 3 6 27
5 29 -5 18z"/>
<path d="M2354 1189 c-3 -5 10 -9 30 -9 19 0 41 -3 50 -6 10 -4 16 -1 16 7 0
16 -87 22 -96 8z"/>
<path d="M2356 1153 c-9 -9 -7 -51 3 -57 5 -3 20 3 34 14 14 11 28 20 31 20
11 0 6 -28 -6 -33 -8 -3 -6 -6 5 -6 12 -1 17 7 17 23 0 32 -24 40 -46 15 -9
-10 -21 -19 -26 -19 -13 0 -10 28 4 32 8 3 9 6 1 11 -5 4 -13 4 -17 0z"/>
<path d="M197 1112 c-21 -4 -39 -45 -31 -67 5 -11 13 -13 28 -9 11 4 31 8 44
8 12 0 22 5 22 12 0 9 -10 9 -40 2 -47 -12 -56 -8 -40 21 12 23 40 27 58 9 9
-9 12 -9 12 0 0 15 -31 29 -53 24z"/>
<path d="M2334 1058 c-4 -15 -1 -25 12 -35 15 -11 21 -10 40 8 16 15 23 17 27
7 4 -9 6 -7 6 5 1 22 -22 22 -44 1 -22 -22 -45 -3 -25 21 7 9 8 15 2 15 -6 0
-14 -10 -18 -22z"/>
<path d="M223 1001 c-41 -34 -41 -41 -2 -41 17 0 39 -5 50 -11 19 -10 20 -12
4 -29 -9 -10 -23 -16 -30 -14 -18 7 -28 -13 -21 -42 5 -18 10 -23 19 -16 7 5
24 12 40 16 17 4 27 13 26 24 0 10 -3 12 -6 5 -5 -14 -33 -18 -33 -5 0 4 7 15
15 26 10 14 11 24 4 38 -5 10 -14 16 -19 13 -5 -3 -11 -1 -14 4 -3 5 -16 7
-29 4 -18 -4 -16 -1 10 18 31 23 42 39 26 39 -5 -1 -23 -13 -40 -29z m37 -120
c0 -5 -7 -11 -15 -15 -9 -3 -15 0 -15 9 0 8 7 15 15 15 8 0 15 -4 15 -9z"/>
<path d="M2405 1010 c3 -5 8 -10 11 -10 2 0 4 5 4 10 0 6 -5 10 -11 10 -5 0
-7 -4 -4 -10z"/>
<path d="M2314 977 c-11 -30 1 -50 39 -63 20 -7 37 -9 37 -5 0 5 -14 11 -30
15 -34 6 -51 33 -29 46 7 5 21 4 30 -1 10 -5 25 -9 33 -9 19 0 22 16 4 17 -7
1 -28 4 -45 8 -25 6 -34 4 -39 -8z"/>
<path d="M2285 893 c-3 -9 -3 -18 0 -21 3 -3 5 0 5 6 0 6 7 9 15 6 10 -4 13
-13 10 -25 -4 -11 -2 -19 5 -19 6 0 9 4 5 9 -8 14 15 25 27 13 8 -8 7 -16 -2
-27 -7 -8 -8 -15 -2 -15 11 0 22 23 22 46 0 8 -6 14 -12 14 -7 0 -25 6 -40 14
-23 12 -27 12 -33 -1z"/>
<path d="M2256 826 c-22 -40 -18 -64 11 -83 20 -14 24 -13 48 11 24 24 34 48
18 44 -12 -2 -63 24 -63 33 0 4 5 9 12 11 8 3 8 7 2 11 -6 3 -18 -9 -28 -27z
m44 -34 c25 -20 20 -42 -9 -42 -22 0 -41 19 -41 42 0 23 22 23 50 0z"/>
<path d="M247 822 c-3 -4 3 -22 12 -41 11 -21 21 -30 25 -22 4 6 2 11 -3 11
-24 0 -9 20 24 31 19 7 35 17 35 21 0 11 -7 10 -41 -7 -29 -16 -55 -12 -44 6
4 5 4 9 1 9 -3 0 -7 -3 -9 -8z"/>
<path d="M301 746 c-10 -12 -9 -21 3 -43 8 -15 15 -23 16 -17 0 6 16 18 36 27
20 10 32 22 28 28 -5 8 -9 8 -14 -1 -6 -9 -13 -8 -32 4 -22 14 -27 15 -37 2z
m39 -15 c0 -5 -6 -14 -14 -20 -10 -9 -15 -8 -19 3 -3 8 -3 17 0 20 9 9 33 7
33 -3z"/>
<path d="M2180 691 c-17 -33 -13 -54 10 -48 13 3 20 0 20 -10 0 -22 30 -11 48
17 9 14 12 22 7 18 -4 -5 -23 3 -41 17 -32 25 -33 25 -44 6z m25 -31 c-5 -8
-11 -8 -17 -2 -6 6 -7 16 -3 22 5 8 11 8 17 2 6 -6 7 -16 3 -22z m34 -4 c9
-10 8 -15 -4 -20 -10 -4 -15 1 -15 14 0 24 4 25 19 6z"/>
<path d="M400 680 c0 -5 -16 -10 -35 -10 -19 0 -35 -4 -35 -9 0 -4 11 -6 25
-3 20 3 24 1 19 -12 -3 -9 -10 -16 -16 -16 -5 0 -6 -4 -3 -10 11 -17 23 -11
29 14 3 14 15 28 26 31 11 4 18 11 15 16 -8 12 -25 12 -25 -1z"/>
<path d="M654 670 c-25 -10 -61 -60 -42 -60 18 1 43 21 57 48 6 12 10 22 9 21
-2 0 -12 -4 -24 -9z"/>
<path d="M436 625 c-4 -14 -10 -23 -15 -21 -13 9 -32 -19 -25 -37 3 -8 11 -18
18 -20 15 -6 79 50 66 58 -5 3 -11 1 -15 -5 -13 -21 -24 -9 -18 20 7 36 -2 40
-11 5z m4 -44 c0 -12 -28 -22 -34 -12 -3 5 -3 11 1 15 9 9 33 7 33 -3z"/>
<path d="M2126 622 c-3 -5 4 -16 15 -25 10 -9 19 -23 19 -31 0 -20 17 -29 26
-15 4 7 3 9 -3 6 -6 -4 -13 3 -16 14 -5 18 -2 20 18 15 13 -3 27 -2 30 4 4 6
-6 10 -24 10 -16 0 -36 7 -45 15 -8 8 -17 11 -20 7z"/>
<path d="M511 549 l21 -21 -21 -21 c-17 -18 -25 -20 -39 -10 -9 6 -16 16 -14
23 1 6 -2 9 -7 5 -16 -10 -1 -35 26 -41 27 -7 52 11 57 42 4 23 -11 44 -30 44
-10 0 -7 -7 7 -21z"/>
<path d="M2026 514 c-9 -24 -7 -31 5 -11 12 21 42 22 59 2 16 -20 8 -50 -14
-48 -13 1 -15 -2 -7 -10 7 -7 15 -6 26 3 18 15 20 51 3 68 -17 17 -65 15 -72
-4z"/>
<path d="M1985 480 c-3 -5 -2 -10 3 -10 6 0 13 -7 16 -15 5 -13 0 -15 -29 -9
-23 4 -35 2 -35 -5 0 -6 3 -10 8 -10 24 4 42 -3 42 -16 0 -24 29 -29 50 -10
19 17 19 18 -5 37 -14 11 -25 26 -25 34 0 16 -16 19 -25 4z m43 -71 c-16 -10
-33 5 -23 21 5 8 11 8 21 -1 12 -10 12 -14 2 -20z"/>
<path d="M604 456 c-3 -8 -19 -18 -35 -21 -16 -4 -29 -11 -29 -16 0 -6 8 -6
19 1 29 15 34 13 29 -15 -3 -14 -1 -28 3 -31 5 -3 9 8 9 25 0 16 7 36 15 45
18 17 19 26 5 26 -6 0 -13 -6 -16 -14z"/>
<path d="M646 415 c-7 -18 3 -45 16 -45 5 0 6 -4 3 -10 -9 -15 -25 -12 -25 5
0 8 -4 15 -10 15 -21 0 -8 -25 25 -50 11 -8 17 -11 13 -6 -4 5 5 24 19 43 14
18 24 35 22 37 -7 6 -47 26 -52 26 -3 0 -7 -7 -11 -15z m44 -14 c0 -14 -18
-23 -30 -16 -6 4 -8 11 -5 16 8 12 35 12 35 0z"/>
<path d="M1915 397 c8 -13 12 -27 8 -31 -4 -4 0 -4 10 0 9 3 24 1 31 -5 8 -7
17 -8 20 -3 3 5 -7 15 -23 22 -16 6 -32 18 -35 26 -3 8 -10 14 -16 14 -6 0 -4
-10 5 -23z"/>
<path d="M1270 397 c0 -23 11 -48 20 -42 4 2 5 -7 2 -20 -2 -14 0 -25 5 -25
10 0 36 90 28 98 -3 4 -8 -4 -12 -16 -5 -22 -28 -26 -28 -4 0 5 -3 14 -7 18
-5 4 -8 0 -8 -9z"/>
<path d="M1846 381 c-4 -5 0 -11 6 -14 10 -3 10 -10 -1 -31 -20 -36 -3 -55 34
-38 l26 12 -20 29 c-12 16 -21 34 -21 40 0 13 -17 15 -24 2z m34 -75 c-13 -13
-35 7 -25 24 5 8 11 8 21 -1 10 -8 12 -15 4 -23z"/>
<path d="M752 338 c-20 -20 -14 -55 13 -72 27 -18 36 -20 33 -8 -1 4 6 22 16
41 15 28 15 35 4 42 -19 12 -52 11 -66 -3z m58 -6 c0 -12 -24 -62 -30 -62 -3
0 -11 4 -19 9 -21 14 2 61 29 61 11 0 20 -4 20 -8z"/>
<path d="M1925 339 c-9 -14 -2 -20 14 -10 8 6 9 11 3 15 -6 3 -14 1 -17 -5z"/>
<path d="M1778 299 c13 -35 14 -42 1 -50 -23 -15 0 -10 31 6 17 9 30 21 30 28
0 8 -3 7 -9 -2 -12 -19 -36 0 -45 34 -4 14 -10 25 -15 25 -5 0 -2 -18 7 -41z"/>
<path d="M855 313 c29 -7 36 -16 24 -33 -8 -11 -12 -12 -16 -2 -2 6 -9 10 -14
6 -13 -8 -11 -24 4 -21 6 1 12 -8 12 -20 0 -12 4 -25 8 -29 4 -4 7 1 7 12 0
10 7 31 14 46 13 25 13 29 -4 38 -10 5 -27 9 -37 9 -15 -1 -15 -2 2 -6z"/>
<path d="M1713 313 c-9 -3 -10 -10 -3 -24 8 -15 7 -19 -4 -19 -8 0 -18 5 -21
10 -3 6 -14 10 -23 10 -13 0 -12 -3 6 -16 12 -8 22 -24 22 -35 0 -13 7 -19 23
-19 34 0 38 8 22 47 -8 19 -12 39 -9 44 6 10 5 10 -13 2z m17 -74 c0 -5 -7 -9
-15 -9 -15 0 -20 12 -9 23 8 8 24 -1 24 -14z"/>
<path d="M917 240 c-8 -22 -12 -40 -8 -40 5 0 12 15 17 32 10 35 38 49 47 25
3 -8 -1 -26 -8 -40 -11 -21 -11 -26 0 -31 9 -3 16 8 20 34 8 47 2 60 -29 60
-17 0 -27 -10 -39 -40z"/>
<path d="M1625 255 c2 -36 10 -39 13 -5 1 17 -1 30 -6 30 -4 0 -7 -11 -7 -25z"/>
<path d="M1570 258 c1 -17 46 -68 60 -68 16 0 12 9 -17 37 -16 14 -27 29 -25
34 1 5 -2 9 -8 9 -5 0 -10 -6 -10 -12z"/>
<path d="M1021 247 c-8 -11 -6 -18 9 -32 11 -10 20 -22 20 -27 0 -13 -28 -9
-33 5 -3 7 -6 5 -6 -5 -1 -13 7 -18 24 -18 29 0 35 29 10 50 -8 7 -15 16 -15
21 0 16 29 9 39 -8 9 -16 10 -16 11 -2 0 27 -40 38 -59 16z"/>
<path d="M1510 247 c-34 -17 -39 -61 -10 -77 29 -15 76 -4 61 14 -6 7 -11 27
-13 44 -3 36 -3 37 -38 19z m28 -13 c-4 -3 -2 -19 2 -35 7 -25 6 -29 -10 -29
-26 0 -40 30 -31 65 0 3 11 5 23 5 12 0 19 -3 16 -6z"/>
<path d="M825 240 c3 -5 11 -10 16 -10 6 0 7 5 4 10 -3 6 -11 10 -16 10 -6 0
-7 -4 -4 -10z"/>
<path d="M1096 231 c-3 -5 3 -20 14 -34 11 -14 20 -28 20 -31 0 -11 -28 -6
-33 7 -4 9 -6 9 -6 -1 -1 -21 29 -26 47 -8 15 15 15 17 -6 32 -13 9 -21 22
-18 30 6 15 -9 20 -18 5z"/>
<path d="M1142 226 c7 -8 15 -12 17 -11 5 6 -10 25 -20 25 -5 0 -4 -6 3 -14z"/>
<path d="M1181 190 c-1 -27 2 -50 6 -50 4 0 9 23 10 50 0 28 -2 50 -6 50 -4 0
-8 -22 -10 -50z"/>
<path d="M1290 219 c-10 -17 -9 -24 4 -38 15 -14 18 -14 26 -1 14 21 12 36 -4
49 -12 10 -17 8 -26 -10z"/>
<path d="M1397 233 c-4 -3 -7 -11 -7 -17 0 -6 4 -5 9 3 16 25 39 5 38 -31 -2
-26 -6 -33 -21 -31 -10 0 -14 -3 -9 -8 4 -4 18 -6 29 -3 17 5 21 13 20 50 -1
40 -3 44 -27 44 -14 0 -29 -3 -32 -7z"/>
<path d="M1411 184 c0 -11 3 -14 6 -6 3 7 2 16 -1 19 -3 4 -6 -2 -5 -13z"/>
</g>
</svg>
