<?xml version="1.0" encoding="UTF-8" standalone="no"?><!DOCTYPE svg PUBLIC "-//W3C//DTD SVG 1.1//EN" "http://www.w3.org/Graphics/SVG/1.1/DTD/svg11.dtd"><svg width="100%" height="100%" viewBox="0 0 295 80" version="1.1" xmlns="http://www.w3.org/2000/svg" xmlns:xlink="http://www.w3.org/1999/xlink" xml:space="preserve" style="fill-rule:evenodd;clip-rule:evenodd;stroke-linejoin:round;stroke-miterlimit:1.41421;"><rect id="アートボード2" x="-387.831" y="-270" width="1767.64" height="1137.38" style="fill:none;"/><g></g><g></g><path d="M122.654,39.593c0.718,-0.667 1.514,-1.386 2.387,-2.156c0.872,-0.77 1.771,-1.54 2.695,-2.31c1.129,-1.489 2.528,-3.26 4.196,-5.313c1.668,-2.053 3.324,-4.055 4.967,-6.006c1.386,-1.591 2.861,-3.247 4.427,-4.967c1.566,-1.719 3.131,-3.375 4.697,-4.966c1.566,-1.591 3.067,-3.067 4.505,-4.428c1.437,-1.36 2.72,-2.502 3.85,-3.426c0.872,-0.719 1.873,-1.412 3.003,-2.079c1.129,-0.667 2.258,-1.001 3.388,-1.001c1.026,0 1.694,0.282 2.002,0.847c0.308,0.565 0.41,1.206 0.308,1.925c-0.154,0.924 -0.693,1.989 -1.617,3.195c-0.924,1.207 -2.105,2.516 -3.542,3.927c-1.438,1.412 -3.068,2.901 -4.89,4.466c-1.822,1.566 -3.709,3.145 -5.659,4.736c-2.362,1.951 -4.774,3.901 -7.238,5.852c-2.464,1.951 -5.134,4.184 -8.008,6.699c-0.308,0.359 -0.732,0.911 -1.271,1.655c-0.539,0.745 -1.091,1.54 -1.655,2.387c-0.565,0.847 -1.091,1.682 -1.579,2.503c-0.488,0.821 -0.834,1.489 -1.039,2.002c-0.154,0.257 -0.296,0.616 -0.424,1.078c-0.128,0.462 -0.064,0.821 0.193,1.078c0.256,0.205 0.628,0.231 1.116,0.077c0.488,-0.154 0.911,-0.334 1.271,-0.539c0.359,-0.205 0.821,-0.488 1.386,-0.847c0.564,-0.359 1.103,-0.77 1.617,-1.232c0.667,-0.513 1.347,-1.065 2.04,-1.656c0.693,-0.59 1.245,-1.09 1.656,-1.501c0.036,-0.019 0.073,-0.038 0.109,-0.058c0.179,-0.154 0.361,-0.302 0.545,-0.443c0.436,-0.333 0.86,-0.654 1.271,-0.962c0.41,-0.257 0.949,-0.603 1.617,-1.04c0.667,-0.436 1.36,-0.859 2.079,-1.27c1.129,-0.565 2.297,-1.078 3.503,-1.54c1.206,-0.462 2.323,-0.693 3.35,-0.693l0.077,0c0.77,0 1.347,0.231 1.732,0.693c0.385,0.462 0.552,0.898 0.501,1.309c-0.103,1.027 -0.655,1.925 -1.656,2.695c-1.001,0.77 -2.092,1.437 -3.272,2.002c-1.181,0.565 -2.387,1.052 -3.619,1.463c-1.232,0.411 -2.259,0.744 -3.08,1.001c-0.154,0.308 -0.257,0.603 -0.308,0.885c-0.052,0.283 -0.103,0.552 -0.154,0.809c-0.052,0.565 0.089,0.988 0.423,1.27c0.334,0.283 0.783,0.45 1.348,0.501c0.872,0 1.873,-0.205 3.003,-0.616c1.129,-0.411 2.464,-1.129 4.004,-2.156c0.872,-0.565 1.771,-1.219 2.695,-1.964c0.924,-0.744 1.668,-1.398 2.233,-1.963c0.154,-0.154 0.333,-0.295 0.539,-0.424c0.205,-0.128 0.359,-0.141 0.462,-0.038c0.102,0.103 0.051,0.282 -0.154,0.539c-0.206,0.257 -0.36,0.436 -0.462,0.539c-0.565,0.565 -1.271,1.193 -2.118,1.886c-0.847,0.693 -1.758,1.399 -2.733,2.118c-3.337,2.207 -6.34,3.311 -9.009,3.311c-1.438,0 -2.516,-0.282 -3.234,-0.847c-0.719,-0.565 -1.053,-1.335 -1.001,-2.31c0.102,-0.719 0.308,-1.437 0.616,-2.156c0.308,-0.719 0.718,-1.412 1.232,-2.079l-0.077,0l-0.616,0.616c-0.032,0.023 -0.062,0.046 -0.093,0.069c-0.38,0.356 -0.837,0.769 -1.37,1.24c-0.873,0.77 -1.746,1.489 -2.618,2.156c-0.77,0.616 -1.797,1.283 -3.08,2.002c-1.284,0.719 -2.567,1.078 -3.85,1.078c-0.77,0 -1.374,-0.167 -1.81,-0.501c-0.436,-0.333 -0.629,-0.859 -0.577,-1.578c0.051,-0.975 0.5,-2.156 1.347,-3.542c0.847,-1.386 1.809,-2.798 2.888,-4.235l-0.077,0l-1.694,1.54c-0.565,0.513 -1.027,0.95 -1.386,1.309l-0.005,0.004c-0.196,0.193 -0.452,0.436 -0.765,0.727c-0.36,0.334 -0.758,0.693 -1.194,1.078c-0.436,0.385 -0.885,0.758 -1.347,1.117c-0.462,0.359 -0.899,0.693 -1.309,1.001c-0.822,0.616 -1.848,1.283 -3.08,2.002c-1.232,0.719 -2.516,1.078 -3.85,1.078c-0.976,0 -1.656,-0.231 -2.041,-0.693c-0.385,-0.462 -0.526,-0.975 -0.423,-1.54c0.102,-0.821 0.513,-1.707 1.232,-2.657c0.718,-0.949 1.437,-1.783 2.156,-2.502c0.616,-0.719 1.257,-1.437 1.925,-2.156c0.667,-0.719 1.129,-1.283 1.386,-1.694c0.359,-0.513 0.359,-0.847 0,-1.001c-0.154,-0.103 -0.411,-0.103 -0.77,0c-0.36,0.103 -0.668,0.231 -0.924,0.385c-1.232,0.565 -2.516,1.399 -3.85,2.502c-1.335,1.104 -2.721,2.4 -4.158,3.889c-0.616,0.667 -1.348,1.514 -2.195,2.541c-0.847,1.027 -1.771,2.156 -2.772,3.388c-1.001,1.232 -2.028,2.528 -3.08,3.888c-1.052,1.361 -2.092,2.734 -3.118,4.12c-1.694,2.31 -3.376,4.581 -5.044,6.814c-1.668,2.233 -3.093,4.197 -4.273,5.891c-0.616,0.924 -1.245,1.835 -1.887,2.733c-0.642,0.899 -1.258,1.746 -1.848,2.541c-0.59,0.796 -1.129,1.489 -1.617,2.079c-0.488,0.591 -0.911,1.04 -1.27,1.348c-0.308,0.257 -0.655,0.475 -1.04,0.654c-0.385,0.18 -0.783,0.219 -1.193,0.116c-0.873,-0.257 -1.309,-0.796 -1.309,-1.617c-0.052,-0.359 0,-0.796 0.154,-1.309c0.154,-0.513 0.372,-1.052 0.654,-1.617c0.282,-0.565 0.603,-1.155 0.963,-1.771c0.359,-0.616 0.744,-1.206 1.155,-1.771c1.026,-1.489 1.899,-2.772 2.618,-3.85c0.718,-1.078 1.45,-2.143 2.194,-3.196c0.744,-1.052 1.579,-2.207 2.503,-3.465c0.924,-1.257 2.079,-2.81 3.465,-4.658c0.924,-1.283 2.104,-2.875 3.542,-4.774c1.437,-1.899 2.938,-3.863 4.504,-5.891c1.566,-2.027 3.08,-3.978 4.543,-5.852c1.463,-1.873 2.682,-3.426 3.658,-4.658l-0.077,0c-1.746,1.643 -3.286,3.067 -4.62,4.273c-1.227,1.109 -2.172,1.969 -2.835,2.579c-0.418,0.447 -1.052,1.038 -1.901,1.772c-0.95,0.821 -1.835,1.514 -2.656,2.079c-0.77,0.616 -1.771,1.283 -3.003,2.002c-1.232,0.719 -2.516,1.078 -3.85,1.078l-0.077,0c-0.719,0 -1.284,-0.193 -1.694,-0.578c-0.411,-0.385 -0.591,-0.859 -0.539,-1.424c0.102,-0.873 0.5,-1.784 1.193,-2.734c0.693,-0.949 1.373,-1.835 2.041,-2.656c0.564,-0.719 1.129,-1.386 1.694,-2.002c0.564,-0.616 1.078,-1.206 1.54,-1.771c0.154,-0.205 0.256,-0.411 0.308,-0.616c0.051,-0.205 -0.026,-0.359 -0.231,-0.462c-0.206,-0.103 -0.527,-0.077 -0.963,0.077c-0.436,0.154 -0.783,0.282 -1.039,0.385c-0.719,0.359 -1.592,0.86 -2.618,1.501c-1.027,0.642 -2.156,1.451 -3.388,2.426c-0.873,0.667 -1.643,1.283 -2.31,1.848c-0.668,0.565 -1.335,1.116 -2.002,1.655c-0.668,0.539 -1.348,1.091 -2.041,1.656c-0.693,0.565 -1.45,1.181 -2.271,1.848c-0.514,0.462 -1.181,0.693 -2.002,0.693c-0.616,0 -1.001,-0.077 -1.155,-0.231c-0.154,-0.154 -0.103,-0.488 0.154,-1.001c0.41,-0.821 1.013,-1.81 1.809,-2.965c0.796,-1.155 1.527,-2.168 2.195,-3.041c0.667,-0.77 1.244,-1.412 1.732,-1.925c0.488,-0.513 1.014,-1.129 1.579,-1.848c0.154,-0.205 0.218,-0.424 0.192,-0.655c-0.026,-0.231 -0.115,-0.372 -0.269,-0.423c-0.206,-0.103 -0.514,-0.077 -0.924,0.077c-0.411,0.154 -0.745,0.282 -1.001,0.385c-0.719,0.359 -1.605,0.873 -2.657,1.54c-1.052,0.667 -2.169,1.463 -3.349,2.387c-0.873,0.667 -1.643,1.283 -2.31,1.848c-0.668,0.565 -1.335,1.116 -2.002,1.655c-0.668,0.539 -1.348,1.091 -2.041,1.656c-0.693,0.565 -1.45,1.181 -2.271,1.848c-0.616,0.462 -1.284,0.693 -2.002,0.693c-0.565,0 -0.95,-0.064 -1.155,-0.193c-0.206,-0.128 -0.154,-0.474 0.154,-1.039c0.41,-0.719 0.898,-1.527 1.463,-2.426c0.564,-0.898 1.206,-1.809 1.925,-2.733c0.616,-0.821 1.129,-1.489 1.54,-2.002c0.41,-0.513 0.949,-1.181 1.617,-2.002c0.564,-0.616 0.718,-1.052 0.462,-1.309c-0.103,-0.154 -0.27,-0.205 -0.501,-0.154c-0.231,0.051 -0.449,0.128 -0.654,0.231c-0.411,0.205 -0.899,0.5 -1.463,0.885c-0.565,0.385 -1.078,0.783 -1.54,1.194c-0.565,0.513 -1.155,1.027 -1.771,1.54c-0.168,0.139 -0.333,0.28 -0.496,0.423c-0.031,0.048 -0.072,0.099 -0.12,0.154c-0.206,0.231 -0.36,0.398 -0.462,0.501c-0.462,0.462 -1.168,1.104 -2.118,1.925c-0.95,0.821 -1.784,1.514 -2.502,2.079c-0.77,0.616 -1.759,1.296 -2.965,2.04c-1.206,0.745 -2.451,1.117 -3.734,1.117c-0.822,0 -1.425,-0.193 -1.81,-0.578c-0.385,-0.385 -0.552,-0.859 -0.5,-1.424c0,-0.513 0.115,-1.014 0.346,-1.502c0.231,-0.487 0.501,-0.962 0.809,-1.424c0.359,-0.616 0.808,-1.245 1.347,-1.887c0.539,-0.641 1.091,-1.27 1.656,-1.886c0.564,-0.616 1.09,-1.181 1.578,-1.694c0.488,-0.513 0.886,-0.898 1.194,-1.155l0,-0.077c-0.257,0.154 -0.693,0.449 -1.309,0.885c-0.616,0.437 -1.207,0.886 -1.771,1.348c-0.565,0.462 -1.104,0.911 -1.617,1.347c-0.514,0.437 -1.104,0.963 -1.771,1.579c-0.411,0.308 -0.668,0.411 -0.77,0.308c-0.103,-0.103 -0.103,-0.231 0,-0.385c0.102,-0.154 0.231,-0.334 0.385,-0.539c0.154,-0.154 0.462,-0.424 0.924,-0.809c0.462,-0.385 0.988,-0.821 1.578,-1.309c0.59,-0.487 1.194,-0.975 1.81,-1.463c0.616,-0.487 1.155,-0.885 1.617,-1.193c1.026,-0.719 1.848,-1.181 2.464,-1.386c0.616,-0.205 1.283,-0.308 2.002,-0.308c0.821,-0.051 1.296,0.013 1.424,0.192c0.128,0.18 -0.064,0.527 -0.577,1.04c-0.719,0.77 -1.386,1.553 -2.002,2.348c-0.616,0.796 -1.309,1.656 -2.079,2.58c-1.335,1.643 -2.259,2.9 -2.772,3.773c-0.462,0.873 -0.539,1.437 -0.231,1.694c0.205,0.257 0.474,0.321 0.808,0.192c0.334,-0.128 0.68,-0.269 1.04,-0.423c0.41,-0.205 0.936,-0.526 1.578,-0.963c0.642,-0.436 1.245,-0.911 1.81,-1.424c0.821,-0.667 1.54,-1.258 2.156,-1.771c0.147,-0.123 0.289,-0.243 0.425,-0.36c0.14,-0.18 0.281,-0.316 0.422,-0.41c0.564,-0.565 1.244,-1.206 2.04,-1.925c0.796,-0.719 1.579,-1.412 2.349,-2.079c1.026,-0.821 1.989,-1.463 2.887,-1.925c0.898,-0.462 1.733,-0.693 2.503,-0.693c0.718,0 1.219,0.192 1.501,0.577c0.282,0.385 0.424,0.783 0.424,1.194c0,0.462 -0.167,0.975 -0.501,1.54c-0.334,0.565 -0.706,1.129 -1.116,1.694c-0.565,0.77 -1.155,1.553 -1.771,2.348c-0.616,0.796 -1.13,1.502 -1.54,2.118l0.231,0.077c0.924,-0.77 1.925,-1.604 3.003,-2.503c1.078,-0.898 2.284,-1.86 3.619,-2.887c1.334,-1.027 2.772,-1.976 4.312,-2.849c1.54,-0.873 2.874,-1.309 4.004,-1.309c0.975,0 1.655,0.205 2.04,0.616c0.385,0.411 0.526,0.95 0.424,1.617c-0.103,0.616 -0.475,1.309 -1.117,2.079c-0.642,0.77 -1.27,1.54 -1.886,2.31c-0.565,0.719 -1.001,1.258 -1.309,1.617c-0.308,0.359 -0.642,0.77 -1.001,1.232l0.231,0.077c0.924,-0.77 1.925,-1.604 3.003,-2.503c1.078,-0.898 2.284,-1.86 3.619,-2.887c1.334,-1.027 2.784,-1.976 4.35,-2.849c1.566,-0.873 2.913,-1.309 4.043,-1.309c0.872,0 1.514,0.18 1.925,0.539c0.41,0.359 0.564,0.873 0.462,1.54c-0.103,0.719 -0.488,1.489 -1.155,2.31c-0.668,0.821 -1.309,1.617 -1.925,2.387c-1.284,1.54 -2.131,2.644 -2.541,3.311c-0.565,0.873 -0.668,1.437 -0.308,1.694c0.205,0.154 0.487,0.192 0.847,0.115c0.359,-0.077 0.718,-0.192 1.078,-0.346c0.41,-0.205 0.924,-0.513 1.54,-0.924c0.616,-0.411 1.309,-0.898 2.079,-1.463c0.564,-0.462 1.206,-1.001 1.925,-1.617c0.718,-0.616 1.309,-1.129 1.771,-1.54c0.067,-0.034 0.132,-0.07 0.197,-0.109c0.169,-0.163 0.36,-0.345 0.573,-0.546c0.462,-0.436 0.962,-0.911 1.501,-1.424c0.539,-0.513 1.065,-1.001 1.579,-1.463c0.513,-0.462 0.949,-0.873 1.309,-1.232c0.718,-0.667 1.745,-1.604 3.08,-2.811c1.334,-1.206 2.643,-2.399 3.927,-3.58c0.359,-0.308 0.808,-0.642 1.347,-1.001c0.539,-0.359 1.091,-0.539 1.656,-0.539c0.872,-0.051 1.244,0.064 1.116,0.346c-0.128,0.283 -0.526,0.809 -1.193,1.579c-1.13,1.335 -2.452,2.939 -3.966,4.812c-1.514,1.874 -3.131,3.927 -4.851,6.16c-1.72,2.233 -3.516,4.582 -5.39,7.046c-1.874,2.464 -3.734,4.954 -5.582,7.469c-1.694,2.31 -3.119,4.261 -4.274,5.852c-1.155,1.591 -2.22,3.08 -3.195,4.466c-0.976,1.386 -1.951,2.81 -2.926,4.273c-0.976,1.463 -2.105,3.196 -3.388,5.198c-0.308,0.513 -0.488,0.885 -0.539,1.116c-0.052,0.231 -0.052,0.373 0,0.424c0.256,0.154 0.616,0 1.078,-0.462c0.256,-0.308 0.616,-0.757 1.078,-1.348c0.462,-0.59 0.962,-1.27 1.501,-2.04c0.539,-0.77 1.104,-1.591 1.694,-2.464c0.59,-0.873 1.168,-1.694 1.733,-2.464c0.821,-1.078 2.04,-2.721 3.657,-4.928c1.617,-2.207 3.35,-4.543 5.198,-7.007c1.591,-2.105 3.169,-4.158 4.735,-6.16c1.566,-2.002 3.093,-3.876 4.582,-5.621c1.026,-1.181 2.156,-2.374 3.388,-3.581c1.232,-1.206 2.361,-2.194 3.388,-2.964c1.078,-0.77 2.194,-1.463 3.349,-2.079c1.155,-0.616 2.246,-0.924 3.273,-0.924c1.796,0 2.566,0.667 2.31,2.002c-0.103,0.667 -0.475,1.399 -1.117,2.194c-0.642,0.796 -1.322,1.605 -2.04,2.426c-0.616,0.719 -1.155,1.347 -1.617,1.886c-0.462,0.539 -0.822,1.014 -1.078,1.425c-0.565,0.873 -0.642,1.463 -0.231,1.771c0.41,0.308 1.103,0.231 2.079,-0.231c0.462,-0.257 0.988,-0.578 1.578,-0.963c0.59,-0.385 1.245,-0.834 1.964,-1.347c0.667,-0.565 1.334,-1.129 2.002,-1.694c0.667,-0.565 1.232,-1.052 1.694,-1.463l0,0Zm-89.474,-9.471c-0.565,-0.821 -1.335,-1.514 -2.31,-2.079c-0.976,-0.565 -2.054,-1.001 -3.234,-1.309c-1.181,-0.308 -2.375,-0.501 -3.581,-0.578c-1.206,-0.077 -2.323,-0.064 -3.349,0.039c-1.438,0.103 -3.055,0.423 -4.851,0.962c-1.797,0.539 -3.504,1.309 -5.121,2.31c-1.617,1.001 -3.003,2.221 -4.158,3.658c-1.155,1.437 -1.809,3.106 -1.963,5.005c-0.103,1.643 0.141,3.08 0.731,4.312c0.59,1.232 1.296,2.207 2.118,2.926c-1.438,1.335 -2.657,2.669 -3.658,4.004c-1.001,1.335 -1.707,2.567 -2.117,3.696c-0.052,0.103 -0.09,0.269 -0.116,0.5c-0.026,0.231 0.013,0.373 0.116,0.424c0.154,0.051 0.359,-0.18 0.616,-0.693c0.462,-1.027 1.244,-2.156 2.348,-3.388c1.104,-1.232 2.374,-2.49 3.812,-3.773c1.694,1.181 3.696,1.938 6.006,2.271c2.31,0.334 4.491,0.45 6.545,0.347c2.515,-0.154 4.94,-0.578 7.276,-1.271c2.336,-0.693 4.569,-1.706 6.699,-3.041c2.13,-1.335 4.107,-3.029 5.929,-5.082c1.822,-2.053 3.478,-4.517 4.967,-7.392c0.616,-1.181 1.283,-2.477 2.002,-3.889c0.718,-1.411 1.437,-2.784 2.156,-4.119c0.359,-0.103 0.705,-0.231 1.039,-0.385c0.334,-0.154 0.68,-0.308 1.04,-0.462c2.618,-1.078 4.812,-2.297 6.583,-3.658c1.771,-1.36 2.708,-2.682 2.811,-3.965c0.102,-0.873 -0.154,-1.45 -0.77,-1.733c-0.616,-0.282 -1.232,-0.397 -1.848,-0.346c-1.592,0.154 -3.183,0.77 -4.774,1.848c-1.54,1.078 -3.068,2.451 -4.582,4.119c-1.514,1.669 -2.964,3.581 -4.35,5.737c-2.054,0.821 -4.03,1.643 -5.929,2.464c-1.9,0.821 -3.902,1.694 -6.006,2.618l-0.077,-0.077Zm-10.241,11.242l-0.077,0c-0.924,0 -1.913,-0.128 -2.965,-0.385c-1.052,-0.257 -2.015,-0.667 -2.887,-1.232c-0.822,0.565 -1.605,1.104 -2.349,1.617c-0.744,0.513 -1.501,1.052 -2.271,1.617c-0.411,0.308 -0.835,0.629 -1.271,0.962c-0.436,0.334 -0.86,0.681 -1.27,1.04c1.437,1.386 3.259,2.284 5.467,2.695c2.207,0.411 4.337,0.539 6.391,0.385c4.106,-0.359 7.712,-1.861 10.818,-4.505c3.106,-2.643 6.045,-6.532 8.817,-11.665c0.564,-1.027 1.129,-2.002 1.694,-2.926c0.564,-0.924 1.129,-1.822 1.694,-2.695l0,-0.077c-1.9,0.77 -3.735,1.54 -5.506,2.31c-1.771,0.77 -3.606,1.591 -5.505,2.464c0.308,0.719 0.462,1.514 0.462,2.387c-0.052,1.283 -0.437,2.425 -1.155,3.426c-0.719,1.001 -1.617,1.836 -2.695,2.503c-1.078,0.667 -2.272,1.181 -3.581,1.54c-1.309,0.359 -2.579,0.539 -3.811,0.539Zm164.087,-26.334c-1.951,0 -3.94,0.449 -5.968,1.347c-2.028,0.899 -3.863,1.964 -5.505,3.196c-1.643,1.335 -3.029,2.9 -4.158,4.697c-1.13,1.797 -1.797,3.491 -2.002,5.082c-0.154,1.335 0.012,2.464 0.5,3.388c0.488,0.924 1.425,1.437 2.811,1.54c0.718,0.051 1.45,-0.064 2.194,-0.347c0.744,-0.282 1.463,-0.641 2.156,-1.078c0.693,-0.436 1.36,-0.949 2.002,-1.54c0.642,-0.59 1.245,-1.167 1.81,-1.732c0.872,-0.924 1.629,-1.989 2.271,-3.196c0.642,-1.206 1.014,-2.22 1.117,-3.041c0.102,-0.873 -0.026,-1.54 -0.385,-2.002c-0.103,-0.154 -0.193,-0.257 -0.27,-0.308c-0.077,-0.051 -0.064,-0.128 0.039,-0.231c0.102,-0.257 0.308,-0.18 0.616,0.231c0.102,0.103 0.295,0.398 0.577,0.885c0.282,0.488 0.372,1.168 0.27,2.041c-0.052,1.027 -0.373,2.117 -0.963,3.272c-0.59,1.155 -1.322,2.221 -2.194,3.196c-0.514,0.565 -1.13,1.116 -1.848,1.655c-0.719,0.539 -1.489,1.04 -2.31,1.502c-0.822,0.462 -1.682,0.821 -2.58,1.078c-0.898,0.257 -1.784,0.359 -2.656,0.308c-1.746,-0.103 -3.029,-0.68 -3.85,-1.733c-0.822,-1.052 -1.13,-2.399 -0.924,-4.042c0.205,-1.54 0.924,-3.234 2.156,-5.082c1.232,-1.848 2.874,-3.542 4.928,-5.082c1.848,-1.386 3.862,-2.515 6.044,-3.388c2.182,-0.873 4.274,-1.309 6.276,-1.309c1.078,0 2.168,0.115 3.272,0.346c1.104,0.231 2.079,0.655 2.926,1.271c0.847,0.616 1.502,1.45 1.964,2.502c0.462,1.053 0.59,2.375 0.385,3.966c-0.103,1.181 -0.642,2.656 -1.617,4.427c-0.976,1.771 -2.156,3.607 -3.542,5.506c-1.386,1.899 -2.849,3.747 -4.389,5.544c-1.54,1.797 -2.952,3.337 -4.235,4.62l0,0.077c1.232,-0.873 2.528,-1.81 3.888,-2.811c1.36,-1.001 2.99,-2.194 4.89,-3.58c1.642,-1.181 3.336,-2.413 5.082,-3.696c1.745,-1.283 3.234,-2.413 4.466,-3.388c0.462,-1.335 0.962,-2.657 1.501,-3.966c0.539,-1.309 1.168,-2.528 1.887,-3.657c0.924,-1.489 1.86,-2.592 2.81,-3.311c0.95,-0.719 1.835,-1.078 2.657,-1.078c0.718,0 1.27,0.282 1.655,0.847c0.385,0.565 0.424,1.309 0.116,2.233c-0.257,0.77 -0.668,1.527 -1.232,2.271c-0.565,0.745 -1.194,1.438 -1.887,2.079c-0.693,0.642 -1.386,1.258 -2.079,1.848c-0.693,0.591 -1.296,1.143 -1.809,1.656c-0.308,1.181 -0.629,2.451 -0.963,3.811c-0.334,1.361 -0.706,2.695 -1.116,4.004c-0.411,1.309 -0.86,2.554 -1.348,3.735c-0.488,1.181 -1.039,2.182 -1.655,3.003l0,0.077c0.667,-0.616 1.54,-1.412 2.618,-2.387c1.078,-0.975 2.258,-2.015 3.542,-3.119c1.283,-1.103 2.592,-2.245 3.927,-3.426c1.334,-1.181 2.592,-2.284 3.773,-3.311c1.848,-1.694 3.413,-3.26 4.697,-4.697c1.283,-1.437 2.335,-2.772 3.157,-4.004c0.821,-1.232 1.45,-2.323 1.886,-3.273c0.436,-0.949 0.706,-1.758 0.809,-2.425c0.102,-0.565 0.115,-1.078 0.038,-1.54c-0.077,-0.462 -0.244,-0.821 -0.5,-1.078c-0.257,-0.257 -0.514,-0.385 -0.77,-0.385c-0.206,0 -0.283,-0.051 -0.231,-0.154c0.051,-0.103 0.166,-0.167 0.346,-0.193c0.18,-0.025 0.321,-0.038 0.424,-0.038c1.129,0 1.963,0.372 2.502,1.116c0.539,0.745 0.757,1.63 0.655,2.657c-0.206,1.591 -1.232,3.619 -3.08,6.083c-1.848,2.464 -4.903,5.441 -9.163,8.932c-3.08,2.515 -6.071,5.005 -8.971,7.469c-2.9,2.464 -5.608,4.902 -8.123,7.315c-0.257,0.257 -0.565,0.513 -0.924,0.77c-0.36,0.257 -0.77,0.385 -1.232,0.385c-0.411,0 -0.629,-0.141 -0.655,-0.424c-0.026,-0.282 0.09,-0.577 0.347,-0.885c0.667,-0.873 1.27,-1.976 1.809,-3.311c0.539,-1.335 1.04,-2.721 1.502,-4.158c0.462,-1.437 0.911,-2.875 1.347,-4.312c0.436,-1.437 0.886,-2.695 1.348,-3.773l0,-0.077c-0.36,0.308 -0.899,0.744 -1.617,1.309c-0.719,0.565 -1.54,1.193 -2.464,1.886c-0.924,0.693 -1.9,1.425 -2.926,2.195c-1.027,0.77 -2.002,1.489 -2.926,2.156c-0.822,0.565 -1.823,1.283 -3.003,2.156c-1.181,0.873 -2.387,1.745 -3.619,2.618c-1.232,0.873 -2.413,1.707 -3.542,2.502c-1.13,0.796 -2.054,1.425 -2.772,1.887c-0.257,0.154 -0.527,0.321 -0.809,0.5c-0.282,0.18 -0.552,0.27 -0.808,0.27c-0.462,0 -0.732,-0.154 -0.809,-0.462c-0.077,-0.308 0.039,-0.642 0.347,-1.001c1.488,-1.54 3.067,-3.273 4.735,-5.198c1.668,-1.925 3.35,-4.093 5.044,-6.506c1.694,-2.413 3.208,-4.838 4.543,-7.277c1.334,-2.438 2.156,-4.632 2.464,-6.583c0.308,-2.002 0,-3.478 -0.924,-4.428c-0.924,-0.949 -2.156,-1.424 -3.696,-1.424l-0.077,0Zm58.016,24.459c0.689,-0.638 1.447,-1.322 2.275,-2.052c0.872,-0.77 1.771,-1.54 2.695,-2.31c1.129,-1.489 2.528,-3.26 4.196,-5.313c1.668,-2.053 3.324,-4.055 4.967,-6.006c1.386,-1.591 2.861,-3.247 4.427,-4.967c1.566,-1.719 3.131,-3.375 4.697,-4.966c1.566,-1.591 3.067,-3.067 4.505,-4.428c1.437,-1.36 2.72,-2.502 3.85,-3.426c0.872,-0.719 1.873,-1.412 3.003,-2.079c1.129,-0.667 2.258,-1.001 3.388,-1.001c1.026,0 1.694,0.282 2.002,0.847c0.308,0.565 0.41,1.206 0.308,1.925c-0.154,0.924 -0.693,1.989 -1.617,3.195c-0.924,1.207 -2.105,2.516 -3.542,3.927c-1.438,1.412 -3.068,2.901 -4.89,4.466c-1.822,1.566 -3.709,3.145 -5.659,4.736c-2.362,1.951 -4.774,3.901 -7.238,5.852c-2.464,1.951 -5.134,4.184 -8.008,6.699c-0.308,0.359 -0.732,0.911 -1.271,1.655c-0.539,0.745 -1.091,1.54 -1.655,2.387c-0.565,0.847 -1.091,1.682 -1.579,2.503c-0.488,0.821 -0.834,1.489 -1.039,2.002c-0.154,0.257 -0.296,0.616 -0.424,1.078c-0.128,0.462 -0.064,0.821 0.193,1.078c0.256,0.205 0.628,0.231 1.116,0.077c0.488,-0.154 0.911,-0.334 1.271,-0.539c0.359,-0.205 0.821,-0.488 1.386,-0.847c0.564,-0.359 1.103,-0.77 1.617,-1.232c0.667,-0.513 1.347,-1.065 2.04,-1.656c0.693,-0.59 1.245,-1.09 1.656,-1.501c0.036,-0.019 0.073,-0.038 0.109,-0.058c0.179,-0.154 0.361,-0.302 0.545,-0.443c0.436,-0.333 0.86,-0.654 1.271,-0.962c0.41,-0.257 0.949,-0.603 1.617,-1.04c0.667,-0.436 1.36,-0.859 2.079,-1.27c1.129,-0.565 2.297,-1.078 3.503,-1.54c1.206,-0.462 2.323,-0.693 3.35,-0.693l0.077,0c0.77,0 1.347,0.231 1.732,0.693c0.385,0.462 0.552,0.898 0.501,1.309c-0.103,1.027 -0.655,1.925 -1.656,2.695c-1.001,0.77 -2.092,1.437 -3.272,2.002c-1.181,0.565 -2.387,1.052 -3.619,1.463c-1.232,0.411 -2.259,0.744 -3.08,1.001c-0.154,0.308 -0.257,0.603 -0.308,0.885c-0.052,0.283 -0.103,0.552 -0.154,0.809c-0.052,0.565 0.089,0.988 0.423,1.27c0.334,0.283 0.783,0.45 1.348,0.501c0.872,0 1.873,-0.205 3.003,-0.616c1.129,-0.411 2.464,-1.129 4.004,-2.156c0.872,-0.565 1.771,-1.219 2.695,-1.964c0.924,-0.744 1.668,-1.398 2.233,-1.963c0.154,-0.154 0.333,-0.295 0.539,-0.424c0.011,-0.007 0.022,-0.014 0.034,-0.02c0.653,-0.586 1.335,-1.195 2.045,-1.828c1.18,-1.052 2.13,-1.912 2.849,-2.579c-0.514,0 -0.95,0.013 -1.309,0.038c-0.36,0.026 -0.847,0.039 -1.463,0.039c-0.616,0.103 -0.899,-0.026 -0.847,-0.385c0.051,-0.205 0.744,-0.359 2.079,-0.462l1.078,0c0.308,0 0.667,-0.026 1.078,-0.077c1.18,-1.489 2.464,-2.977 3.85,-4.466c1.386,-1.489 2.515,-2.669 3.388,-3.542c0.718,-0.719 1.501,-1.425 2.348,-2.118c0.847,-0.693 1.681,-1.039 2.503,-1.039c0.41,0 0.68,0.051 0.808,0.154c0.128,0.103 0.244,0.205 0.347,0.308c-0.462,0.411 -1.143,1.091 -2.041,2.04c-0.898,0.95 -1.784,1.938 -2.656,2.965c-0.873,1.027 -1.682,1.976 -2.426,2.849c-0.744,0.873 -1.501,1.822 -2.271,2.849c0.872,-0.051 1.668,-0.077 2.387,-0.077l2.002,0c0.256,0 0.526,0.038 0.808,0.115c0.282,0.077 0.372,0.193 0.27,0.347c-0.103,0.257 -0.283,0.385 -0.539,0.385l-3.234,0c-0.668,0 -1.438,0.026 -2.31,0.077c-0.411,0.462 -0.86,1.039 -1.348,1.732c-0.488,0.693 -0.988,1.425 -1.501,2.195c-0.514,0.77 -1.001,1.553 -1.463,2.348c-0.462,0.796 -0.873,1.528 -1.232,2.195c-0.257,0.411 -0.398,0.834 -0.424,1.27c-0.026,0.437 0.116,0.758 0.424,0.963c0.256,0.154 0.551,0.18 0.885,0.077c0.334,-0.103 0.655,-0.231 0.963,-0.385c0.41,-0.257 0.936,-0.578 1.578,-0.963c0.642,-0.385 1.271,-0.834 1.887,-1.347c0.718,-0.565 1.411,-1.129 2.079,-1.694c0.667,-0.565 1.206,-1.052 1.617,-1.463c0.205,-0.154 0.397,-0.295 0.577,-0.424c0.18,-0.128 0.321,-0.141 0.424,-0.038c0.102,0.103 0.051,0.269 -0.154,0.5c-0.206,0.231 -0.36,0.398 -0.462,0.501c-0.462,0.462 -1.13,1.091 -2.002,1.886c-0.873,0.796 -1.746,1.502 -2.618,2.118c-0.36,0.308 -0.796,0.642 -1.309,1.001c-0.514,0.359 -1.078,0.693 -1.694,1.001c-0.616,0.308 -1.271,0.577 -1.964,0.808c-0.693,0.231 -1.399,0.347 -2.117,0.347c-0.873,0 -1.489,-0.218 -1.848,-0.655c-0.36,-0.436 -0.514,-0.936 -0.462,-1.501c0.102,-0.975 0.539,-2.118 1.309,-3.427c0.77,-1.309 1.719,-2.707 2.849,-4.196l0,-0.077c-0.565,0.565 -1.207,1.168 -1.925,1.809c-0.397,0.354 -0.746,0.665 -1.049,0.933c-0.556,0.552 -1.246,1.166 -2.07,1.839c-0.847,0.693 -1.758,1.399 -2.733,2.118c-3.337,2.207 -6.34,3.311 -9.009,3.311c-1.438,0 -2.516,-0.282 -3.234,-0.847c-0.719,-0.565 -1.053,-1.335 -1.001,-2.31c0.102,-0.719 0.308,-1.437 0.616,-2.156c0.308,-0.719 0.718,-1.412 1.232,-2.079l-0.077,0l-0.616,0.616c-0.032,0.023 -0.062,0.046 -0.093,0.069c-0.38,0.356 -0.837,0.769 -1.37,1.24c-0.873,0.77 -1.746,1.489 -2.618,2.156c-0.77,0.616 -1.797,1.283 -3.08,2.002c-1.284,0.719 -2.567,1.078 -3.85,1.078c-0.77,0 -1.374,-0.167 -1.81,-0.501c-0.436,-0.333 -0.629,-0.859 -0.577,-1.578c0.051,-0.975 0.5,-2.156 1.347,-3.542c0.847,-1.386 1.81,-2.798 2.888,-4.235l-0.077,0c-0.565,0.513 -1.13,1.027 -1.694,1.54c-0.565,0.513 -1.027,0.95 -1.386,1.309c-0.12,0.105 -0.229,0.185 -0.327,0.242c-0.432,0.415 -0.99,0.924 -1.675,1.529c-0.873,0.77 -1.746,1.489 -2.618,2.156c-0.77,0.616 -1.797,1.283 -3.08,2.002c-1.284,0.719 -2.567,1.078 -3.85,1.078c-0.77,0 -1.374,-0.167 -1.81,-0.501c-0.436,-0.333 -0.629,-0.859 -0.577,-1.578c0.051,-0.975 0.5,-2.156 1.347,-3.542c0.847,-1.386 1.809,-2.798 2.888,-4.235l-0.077,0l-1.694,1.54c-0.565,0.513 -1.027,0.95 -1.386,1.309c-0.122,0.106 -0.232,0.188 -0.331,0.244c-0.445,0.424 -1.041,0.958 -1.787,1.604c-0.95,0.821 -1.784,1.514 -2.502,2.079c-0.77,0.616 -1.746,1.283 -2.926,2.002c-1.181,0.719 -2.413,1.078 -3.696,1.078c-0.719,0 -1.258,-0.154 -1.617,-0.462c-0.36,-0.308 -0.565,-0.693 -0.616,-1.155c-0.052,-0.411 0.025,-0.873 0.231,-1.386c0.205,-0.513 0.487,-0.975 0.847,-1.386l-0.077,0c-0.514,0.462 -1.104,0.937 -1.771,1.424c-0.668,0.488 -1.374,0.95 -2.118,1.386c-0.744,0.437 -1.514,0.796 -2.31,1.078c-0.796,0.283 -1.553,0.45 -2.271,0.501c-0.873,0.051 -1.643,-0.128 -2.31,-0.539c-0.668,-0.411 -0.95,-1.258 -0.847,-2.541c0.102,-0.565 0.308,-1.194 0.616,-1.887c0.308,-0.693 0.821,-1.45 1.54,-2.271l-0.077,0l-0.693,0.693c-0.206,0.154 -0.398,0.295 -0.578,0.423c-0.18,0.129 -0.321,0.142 -0.423,0.039c-0.103,-0.103 -0.077,-0.244 0.077,-0.424c0.154,-0.179 0.308,-0.346 0.462,-0.5c0.41,-0.411 0.834,-0.783 1.27,-1.117c0.436,-0.333 0.86,-0.654 1.271,-0.962c0.41,-0.257 0.962,-0.616 1.655,-1.078c0.693,-0.462 1.425,-0.898 2.195,-1.309c1.386,-0.719 2.759,-1.296 4.119,-1.733c1.36,-0.436 2.554,-0.577 3.581,-0.423c0.77,0.154 1.296,0.513 1.578,1.078c0.282,0.565 0.295,1.181 0.039,1.848l0.077,0c0.872,-0.975 1.655,-1.707 2.348,-2.195c0.693,-0.487 1.348,-0.731 1.964,-0.731c0.821,-0.051 1.296,0.026 1.424,0.231c0.128,0.205 -0.013,0.539 -0.423,1.001c-0.514,0.565 -1.155,1.296 -1.925,2.194c-0.77,0.899 -1.566,1.861 -2.387,2.888c-0.668,0.77 -1.194,1.437 -1.579,2.002c-0.385,0.565 -0.757,1.155 -1.116,1.771c-0.565,0.873 -0.642,1.463 -0.231,1.771c0.205,0.154 0.474,0.18 0.808,0.077c0.334,-0.103 0.655,-0.231 0.963,-0.385c0.41,-0.205 0.936,-0.526 1.578,-0.963c0.642,-0.436 1.271,-0.911 1.887,-1.424c0.821,-0.667 1.54,-1.258 2.156,-1.771c0.616,-0.513 1.129,-0.975 1.54,-1.386c0.205,-0.154 0.397,-0.308 0.577,-0.462l0.005,-0.005c0.582,-0.532 1.209,-1.095 1.882,-1.689c0.872,-0.77 1.771,-1.54 2.695,-2.31c1.129,-1.489 2.528,-3.26 4.196,-5.313c1.668,-2.053 3.324,-4.055 4.967,-6.006c1.386,-1.591 2.861,-3.247 4.427,-4.967c1.566,-1.719 3.131,-3.375 4.697,-4.966c1.566,-1.591 3.067,-3.067 4.505,-4.428c1.437,-1.36 2.72,-2.502 3.85,-3.426c0.872,-0.719 1.873,-1.412 3.003,-2.079c1.129,-0.667 2.258,-1.001 3.388,-1.001c1.026,0 1.694,0.282 2.002,0.847c0.308,0.565 0.41,1.206 0.308,1.925c-0.154,0.924 -0.693,1.989 -1.617,3.195c-0.924,1.207 -2.105,2.516 -3.542,3.927c-1.438,1.412 -3.068,2.901 -4.89,4.466c-1.822,1.566 -3.709,3.145 -5.659,4.736c-2.362,1.951 -4.774,3.901 -7.238,5.852c-2.464,1.951 -5.134,4.184 -8.008,6.699c-0.308,0.359 -0.732,0.911 -1.271,1.655c-0.539,0.745 -1.091,1.54 -1.655,2.387c-0.565,0.847 -1.091,1.682 -1.579,2.503c-0.488,0.821 -0.834,1.489 -1.039,2.002c-0.154,0.257 -0.296,0.616 -0.424,1.078c-0.128,0.462 -0.064,0.821 0.193,1.078c0.256,0.205 0.628,0.231 1.116,0.077c0.488,-0.154 0.911,-0.334 1.271,-0.539c0.359,-0.205 0.821,-0.488 1.386,-0.847c0.564,-0.359 1.103,-0.77 1.617,-1.232c0.667,-0.513 1.347,-1.065 2.04,-1.656c0.693,-0.59 1.245,-1.09 1.656,-1.501c0.064,-0.032 0.127,-0.067 0.189,-0.104Zm-22.057,-5.132c0.975,0 1.437,0.462 1.386,1.386c0,0.308 -0.167,0.731 -0.501,1.27c-0.334,0.539 -0.757,1.117 -1.27,1.733c-0.514,0.616 -1.078,1.258 -1.694,1.925c-0.616,0.667 -1.232,1.258 -1.848,1.771c-1.027,0.975 -2.182,1.822 -3.465,2.541c-1.284,0.719 -2.285,1.078 -3.003,1.078c-0.616,0 -0.95,-0.257 -1.001,-0.77c-0.052,-0.513 0.282,-1.296 1.001,-2.349c0.718,-1.052 1.822,-2.297 3.311,-3.734c1.386,-1.386 2.72,-2.541 4.004,-3.465c1.283,-0.924 2.284,-1.386 3.003,-1.386l0.077,0Zm-191.037,-3.619l-5.082,2.31c-1.694,0.77 -3.427,1.617 -5.198,2.541c-1.771,0.924 -3.478,1.899 -5.12,2.926c-0.873,-0.719 -1.489,-1.617 -1.848,-2.695c-0.103,-0.154 -0.142,-0.295 -0.116,-0.424c0.026,-0.128 -0.013,-0.192 -0.115,-0.192c-0.103,-0.051 -0.18,0.026 -0.231,0.231c-0.052,0.205 -0.052,0.385 0,0.539c0.154,1.129 0.693,2.105 1.617,2.926c-0.822,0.565 -1.63,1.104 -2.426,1.617c-0.796,0.513 -1.553,1.052 -2.271,1.617c-0.36,0.308 -0.732,0.616 -1.117,0.924c-0.385,0.308 -0.731,0.616 -1.039,0.924c-0.565,-0.667 -1.014,-1.527 -1.348,-2.58c-0.334,-1.052 -0.449,-2.245 -0.346,-3.58c0.154,-1.797 0.68,-3.362 1.578,-4.697c0.898,-1.335 2.002,-2.438 3.311,-3.311c1.309,-0.873 2.721,-1.553 4.235,-2.041c1.514,-0.487 2.939,-0.782 4.274,-0.885c0.924,-0.103 1.95,-0.116 3.08,-0.039c1.129,0.077 2.22,0.257 3.272,0.539c1.052,0.283 2.015,0.693 2.888,1.232c0.872,0.539 1.514,1.22 1.925,2.041l0.077,0.077Zm107.107,11.165c0.462,-0.77 1.116,-1.694 1.963,-2.772c0.847,-1.078 1.579,-1.899 2.195,-2.464c0.77,-0.719 1.437,-1.232 2.002,-1.54c0.564,-0.308 1.026,-0.488 1.386,-0.539c0.77,0 1.078,0.334 0.924,1.001c-0.052,0.565 -0.347,1.206 -0.886,1.925c-0.539,0.719 -1.296,1.412 -2.271,2.079c-0.822,0.565 -1.72,1.039 -2.695,1.424c-0.976,0.385 -1.848,0.706 -2.618,0.963l0,-0.077Zm122.276,0c0.462,-0.77 1.116,-1.694 1.963,-2.772c0.847,-1.078 1.579,-1.899 2.195,-2.464c0.77,-0.719 1.437,-1.232 2.002,-1.54c0.564,-0.308 1.026,-0.488 1.386,-0.539c0.77,0 1.078,0.334 0.924,1.001c-0.052,0.565 -0.347,1.206 -0.886,1.925c-0.539,0.719 -1.296,1.412 -2.271,2.079c-0.822,0.565 -1.72,1.039 -2.695,1.424c-0.976,0.385 -1.848,0.706 -2.618,0.963l0,-0.077Zm-238.546,-1.309c1.026,0 2.104,-0.167 3.234,-0.501c1.129,-0.333 2.156,-0.808 3.08,-1.424c0.924,-0.616 1.694,-1.373 2.31,-2.272c0.616,-0.898 0.949,-1.886 1.001,-2.964c0,-0.667 -0.077,-1.283 -0.231,-1.848c-0.822,0.411 -1.656,0.808 -2.503,1.193c-0.847,0.385 -1.732,0.783 -2.656,1.194c-1.284,0.616 -2.747,1.386 -4.389,2.31c-1.643,0.924 -3.311,1.951 -5.005,3.08c0.872,0.462 1.758,0.783 2.656,0.962c0.898,0.18 1.707,0.27 2.426,0.27l0.077,0Zm110.572,-8.008c1.026,-1.386 1.963,-2.618 2.81,-3.696c0.847,-1.078 1.694,-2.156 2.541,-3.234c0.847,-1.078 1.784,-2.22 2.811,-3.427c1.026,-1.206 2.233,-2.656 3.619,-4.35c2.002,-2.413 3.85,-4.53 5.544,-6.353c1.694,-1.822 3.182,-3.375 4.466,-4.658c0.821,-0.77 1.655,-1.476 2.502,-2.118c0.847,-0.641 1.604,-0.962 2.272,-0.962c0.924,0 1.36,0.488 1.309,1.463c-0.103,0.873 -0.565,1.886 -1.386,3.041c-0.822,1.155 -1.9,2.413 -3.234,3.773c-1.335,1.361 -2.862,2.824 -4.582,4.389c-1.72,1.566 -3.503,3.145 -5.351,4.736c-0.873,0.77 -1.72,1.501 -2.541,2.194c-0.822,0.693 -1.72,1.451 -2.695,2.272c-0.976,0.821 -2.105,1.797 -3.388,2.926c-1.284,1.129 -2.849,2.49 -4.697,4.081l0,-0.077Zm109.417,0c1.026,-1.386 1.963,-2.618 2.81,-3.696c0.847,-1.078 1.694,-2.156 2.541,-3.234c0.847,-1.078 1.784,-2.22 2.811,-3.427c1.026,-1.206 2.233,-2.656 3.619,-4.35c2.002,-2.413 3.85,-4.53 5.544,-6.353c1.694,-1.822 3.182,-3.375 4.466,-4.658c0.821,-0.77 1.655,-1.476 2.502,-2.118c0.847,-0.641 1.604,-0.962 2.272,-0.962c0.924,0 1.36,0.488 1.309,1.463c-0.103,0.873 -0.565,1.886 -1.386,3.041c-0.822,1.155 -1.9,2.413 -3.234,3.773c-1.335,1.361 -2.862,2.824 -4.582,4.389c-1.72,1.566 -3.503,3.145 -5.351,4.736c-0.873,0.77 -1.72,1.501 -2.541,2.194c-0.822,0.693 -1.72,1.451 -2.695,2.272c-0.976,0.821 -2.105,1.797 -3.388,2.926c-1.284,1.129 -2.849,2.49 -4.697,4.081l0,-0.077Zm12.859,0c1.026,-1.386 1.963,-2.618 2.81,-3.696c0.847,-1.078 1.694,-2.156 2.541,-3.234c0.847,-1.078 1.784,-2.22 2.811,-3.427c1.026,-1.206 2.233,-2.656 3.619,-4.35c2.002,-2.413 3.85,-4.53 5.544,-6.353c1.694,-1.822 3.182,-3.375 4.466,-4.658c0.821,-0.77 1.655,-1.476 2.502,-2.118c0.847,-0.641 1.604,-0.962 2.272,-0.962c0.924,0 1.36,0.488 1.309,1.463c-0.103,0.873 -0.565,1.886 -1.386,3.041c-0.822,1.155 -1.9,2.413 -3.234,3.773c-1.335,1.361 -2.862,2.824 -4.582,4.389c-1.72,1.566 -3.503,3.145 -5.351,4.736c-0.873,0.77 -1.72,1.501 -2.541,2.194c-0.822,0.693 -1.72,1.451 -2.695,2.272c-0.976,0.821 -2.105,1.797 -3.388,2.926c-1.284,1.129 -2.849,2.49 -4.697,4.081l0,-0.077Zm-192.962,-9.24c0.513,0 0.847,0.192 1.001,0.577c0.154,0.385 0,0.86 -0.462,1.425c-0.462,0.616 -1.078,1.116 -1.848,1.501c-0.77,0.385 -1.361,0.578 -1.771,0.578c-0.206,-0.257 -0.321,-0.629 -0.347,-1.117c-0.026,-0.487 0.064,-0.988 0.27,-1.501c0.256,-0.565 0.654,-0.95 1.193,-1.155c0.539,-0.205 1.168,-0.308 1.887,-0.308l0.077,0Zm141.449,3.311c0.256,-0.873 0.564,-1.874 0.924,-3.003c0.359,-1.129 0.744,-2.13 1.155,-3.003c0.256,-0.565 0.641,-1.168 1.155,-1.81c0.513,-0.641 1.052,-0.962 1.617,-0.962c0.513,0 0.872,0.218 1.078,0.654c0.205,0.437 0.179,1.014 -0.077,1.733c-0.257,0.616 -0.642,1.232 -1.155,1.848c-0.514,0.616 -1.053,1.206 -1.617,1.771c-0.565,0.565 -1.13,1.091 -1.694,1.578c-0.565,0.488 -1.027,0.912 -1.386,1.271l0,-0.077Zm-144.782,-12.598c-0.141,0.001 -0.288,0.016 -0.44,0.047c-1.078,0.154 -2.259,0.873 -3.542,2.156c-0.719,0.667 -1.502,1.591 -2.349,2.772c-0.847,1.181 -1.655,2.438 -2.425,3.773l0,0.077c0.192,-0.096 0.396,-0.181 0.611,-0.255l0.086,-0.029c0.215,-0.074 0.419,-0.159 0.612,-0.255c1.078,-0.462 2.117,-0.95 3.118,-1.463c1.001,-0.513 1.912,-1.065 2.734,-1.656c0.821,-0.59 1.488,-1.206 2.002,-1.848c0.513,-0.641 0.821,-1.27 0.924,-1.886c0.102,-0.565 -0.039,-0.963 -0.424,-1.194c-0.265,-0.158 -0.56,-0.238 -0.885,-0.239l-0.022,0Z" style="fill:#fff;"/><g></g></svg>