<?xml version="1.0" encoding="UTF-8" standalone="no"?><!DOCTYPE svg PUBLIC "-//W3C//DTD SVG 1.1//EN" "http://www.w3.org/Graphics/SVG/1.1/DTD/svg11.dtd"><svg width="100%" height="100%" viewBox="0 0 57 58" version="1.1" xmlns="http://www.w3.org/2000/svg" xmlns:xlink="http://www.w3.org/1999/xlink" xml:space="preserve" style="fill-rule:evenodd;clip-rule:evenodd;stroke-linejoin:round;stroke-miterlimit:1.41421;"><rect id="アートボード2" x="-1.831" y="-139" width="1767.64" height="1137.38" style="fill:none;"/><g><g><path d="M66.717,-133.51l0.419,0.004l0.417,0.007l0.418,0.01l0.416,0.012l0.416,0.014l0.415,0.018l0.414,0.02l0.414,0.022l0.413,0.025l0.413,0.028l0.411,0.03l0.411,0.033l0.411,0.036l0.409,0.037l0.409,0.041l0.225,0.024l0.183,0.019l0.407,0.046l0.407,0.048l0.405,0.051l0.405,0.054l0.404,0.056l0.404,0.058l0.402,0.061l0.402,0.063l0.401,0.066l0.4,0.068l0.399,0.071l0.398,0.073l0.398,0.076l0.396,0.078l0.396,0.08l0.395,0.083l0.394,0.085l0.393,0.087l0.392,0.09l0.391,0.093l0.391,0.094l0.389,0.097l0.389,0.099l0.22,0.058l0.167,0.044l0.386,0.105l0.386,0.107l0.384,0.109l0.384,0.111l0.382,0.114l0.382,0.116l0.38,0.118l0.38,0.121l0.378,0.123l0.378,0.125l0.376,0.127l0.375,0.13l0.375,0.131l0.373,0.134l0.372,0.137l0.371,0.138l0.37,0.141l0.369,0.142l0.368,0.145l0.366,0.148l0.366,0.149l0.364,0.151l0.364,0.154l0.362,0.156l0.361,0.158l0.36,0.16l0.358,0.162l0.358,0.164l0.356,0.166l0.355,0.169l0.354,0.17l0.353,0.173l0.351,0.175l0.351,0.176l0.349,0.179l0.348,0.181l0.346,0.183l0.346,0.185l0.344,0.186l0.342,0.189l0.342,0.191l0.34,0.193l0.339,0.195l0.338,0.197l0.336,0.199l0.335,0.2l0.334,0.203l0.163,0.101l0.169,0.104l0.331,0.207l0.329,0.209l0.328,0.211l0.327,0.213l0.325,0.215l0.324,0.217l0.322,0.218l0.322,0.221l0.319,0.222l0.319,0.224l0.316,0.226l0.316,0.228l0.314,0.23l0.312,0.231l0.311,0.234l0.31,0.235l0.308,0.237l0.307,0.239l0.305,0.24l0.304,0.243l0.302,0.244l0.301,0.246l0.299,0.247l0.297,0.25l0.296,0.251l0.295,0.253l0.293,0.254l0.291,0.257l0.29,0.258l0.289,0.259l0.286,0.262l0.286,0.263l0.283,0.265l0.282,0.266l0.28,0.268l0.279,0.27l0.277,0.271l0.276,0.273l0.274,0.275l0.272,0.276l0.27,0.278l0.269,0.28l0.267,0.281l0.266,0.282l0.25,0.27l0.014,0.015l0.261,0.286l0.26,0.288l0.259,0.289l0.256,0.291l0.255,0.292l0.253,0.294l0.252,0.295l0.249,0.297l0.248,0.299l0.246,0.299l0.245,0.302l0.242,0.303l0.241,0.304l0.239,0.306l0.237,0.307l0.236,0.309l0.233,0.31l0.232,0.311l0.23,0.313l0.228,0.315l0.226,0.316l0.224,0.317l0.222,0.318l0.221,0.32l0.218,0.322l0.217,0.323l0.215,0.324l0.213,0.325l0.211,0.327l0.209,0.328l0.207,0.329l0.205,0.331l0.204,0.332l0.201,0.334l0.199,0.334l0.198,0.336l0.195,0.337l0.194,0.339l0.191,0.34l0.189,0.341l0.117,0.213l0.071,0.129l0.184,0.344l0.183,0.345l0.181,0.346l0.179,0.347l0.177,0.349l0.174,0.349l0.173,0.351l0.17,0.353l0.169,0.353l0.166,0.354l0.164,0.356l0.163,0.357l0.16,0.358l0.158,0.359l0.155,0.36l0.154,0.361l0.151,0.362l0.15,0.364l0.147,0.364l0.145,0.366l0.143,0.366l0.14,0.368l0.139,0.369l0.136,0.37l0.134,0.371l0.132,0.371l0.13,0.373l0.127,0.374l0.125,0.375l0.123,0.376l0.121,0.377l0.118,0.378l0.116,0.379l0.114,0.379l0.112,0.381l0.109,0.382l0.107,0.383l0.105,0.383l0.102,0.385l0.1,0.385l0.098,0.386l0.095,0.388l0.093,0.388l0.091,0.389l0.088,0.39l0.086,0.39l0.084,0.392l0.081,0.392l0.079,0.394l0.076,0.394l0.074,0.395l0.072,0.396l0.069,0.396l0.067,0.398l0.064,0.398l0.062,0.399l0.059,0.399l0.057,0.401l0.055,0.401l0.011,0.089l0.041,0.313l0.049,0.403l0.046,0.404l0.044,0.404l0.041,0.405l0.039,0.406l0.037,0.406l0.034,0.407l0.031,0.408l0.029,0.409l0.026,0.409l0.024,0.409l0.021,0.411l0.019,0.411l0.016,0.412l0.013,0.412l0.011,0.413l0.008,0.414l0.006,0.414l0.003,0.415l0,0.415l-0.001,0.152l-0.001,0.264l-0.004,-0.264l-0.001,-0.152l-0.008,-0.415l-0.01,-0.415l-0.013,-0.414l-0.015,-0.413l-0.018,-0.412l-0.021,-0.412l-0.023,-0.411l-0.025,-0.41l-0.029,-0.41l-0.03,-0.409l-0.034,-0.408l-0.035,-0.407l-0.039,-0.407l-0.041,-0.406l-0.043,-0.405l-0.046,-0.404l-0.048,-0.403l-0.051,-0.403l-0.053,-0.402l-0.056,-0.401l-0.046,-0.312l-0.012,-0.088l-0.06,-0.4l-0.063,-0.398l-0.065,-0.398l-0.067,-0.397l-0.07,-0.396l-0.073,-0.395l-0.074,-0.395l-0.077,-0.393l-0.08,-0.393l-0.082,-0.391l-0.084,-0.391l-0.086,-0.39l-0.089,-0.389l-0.091,-0.388l-0.094,-0.387l-0.096,-0.386l-0.098,-0.386l-0.101,-0.384l-0.103,-0.383l-0.105,-0.382l-0.107,-0.382l-0.11,-0.38l-0.112,-0.379l-0.114,-0.379l-0.117,-0.377l-0.119,-0.377l-0.121,-0.375l-0.123,-0.374l-0.125,-0.373l-0.128,-0.373l-0.13,-0.371l-0.132,-0.37l-0.134,-0.369l-0.137,-0.368l-0.138,-0.367l-0.141,-0.365l-0.143,-0.365l-0.145,-0.363l-0.147,-0.363l-0.15,-0.361l-0.151,-0.36l-0.154,-0.359l-0.155,-0.358l-0.158,-0.357l-0.16,-0.355l-0.162,-0.355l-0.164,-0.353l-0.167,-0.352l-0.168,-0.351l-0.17,-0.349l-0.172,-0.349l-0.175,-0.347l-0.176,-0.346l-0.178,-0.345l-0.181,-0.343l-0.182,-0.342l-0.185,-0.341l-0.186,-0.34l-0.188,-0.339l-0.072,-0.126l-0.119,-0.211l-0.191,-0.336l-0.194,-0.335l-0.196,-0.334l-0.198,-0.332l-0.199,-0.331l-0.202,-0.329l-0.203,-0.329l-0.206,-0.327l-0.207,-0.325l-0.209,-0.325l-0.211,-0.323l-0.213,-0.321l-0.215,-0.32l-0.217,-0.319l-0.218,-0.318l-0.22,-0.316l-0.223,-0.314l-0.224,-0.313l-0.226,-0.312l-0.227,-0.311l-0.23,-0.308l-0.231,-0.308l-0.233,-0.306l-0.235,-0.305l-0.237,-0.303l-0.238,-0.301l-0.24,-0.3l-0.242,-0.299l-0.244,-0.297l-0.245,-0.296l-0.247,-0.294l-0.249,-0.293l-0.251,-0.291l-0.252,-0.289l-0.254,-0.288l-0.256,-0.287l-0.257,-0.285l-0.259,-0.283l-0.261,-0.282l-0.262,-0.28l-0.013,-0.014l-0.25,-0.265l-0.266,-0.277l-0.267,-0.276l-0.268,-0.274l-0.27,-0.273l-0.272,-0.271l-0.273,-0.269l-0.275,-0.267l-0.277,-0.266l-0.278,-0.265l-0.279,-0.262l-0.282,-0.261l-0.282,-0.26l-0.285,-0.257l-0.286,-0.256l-0.287,-0.254l-0.289,-0.253l-0.29,-0.251l-0.292,-0.249l-0.294,-0.247l-0.295,-0.246l-0.296,-0.244l-0.298,-0.242l-0.299,-0.24l-0.301,-0.239l-0.302,-0.236l-0.304,-0.235l-0.305,-0.234l-0.307,-0.231l-0.308,-0.23l-0.309,-0.227l-0.311,-0.226l-0.312,-0.224l-0.314,-0.223l-0.315,-0.22l-0.316,-0.219l-0.318,-0.216l-0.319,-0.215l-0.32,-0.213l-0.322,-0.211l-0.323,-0.209l-0.324,-0.208l-0.326,-0.205l-0.327,-0.204l-0.328,-0.201l-0.168,-0.102l-0.162,-0.098l-0.33,-0.198l-0.332,-0.196l-0.333,-0.195l-0.335,-0.192l-0.335,-0.19l-0.337,-0.189l-0.339,-0.186l-0.339,-0.184l-0.341,-0.183l-0.341,-0.18l-0.343,-0.178l-0.345,-0.177l-0.345,-0.174l-0.347,-0.172l-0.348,-0.171l-0.348,-0.168l-0.351,-0.166l-0.351,-0.164l-0.352,-0.162l-0.354,-0.16l-0.355,-0.158l-0.355,-0.155l-0.357,-0.154l-0.358,-0.151l-0.36,-0.15l-0.36,-0.147l-0.361,-0.145l-0.363,-0.143l-0.363,-0.141l-0.365,-0.138l-0.365,-0.137l-0.367,-0.134l-0.367,-0.132l-0.369,-0.13l-0.37,-0.128l-0.371,-0.125l-0.371,-0.124l-0.373,-0.121l-0.374,-0.118l-0.374,-0.117l-0.376,-0.114l-0.377,-0.112l-0.377,-0.11l-0.379,-0.108l-0.379,-0.105l-0.381,-0.103l-0.381,-0.101l-0.165,-0.042l-0.217,-0.057l-0.383,-0.096l-0.384,-0.094l-0.385,-0.092l-0.386,-0.09l-0.387,-0.087l-0.387,-0.085l-0.389,-0.083l-0.389,-0.08l-0.39,-0.078l-0.391,-0.076l-0.392,-0.073l-0.392,-0.071l-0.394,-0.068l-0.394,-0.066l-0.395,-0.063l-0.396,-0.061l-0.397,-0.059l-0.397,-0.056l-0.398,-0.054l-0.399,-0.051l-0.4,-0.049l-0.401,-0.047l-0.401,-0.044l-0.18,-0.018l-0.222,-0.023l-0.402,-0.04l-0.404,-0.037l-0.404,-0.034l-0.405,-0.032l-0.405,-0.029l-0.407,-0.027l-0.407,-0.024l-0.407,-0.022l-0.409,-0.019l-0.408,-0.017l-0.41,-0.014l-0.41,-0.011l-0.411,-0.009l-0.412,-0.006l-0.412,-0.004l-0.413,-0.001l-0.413,0.001l-0.412,0.005l-0.411,0.006l-0.411,0.01l-0.41,0.012l-0.41,0.014l-0.409,0.017l-0.023,0.001l-0.385,0.018l-0.408,0.022l-0.407,0.025l-0.406,0.027l-0.405,0.029l-0.405,0.032l-0.404,0.035l-0.403,0.037l-0.403,0.039l-0.402,0.042l-0.401,0.044l-0.401,0.047l-0.399,0.05l-0.399,0.052l-0.398,0.054l-0.397,0.057l-0.397,0.059l-0.396,0.062l-0.395,0.064l-0.394,0.066l-0.393,0.069l-0.392,0.071l-0.392,0.074l-0.391,0.076l-0.39,0.078l-0.389,0.081l-0.388,0.083l-0.387,0.086l-0.387,0.088l-0.385,0.09l-0.385,0.092l-0.383,0.095l-0.383,0.097l-0.287,0.075l-0.095,0.025l-0.381,0.101l-0.38,0.104l-0.379,0.106l-0.378,0.108l-0.378,0.111l-0.376,0.113l-0.375,0.115l-0.374,0.118l-0.374,0.119l-0.372,0.122l-0.371,0.124l-0.37,0.126l-0.37,0.129l-0.368,0.131l-0.367,0.132l-0.366,0.136l-0.365,0.137l-0.364,0.139l-0.363,0.142l-0.362,0.143l-0.361,0.146l-0.36,0.148l-0.358,0.15l-0.358,0.152l-0.356,0.155l-0.355,0.156l-0.354,0.159l-0.353,0.16l-0.352,0.163l-0.351,0.165l-0.349,0.167l-0.349,0.168l-0.347,0.171l-0.346,0.173l-0.344,0.175l-0.344,0.177l-0.342,0.179l-0.341,0.181l-0.34,0.183l-0.022,0.012l-0.317,0.173l-0.338,0.187l-0.336,0.189l-0.335,0.191l-0.334,0.192l-0.332,0.195l-0.331,0.197l-0.33,0.198l-0.329,0.201l-0.327,0.202l-0.326,0.205l-0.325,0.206l-0.323,0.208l-0.322,0.21l-0.321,0.212l-0.319,0.214l-0.318,0.216l-0.317,0.217l-0.315,0.219l-0.314,0.222l-0.312,0.223l-0.311,0.225l-0.31,0.226l-0.308,0.229l-0.307,0.23l-0.305,0.233l-0.304,0.233l-0.303,0.236l-0.301,0.238l-0.299,0.239l-0.299,0.241l-0.296,0.243l-0.295,0.244l-0.294,0.246l-0.292,0.248l-0.291,0.25l-0.289,0.252l-0.288,0.253l-0.286,0.254l-0.284,0.257l-0.283,0.258l-0.282,0.26l-0.28,0.262l-0.278,0.263l-0.277,0.265l-0.275,0.266l-0.273,0.268l-0.272,0.27l-0.271,0.271l-0.268,0.273l-0.267,0.275l-0.266,0.276l-0.264,0.278l-0.262,0.279l-0.26,0.281l-0.259,0.282l-0.257,0.284l-0.256,0.286l-0.254,0.287l-0.252,0.288l-0.25,0.291l-0.249,0.291l-0.247,0.293l-0.245,0.295l-0.243,0.296l-0.242,0.298l-0.24,0.299l-0.238,0.301l-0.237,0.302l-0.235,0.303l-0.232,0.305l-0.232,0.307l-0.229,0.307l-0.227,0.31l-0.226,0.31l-0.224,0.312l-0.222,0.314l-0.22,0.315l-0.219,0.316l-0.216,0.317l-0.215,0.319l-0.212,0.321l-0.211,0.321l-0.209,0.324l-0.207,0.324l-0.206,0.326l-0.203,0.327l-0.201,0.328l-0.2,0.33l-0.197,0.331l-0.196,0.332l-0.094,0.162l-0.099,0.171l-0.192,0.335l-0.19,0.336l-0.188,0.337l-0.186,0.339l-0.184,0.339l-0.182,0.341l-0.179,0.343l-0.178,0.343l-0.176,0.345l-0.174,0.345l-0.172,0.347l-0.17,0.349l-0.167,0.349l-0.166,0.351l-0.163,0.351l-0.162,0.353l-0.159,0.354l-0.158,0.356l-0.155,0.356l-0.153,0.357l-0.151,0.359l-0.149,0.36l-0.147,0.36l-0.144,0.362l-0.143,0.363l-0.14,0.364l-0.138,0.365l-0.136,0.367l-0.134,0.367l-0.132,0.368l-0.129,0.369l-0.127,0.371l-0.125,0.371l-0.123,0.373l-0.121,0.373l-0.118,0.375l-0.116,0.375l-0.114,0.376l-0.112,0.378l-0.109,0.378l-0.107,0.379l-0.105,0.381l-0.102,0.381l-0.101,0.382l-0.098,0.383l-0.095,0.384l-0.093,0.385l-0.091,0.386l-0.089,0.387l-0.086,0.387l-0.084,0.389l-0.082,0.389l-0.079,0.391l-0.077,0.391l-0.074,0.392l-0.072,0.393l-0.07,0.393l-0.067,0.395l-0.065,0.395l-0.062,0.396l-0.06,0.397l-0.058,0.398l-0.055,0.399l-0.053,0.399l-0.05,0.4l-0.048,0.401l-0.045,0.402l-0.043,0.402l-0.04,0.403l-0.038,0.404l-0.035,0.405l-0.033,0.405l-0.03,0.406l-0.028,0.407l-0.025,0.407l-0.022,0.408l-0.02,0.409l-0.018,0.41l-0.015,0.41l-0.012,0.411l-0.01,0.411l-0.007,0.413l-0.005,0.412l-0.001,0.414l0,0.413l0.004,0.413l0.005,0.412l0.009,0.412l0.011,0.411l0.014,0.41l0.016,0.41l0.019,0.409l0.021,0.408l0.024,0.408l0.027,0.407l0.029,0.406l0.031,0.406l0.034,0.405l0.021,0.231l0.016,0.173l0.039,0.403l0.041,0.403l0.044,0.402l0.047,0.401l0.049,0.401l0.051,0.399l0.054,0.399l0.056,0.398l0.059,0.398l0.061,0.396l0.064,0.396l0.066,0.395l0.068,0.394l0.071,0.393l0.073,0.393l0.076,0.392l0.078,0.39l0.08,0.39l0.083,0.389l0.085,0.389l0.087,0.387l0.09,0.386l0.092,0.386l0.095,0.385l0.096,0.383l0.099,0.383l0.102,0.382l0.103,0.381l0.106,0.38l0.109,0.379l0.11,0.378l0.113,0.377l0.115,0.376l0.117,0.376l0.12,0.374l0.121,0.373l0.124,0.372l0.126,0.371l0.129,0.371l0.13,0.369l0.133,0.368l0.135,0.367l0.137,0.366l0.14,0.365l0.141,0.364l0.144,0.362l0.145,0.362l0.148,0.361l0.15,0.359l0.153,0.359l0.154,0.357l0.156,0.356l0.159,0.355l0.16,0.354l0.163,0.353l0.165,0.352l0.167,0.35l0.168,0.349l0.171,0.348l0.173,0.347l0.175,0.346l0.177,0.345l0.179,0.343l0.181,0.342l0.184,0.341l0.185,0.339l0.187,0.339l0.189,0.337l0.191,0.336l0.193,0.334l0.195,0.334l0.197,0.332l0.198,0.331l0.201,0.329l0.203,0.328l0.205,0.327l0.206,0.326l0.209,0.324l0.21,0.323l0.212,0.321l0.214,0.321l0.216,0.318l0.218,0.318l0.22,0.316l0.221,0.315l0.224,0.313l0.225,0.312l0.227,0.31l0.229,0.309l0.231,0.308l0.232,0.306l0.234,0.305l0.237,0.303l0.237,0.302l0.24,0.301l0.241,0.299l0.244,0.297l0.245,0.296l0.246,0.295l0.249,0.293l0.25,0.291l0.252,0.29l0.253,0.289l0.255,0.287l0.257,0.285l0.259,0.284l0.213,0.231l0.047,0.051l0.262,0.281l0.264,0.279l0.265,0.278l0.267,0.276l0.268,0.274l0.27,0.273l0.272,0.271l0.274,0.27l0.275,0.268l0.276,0.266l0.278,0.265l0.28,0.263l0.281,0.261l0.283,0.26l0.285,0.258l0.286,0.256l0.287,0.255l0.29,0.253l0.29,0.251l0.292,0.249l0.294,0.248l0.295,0.246l0.297,0.245l0.298,0.242l0.3,0.241l0.301,0.239l0.303,0.237l0.304,0.236l0.305,0.234l0.307,0.232l0.309,0.23l0.309,0.228l0.312,0.227l0.312,0.224l0.315,0.223l0.315,0.221l0.317,0.219l0.318,0.218l0.32,0.215l0.321,0.214l0.322,0.211l0.324,0.21l0.325,0.208l0.326,0.206l0.328,0.204l0.329,0.202l0.33,0.2l0.332,0.199l0.333,0.196l0.334,0.195l0.336,0.192l0.336,0.19l0.338,0.189l0.34,0.186l0.34,0.185l0.342,0.182l0.343,0.181l0.344,0.178l0.346,0.177l0.346,0.174l0.348,0.173l0.349,0.17l0.351,0.168l0.351,0.167l0.353,0.164l0.354,0.162l0.354,0.16l0.357,0.158l0.357,0.156l0.358,0.153l0.36,0.152l0.36,0.149l0.362,0.148l0.363,0.145l0.364,0.143l0.365,0.141l0.366,0.138l0.367,0.137l0.368,0.134l0.369,0.132l0.37,0.13l0.372,0.128l0.372,0.126l0.373,0.123l0.375,0.121l0.375,0.119l0.377,0.116l0.377,0.115l0.378,0.112l0.38,0.11l0.38,0.107l0.381,0.105l0.383,0.103l0.383,0.101l0.384,0.098l0.385,0.096l0.386,0.094l0.387,0.091l0.388,0.09l0.388,0.086l0.39,0.085l0.39,0.081l0.392,0.08l0.392,0.077l0.393,0.075l0.394,0.073l0.395,0.07l0.395,0.067l0.397,0.065l0.397,0.063l0.398,0.06l0.399,0.058l0.399,0.056l0.401,0.053l0.401,0.05l0.402,0.048l0.403,0.046l0.403,0.043l0.404,0.04l0.405,0.039l0.406,0.035l0.407,0.033l0.407,0.031l0.408,0.028l0.408,0.025l0.41,0.023l0.41,0.02l0.41,0.018l0.412,0.015l0.412,0.012l0.412,0.01l0.414,0.008l0.414,0.004l0.414,0.003l0.415,-0.001l0.414,-0.003l0.413,-0.006l0.413,-0.008l0.412,-0.011l0.412,-0.014l0.41,-0.016l0.411,-0.018l0.409,-0.022l0.409,-0.024l0.408,-0.026l0.407,-0.029l0.407,-0.031l0.406,-0.034l0.405,-0.037l0.405,-0.039l0.404,-0.041l0.403,-0.044l0.402,-0.047l0.402,-0.049l0.401,-0.051l0.4,-0.054l0.399,-0.056l0.399,-0.059l0.398,-0.061l0.397,-0.064l0.396,-0.066l0.395,-0.069l0.394,-0.071l0.394,-0.073l0.393,-0.076l0.392,-0.078l0.391,-0.081l0.39,-0.082l0.39,-0.086l0.388,-0.087l0.388,-0.09l0.386,-0.092l0.386,-0.095l0.385,-0.097l0.384,-0.099l0.383,-0.102l0.382,-0.104l0.381,-0.106l0.38,-0.108l0.38,-0.111l0.378,-0.113l0.377,-0.115l0.377,-0.118l0.375,-0.12l0.374,-0.122l0.374,-0.124l0.372,-0.126l0.371,-0.129l0.37,-0.131l0.37,-0.133l0.368,-0.135l0.367,-0.138l0.366,-0.139l0.365,-0.142l0.364,-0.144l0.363,-0.146l0.361,-0.149l0.361,-0.15l0.36,-0.153l0.358,-0.154l0.357,-0.157l0.356,-0.159l0.355,-0.161l0.354,-0.163l0.353,-0.165l0.351,-0.167l0.351,-0.17l0.349,-0.171l0.348,-0.173l0.347,-0.176l0.345,-0.177l0.069,-0.036l0.276,-0.144l0.343,-0.181l0.342,-0.184l0.341,-0.185l0.339,-0.188l0.338,-0.189l0.337,-0.192l0.336,-0.193l0.334,-0.195l0.334,-0.198l0.331,-0.199l0.331,-0.201l0.329,-0.204l0.328,-0.205l0.327,-0.207l0.325,-0.209l0.324,-0.211l0.323,-0.212l0.321,-0.215l0.32,-0.216l0.318,-0.219l0.317,-0.22l0.316,-0.222l0.314,-0.224l0.313,-0.226l0.312,-0.228l0.31,-0.229l0.309,-0.231l0.307,-0.234l0.306,-0.234l0.304,-0.237l0.303,-0.239l0.301,-0.24l0.3,-0.242l0.299,-0.244l0.297,-0.245l0.295,-0.247l0.294,-0.25l0.293,-0.25l0.291,-0.253l0.289,-0.254l0.288,-0.256l0.286,-0.257l0.285,-0.26l0.283,-0.261l0.282,-0.262l0.28,-0.265l0.279,-0.266l0.277,-0.267l0.275,-0.27l0.274,-0.271l0.272,-0.272l0.27,-0.274l0.269,-0.276l0.267,-0.278l0.266,-0.279l0.264,-0.28l0.262,-0.282l0.26,-0.284l0.259,-0.285l0.257,-0.287l0.256,-0.289l0.254,-0.29l0.252,-0.291l0.25,-0.293l0.249,-0.295l0.247,-0.296l0.245,-0.298l0.243,-0.299l0.242,-0.3l0.24,-0.302l0.238,-0.304l0.236,-0.305l0.234,-0.306l0.233,-0.308l0.231,-0.309l0.229,-0.311l0.227,-0.312l0.226,-0.314l0.224,-0.315l0.221,-0.317l0.22,-0.317l0.218,-0.32l0.216,-0.32l0.215,-0.322l0.212,-0.323l0.211,-0.325l0.208,-0.326l0.207,-0.328l0.205,-0.328l0.202,-0.33l0.201,-0.332l0.199,-0.332l0.197,-0.334l0.195,-0.336l0.194,-0.336l0.191,-0.338l0.189,-0.339l0.187,-0.34l0.185,-0.342l0.183,-0.343l0.181,-0.344l0.18,-0.345l0.177,-0.347l0.175,-0.348l0.173,-0.348l0.171,-0.351l0.168,-0.351l0.167,-0.353l0.165,-0.353l0.163,-0.355l0.16,-0.356l0.159,-0.357l0.156,-0.359l0.154,-0.359l0.152,-0.361l0.15,-0.362l0.148,-0.362l0.146,-0.364l0.143,-0.365l0.142,-0.367l0.139,-0.367l0.137,-0.368l0.135,-0.369l0.132,-0.371l0.131,-0.371l0.128,-0.373l0.126,-0.373l0.124,-0.375l0.121,-0.376l0.12,-0.376l0.117,-0.378l0.114,-0.378l0.113,-0.38l0.11,-0.381l0.108,-0.381l0.106,-0.383l0.103,-0.383l0.101,-0.384l0.099,-0.386l0.096,-0.386l0.094,-0.387l0.092,-0.388l0.089,-0.39l0.087,-0.389l0.085,-0.391l0.082,-0.392l0.08,-0.393l0.078,-0.393l0.075,-0.394l0.073,-0.396l0.07,-0.396l0.068,-0.397l0.065,-0.397l0.063,-0.399l0.061,-0.399l0.058,-0.4l0.056,-0.401l0.053,-0.402l0.051,-0.403l0.048,-0.403l0.046,-0.404l0.043,-0.405l0.041,-0.405l0.038,-0.407l0.036,-0.407l0.033,-0.408l0.031,-0.408l0.028,-0.409l0.025,-0.41l0.023,-0.411l0.021,-0.411l0.017,-0.412l0.016,-0.413l0.012,-0.413l0.01,-0.414l0.004,-0.219l0.004,-0.196l0.005,-0.415l0.002,-0.416l-0.001,0.416l-0.003,0.415l-0.002,0.196l-0.003,0.219l-0.009,0.414l-0.011,0.413l-0.013,0.413l-0.016,0.412l-0.019,0.412l-0.021,0.411l-0.024,0.41l-0.026,0.409l-0.029,0.409l-0.032,0.408l-0.034,0.407l-0.036,0.407l-0.04,0.406l-0.041,0.405l-0.044,0.405l-0.047,0.403l-0.049,0.403l-0.051,0.403l-0.054,0.401l-0.057,0.401l-0.059,0.399l-0.061,0.399l-0.064,0.399l-0.066,0.397l-0.069,0.397l-0.071,0.396l-0.074,0.395l-0.076,0.394l-0.078,0.393l-0.081,0.392l-0.083,0.392l-0.085,0.391l-0.088,0.389l-0.09,0.389l-0.093,0.388l-0.095,0.387l-0.097,0.386l-0.1,0.386l-0.101,0.384l-0.105,0.383l-0.106,0.383l-0.109,0.381l-0.111,0.381l-0.113,0.379l-0.116,0.379l-0.118,0.378l-0.12,0.376l-0.122,0.376l-0.125,0.374l-0.127,0.374l-0.129,0.372l-0.131,0.372l-0.133,0.37l-0.136,0.37l-0.138,0.368l-0.14,0.367l-0.142,0.367l-0.145,0.365l-0.146,0.364l-0.149,0.363l-0.151,0.362l-0.153,0.36l-0.155,0.36l-0.157,0.359l-0.159,0.357l-0.162,0.356l-0.163,0.355l-0.166,0.354l-0.168,0.353l-0.17,0.351l-0.171,0.351l-0.174,0.349l-0.176,0.348l-0.178,0.347l-0.18,0.345l-0.182,0.344l-0.185,0.343l-0.186,0.342l-0.188,0.341l-0.19,0.339l-0.192,0.338l-0.194,0.337l-0.196,0.336l-0.198,0.334l-0.2,0.333l-0.202,0.331l-0.204,0.331l-0.206,0.329l-0.208,0.328l-0.209,0.326l-0.212,0.325l-0.213,0.324l-0.216,0.322l-0.217,0.321l-0.219,0.319l-0.221,0.318l-0.223,0.317l-0.224,0.316l-0.227,0.314l-0.228,0.312l-0.231,0.311l-0.232,0.31l-0.234,0.308l-0.235,0.307l-0.238,0.305l-0.239,0.304l-0.241,0.303l-0.243,0.301l-0.244,0.299l-0.247,0.298l-0.248,0.297l-0.25,0.294l-0.251,0.294l-0.254,0.292l-0.255,0.29l-0.256,0.289l-0.259,0.287l-0.26,0.286l-0.262,0.284l-0.263,0.283l-0.266,0.281l-0.266,0.279l-0.269,0.278l-0.27,0.276l-0.272,0.275l-0.273,0.273l-0.276,0.271l-0.276,0.27l-0.279,0.268l-0.279,0.266l-0.282,0.265l-0.283,0.263l-0.285,0.261l-0.286,0.26l-0.288,0.258l-0.289,0.256l-0.291,0.255l-0.293,0.253l-0.294,0.251l-0.295,0.25l-0.297,0.247l-0.299,0.246l-0.3,0.244l-0.301,0.243l-0.303,0.24l-0.305,0.239l-0.306,0.237l-0.307,0.236l-0.309,0.233l-0.311,0.232l-0.311,0.23l-0.314,0.228l-0.314,0.226l-0.316,0.224l-0.318,0.223l-0.319,0.22l-0.32,0.219l-0.322,0.217l-0.323,0.215l-0.324,0.213l-0.326,0.211l-0.327,0.209l-0.328,0.208l-0.33,0.205l-0.331,0.204l-0.333,0.201l-0.334,0.2l-0.335,0.198l-0.336,0.195l-0.338,0.194l-0.339,0.192l-0.34,0.189l-0.341,0.188l-0.343,0.186l-0.344,0.184l-0.276,0.145l-0.069,0.036l-0.347,0.18l-0.347,0.178l-0.349,0.175l-0.35,0.174l-0.352,0.171l-0.352,0.17l-0.354,0.167l-0.355,0.165l-0.356,0.163l-0.357,0.161l-0.359,0.159l-0.359,0.157l-0.361,0.155l-0.362,0.152l-0.363,0.151l-0.364,0.148l-0.365,0.146l-0.366,0.144l-0.367,0.142l-0.369,0.139l-0.369,0.138l-0.371,0.135l-0.372,0.133l-0.372,0.131l-0.374,0.128l-0.375,0.127l-0.376,0.124l-0.377,0.122l-0.377,0.119l-0.379,0.118l-0.38,0.115l-0.381,0.112l-0.382,0.111l-0.383,0.108l-0.383,0.106l-0.385,0.104l-0.386,0.101l-0.386,0.099l-0.388,0.097l-0.388,0.094l-0.39,0.092l-0.39,0.09l-0.391,0.087l-0.392,0.085l-0.393,0.082l-0.394,0.08l-0.395,0.078l-0.396,0.075l-0.396,0.073l-0.398,0.071l-0.398,0.068l-0.399,0.065l-0.4,0.063l-0.4,0.061l-0.402,0.058l-0.402,0.056l-0.403,0.053l-0.404,0.051l-0.404,0.049l-0.406,0.046l-0.406,0.043l-0.407,0.041l-0.407,0.038l-0.409,0.036l-0.409,0.033l-0.41,0.031l-0.41,0.028l-0.411,0.025l-0.412,0.023l-0.413,0.021l-0.413,0.017l-0.414,0.016l-0.415,0.012l-0.415,0.01l-0.416,0.008l-0.417,0.004l-0.417,0.003l-0.417,-0.001l-0.417,-0.003l-0.416,-0.006l-0.415,-0.008l-0.415,-0.011l-0.414,-0.014l-0.413,-0.016l-0.413,-0.019l-0.412,-0.021l-0.411,-0.024l-0.411,-0.027l-0.41,-0.029l-0.409,-0.032l-0.409,-0.034l-0.408,-0.037l-0.407,-0.039l-0.407,-0.042l-0.405,-0.044l-0.405,-0.047l-0.404,-0.049l-0.404,-0.052l-0.402,-0.054l-0.402,-0.057l-0.401,-0.059l-0.401,-0.062l-0.399,-0.064l-0.399,-0.066l-0.398,-0.069l-0.397,-0.072l-0.396,-0.073l-0.395,-0.077l-0.395,-0.078l-0.393,-0.081l-0.393,-0.084l-0.392,-0.086l-0.391,-0.088l-0.39,-0.09l-0.389,-0.093l-0.388,-0.095l-0.388,-0.098l-0.386,-0.1l-0.386,-0.102l-0.384,-0.105l-0.384,-0.107l-0.383,-0.109l-0.381,-0.111l-0.381,-0.114l-0.38,-0.116l-0.378,-0.118l-0.378,-0.121l-0.377,-0.123l-0.376,-0.125l-0.374,-0.127l-0.374,-0.13l-0.373,-0.131l-0.371,-0.134l-0.371,-0.136l-0.369,-0.139l-0.369,-0.14l-0.367,-0.143l-0.366,-0.145l-0.366,-0.147l-0.364,-0.149l-0.363,-0.152l-0.361,-0.153l-0.361,-0.156l-0.36,-0.158l-0.358,-0.16l-0.357,-0.162l-0.357,-0.164l-0.355,-0.166l-0.353,-0.168l-0.353,-0.171l-0.351,-0.172l-0.351,-0.175l-0.349,-0.176l-0.347,-0.179l-0.347,-0.18l-0.345,-0.183l-0.345,-0.185l-0.342,-0.187l-0.342,-0.188l-0.34,-0.191l-0.339,-0.193l-0.338,-0.195l-0.337,-0.196l-0.335,-0.199l-0.334,-0.201l-0.333,-0.202l-0.331,-0.205l-0.33,-0.206l-0.329,-0.209l-0.327,-0.21l-0.326,-0.212l-0.325,-0.215l-0.323,-0.216l-0.322,-0.218l-0.32,-0.219l-0.319,-0.222l-0.318,-0.224l-0.316,-0.225l-0.315,-0.228l-0.314,-0.229l-0.312,-0.231l-0.31,-0.232l-0.31,-0.235l-0.307,-0.237l-0.307,-0.238l-0.304,-0.24l-0.304,-0.242l-0.302,-0.243l-0.3,-0.246l-0.299,-0.247l-0.297,-0.249l-0.296,-0.25l-0.294,-0.253l-0.293,-0.254l-0.291,-0.256l-0.29,-0.257l-0.288,-0.26l-0.287,-0.261l-0.285,-0.262l-0.283,-0.265l-0.282,-0.266l-0.28,-0.268l-0.279,-0.269l-0.277,-0.271l-0.275,-0.273l-0.274,-0.274l-0.272,-0.276l-0.27,-0.278l-0.269,-0.279l-0.267,-0.281l-0.266,-0.282l-0.047,-0.051l-0.217,-0.233l-0.262,-0.286l-0.26,-0.287l-0.259,-0.289l-0.257,-0.29l-0.255,-0.292l-0.254,-0.294l-0.252,-0.295l-0.25,-0.296l-0.248,-0.298l-0.247,-0.3l-0.244,-0.301l-0.243,-0.302l-0.242,-0.304l-0.239,-0.306l-0.238,-0.307l-0.236,-0.308l-0.234,-0.31l-0.232,-0.312l-0.23,-0.313l-0.229,-0.314l-0.227,-0.315l-0.225,-0.318l-0.223,-0.318l-0.221,-0.32l-0.219,-0.321l-0.218,-0.323l-0.215,-0.324l-0.214,-0.326l-0.211,-0.326l-0.21,-0.329l-0.208,-0.329l-0.206,-0.331l-0.204,-0.332l-0.202,-0.334l-0.2,-0.334l-0.198,-0.337l-0.196,-0.337l-0.195,-0.339l-0.192,-0.34l-0.19,-0.341l-0.188,-0.343l-0.186,-0.344l-0.185,-0.345l-0.182,-0.346l-0.18,-0.347l-0.178,-0.349l-0.176,-0.35l-0.174,-0.352l-0.172,-0.352l-0.17,-0.354l-0.167,-0.354l-0.166,-0.356l-0.164,-0.358l-0.161,-0.358l-0.159,-0.359l-0.158,-0.361l-0.155,-0.362l-0.153,-0.363l-0.15,-0.364l-0.149,-0.365l-0.146,-0.366l-0.145,-0.368l-0.142,-0.368l-0.14,-0.37l-0.138,-0.371l-0.135,-0.371l-0.133,-0.373l-0.131,-0.374l-0.129,-0.375l-0.127,-0.376l-0.124,-0.377l-0.123,-0.378l-0.119,-0.379l-0.118,-0.38l-0.115,-0.381l-0.113,-0.382l-0.111,-0.383l-0.109,-0.384l-0.106,-0.385l-0.104,-0.386l-0.101,-0.386l-0.099,-0.388l-0.097,-0.389l-0.095,-0.39l-0.092,-0.39l-0.09,-0.392l-0.087,-0.392l-0.085,-0.393l-0.083,-0.395l-0.08,-0.395l-0.078,-0.396l-0.075,-0.396l-0.073,-0.398l-0.071,-0.399l-0.068,-0.399l-0.066,-0.4l-0.063,-0.401l-0.061,-0.402l-0.058,-0.403l-0.056,-0.403l-0.054,-0.404l-0.05,-0.405l-0.049,-0.406l-0.046,-0.407l-0.043,-0.407l-0.041,-0.408l-0.016,-0.175l-0.022,-0.234l-0.036,-0.409l-0.033,-0.411l-0.031,-0.411l-0.028,-0.411l-0.025,-0.413l-0.023,-0.413l-0.02,-0.414l-0.018,-0.414l-0.015,-0.416l-0.012,-0.415l-0.01,-0.417l-0.007,-0.417l-0.005,-0.418l-0.002,-0.418l0.001,-0.419l0.003,-0.417l0.006,-0.417l0.009,-0.417l0.011,-0.416l0.014,-0.415l0.016,-0.415l0.019,-0.414l0.022,-0.413l0.024,-0.412l0.027,-0.412l0.029,-0.411l0.032,-0.411l0.035,-0.41l0.037,-0.409l0.039,-0.408l0.042,-0.407l0.045,-0.407l0.047,-0.406l0.05,-0.406l0.052,-0.404l0.055,-0.404l0.057,-0.403l0.059,-0.402l0.062,-0.401l0.065,-0.401l0.067,-0.4l0.069,-0.399l0.072,-0.398l0.074,-0.397l0.077,-0.396l0.079,-0.396l0.081,-0.395l0.084,-0.393l0.086,-0.393l0.089,-0.392l0.091,-0.391l0.093,-0.391l0.096,-0.389l0.098,-0.388l0.1,-0.388l0.103,-0.386l0.105,-0.386l0.107,-0.385l0.11,-0.383l0.112,-0.383l0.114,-0.382l0.117,-0.38l0.118,-0.38l0.121,-0.379l0.124,-0.378l0.125,-0.376l0.128,-0.376l0.13,-0.375l0.132,-0.373l0.135,-0.373l0.137,-0.371l0.139,-0.371l0.141,-0.369l0.143,-0.368l0.145,-0.368l0.148,-0.366l0.15,-0.365l0.152,-0.363l0.154,-0.363l0.156,-0.362l0.159,-0.36l0.16,-0.36l0.163,-0.358l0.164,-0.357l0.167,-0.356l0.169,-0.354l0.171,-0.354l0.173,-0.352l0.176,-0.351l0.177,-0.35l0.179,-0.349l0.181,-0.347l0.184,-0.346l0.185,-0.345l0.187,-0.344l0.19,-0.342l0.191,-0.341l0.194,-0.34l0.1,-0.174l0.095,-0.165l0.198,-0.337l0.199,-0.336l0.202,-0.335l0.203,-0.333l0.205,-0.332l0.208,-0.331l0.209,-0.329l0.211,-0.328l0.213,-0.327l0.215,-0.325l0.217,-0.324l0.219,-0.323l0.221,-0.321l0.222,-0.319l0.225,-0.319l0.226,-0.317l0.228,-0.315l0.23,-0.314l0.232,-0.313l0.233,-0.311l0.236,-0.31l0.237,-0.308l0.239,-0.307l0.241,-0.305l0.243,-0.304l0.244,-0.303l0.247,-0.301l0.248,-0.299l0.249,-0.298l0.252,-0.296l0.253,-0.295l0.255,-0.293l0.257,-0.292l0.258,-0.29l0.261,-0.289l0.261,-0.287l0.264,-0.285l0.265,-0.284l0.267,-0.282l0.269,-0.281l0.27,-0.279l0.272,-0.278l0.274,-0.275l0.275,-0.275l0.277,-0.272l0.278,-0.271l0.28,-0.269l0.282,-0.268l0.283,-0.266l0.285,-0.264l0.287,-0.263l0.288,-0.26l0.289,-0.26l0.292,-0.257l0.292,-0.256l0.295,-0.254l0.295,-0.252l0.298,-0.25l0.299,-0.249l0.3,-0.247l0.302,-0.245l0.303,-0.244l0.305,-0.241l0.307,-0.24l0.307,-0.238l0.31,-0.236l0.311,-0.235l0.312,-0.232l0.313,-0.231l0.316,-0.229l0.316,-0.227l0.318,-0.225l0.319,-0.224l0.321,-0.221l0.322,-0.22l0.324,-0.218l0.325,-0.215l0.326,-0.214l0.328,-0.212l0.329,-0.21l0.33,-0.208l0.332,-0.207l0.333,-0.204l0.334,-0.202l0.336,-0.201l0.337,-0.198l0.338,-0.196l0.34,-0.195l0.341,-0.192l0.342,-0.191l0.322,-0.176l0.022,-0.012l0.344,-0.186l0.346,-0.185l0.348,-0.182l0.348,-0.18l0.35,-0.178l0.351,-0.176l0.352,-0.174l0.353,-0.172l0.355,-0.17l0.356,-0.168l0.357,-0.165l0.358,-0.164l0.359,-0.161l0.36,-0.159l0.362,-0.158l0.363,-0.155l0.363,-0.152l0.365,-0.151l0.367,-0.149l0.367,-0.146l0.368,-0.144l0.369,-0.142l0.371,-0.14l0.371,-0.138l0.373,-0.135l0.374,-0.134l0.374,-0.131l0.376,-0.128l0.377,-0.127l0.378,-0.124l0.379,-0.122l0.38,-0.12l0.381,-0.117l0.381,-0.116l0.383,-0.112l0.384,-0.111l0.385,-0.108l0.386,-0.106l0.386,-0.104l0.097,-0.025l0.291,-0.076l0.389,-0.099l0.39,-0.097l0.39,-0.094l0.391,-0.091l0.393,-0.09l0.393,-0.087l0.394,-0.084l0.395,-0.083l0.396,-0.08l0.397,-0.077l0.398,-0.075l0.398,-0.073l0.399,-0.07l0.401,-0.067l0.4,-0.066l0.402,-0.063l0.403,-0.06l0.403,-0.058l0.405,-0.055l0.405,-0.053l0.405,-0.05l0.407,-0.048l0.407,-0.046l0.408,-0.043l0.409,-0.04l0.41,-0.038l0.41,-0.035l0.411,-0.033l0.412,-0.03l0.412,-0.027l0.413,-0.025l0.414,-0.023l0.391,-0.018l0.023,-0.001l0.416,-0.017l0.415,-0.015l0.417,-0.011l0.417,-0.009l0.418,-0.007l0.418,-0.003l0.419,-0.001l0.419,0.001Z" style="fill:#79530d;"/></g></g><g></g><g></g><path d="M28.076,0.666c-15.531,0 -28.121,12.59 -28.121,28.121c0,15.53 12.59,28.121 28.121,28.121c15.524,-0.017 28.104,-12.597 28.121,-28.121c0,-15.531 -12.59,-28.121 -28.121,-28.121Zm-26.077,28.121c0,-14.403 11.675,-26.078 26.077,-26.078c14.396,0.017 26.06,11.682 26.078,26.078c0,14.402 -11.675,26.077 -26.078,26.077c-14.402,0 -26.077,-11.675 -26.077,-26.077Zm19.553,-22.56l-0.006,0l0,22.56c0,1.446 1.172,2.618 2.618,2.618c1.446,0 2.619,-1.172 2.619,-2.618c0,-2.876 2.331,-5.205 5.206,-5.205c2.874,0 5.204,2.33 5.205,5.205l0,21.646c11.96,-5.016 17.589,-18.779 12.572,-30.74c-3.737,-8.91 -12.405,-14.403 -21.652,-14.404c-2.174,0 -4.38,0.303 -6.562,0.938Zm2.006,22.56l0,-20.966l0.031,0c11.585,-2.452 22.965,4.951 25.416,16.536c1.882,8.886 -2.042,17.995 -9.793,22.733l0,-18.303c0,-4.006 -3.247,-7.253 -7.252,-7.253c-4.005,0 -7.252,3.247 -7.252,7.253c0,0.317 -0.257,0.574 -0.575,0.574c-0.317,0 -0.575,-0.257 -0.575,-0.574Zm-18.971,0c-0.008,12.963 10.495,23.477 23.458,23.484c2.212,0.001 4.413,-0.31 6.537,-0.925l0,-22.559c0,-1.448 -1.174,-2.622 -2.622,-2.622c-1.447,0 -2.621,1.174 -2.621,2.622c0,2.875 -2.332,5.204 -5.207,5.204c-2.874,0 -5.204,-2.33 -5.204,-5.204l0,-21.647c-8.702,3.672 -14.353,12.202 -14.341,21.647Zm2.554,4.43c-1.88,-8.878 2.034,-17.976 9.768,-22.719l0,18.289c0,4.003 3.246,7.248 7.249,7.248c4.004,0 7.249,-3.245 7.249,-7.248c0,-0.318 0.258,-0.575 0.575,-0.575c0.317,0 0.575,0.257 0.575,0.575l0,20.965c-1.496,0.317 -2.991,0.47 -4.461,0.47c-9.916,0 -18.82,-6.918 -20.955,-17.005Z" style="fill:url(#_Linear1);fill-rule:nonzero;"/><g></g><defs><linearGradient id="_Linear1" x1="0" y1="0" x2="1" y2="0" gradientUnits="userSpaceOnUse" gradientTransform="matrix(56.242,0,0,-56.242,-2.70057,28.7865)"><stop offset="0%" style="stop-color:#6406f6;stop-opacity:1"/><stop offset="21%" style="stop-color:#6406f6;stop-opacity:1"/><stop offset="100%" style="stop-color:#58deff;stop-opacity:1"/></linearGradient></defs></svg>