<?xml version="1.0" encoding="UTF-8" standalone="no"?><!DOCTYPE svg PUBLIC "-//W3C//DTD SVG 1.1//EN" "http://www.w3.org/Graphics/SVG/1.1/DTD/svg11.dtd"><svg width="100%" height="100%" viewBox="0 0 58 58" version="1.1" xmlns="http://www.w3.org/2000/svg" xmlns:xlink="http://www.w3.org/1999/xlink" xml:space="preserve" style="fill-rule:evenodd;clip-rule:evenodd;stroke-linejoin:round;stroke-miterlimit:1.41421;"><rect id="アートボード2" x="-248.831" y="-139" width="1767.64" height="1137.38" style="fill:none;"/><rect x="-0.327" y="-0.474" width="58.501" height="58.501" style="fill:#422673;"/><g></g><g></g><path d="M18.816,17.306c0.27,0 0.489,0.224 0.489,0.5c0,0.276 -0.219,0.5 -0.489,0.5l-0.979,0c-0.56,0 -1.016,0.467 -1.016,1.04l0,23.071c0,0.573 0.456,1.039 1.016,1.039l17.28,0c0.561,0 1.017,-0.466 1.017,-1.039l0,-23.071c0,-0.573 -0.456,-1.04 -1.017,-1.04l-0.979,0c-0.27,0 -0.489,-0.224 -0.489,-0.5c0,-0.276 0.219,-0.5 0.489,-0.5l0.979,0c1.1,0 1.995,0.915 1.995,2.04l0,23.071c0,1.125 -0.895,2.04 -1.995,2.04l-17.28,0c-1.1,0 -1.994,-0.915 -1.994,-2.04l0,-23.071c0,-1.125 0.894,-2.04 1.994,-2.04l0.979,0Zm21.843,25.149l-0.571,0c-0.742,0 -1.345,-0.617 -1.345,-1.376l0,-18.246c0,-0.023 0.002,-0.045 0.005,-0.068c0.001,-0.005 0.001,-0.01 0.002,-0.015c0.004,-0.023 0.009,-0.046 0.016,-0.068l1.14,-3.758c0.064,-0.209 0.253,-0.351 0.467,-0.351c0.215,0 0.404,0.142 0.468,0.351l1.14,3.758c0.007,0.022 0.012,0.045 0.016,0.068c0.001,0.005 0.002,0.01 0.002,0.015c0.003,0.023 0.005,0.045 0.005,0.068l0,18.246c0,0.759 -0.603,1.376 -1.345,1.376Zm-17.241,-26.69c0.235,-1.51 1.517,-2.669 3.059,-2.669c1.542,0 2.825,1.159 3.06,2.669l1.139,0c1.1,0 1.995,0.916 1.995,2.041l0,1.501l1.995,0c0.27,0 0.489,0.224 0.489,0.501l0,22.147c0,0.276 -0.219,0.5 -0.489,0.5l-16.377,0c-0.27,0 -0.49,-0.224 -0.49,-0.5l0,-22.147c0,-0.277 0.22,-0.501 0.49,-0.501l1.995,0l0,-1.501c0,-1.125 0.895,-2.041 1.995,-2.041l1.139,0Zm17.608,24.23l-1.305,0l0,1.084c0,0.207 0.165,0.376 0.367,0.376l0.571,0c0.202,0 0.367,-0.169 0.367,-0.376l0,-1.084Zm-8.844,-17.685l-11.409,0c-0.27,0 -0.489,-0.224 -0.489,-0.501l0,-1.501l-1.506,0l0,21.147l15.399,0l0,-21.147l-1.506,0l0,1.501c0,0.277 -0.219,0.501 -0.489,0.501Zm-5.705,15.936c0.271,0 0.49,0.224 0.49,0.5c0,0.277 -0.219,0.501 -0.49,0.501l-5.052,0c-0.27,0 -0.489,-0.224 -0.489,-0.501c0,-0.276 0.219,-0.5 0.489,-0.5l5.052,0Zm14.549,0.748l0,-15.661l-1.305,0l0,15.661l1.305,0Zm-9.497,-2.75c0.27,0 0.49,0.224 0.49,0.501c0,0.276 -0.22,0.5 -0.49,0.5l-10.104,0c-0.27,0 -0.489,-0.224 -0.489,-0.5c0,-0.277 0.219,-0.501 0.489,-0.501l10.104,0Zm-3.098,-2.001l0,-0.167c0,-0.277 0.219,-0.501 0.489,-0.501c0.27,0 0.489,0.224 0.489,0.501l0,0.667c0,0.276 -0.219,0.5 -0.489,0.5l-7.495,0c-0.27,0 -0.489,-0.224 -0.489,-0.5l0,-0.667c0,-0.277 0.219,-0.501 0.489,-0.501c0.271,0 0.49,0.224 0.49,0.501l0,0.167l6.516,0Zm3.098,-9.725c0.27,0 0.49,0.224 0.49,0.5l0,7.056c0,0.276 -0.22,0.5 -0.49,0.5l-0.652,0c-0.27,0 -0.489,-0.224 -0.489,-0.5c0,-0.276 0.219,-0.5 0.489,-0.5l0.163,0l0,-6.056l-0.163,0c-0.27,0 -0.489,-0.224 -0.489,-0.5c0,-0.276 0.219,-0.5 0.489,-0.5l0.652,0Zm-2.609,0c0.27,0 0.489,0.224 0.489,0.5l0,7.056c0,0.276 -0.219,0.5 -0.489,0.5l-7.495,0c-0.27,0 -0.489,-0.224 -0.489,-0.5l0,-3.72c0,-0.276 0.219,-0.5 0.489,-0.5c0.271,0 0.49,0.224 0.49,0.5l0,3.22l6.516,0l0,-6.056l-6.516,0l0,0.835c0,0.276 -0.219,0.5 -0.49,0.5c-0.27,0 -0.489,-0.224 -0.489,-0.5l0,-1.335c0,-0.276 0.219,-0.5 0.489,-0.5l7.495,0Zm11.931,-2.185l-0.478,-1.573l-0.477,1.573l0.955,0Zm-11.764,-5.567c-0.271,0 -0.49,-0.224 -0.49,-0.5c0,-1.196 -0.951,-2.169 -2.12,-2.169c-1.169,0 -2.119,0.973 -2.12,2.169c0,0.276 -0.219,0.5 -0.489,0.5l-1.589,0c-0.561,0 -1.017,0.467 -1.017,1.04l0,3.503l10.43,0l0,-3.503c0,-0.573 -0.456,-1.04 -1.016,-1.04l-1.589,0Zm-2.61,-1.334c-0.27,0 -0.489,0.224 -0.489,0.5l0,0.667c0,0.277 0.219,0.501 0.489,0.501c0.271,0 0.49,-0.224 0.49,-0.501l0,-0.667c0,-0.276 -0.219,-0.5 -0.49,-0.5Z" style="fill:#fff;"/><g></g></svg>