<?xml version="1.0" encoding="UTF-8" standalone="no"?><!DOCTYPE svg PUBLIC "-//W3C//DTD SVG 1.1//EN" "http://www.w3.org/Graphics/SVG/1.1/DTD/svg11.dtd"><svg width="100%" height="100%" viewBox="0 0 377 50" version="1.1" xmlns="http://www.w3.org/2000/svg" xmlns:xlink="http://www.w3.org/1999/xlink" xml:space="preserve" style="fill-rule:evenodd;clip-rule:evenodd;stroke-linejoin:round;stroke-miterlimit:1.41421;"><rect id="アートボード2" x="0.169" y="-270" width="1767.64" height="1137.38" style="fill:none;"/><g></g><g></g><path d="M194.033,41.04c-0.474,0.425 -1.004,0.89 -1.589,1.394c-0.744,0.642 -1.604,1.219 -2.579,1.733c-0.822,0.41 -1.682,0.744 -2.58,1.001c-0.898,0.256 -1.707,0.41 -2.425,0.462c-0.565,0.564 -1.066,1.001 -1.502,1.309c-0.436,0.308 -0.937,0.513 -1.501,0.616c-0.565,0.102 -0.989,0.128 -1.271,0.077c-0.282,-0.052 -0.475,-0.141 -0.577,-0.27c-0.103,-0.128 -0.142,-0.282 -0.116,-0.462c0.026,-0.179 0.09,-0.321 0.193,-0.423c0.102,-0.257 0.205,-0.475 0.308,-0.655c0.102,-0.179 0.205,-0.346 0.308,-0.5c-0.719,-0.103 -1.592,-0.295 -2.618,-0.578c-1.027,-0.282 -1.848,-0.552 -2.464,-0.808c-0.822,-0.308 -1.656,-0.719 -2.503,-1.232c-0.847,-0.514 -1.527,-1.001 -2.04,-1.463c-0.719,0.513 -1.669,1.142 -2.849,1.886c-1.181,0.745 -2.529,1.489 -4.043,2.233c-1.514,0.745 -3.131,1.386 -4.851,1.925c-1.72,0.539 -3.478,0.886 -5.274,1.04c-1.489,0.102 -2.901,0.064 -4.235,-0.116c-1.335,-0.179 -2.503,-0.5 -3.504,-0.962c-1.001,-0.462 -1.797,-1.065 -2.387,-1.81c-0.59,-0.744 -0.885,-1.655 -0.885,-2.733l0,-0.077c0,-1.335 0.41,-2.439 1.232,-3.311c0.821,-0.873 1.745,-1.335 2.772,-1.386c0.872,-0.103 1.565,0.09 2.079,0.577c0.513,0.488 0.77,1.091 0.77,1.81c-0.052,0.564 -0.219,1.026 -0.501,1.386c-0.282,0.359 -0.706,0.744 -1.27,1.155c-0.411,0.256 -0.758,0.539 -1.04,0.847c-0.282,0.308 -0.398,0.667 -0.346,1.078c0,0.821 0.628,1.501 1.886,2.04c1.258,0.539 3.144,0.706 5.66,0.501c1.488,-0.154 2.964,-0.449 4.427,-0.886c1.463,-0.436 2.875,-0.962 4.235,-1.578c1.36,-0.616 2.657,-1.296 3.889,-2.041c1.232,-0.744 2.387,-1.476 3.465,-2.194c-0.36,-0.308 -0.783,-0.757 -1.271,-1.348c-0.488,-0.59 -0.95,-1.27 -1.386,-2.04c-0.436,-0.77 -0.808,-1.604 -1.116,-2.503c-0.308,-0.898 -0.462,-1.835 -0.462,-2.81c0.051,-2.31 0.898,-4.248 2.541,-5.814c1.642,-1.565 3.85,-2.323 6.622,-2.271c1.026,0.051 1.976,0.269 2.849,0.654c0.872,0.385 1.655,0.847 2.348,1.386c0.693,0.539 1.271,1.13 1.733,1.771c0.462,0.642 0.821,1.219 1.078,1.733c0.564,-0.565 1.129,-1.117 1.694,-1.656c0.564,-0.539 1.078,-1.014 1.54,-1.424c2.053,-1.848 4.068,-3.581 6.044,-5.198c1.976,-1.617 3.94,-2.939 5.891,-3.965c1.488,-0.822 3.028,-1.515 4.62,-2.079c1.591,-0.565 3.131,-0.847 4.62,-0.847c0.718,0 1.296,0.09 1.732,0.269c0.436,0.18 0.757,0.347 0.963,0.501c0.256,0.205 0.436,0.41 0.539,0.616c0.102,0.205 0.102,0.359 0,0.462c-0.052,0 -0.334,-0.18 -0.847,-0.539c-0.154,-0.103 -0.411,-0.206 -0.77,-0.308c-0.36,-0.103 -0.668,-0.154 -0.924,-0.154c-0.411,0 -0.847,0.077 -1.309,0.231c-0.462,0.154 -0.847,0.359 -1.155,0.616c-0.411,0.359 -0.886,0.821 -1.425,1.386c-0.539,0.564 -1.091,1.168 -1.655,1.809c-0.565,0.642 -1.117,1.322 -1.656,2.041c-0.539,0.718 -1.039,1.386 -1.501,2.002c-2.413,3.336 -4.864,6.891 -7.354,10.664c-2.49,3.773 -4.838,7.456 -7.045,11.05c1.334,-0.103 2.797,-0.539 4.389,-1.309c0.821,-0.411 1.617,-0.95 2.387,-1.617c0.77,-0.668 1.411,-1.232 1.925,-1.694c0.256,-0.257 0.513,-0.488 0.77,-0.693c0.07,-0.057 0.135,-0.101 0.194,-0.135c0.025,-0.019 0.05,-0.039 0.075,-0.058c0.436,-0.333 0.86,-0.654 1.271,-0.962c0.41,-0.257 0.962,-0.616 1.655,-1.078c0.693,-0.462 1.425,-0.899 2.195,-1.309c1.334,-0.719 2.592,-1.284 3.773,-1.694c1.18,-0.411 2.284,-0.565 3.311,-0.462c0.872,0.154 1.475,0.5 1.809,1.039c0.334,0.539 0.424,1.168 0.27,1.887c-0.103,0.718 -0.45,1.334 -1.04,1.848c-0.59,0.513 -1.116,0.77 -1.578,0.77c-0.668,0 -1.04,-0.231 -1.117,-0.693c-0.077,-0.462 0.09,-0.976 0.501,-1.54c0.41,-0.719 0.667,-1.296 0.77,-1.733c0.102,-0.436 -0.077,-0.706 -0.539,-0.808c-0.924,-0.154 -2.516,0.924 -4.774,3.234c-1.027,1.026 -1.977,2.194 -2.849,3.503c-0.873,1.309 -1.361,2.426 -1.463,3.35c-0.154,1.18 0.436,1.771 1.771,1.771c0.513,0 1.386,-0.167 2.618,-0.501c1.232,-0.333 2.695,-1.091 4.389,-2.271c0.718,-0.514 1.501,-1.091 2.348,-1.733c0.847,-0.641 1.502,-1.193 1.964,-1.655l0.008,-0.006c0.359,-0.348 0.729,-0.667 1.108,-0.957c0.436,-0.333 0.86,-0.654 1.271,-0.962c0.41,-0.257 0.949,-0.603 1.617,-1.04c0.667,-0.436 1.36,-0.86 2.079,-1.27c1.129,-0.565 2.297,-1.078 3.503,-1.54c1.206,-0.462 2.323,-0.693 3.35,-0.693l0.077,0c0.77,0 1.347,0.231 1.732,0.693c0.385,0.462 0.552,0.898 0.501,1.309c-0.103,1.026 -0.655,1.925 -1.656,2.695c-1.001,0.77 -2.092,1.437 -3.272,2.002c-1.181,0.564 -2.387,1.052 -3.619,1.463c-1.232,0.41 -2.259,0.744 -3.08,1.001c-0.154,0.308 -0.257,0.603 -0.308,0.885c-0.052,0.283 -0.103,0.552 -0.154,0.809c-0.052,0.564 0.089,0.988 0.423,1.27c0.334,0.283 0.783,0.449 1.348,0.501c0.872,0 1.873,-0.206 3.003,-0.616c1.129,-0.411 2.464,-1.13 4.004,-2.156c0.872,-0.565 1.771,-1.219 2.695,-1.964c0.924,-0.744 1.668,-1.399 2.233,-1.963c0.154,-0.154 0.333,-0.295 0.539,-0.424c0.205,-0.128 0.359,-0.141 0.462,-0.038c0.102,0.102 0.051,0.282 -0.154,0.539c-0.206,0.256 -0.36,0.436 -0.462,0.539c-0.565,0.564 -1.271,1.193 -2.118,1.886c-0.847,0.693 -1.758,1.399 -2.733,2.118c-3.337,2.207 -6.34,3.311 -9.009,3.311c-1.438,0 -2.516,-0.283 -3.234,-0.847c-0.719,-0.565 -1.053,-1.335 -1.001,-2.31c0.102,-0.719 0.308,-1.438 0.616,-2.156c0.301,-0.704 0.702,-1.384 1.201,-2.039c-0.147,0.189 -0.317,0.355 -0.508,0.499c-0.411,0.41 -1.014,0.949 -1.81,1.617c-0.796,0.667 -1.655,1.309 -2.579,1.925c-1.335,0.924 -2.824,1.707 -4.466,2.348c-1.643,0.642 -3.132,0.963 -4.466,0.963l-0.077,0c-2.875,0 -4.235,-1.078 -4.081,-3.234c0.102,-0.77 0.346,-1.566 0.731,-2.387c0.385,-0.822 0.886,-1.592 1.502,-2.31l-0.077,0c-0.206,0.205 -0.398,0.398 -0.578,0.577c-0.18,0.18 -0.398,0.372 -0.654,0.578c-0.049,0.036 -0.097,0.072 -0.144,0.107Zm-172.49,-25.748c1.54,0 2.772,0.475 3.696,1.424c0.924,0.95 1.232,2.426 0.924,4.428c-0.308,1.95 -1.13,4.145 -2.464,6.583c-1.335,2.439 -2.849,4.864 -4.543,7.277c-1.694,2.412 -3.376,4.581 -5.044,6.506c-1.668,1.925 -3.247,3.658 -4.735,5.198c-0.308,0.359 -0.424,0.693 -0.347,1.001c0.077,0.308 0.347,0.462 0.809,0.462c0.256,0 0.526,-0.09 0.808,-0.27c0.282,-0.179 0.552,-0.346 0.809,-0.5c0.718,-0.462 1.642,-1.091 2.772,-1.887c1.129,-0.795 2.31,-1.63 3.542,-2.502c1.232,-0.873 2.438,-1.746 3.619,-2.618c1.18,-0.873 2.181,-1.592 3.003,-2.156c0.924,-0.668 1.899,-1.386 2.926,-2.156c1.026,-0.77 2.002,-1.502 2.926,-2.195c0.924,-0.693 1.745,-1.322 2.464,-1.886c0.718,-0.565 1.257,-1.001 1.617,-1.309l0,0.077c-0.462,1.078 -0.912,2.335 -1.348,3.773c-0.436,1.437 -0.885,2.874 -1.347,4.312c-0.462,1.437 -0.963,2.823 -1.502,4.158c-0.539,1.334 -1.142,2.438 -1.809,3.311c-0.257,0.308 -0.373,0.603 -0.347,0.885c0.026,0.283 0.244,0.424 0.655,0.424c0.462,0 0.872,-0.129 1.232,-0.385c0.359,-0.257 0.667,-0.514 0.924,-0.77c2.515,-2.413 5.223,-4.851 8.123,-7.315c2.9,-2.464 5.891,-4.954 8.971,-7.469c4.26,-3.491 7.315,-6.468 9.163,-8.932c1.848,-2.464 2.874,-4.492 3.08,-6.083c0.102,-1.027 -0.116,-1.912 -0.655,-2.657c-0.539,-0.744 -1.373,-1.116 -2.502,-1.116c-0.103,0 -0.244,0.013 -0.424,0.038c-0.18,0.026 -0.295,0.09 -0.346,0.193c-0.052,0.102 0.025,0.154 0.231,0.154c0.256,0 0.513,0.128 0.77,0.385c0.256,0.256 0.423,0.616 0.5,1.078c0.077,0.462 0.064,0.975 -0.038,1.54c-0.103,0.667 -0.373,1.476 -0.809,2.425c-0.436,0.95 -1.065,2.041 -1.886,3.273c-0.822,1.232 -1.874,2.566 -3.157,4.004c-1.284,1.437 -2.849,3.003 -4.697,4.697c-1.181,1.026 -2.439,2.13 -3.773,3.311c-1.335,1.18 -2.644,2.323 -3.927,3.426c-1.284,1.104 -2.464,2.143 -3.542,3.119c-1.078,0.975 -1.951,1.771 -2.618,2.387l0,-0.077c0.616,-0.822 1.167,-1.823 1.655,-3.003c0.488,-1.181 0.937,-2.426 1.348,-3.735c0.41,-1.309 0.782,-2.643 1.116,-4.004c0.334,-1.36 0.655,-2.631 0.963,-3.811c0.513,-0.514 1.116,-1.065 1.809,-1.656c0.693,-0.59 1.386,-1.206 2.079,-1.848c0.693,-0.641 1.322,-1.334 1.887,-2.079c0.564,-0.744 0.975,-1.501 1.232,-2.271c0.308,-0.924 0.269,-1.669 -0.116,-2.233c-0.385,-0.565 -0.937,-0.847 -1.655,-0.847c-0.822,0 -1.707,0.359 -2.657,1.078c-0.95,0.718 -1.886,1.822 -2.81,3.311c-0.719,1.129 -1.348,2.348 -1.887,3.657c-0.539,1.309 -1.039,2.631 -1.501,3.966c-1.232,0.975 -2.721,2.104 -4.466,3.388c-1.746,1.283 -3.44,2.515 -5.082,3.696c-1.9,1.386 -3.53,2.579 -4.89,3.58c-1.36,1.001 -2.656,1.938 -3.888,2.811l0,-0.077c1.283,-1.284 2.695,-2.824 4.235,-4.62c1.54,-1.797 3.003,-3.645 4.389,-5.544c1.386,-1.9 2.566,-3.735 3.542,-5.506c0.975,-1.771 1.514,-3.247 1.617,-4.427c0.205,-1.592 0.077,-2.913 -0.385,-3.966c-0.462,-1.052 -1.117,-1.886 -1.964,-2.502c-0.847,-0.616 -1.822,-1.04 -2.926,-1.271c-1.104,-0.231 -2.194,-0.346 -3.272,-0.346c-2.002,0 -4.094,0.436 -6.276,1.309c-2.182,0.872 -4.196,2.002 -6.044,3.388c-2.054,1.54 -3.696,3.234 -4.928,5.082c-1.232,1.848 -1.951,3.542 -2.156,5.082c-0.206,1.642 0.102,2.99 0.924,4.042c0.821,1.053 2.104,1.63 3.85,1.733c0.872,0.051 1.758,-0.052 2.656,-0.308c0.898,-0.257 1.758,-0.616 2.58,-1.078c0.821,-0.462 1.591,-0.963 2.31,-1.502c0.718,-0.539 1.334,-1.091 1.848,-1.655c0.872,-0.976 1.604,-2.041 2.194,-3.196c0.59,-1.155 0.911,-2.246 0.963,-3.272c0.102,-0.873 0.012,-1.553 -0.27,-2.041c-0.282,-0.487 -0.475,-0.783 -0.577,-0.885c-0.308,-0.411 -0.514,-0.488 -0.616,-0.231c-0.103,0.102 -0.116,0.179 -0.039,0.231c0.077,0.051 0.167,0.154 0.27,0.308c0.359,0.462 0.487,1.129 0.385,2.002c-0.103,0.821 -0.475,1.835 -1.117,3.041c-0.642,1.207 -1.399,2.272 -2.271,3.196c-0.565,0.564 -1.168,1.142 -1.81,1.732c-0.642,0.591 -1.309,1.104 -2.002,1.54c-0.693,0.437 -1.412,0.796 -2.156,1.078c-0.744,0.283 -1.476,0.398 -2.194,0.347c-1.386,-0.103 -2.323,-0.616 -2.811,-1.54c-0.488,-0.924 -0.654,-2.054 -0.5,-3.388c0.205,-1.592 0.872,-3.286 2.002,-5.082c1.129,-1.797 2.515,-3.363 4.158,-4.697c1.642,-1.232 3.477,-2.297 5.505,-3.196c2.028,-0.898 4.017,-1.347 5.968,-1.347l0.077,0Zm284.634,24.192c0.59,-0.515 1.205,-1.072 1.844,-1.67c0.796,-0.744 1.63,-1.476 2.503,-2.194c1.334,-1.746 2.784,-3.619 4.35,-5.621c1.566,-2.002 3.247,-3.979 5.044,-5.929c1.129,-1.284 2.502,-2.798 4.119,-4.543c1.617,-1.746 3.273,-3.491 4.967,-5.236c1.694,-1.746 3.323,-3.337 4.889,-4.774c1.566,-1.438 2.862,-2.516 3.889,-3.234c1.078,-0.77 2.156,-1.476 3.234,-2.118c1.078,-0.641 2.181,-0.962 3.311,-0.962c1.026,0 1.706,0.282 2.04,0.847c0.334,0.564 0.449,1.206 0.347,1.925c-0.154,0.924 -0.693,1.989 -1.617,3.195c-0.924,1.207 -2.118,2.516 -3.581,3.927c-1.463,1.412 -3.106,2.901 -4.928,4.466c-1.822,1.566 -3.709,3.144 -5.659,4.736c-1.181,0.975 -2.452,1.976 -3.812,3.003c-1.36,1.026 -2.733,2.079 -4.119,3.157c-1.386,1.078 -2.747,2.156 -4.081,3.234c-1.335,1.078 -2.567,2.13 -3.696,3.157c-0.308,0.359 -0.758,0.937 -1.348,1.732c-0.59,0.796 -1.206,1.63 -1.848,2.503c-0.642,0.872 -1.232,1.707 -1.771,2.502c-0.539,0.796 -0.937,1.373 -1.193,1.733l0.154,0.077c1.078,-0.976 2.117,-1.912 3.118,-2.811c1.001,-0.898 2.169,-1.861 3.504,-2.887c0.718,-0.565 1.552,-1.142 2.502,-1.733c0.95,-0.59 1.835,-1.091 2.657,-1.501c0.718,-0.308 1.386,-0.501 2.002,-0.578c0.616,-0.077 1.206,-0.09 1.771,-0.038c0.975,0.102 1.732,0.462 2.271,1.078c0.539,0.616 0.629,1.283 0.27,2.002c-0.257,0.513 -0.706,0.885 -1.348,1.116c-0.642,0.231 -1.399,0.398 -2.271,0.501c-0.719,0.102 -1.386,0.218 -2.002,0.346c-0.616,0.129 -1.053,0.372 -1.309,0.732c-0.257,0.359 -0.437,0.783 -0.539,1.27c-0.103,0.488 -0.129,1.117 -0.077,1.887c0.154,1.745 0.59,2.695 1.309,2.849c0.256,0.051 0.564,0.013 0.924,-0.116c0.359,-0.128 0.718,-0.295 1.078,-0.5c0.821,-0.411 1.796,-1.078 2.926,-2.002c0.821,-0.668 1.527,-1.258 2.117,-1.771c0.59,-0.514 1.117,-0.976 1.579,-1.386c0.108,-0.073 0.223,-0.158 0.345,-0.256l0.025,-0.02l0.018,-0.015c0.037,-0.03 0.074,-0.062 0.112,-0.094c0.033,-0.028 0.064,-0.052 0.096,-0.071c0.019,-0.015 0.039,-0.03 0.058,-0.045c0.436,-0.333 0.86,-0.654 1.271,-0.962c0.41,-0.257 0.949,-0.603 1.617,-1.04c0.667,-0.436 1.36,-0.86 2.079,-1.27c1.129,-0.565 2.297,-1.078 3.503,-1.54c1.206,-0.462 2.323,-0.693 3.35,-0.693l0.077,0c0.77,0 1.347,0.231 1.732,0.693c0.385,0.462 0.552,0.898 0.501,1.309c-0.103,1.026 -0.655,1.925 -1.656,2.695c-1.001,0.77 -2.092,1.437 -3.272,2.002c-1.181,0.564 -2.387,1.052 -3.619,1.463c-1.232,0.41 -2.259,0.744 -3.08,1.001c-0.154,0.308 -0.257,0.603 -0.308,0.885c-0.052,0.283 -0.103,0.552 -0.154,0.809c-0.052,0.564 0.089,0.988 0.423,1.27c0.334,0.283 0.783,0.449 1.348,0.501c0.872,0 1.873,-0.206 3.003,-0.616c1.129,-0.411 2.464,-1.13 4.004,-2.156c0.872,-0.565 1.771,-1.219 2.695,-1.964c0.924,-0.744 1.668,-1.399 2.233,-1.963c0.059,-0.059 0.122,-0.117 0.189,-0.172c0.363,-0.35 0.762,-0.729 1.197,-1.137c0.821,-0.77 1.591,-1.438 2.31,-2.002c0.924,-0.719 1.848,-1.335 2.772,-1.848c0.924,-0.514 1.796,-0.77 2.618,-0.77c0.718,0 1.219,0.192 1.501,0.577c0.282,0.385 0.424,0.783 0.424,1.194c0,0.462 -0.167,0.975 -0.501,1.54c-0.334,0.564 -0.706,1.129 -1.116,1.694c-0.565,0.77 -1.155,1.553 -1.771,2.348c-0.616,0.796 -1.13,1.502 -1.54,2.118l0.231,0.077c0.924,-0.77 1.925,-1.604 3.003,-2.503c1.078,-0.898 2.284,-1.861 3.619,-2.887c1.334,-1.027 2.772,-1.977 4.312,-2.849c1.54,-0.873 2.9,-1.309 4.081,-1.309c0.821,0 1.45,0.179 1.886,0.539c0.436,0.359 0.603,0.872 0.501,1.54c-0.103,0.718 -0.488,1.488 -1.155,2.31c-0.668,0.821 -1.309,1.617 -1.925,2.387c-1.284,1.54 -2.131,2.643 -2.541,3.311c-0.565,0.872 -0.668,1.437 -0.308,1.694c0.205,0.154 0.487,0.192 0.847,0.115c0.359,-0.077 0.693,-0.192 1.001,-0.346c0.462,-0.206 1.001,-0.514 1.617,-0.924c0.616,-0.411 1.309,-0.899 2.079,-1.463c0.616,-0.462 1.283,-1.014 2.002,-1.656c0.718,-0.641 1.309,-1.168 1.771,-1.578c0.205,-0.154 0.397,-0.283 0.577,-0.385c0.18,-0.103 0.321,-0.103 0.424,0c0.102,0.102 0.038,0.269 -0.193,0.5c-0.231,0.231 -0.398,0.398 -0.5,0.501c-0.462,0.41 -1.155,1.039 -2.079,1.886c-0.924,0.847 -1.797,1.553 -2.618,2.118c-0.822,0.616 -1.848,1.283 -3.08,2.002c-1.232,0.718 -2.49,1.078 -3.773,1.078l-0.077,0c-0.719,0 -1.297,-0.193 -1.733,-0.578c-0.436,-0.385 -0.603,-0.86 -0.5,-1.424c0.102,-0.873 0.5,-1.784 1.193,-2.734c0.693,-0.949 1.373,-1.835 2.041,-2.656c0.564,-0.719 1.116,-1.386 1.655,-2.002c0.539,-0.616 1.065,-1.207 1.579,-1.771c0.154,-0.206 0.256,-0.411 0.308,-0.616c0.051,-0.206 -0.026,-0.36 -0.231,-0.462c-0.206,-0.103 -0.527,-0.077 -0.963,0.077c-0.436,0.154 -0.783,0.282 -1.039,0.385c-0.719,0.359 -1.592,0.86 -2.618,1.501c-1.027,0.642 -2.156,1.45 -3.388,2.426c-0.873,0.667 -1.643,1.283 -2.31,1.848c-0.668,0.564 -1.335,1.116 -2.002,1.655c-0.668,0.539 -1.348,1.091 -2.041,1.656c-0.693,0.564 -1.45,1.18 -2.271,1.848c-0.616,0.462 -1.284,0.693 -2.002,0.693c-0.565,0 -0.95,-0.064 -1.155,-0.193c-0.206,-0.128 -0.154,-0.475 0.154,-1.039c0.41,-0.719 0.898,-1.527 1.463,-2.426c0.564,-0.898 1.206,-1.809 1.925,-2.733c0.616,-0.822 1.129,-1.489 1.54,-2.002c0.41,-0.514 0.949,-1.181 1.617,-2.002c0.564,-0.616 0.718,-1.053 0.462,-1.309c-0.103,-0.154 -0.27,-0.206 -0.501,-0.154c-0.231,0.051 -0.449,0.128 -0.654,0.231c-0.411,0.205 -0.899,0.5 -1.463,0.885c-0.565,0.385 -1.078,0.783 -1.54,1.194c-0.565,0.513 -1.155,1.026 -1.771,1.54c-0.298,0.247 -0.589,0.501 -0.874,0.761c-0.118,0.141 -0.211,0.247 -0.281,0.317c-0.565,0.564 -1.271,1.193 -2.118,1.886c-0.847,0.693 -1.758,1.399 -2.733,2.118c-3.337,2.207 -6.34,3.311 -9.009,3.311c-1.438,0 -2.516,-0.283 -3.234,-0.847c-0.719,-0.565 -1.053,-1.335 -1.001,-2.31c0.102,-0.719 0.308,-1.438 0.616,-2.156c0.308,-0.719 0.718,-1.412 1.232,-2.079l-0.077,0l-0.616,0.616c-0.096,0.071 -0.189,0.14 -0.279,0.206c-0.351,0.324 -0.745,0.691 -1.184,1.103c-0.822,0.77 -1.72,1.514 -2.695,2.233c-0.77,0.616 -1.771,1.27 -3.003,1.963c-1.232,0.693 -2.439,1.04 -3.619,1.04c-0.77,0 -1.425,-0.27 -1.964,-0.809c-0.539,-0.539 -0.757,-1.476 -0.654,-2.81c0.051,-1.027 0.269,-1.912 0.654,-2.657c0.385,-0.744 0.732,-1.27 1.04,-1.578c0.41,-0.36 0.924,-0.642 1.54,-0.847c0.616,-0.206 1.155,-0.36 1.617,-0.462c0.41,-0.103 0.834,-0.218 1.27,-0.347c0.436,-0.128 0.809,-0.372 1.117,-0.731c0.256,-0.257 0.41,-0.629 0.462,-1.117c0.051,-0.487 -0.129,-0.86 -0.539,-1.116c-0.257,-0.154 -0.616,-0.18 -1.078,-0.077c-0.462,0.102 -0.899,0.256 -1.309,0.462c-1.027,0.462 -1.964,0.988 -2.811,1.578c-0.847,0.591 -1.861,1.348 -3.041,2.272c-1.643,1.386 -3.17,2.772 -4.582,4.158c-1.412,1.386 -2.708,2.438 -3.888,3.157c-0.411,0.256 -0.745,0.449 -1.001,0.577c-0.257,0.129 -0.591,0.193 -1.001,0.193c-0.616,0 -1.014,-0.077 -1.194,-0.231c-0.18,-0.154 -0.141,-0.488 0.116,-1.001c0.359,-0.822 0.808,-1.643 1.347,-2.464c0.539,-0.822 1.142,-1.72 1.81,-2.695c0.308,-0.411 0.641,-0.873 1.001,-1.386c0.359,-0.514 0.744,-1.027 1.155,-1.54l0,-0.077c-0.565,0.462 -1.091,0.924 -1.579,1.386c-0.488,0.462 -0.885,0.847 -1.193,1.155c-0.119,0.104 -0.228,0.184 -0.325,0.241c-0.277,0.266 -0.579,0.545 -0.907,0.837c-0.462,0.41 -0.95,0.795 -1.463,1.155c-0.616,0.462 -1.168,0.783 -1.656,0.962c-0.488,0.18 -0.911,0.321 -1.27,0.424c-0.257,0.102 -0.604,0.141 -1.04,0.115c-0.436,-0.025 -0.783,-0.115 -1.039,-0.269c-0.514,0.41 -1.104,0.834 -1.771,1.27c-0.668,0.437 -1.386,0.834 -2.156,1.194c-0.77,0.359 -1.579,0.667 -2.426,0.924c-0.847,0.256 -1.655,0.385 -2.425,0.385c-1.181,0 -2.131,-0.295 -2.849,-0.886c-0.719,-0.59 -1.027,-1.424 -0.924,-2.502c0.102,-0.873 0.346,-1.72 0.731,-2.541c0.385,-0.822 0.86,-1.566 1.425,-2.233l0,-0.077c-0.257,0.256 -0.514,0.5 -0.77,0.731c-0.257,0.231 -0.514,0.475 -0.77,0.732c-0.188,0.141 -0.365,0.271 -0.531,0.39c-0.259,0.229 -0.532,0.471 -0.817,0.726c-0.488,0.437 -1.091,0.911 -1.809,1.425c-2.208,1.54 -4.582,2.669 -7.123,3.388c-2.541,0.718 -5.608,1.078 -9.201,1.078c-1.489,0 -2.978,-0.039 -4.466,-0.116c-1.489,-0.077 -2.901,-0.167 -4.235,-0.269c-1.335,-0.103 -2.554,-0.218 -3.658,-0.347c-1.104,-0.128 -1.989,-0.244 -2.656,-0.346c-0.565,0.102 -1.207,0.205 -1.925,0.308c-0.719,0.102 -1.451,0.192 -2.195,0.269c-0.744,0.077 -1.489,0.141 -2.233,0.193c-0.744,0.051 -1.373,0.077 -1.886,0.077l-2.31,0c-0.873,0 -1.707,-0.039 -2.503,-0.116c-0.796,-0.077 -1.45,-0.205 -1.963,-0.385c-0.514,-0.179 -0.745,-0.449 -0.693,-0.808c0.154,-0.77 0.885,-1.284 2.194,-1.54c1.309,-0.257 2.708,-0.385 4.197,-0.385c0.821,0 1.745,0.038 2.772,0.115c1.026,0.077 2.066,0.167 3.118,0.27c1.052,0.102 2.066,0.205 3.042,0.308c0.975,0.102 1.822,0.205 2.541,0.308c1.334,-0.257 3.003,-0.822 5.005,-1.694c2.002,-0.873 3.824,-1.977 5.467,-3.311c1.078,-0.924 2.04,-1.823 2.887,-2.695c0.847,-0.873 1.656,-1.771 2.426,-2.695c0.77,-0.924 1.565,-1.887 2.387,-2.888c0.821,-1.001 1.771,-2.066 2.849,-3.195c1.899,-2.054 3.824,-3.76 5.775,-5.121c1.95,-1.36 3.978,-2.348 6.083,-2.964l0,-0.077c-1.592,-0.154 -3.222,-0.36 -4.89,-0.616c-1.668,-0.257 -3.529,-0.591 -5.582,-1.001c-2.054,-0.411 -4.12,-0.796 -6.199,-1.155c-2.079,-0.36 -4.145,-0.591 -6.198,-0.693c-1.694,-0.103 -3.324,-0.026 -4.89,0.231c-1.566,0.256 -2.964,0.68 -4.196,1.27c-1.232,0.591 -2.233,1.348 -3.003,2.272c-0.77,0.924 -1.232,2.002 -1.386,3.234c-0.103,0.872 0.025,1.668 0.385,2.387c0.359,0.718 0.872,1.347 1.54,1.886c0.667,0.539 1.463,0.963 2.387,1.271c0.924,0.308 1.925,0.487 3.003,0.539c2.361,0.051 4.273,-0.372 5.736,-1.271c1.463,-0.898 2.246,-2.092 2.349,-3.58c0.154,-0.822 -0.026,-1.566 -0.539,-2.233c-0.103,-0.103 -0.206,-0.193 -0.308,-0.27c-0.103,-0.077 -0.103,-0.141 0,-0.192c0.102,-0.103 0.243,-0.116 0.423,-0.039c0.18,0.077 0.321,0.167 0.424,0.27c0.308,0.154 0.641,0.449 1.001,0.885c0.359,0.437 0.539,1.014 0.539,1.733c0,0.872 -0.257,1.642 -0.77,2.31c-0.514,0.667 -1.22,1.232 -2.118,1.694c-0.898,0.462 -1.938,0.808 -3.118,1.039c-1.181,0.231 -2.387,0.347 -3.619,0.347c-1.232,0 -2.362,-0.18 -3.388,-0.539c-1.027,-0.36 -1.913,-0.847 -2.657,-1.463c-0.744,-0.616 -1.309,-1.348 -1.694,-2.195c-0.385,-0.847 -0.526,-1.784 -0.423,-2.81c0.154,-1.386 0.654,-2.631 1.501,-3.735c0.847,-1.103 1.964,-2.027 3.35,-2.772c1.386,-0.744 2.964,-1.296 4.735,-1.655c1.771,-0.36 3.658,-0.514 5.66,-0.462c1.95,0.051 4.055,0.244 6.314,0.577c2.258,0.334 4.414,0.68 6.468,1.04c1.796,0.308 3.798,0.616 6.006,0.924c2.207,0.308 4.543,0.539 7.007,0.693c3.388,0.154 6.198,-0.18 8.431,-1.001c2.233,-0.822 3.504,-2.131 3.812,-3.927c0.308,-1.694 -0.36,-3.17 -2.002,-4.428c-1.643,-1.257 -3.979,-1.886 -7.007,-1.886l-0.077,0c-2.156,0 -4.107,0.385 -5.852,1.155c-1.746,0.77 -3.055,1.694 -3.927,2.772c-0.257,0.359 -0.501,0.744 -0.732,1.155c-0.231,0.41 -0.372,0.744 -0.423,1.001c-0.154,0.667 -0.283,1.001 -0.385,1.001c-0.206,0 -0.257,-0.334 -0.154,-1.001c0.051,-0.308 0.179,-0.719 0.385,-1.232c0.205,-0.514 0.462,-0.976 0.77,-1.386c0.975,-1.284 2.348,-2.349 4.119,-3.196c1.771,-0.847 3.863,-1.27 6.276,-1.27c1.591,0 3.067,0.179 4.427,0.539c1.36,0.359 2.503,0.898 3.427,1.617c0.924,0.718 1.578,1.591 1.963,2.618c0.385,1.026 0.449,2.207 0.193,3.542c-0.206,1.078 -0.706,2.027 -1.502,2.849c-0.796,0.821 -1.809,1.488 -3.041,2.002c-1.232,0.513 -2.67,0.885 -4.312,1.116c-1.643,0.231 -3.388,0.321 -5.236,0.27c-0.411,-0.052 -0.745,-0.077 -1.001,-0.077c-0.257,0 -0.565,0.051 -0.924,0.154c-0.719,0.256 -1.605,0.795 -2.657,1.617c-1.052,0.821 -2.117,1.873 -3.195,3.157c-0.822,0.975 -1.54,1.899 -2.156,2.772c-0.616,0.872 -1.245,1.745 -1.887,2.618c-0.642,0.872 -1.335,1.758 -2.079,2.656c-0.744,0.899 -1.604,1.81 -2.579,2.734c-2.824,2.566 -5.852,4.581 -9.086,6.044c-3.234,1.463 -6.109,2.451 -8.624,2.965l0,0.077c0.41,0.051 1.039,0.115 1.886,0.192c0.847,0.077 1.81,0.154 2.888,0.231c1.078,0.077 2.258,0.141 3.542,0.193c1.283,0.051 2.592,0.077 3.927,0.077c3.285,-0.052 6.057,-0.334 8.316,-0.847c2.258,-0.514 4.491,-1.489 6.699,-2.926c0.616,-0.411 1.18,-0.834 1.694,-1.271c0.513,-0.436 0.975,-0.834 1.386,-1.193c0.1,-0.067 0.212,-0.146 0.335,-0.235c0.256,-0.231 0.516,-0.448 0.781,-0.651c0.436,-0.333 0.86,-0.654 1.271,-0.962c0.41,-0.257 0.962,-0.616 1.655,-1.078c0.693,-0.462 1.425,-0.899 2.195,-1.309c1.18,-0.668 2.335,-1.168 3.465,-1.502c1.129,-0.333 2.13,-0.552 3.003,-0.654c0.205,-0.052 0.423,-0.064 0.654,-0.039c0.231,0.026 0.398,0.141 0.501,0.347c0,0.102 -0.103,0.179 -0.308,0.231c-0.206,0.051 -0.385,0.128 -0.539,0.231c-1.746,0.821 -3.594,2.233 -5.544,4.235c-0.565,0.513 -1.091,1.078 -1.579,1.694c-0.488,0.616 -0.937,1.232 -1.347,1.848c-0.411,0.616 -0.758,1.219 -1.04,1.809c-0.282,0.591 -0.449,1.065 -0.5,1.425c-0.103,0.872 0.256,1.309 1.078,1.309c0.872,0 1.989,-0.449 3.349,-1.348c1.36,-0.898 2.631,-2.015 3.812,-3.349c0.051,-0.411 0.166,-0.886 0.346,-1.425c0.18,-0.539 0.526,-1.142 1.04,-1.809c0.41,-0.565 0.859,-1.014 1.347,-1.348c0.488,-0.333 0.86,-0.552 1.117,-0.654c0.102,-0.257 0.166,-0.591 0.192,-1.001c0.026,-0.411 0.039,-0.719 0.039,-0.924c-0.103,-0.411 -0.18,-0.68 -0.231,-0.809c-0.052,-0.128 0,-0.218 0.154,-0.269c0.102,-0.103 0.269,-0.09 0.5,0.038c0.231,0.129 0.424,0.27 0.578,0.424c0.77,0.667 1.078,1.565 0.924,2.695c-0.103,0.924 -0.565,1.925 -1.386,3.003c-0.822,1.078 -1.823,2.156 -3.003,3.234c0.154,0.102 0.372,0.141 0.654,0.115c0.282,-0.025 0.552,-0.064 0.809,-0.115c0.256,-0.052 0.616,-0.18 1.078,-0.385c0.462,-0.206 0.975,-0.514 1.54,-0.924c0.513,-0.36 0.988,-0.745 1.424,-1.155c0.436,-0.411 0.86,-0.77 1.271,-1.078c0.133,-0.133 0.275,-0.257 0.427,-0.371Zm-184.919,5.915c0.462,-0.308 0.924,-0.77 1.386,-1.386c0.462,-0.616 0.821,-1.207 1.078,-1.771c0.462,-1.078 0.705,-2.131 0.731,-3.157c0.026,-1.027 0.013,-2.079 -0.038,-3.157c0,-0.411 0.012,-0.783 0.038,-1.117c0.026,-0.333 0.193,-0.654 0.501,-0.962c0.205,-0.206 0.474,-0.385 0.808,-0.539c0.334,-0.154 0.68,-0.36 1.04,-0.616c0.513,-0.308 0.924,-0.655 1.232,-1.04c0.308,-0.385 0.025,-0.577 -0.847,-0.577c-0.257,0 -0.591,0.051 -1.001,0.154c-0.411,0.102 -0.822,0.333 -1.232,0.693c-0.257,0.154 -0.501,0.372 -0.732,0.654c-0.231,0.283 -0.398,0.501 -0.5,0.655c-0.873,0.77 -1.669,1.45 -2.387,2.04c-0.719,0.591 -1.438,1.142 -2.156,1.656c-0.616,0.41 -1.207,0.808 -1.771,1.193c-0.565,0.385 -1.053,0.706 -1.463,0.963c-0.308,0.308 -0.437,0.539 -0.385,0.693c0.102,0.154 0.359,0.102 0.77,-0.154c0.256,-0.103 0.68,-0.334 1.27,-0.693c0.59,-0.36 1.142,-0.745 1.656,-1.155c0.667,-0.514 1.347,-1.027 2.04,-1.54c0.693,-0.514 1.245,-0.976 1.656,-1.386l0,0.077c-0.206,0.256 -0.45,0.706 -0.732,1.347c-0.282,0.642 -0.577,1.348 -0.885,2.118c-0.308,0.77 -0.629,1.553 -0.963,2.348c-0.334,0.796 -0.68,1.476 -1.039,2.041c-0.873,1.488 -1.759,2.554 -2.657,3.195c-0.898,0.642 -1.732,0.963 -2.502,0.963c-0.719,0 -1.284,-0.167 -1.694,-0.501c-0.411,-0.333 -0.591,-0.808 -0.539,-1.424c0.051,-0.565 0.282,-1.04 0.693,-1.425c0.41,-0.385 0.77,-0.68 1.078,-0.885c0.975,-0.616 1.54,-1.258 1.694,-1.925c0.102,-0.36 0.051,-0.719 -0.154,-1.078c-0.206,-0.36 -0.591,-0.539 -1.155,-0.539c-0.924,-0.103 -1.797,0.256 -2.618,1.078c-0.822,0.821 -1.309,1.771 -1.463,2.849c-0.103,0.564 -0.103,1.116 0,1.655c0.102,0.539 0.32,1.027 0.654,1.463c0.334,0.437 0.821,0.796 1.463,1.078c0.642,0.283 1.476,0.424 2.503,0.424c1.18,0 2.374,-0.154 3.58,-0.462c1.206,-0.308 2.169,-0.616 2.888,-0.924c0.718,-0.308 1.488,-0.68 2.31,-1.117c0.821,-0.436 1.668,-0.937 2.541,-1.501c0.872,-0.565 1.681,-1.168 2.425,-1.81c0.744,-0.641 1.322,-1.142 1.733,-1.501c0.102,-0.103 0.256,-0.27 0.462,-0.501c0.205,-0.231 0.256,-0.398 0.154,-0.5c-0.103,-0.103 -0.257,-0.09 -0.462,0.038c-0.206,0.129 -0.385,0.27 -0.539,0.424c-0.514,0.41 -1.22,0.975 -2.118,1.694c-0.898,0.718 -1.886,1.411 -2.964,2.079c-0.616,0.41 -1.22,0.77 -1.81,1.078c-0.59,0.308 -1.116,0.564 -1.578,0.77l0,-0.077Zm-52.812,-4.417c-0.371,0.353 -0.811,0.76 -1.319,1.221c-0.822,0.745 -1.746,1.476 -2.772,2.195c-0.822,0.616 -1.836,1.283 -3.042,2.002c-1.206,0.718 -2.477,1.078 -3.811,1.078c-0.77,0 -1.374,-0.193 -1.81,-0.578c-0.436,-0.385 -0.603,-0.86 -0.5,-1.424c0.102,-0.873 0.5,-1.784 1.193,-2.734c0.693,-0.949 1.373,-1.835 2.041,-2.656c0.564,-0.719 1.116,-1.386 1.655,-2.002c0.539,-0.616 1.065,-1.207 1.579,-1.771c0.154,-0.206 0.256,-0.411 0.308,-0.616c0.051,-0.206 -0.026,-0.36 -0.231,-0.462c-0.206,-0.103 -0.527,-0.077 -0.963,0.077c-0.436,0.154 -0.783,0.282 -1.039,0.385c-0.719,0.359 -1.592,0.86 -2.618,1.501c-1.027,0.642 -2.156,1.45 -3.388,2.426c-0.873,0.667 -1.643,1.283 -2.31,1.848c-0.668,0.564 -1.335,1.116 -2.002,1.655c-0.668,0.539 -1.348,1.091 -2.041,1.656c-0.693,0.564 -1.45,1.18 -2.271,1.848c-0.616,0.462 -1.284,0.693 -2.002,0.693c-0.565,0 -0.95,-0.064 -1.155,-0.193c-0.206,-0.128 -0.154,-0.475 0.154,-1.039c0.821,-1.54 1.873,-3.26 3.157,-5.159c0.308,-0.411 0.654,-0.886 1.039,-1.425c0.385,-0.539 0.809,-1.091 1.271,-1.655l0,-0.077c-0.565,0.513 -1.117,1.014 -1.656,1.501c-0.539,0.488 -0.962,0.886 -1.27,1.194c-0.411,0.359 -0.693,0.436 -0.847,0.231c-0.103,-0.103 0.077,-0.385 0.539,-0.847c0.718,-0.616 1.488,-1.296 2.31,-2.041c0.821,-0.744 1.668,-1.476 2.541,-2.194c1.334,-1.746 2.784,-3.619 4.35,-5.621c1.566,-2.002 3.221,-3.979 4.967,-5.929c1.129,-1.284 2.502,-2.798 4.119,-4.543c1.617,-1.746 3.273,-3.491 4.967,-5.236c1.694,-1.746 3.323,-3.337 4.889,-4.774c1.566,-1.438 2.862,-2.516 3.889,-3.234c1.078,-0.77 2.156,-1.476 3.234,-2.118c1.078,-0.641 2.181,-0.962 3.311,-0.962c1.026,0 1.706,0.282 2.04,0.847c0.334,0.564 0.449,1.206 0.347,1.925c-0.154,0.924 -0.693,1.989 -1.617,3.195c-0.924,1.207 -2.118,2.516 -3.581,3.927c-1.463,1.412 -3.106,2.901 -4.928,4.466c-1.822,1.566 -3.709,3.144 -5.659,4.736c-2.362,1.95 -4.851,3.901 -7.469,5.852c-2.618,1.95 -5.365,4.183 -8.239,6.699c-0.308,0.359 -0.719,0.872 -1.232,1.54c-0.514,0.667 -1.053,1.411 -1.617,2.233c-0.565,0.821 -1.13,1.642 -1.694,2.464c-0.565,0.821 -1.078,1.565 -1.54,2.233l0.231,0.077c0.924,-0.77 1.925,-1.604 3.003,-2.503c1.078,-0.898 2.284,-1.861 3.619,-2.887c1.334,-1.027 2.772,-1.977 4.312,-2.849c1.54,-0.873 2.9,-1.309 4.081,-1.309c0.821,0 1.45,0.179 1.886,0.539c0.436,0.359 0.603,0.872 0.501,1.54c-0.103,0.718 -0.488,1.488 -1.155,2.31c-0.668,0.821 -1.309,1.617 -1.925,2.387c-1.284,1.54 -2.131,2.643 -2.541,3.311c-0.565,0.872 -0.668,1.437 -0.308,1.694c0.205,0.154 0.487,0.192 0.847,0.115c0.359,-0.077 0.693,-0.192 1.001,-0.346c0.462,-0.206 1.001,-0.514 1.617,-0.924c0.616,-0.411 1.309,-0.899 2.079,-1.463c0.872,-0.668 1.591,-1.258 2.156,-1.771c0.564,-0.514 1.078,-0.976 1.54,-1.386c0.067,-0.045 0.14,-0.096 0.218,-0.151c0.144,-0.121 0.289,-0.237 0.436,-0.35c0.436,-0.333 0.86,-0.654 1.271,-0.962c0.41,-0.257 0.962,-0.616 1.655,-1.078c0.693,-0.462 1.425,-0.899 2.195,-1.309c1.386,-0.719 2.759,-1.296 4.119,-1.733c1.36,-0.436 2.554,-0.577 3.581,-0.423c0.77,0.154 1.296,0.513 1.578,1.078c0.282,0.564 0.295,1.18 0.039,1.848l0.077,0c0.872,-0.976 1.655,-1.707 2.348,-2.195c0.693,-0.487 1.348,-0.731 1.964,-0.731c0.821,-0.052 1.296,0.025 1.424,0.231c0.128,0.205 -0.013,0.539 -0.423,1.001c-0.514,0.564 -1.155,1.296 -1.925,2.194c-0.77,0.899 -1.566,1.861 -2.387,2.888c-0.668,0.77 -1.194,1.437 -1.579,2.002c-0.385,0.564 -0.757,1.155 -1.116,1.771c-0.565,0.872 -0.642,1.463 -0.231,1.771c0.205,0.154 0.474,0.179 0.808,0.077c0.334,-0.103 0.655,-0.231 0.963,-0.385c0.41,-0.206 0.936,-0.526 1.578,-0.963c0.642,-0.436 1.271,-0.911 1.887,-1.424c0.821,-0.668 1.54,-1.258 2.156,-1.771c0.616,-0.514 1.129,-0.976 1.54,-1.386c0.205,-0.154 0.397,-0.308 0.577,-0.462c0.021,-0.018 0.041,-0.034 0.06,-0.048c0.658,-0.589 1.344,-1.202 2.058,-1.839c1.18,-1.052 2.13,-1.912 2.849,-2.579c-0.514,0 -0.95,0.013 -1.309,0.038c-0.36,0.026 -0.847,0.039 -1.463,0.039c-0.616,0.102 -0.899,-0.026 -0.847,-0.385c0.051,-0.206 0.744,-0.36 2.079,-0.462l1.078,0c0.308,0 0.667,-0.026 1.078,-0.077c1.18,-1.489 2.464,-2.978 3.85,-4.466c1.386,-1.489 2.515,-2.67 3.388,-3.542c0.718,-0.719 1.501,-1.425 2.348,-2.118c0.847,-0.693 1.681,-1.039 2.503,-1.039c0.41,0 0.68,0.051 0.808,0.154c0.128,0.102 0.244,0.205 0.347,0.308c-0.462,0.41 -1.143,1.091 -2.041,2.04c-0.898,0.95 -1.784,1.938 -2.656,2.965c-0.873,1.026 -1.682,1.976 -2.426,2.849c-0.744,0.872 -1.501,1.822 -2.271,2.849c0.872,-0.052 1.668,-0.077 2.387,-0.077l2.002,0c0.256,0 0.526,0.038 0.808,0.115c0.282,0.077 0.372,0.193 0.27,0.347c-0.103,0.256 -0.283,0.385 -0.539,0.385l-3.234,0c-0.668,0 -1.438,0.025 -2.31,0.077c-0.411,0.462 -0.86,1.039 -1.348,1.732c-0.488,0.693 -0.988,1.425 -1.501,2.195c-0.514,0.77 -1.001,1.553 -1.463,2.348c-0.462,0.796 -0.873,1.527 -1.232,2.195c-0.257,0.41 -0.398,0.834 -0.424,1.27c-0.026,0.437 0.116,0.757 0.424,0.963c0.256,0.154 0.551,0.179 0.885,0.077c0.334,-0.103 0.655,-0.231 0.963,-0.385c0.41,-0.257 0.936,-0.578 1.578,-0.963c0.642,-0.385 1.271,-0.834 1.887,-1.347c0.718,-0.565 1.411,-1.13 2.079,-1.694c0.667,-0.565 1.206,-1.053 1.617,-1.463c0.205,-0.154 0.397,-0.295 0.577,-0.424c0.18,-0.128 0.321,-0.141 0.424,-0.038c0.102,0.102 0.051,0.269 -0.154,0.5c-0.206,0.231 -0.36,0.398 -0.462,0.501c-0.462,0.462 -1.13,1.091 -2.002,1.886c-0.873,0.796 -1.746,1.502 -2.618,2.118c-0.36,0.308 -0.796,0.641 -1.309,1.001c-0.514,0.359 -1.078,0.693 -1.694,1.001c-0.616,0.308 -1.271,0.577 -1.964,0.808c-0.693,0.231 -1.399,0.347 -2.117,0.347c-0.873,0 -1.489,-0.218 -1.848,-0.655c-0.36,-0.436 -0.514,-0.937 -0.462,-1.501c0.102,-0.976 0.539,-2.118 1.309,-3.427c0.77,-1.309 1.719,-2.708 2.849,-4.196l0,-0.077c-0.565,0.564 -1.207,1.168 -1.925,1.809c-0.719,0.642 -1.284,1.142 -1.694,1.502c-0.107,0.106 -0.22,0.201 -0.339,0.283c-0.335,0.303 -0.723,0.645 -1.163,1.026c-0.95,0.821 -1.784,1.514 -2.502,2.079c-0.77,0.616 -1.746,1.283 -2.926,2.002c-1.181,0.718 -2.413,1.078 -3.696,1.078c-0.719,0 -1.258,-0.154 -1.617,-0.462c-0.36,-0.308 -0.565,-0.693 -0.616,-1.155c-0.052,-0.411 0.025,-0.873 0.231,-1.386c0.205,-0.514 0.487,-0.976 0.847,-1.386l-0.077,0c-0.514,0.462 -1.104,0.937 -1.771,1.424c-0.668,0.488 -1.374,0.95 -2.118,1.386c-0.744,0.437 -1.514,0.796 -2.31,1.078c-0.796,0.283 -1.553,0.449 -2.271,0.501c-0.873,0.051 -1.643,-0.129 -2.31,-0.539c-0.668,-0.411 -0.95,-1.258 -0.847,-2.541c0.102,-0.565 0.308,-1.194 0.616,-1.887c0.308,-0.693 0.821,-1.45 1.54,-2.271l-0.077,0l-0.693,0.693l-0.067,0.049Zm13.388,-6.363l-0.077,0c-0.719,0 -1.72,0.462 -3.003,1.386c-1.284,0.924 -2.618,2.079 -4.004,3.465c-1.489,1.437 -2.593,2.682 -3.311,3.734c-0.719,1.053 -1.053,1.835 -1.001,2.349c0.051,0.513 0.385,0.77 1.001,0.77c0.718,0 1.719,-0.36 3.003,-1.078c1.283,-0.719 2.438,-1.566 3.465,-2.541c0.616,-0.514 1.232,-1.104 1.848,-1.771c0.616,-0.668 1.18,-1.309 1.694,-1.925c0.513,-0.616 0.936,-1.194 1.27,-1.733c0.334,-0.539 0.501,-0.962 0.501,-1.27c0.051,-0.924 -0.411,-1.386 -1.386,-1.386Zm90.167,5.775c0.872,-0.719 1.758,-1.463 2.656,-2.233c0.898,-0.77 1.861,-1.617 2.888,-2.541c0.872,-0.719 1.745,-1.489 2.618,-2.31c0.872,-0.822 1.771,-1.669 2.695,-2.541c0.256,0.564 0.449,1.232 0.577,2.002c0.128,0.77 0.244,1.565 0.347,2.387c0.102,1.18 0.115,2.284 0.038,3.311c-0.077,1.026 -0.244,1.822 -0.5,2.387c-0.103,0.154 -0.244,0.372 -0.424,0.654c-0.18,0.283 -0.385,0.603 -0.616,0.963c-0.231,0.359 -0.462,0.731 -0.693,1.116c-0.231,0.385 -0.423,0.706 -0.577,0.963c-0.719,-0.103 -1.579,-0.308 -2.58,-0.616c-1.001,-0.308 -1.809,-0.591 -2.425,-0.847c-0.719,-0.36 -1.463,-0.77 -2.233,-1.232c-0.77,-0.462 -1.361,-0.924 -1.771,-1.386l0,-0.077Zm161.315,1.771c0.462,-0.77 1.116,-1.694 1.963,-2.772c0.847,-1.078 1.579,-1.9 2.195,-2.464c0.77,-0.719 1.437,-1.232 2.002,-1.54c0.564,-0.308 1.026,-0.488 1.386,-0.539c0.77,0 1.078,0.333 0.924,1.001c-0.052,0.564 -0.347,1.206 -0.886,1.925c-0.539,0.718 -1.296,1.411 -2.271,2.079c-0.822,0.564 -1.72,1.039 -2.695,1.424c-0.976,0.385 -1.848,0.706 -2.618,0.963l0,-0.077Zm-118.965,0c0.462,-0.77 1.116,-1.694 1.963,-2.772c0.847,-1.078 1.579,-1.9 2.195,-2.464c0.77,-0.719 1.437,-1.232 2.002,-1.54c0.564,-0.308 1.026,-0.488 1.386,-0.539c0.77,0 1.078,0.333 0.924,1.001c-0.052,0.564 -0.347,1.206 -0.886,1.925c-0.539,0.718 -1.296,1.411 -2.271,2.079c-0.822,0.564 -1.72,1.039 -2.695,1.424c-0.976,0.385 -1.848,0.706 -2.618,0.963l0,-0.077Zm-39.039,-17.171l-0.077,0c-1.027,0 -1.913,0.205 -2.657,0.616c-0.744,0.41 -1.386,0.937 -1.925,1.578c-0.539,0.642 -0.95,1.386 -1.232,2.233c-0.282,0.847 -0.449,1.733 -0.5,2.657c-0.052,0.821 0.012,1.617 0.192,2.387c0.18,0.77 0.398,1.488 0.655,2.156c0.256,0.667 0.539,1.27 0.847,1.809c0.308,0.539 0.59,0.963 0.847,1.271c0.77,-0.668 1.642,-1.399 2.618,-2.195c0.975,-0.795 1.976,-1.655 3.003,-2.579c1.848,-1.592 3.67,-3.26 5.467,-5.005c-0.77,-1.438 -1.771,-2.618 -3.003,-3.542c-1.232,-0.924 -2.644,-1.386 -4.235,-1.386Zm9.163,14.399c0.41,-0.668 1.001,-1.579 1.771,-2.734c0.77,-1.155 1.591,-2.361 2.464,-3.619c0.872,-1.257 1.758,-2.502 2.656,-3.734c0.898,-1.232 1.681,-2.285 2.349,-3.157c2.361,-3.08 4.568,-5.493 6.622,-7.238c2.053,-1.746 3.978,-3.055 5.775,-3.927l0,-0.077c-0.873,0.102 -1.977,0.398 -3.311,0.885c-1.335,0.488 -2.67,1.091 -4.004,1.81c-1.797,1.026 -3.594,2.258 -5.39,3.696c-1.797,1.437 -3.44,2.823 -4.928,4.158c-0.822,0.77 -1.643,1.565 -2.464,2.387c-0.822,0.821 -1.617,1.591 -2.387,2.31c0.205,0.41 0.397,1.065 0.577,1.963c0.18,0.899 0.321,1.887 0.424,2.965c0.102,1.488 0.025,2.926 -0.231,4.312l0.077,0Zm131.978,-6.545c1.54,-2.002 2.849,-3.683 3.927,-5.044c1.078,-1.36 2.053,-2.579 2.926,-3.657c0.872,-1.078 1.694,-2.079 2.464,-3.003c0.77,-0.924 1.591,-1.925 2.464,-3.003c2.002,-2.413 3.888,-4.53 5.659,-6.353c1.771,-1.822 3.298,-3.375 4.582,-4.658c0.821,-0.77 1.694,-1.476 2.618,-2.118c0.924,-0.641 1.719,-0.962 2.387,-0.962c0.924,0 1.36,0.487 1.309,1.463c-0.103,0.872 -0.565,1.873 -1.386,3.003c-0.822,1.129 -1.9,2.374 -3.234,3.734c-1.335,1.361 -2.862,2.824 -4.582,4.389c-1.72,1.566 -3.503,3.17 -5.351,4.813c-0.873,0.77 -1.733,1.501 -2.58,2.194c-0.847,0.693 -1.797,1.463 -2.849,2.31c-1.052,0.847 -2.246,1.823 -3.58,2.926c-1.335,1.104 -2.926,2.451 -4.774,4.043l0,-0.077Zm-261.415,0c1.026,-1.386 1.963,-2.618 2.81,-3.696c0.847,-1.078 1.694,-2.156 2.541,-3.234c0.847,-1.078 1.784,-2.22 2.811,-3.427c1.026,-1.206 2.233,-2.656 3.619,-4.35c2.002,-2.413 3.888,-4.53 5.659,-6.353c1.771,-1.822 3.298,-3.375 4.582,-4.658c0.821,-0.77 1.694,-1.476 2.618,-2.118c0.924,-0.641 1.719,-0.962 2.387,-0.962c0.924,0 1.36,0.487 1.309,1.463c-0.103,0.872 -0.565,1.873 -1.386,3.003c-0.822,1.129 -1.9,2.374 -3.234,3.734c-1.335,1.361 -2.862,2.824 -4.582,4.389c-1.72,1.566 -3.503,3.17 -5.351,4.813c-0.873,0.77 -1.733,1.501 -2.58,2.194c-0.847,0.693 -1.797,1.463 -2.849,2.31c-1.052,0.847 -2.246,1.823 -3.58,2.926c-1.335,1.104 -2.926,2.451 -4.774,4.043l0,-0.077Zm63.217,-12.012c0.564,0 0.924,0.154 1.078,0.462c0.154,0.308 -0.103,0.744 -0.77,1.309c-1.181,1.026 -2.323,2.002 -3.427,2.926c-1.104,0.924 -1.989,1.642 -2.656,2.156c-0.411,0.359 -0.668,0.487 -0.77,0.385c-0.103,-0.052 -0.116,-0.167 -0.039,-0.347c0.077,-0.179 0.167,-0.346 0.27,-0.5c0.513,-0.77 1.052,-1.604 1.617,-2.503c0.564,-0.898 1.078,-1.707 1.54,-2.425c0.256,-0.411 0.641,-0.757 1.155,-1.04c0.513,-0.282 1.155,-0.423 1.925,-0.423l0.077,0Zm-79.695,6.083c0.256,-0.873 0.564,-1.874 0.924,-3.003c0.359,-1.13 0.744,-2.131 1.155,-3.003c0.256,-0.565 0.641,-1.168 1.155,-1.81c0.513,-0.641 1.052,-0.962 1.617,-0.962c0.513,0 0.872,0.218 1.078,0.654c0.205,0.437 0.179,1.014 -0.077,1.733c-0.257,0.616 -0.642,1.232 -1.155,1.848c-0.514,0.616 -1.053,1.206 -1.617,1.771c-0.565,0.564 -1.13,1.091 -1.694,1.578c-0.565,0.488 -1.027,0.911 -1.386,1.271l0,-0.077Z" style="fill:#462876;"/><g></g></svg>